<svg id="svg" version="1.1" xmlns="http://www.w3.org/2000/svg" xmlns:xlink="http://www.w3.org/1999/xlink" width="400" height="400" viewBox="0, 0, 400,400"><g id="svgg"><path id="path0" d="M338.400 59.800 C 339.146 60.570,339.847 61.200,339.957 61.200 C 340.067 61.200,339.546 60.570,338.800 59.800 C 338.054 59.030,337.353 58.400,337.243 58.400 C 337.133 58.400,337.654 59.030,338.400 59.800 M280.656 105.468 C 278.016 105.915,274.709 109.039,237.718 146.031 L 199.175 184.573 160.487 145.917 C 118.854 104.316,120.277 105.600,115.783 105.600 C 109.307 105.600,104.800 109.736,104.800 115.679 C 104.800 120.258,103.182 118.461,144.958 160.297 C 166.101 181.470,183.446 199.110,183.503 199.497 C 183.571 199.966,170.736 213.059,145.023 238.751 C 116.552 267.198,106.225 277.760,105.620 279.047 C 104.754 280.890,104.489 285.000,105.153 286.305 C 105.348 286.687,105.736 287.490,106.015 288.089 C 106.728 289.617,108.778 291.703,110.200 292.349 C 110.860 292.648,111.713 293.052,112.095 293.247 C 113.515 293.969,118.221 293.653,120.062 292.711 C 121.245 292.106,134.102 279.556,160.323 253.411 C 181.510 232.285,198.933 214.918,199.039 214.817 C 199.146 214.716,216.640 232.016,237.916 253.260 C 280.274 295.555,278.089 293.600,283.000 293.600 C 287.809 293.600,291.508 290.968,293.094 286.418 C 293.690 284.707,293.756 281.344,293.200 281.000 C 292.980 280.864,292.800 280.386,292.800 279.938 C 292.800 278.391,290.934 276.447,252.644 238.100 L 214.202 199.600 252.644 161.100 C 293.423 120.261,292.402 121.346,293.131 118.056 C 294.744 110.781,288.210 104.188,280.656 105.468 " stroke="none" fill="#fcfbfb" fill-rule="evenodd"></path><path id="path1" d="M197.013 2.421 C 197.226 2.765,195.061 2.837,183.895 2.857 C 182.345 2.859,181.288 3.019,181.419 3.231 C 181.603 3.529,175.609 3.870,174.270 3.637 C 174.089 3.606,174.055 3.765,174.194 3.990 C 174.438 4.385,172.616 4.565,169.800 4.425 C 168.962 4.383,168.763 4.476,169.139 4.730 C 169.492 4.969,168.732 5.115,166.939 5.154 C 165.432 5.186,164.140 5.390,164.067 5.606 C 163.993 5.823,163.038 6.000,161.943 6.000 C 160.718 6.000,160.048 6.154,160.200 6.400 C 160.352 6.646,159.697 6.800,158.504 6.800 C 157.435 6.800,156.369 6.991,156.135 7.225 C 155.901 7.459,155.145 7.666,154.455 7.686 C 153.765 7.706,153.200 7.874,153.200 8.061 C 153.200 8.247,152.516 8.400,151.680 8.400 C 150.844 8.400,149.918 8.625,149.621 8.900 C 149.190 9.300,149.139 9.300,149.365 8.900 C 149.520 8.625,149.457 8.400,149.224 8.400 C 148.991 8.400,148.800 8.574,148.800 8.787 C 148.800 9.001,148.530 9.071,148.200 8.945 C 147.870 8.818,147.600 8.903,147.600 9.134 C 147.600 9.365,146.835 9.609,145.900 9.677 C 144.965 9.745,144.232 9.987,144.272 10.216 C 144.315 10.463,143.783 10.567,142.968 10.472 C 141.928 10.351,141.642 10.445,141.800 10.856 C 141.956 11.262,141.602 11.392,140.404 11.369 C 139.456 11.350,138.800 11.523,138.800 11.792 C 138.800 12.048,138.278 12.210,137.601 12.163 C 136.942 12.117,136.502 12.242,136.625 12.440 C 136.849 12.803,136.029 12.959,134.656 12.814 C 134.212 12.767,134.020 12.909,134.180 13.167 C 134.335 13.418,134.135 13.600,133.704 13.600 C 133.295 13.600,132.718 13.825,132.421 14.100 C 132.031 14.462,131.957 14.467,132.154 14.117 C 132.343 13.783,132.092 13.807,131.342 14.196 C 130.745 14.506,130.109 14.668,129.929 14.556 C 129.748 14.444,129.600 14.543,129.600 14.776 C 129.600 15.009,129.240 15.200,128.800 15.200 C 128.360 15.200,128.000 15.380,128.000 15.600 C 128.000 15.820,127.550 16.000,127.000 16.000 C 126.450 16.000,126.000 16.180,126.000 16.400 C 126.000 16.620,125.565 16.800,125.033 16.800 C 124.502 16.800,124.007 16.978,123.933 17.197 C 123.860 17.415,123.318 17.633,122.729 17.681 C 122.140 17.730,121.722 17.873,121.800 18.000 C 121.878 18.127,121.370 18.460,120.671 18.741 C 119.972 19.022,119.087 19.421,118.705 19.626 C 118.323 19.832,117.728 20.000,117.382 20.000 C 117.036 20.000,116.842 20.144,116.951 20.320 C 117.059 20.496,116.781 20.869,116.332 21.149 C 115.882 21.431,115.635 21.467,115.782 21.230 C 115.929 20.991,115.759 20.800,115.400 20.800 C 115.044 20.800,114.864 20.980,115.000 21.200 C 115.136 21.420,114.877 21.600,114.424 21.600 C 113.971 21.600,113.600 21.780,113.600 22.000 C 113.600 22.220,113.465 22.379,113.300 22.353 C 112.567 22.237,111.891 22.424,112.140 22.673 C 112.497 23.030,109.529 24.403,109.046 24.105 C 108.843 23.979,108.805 24.084,108.962 24.338 C 109.147 24.637,108.915 24.800,108.304 24.800 C 107.785 24.800,107.144 25.016,106.880 25.280 C 106.616 25.544,106.400 25.622,106.400 25.453 C 106.400 25.284,105.816 25.562,105.101 26.070 C 104.387 26.579,103.608 26.950,103.370 26.896 C 103.132 26.841,102.695 27.249,102.398 27.803 C 102.005 28.538,101.649 28.743,101.080 28.562 C 100.570 28.400,100.393 28.466,100.571 28.753 C 100.732 29.014,100.622 29.107,100.297 28.982 C 99.998 28.867,99.337 29.134,98.829 29.575 C 98.321 30.016,97.564 30.485,97.147 30.617 C 96.730 30.749,96.492 31.025,96.618 31.229 C 96.822 31.560,95.950 31.790,95.070 31.637 C 94.889 31.606,94.855 31.765,94.994 31.990 C 95.133 32.216,95.057 32.423,94.824 32.450 C 94.591 32.478,94.175 32.531,93.900 32.568 C 93.625 32.606,93.449 32.867,93.510 33.148 C 93.570 33.429,93.426 33.540,93.189 33.393 C 92.952 33.246,92.431 33.503,92.032 33.963 C 91.633 34.423,91.102 34.800,90.853 34.800 C 90.604 34.800,90.400 35.064,90.400 35.387 C 90.400 35.734,90.164 35.884,89.824 35.754 C 89.498 35.629,89.023 35.894,88.728 36.367 C 88.442 36.825,87.919 37.200,87.566 37.200 C 87.213 37.200,86.591 37.568,86.183 38.019 C 85.775 38.469,84.765 39.218,83.937 39.683 C 83.110 40.148,82.526 40.680,82.640 40.865 C 82.754 41.049,82.447 41.200,81.957 41.200 C 81.467 41.200,81.190 41.323,81.340 41.473 C 81.490 41.624,81.058 41.980,80.378 42.266 C 79.594 42.596,79.251 42.958,79.437 43.261 C 79.635 43.581,79.520 43.655,79.086 43.488 C 78.603 43.303,78.505 43.411,78.695 43.920 C 78.912 44.500,78.856 44.523,78.311 44.081 C 77.818 43.680,77.603 43.671,77.374 44.042 C 77.173 44.367,77.260 44.429,77.638 44.232 C 77.947 44.072,77.840 44.218,77.400 44.557 C 76.960 44.896,76.394 45.348,76.143 45.562 C 75.891 45.777,75.547 45.828,75.378 45.676 C 75.210 45.524,75.175 45.582,75.300 45.804 C 75.662 46.444,74.514 47.729,73.819 47.463 C 73.386 47.296,73.200 47.468,73.200 48.036 C 73.200 48.482,73.032 48.743,72.826 48.616 C 72.620 48.489,71.998 48.838,71.444 49.392 C 70.890 49.947,70.158 50.400,69.818 50.400 C 69.478 50.400,69.200 50.683,69.200 51.029 C 69.200 51.703,68.217 52.883,67.910 52.577 C 67.673 52.340,62.400 57.573,62.400 58.045 C 62.400 58.240,62.170 58.400,61.888 58.400 C 61.607 58.400,61.124 58.750,60.815 59.179 C 60.507 59.607,60.107 59.866,59.927 59.755 C 59.747 59.644,59.600 59.844,59.600 60.200 C 59.600 60.556,59.433 60.744,59.229 60.618 C 59.025 60.492,58.731 60.788,58.576 61.276 C 58.312 62.106,57.200 63.526,57.200 63.032 C 57.200 62.909,56.660 63.372,56.000 64.063 C 55.340 64.754,54.800 65.472,54.800 65.659 C 54.800 65.847,54.607 66.000,54.371 66.000 C 53.779 66.000,52.782 67.049,53.086 67.352 C 53.222 67.489,53.033 67.600,52.667 67.600 C 52.067 67.600,51.819 68.053,51.953 68.900 C 51.979 69.065,51.865 69.155,51.700 69.100 C 51.535 69.045,51.395 69.090,51.388 69.200 C 51.381 69.310,50.346 70.463,49.088 71.762 C 47.830 73.061,46.800 74.339,46.800 74.600 C 46.800 75.199,45.415 76.482,45.104 76.171 C 44.977 76.044,44.741 76.358,44.579 76.870 C 44.418 77.381,43.906 78.130,43.443 78.534 C 42.979 78.937,42.600 79.409,42.600 79.581 C 42.600 79.972,40.908 82.226,39.682 83.469 C 39.123 84.036,38.966 84.405,39.282 84.413 C 39.578 84.421,39.414 84.748,38.900 85.177 C 38.405 85.590,38.000 86.137,38.000 86.393 C 38.000 87.174,36.900 88.082,36.664 87.496 C 36.553 87.223,36.449 87.405,36.432 87.900 C 36.414 88.395,36.235 88.800,36.033 88.800 C 35.831 88.800,35.259 89.698,34.764 90.795 C 34.268 91.892,33.515 92.900,33.092 93.034 C 32.543 93.209,32.373 93.546,32.500 94.209 C 32.626 94.870,32.464 95.195,31.939 95.332 C 31.532 95.438,31.200 95.859,31.200 96.268 C 31.200 96.676,30.743 97.354,30.183 97.774 C 29.624 98.193,29.249 98.750,29.349 99.010 C 29.448 99.270,29.089 99.960,28.549 100.542 C 28.009 101.124,27.674 101.600,27.804 101.600 C 27.934 101.600,27.612 102.185,27.089 102.900 C 26.565 103.615,26.203 104.481,26.283 104.825 C 26.364 105.168,26.063 105.781,25.615 106.187 C 25.167 106.592,24.800 107.121,24.801 107.362 C 24.803 107.946,23.081 111.364,22.700 111.533 C 22.535 111.607,22.400 112.019,22.400 112.450 C 22.400 112.881,22.040 113.620,21.600 114.092 C 21.160 114.564,20.800 115.187,20.800 115.475 C 20.800 115.764,20.620 116.000,20.400 116.000 C 20.180 116.000,20.000 116.542,20.000 117.205 C 20.000 118.424,19.521 119.538,18.370 121.000 C 18.024 121.440,17.502 122.559,17.210 123.487 C 16.919 124.414,16.566 125.102,16.425 125.016 C 16.285 124.929,16.130 125.340,16.081 125.929 C 16.033 126.518,15.815 127.060,15.597 127.133 C 15.378 127.207,15.200 127.792,15.200 128.433 C 15.200 129.075,15.020 129.600,14.800 129.600 C 14.580 129.600,14.400 129.960,14.400 130.400 C 14.400 130.840,14.247 131.200,14.061 131.200 C 13.874 131.200,13.706 131.767,13.686 132.461 C 13.666 133.154,13.433 133.856,13.167 134.021 C 12.901 134.185,12.788 134.593,12.916 134.927 C 13.045 135.261,12.901 135.629,12.598 135.745 C 12.295 135.862,12.038 136.282,12.028 136.679 C 11.989 138.255,11.850 138.800,11.487 138.800 C 11.278 138.800,11.199 139.154,11.312 139.586 C 11.431 140.038,11.331 140.336,11.077 140.286 C 10.835 140.239,10.622 140.560,10.604 141.000 C 10.586 141.440,10.345 142.209,10.067 142.708 C 9.790 143.208,9.664 143.780,9.788 143.981 C 9.912 144.181,9.827 144.460,9.600 144.600 C 9.373 144.740,9.291 145.023,9.417 145.228 C 9.544 145.432,9.510 145.822,9.343 146.093 C 9.175 146.364,9.003 146.859,8.960 147.193 C 8.917 147.527,8.664 148.700,8.399 149.800 C 8.133 150.900,7.828 152.745,7.721 153.900 C 7.614 155.055,7.363 156.000,7.163 156.000 C 6.963 156.000,6.800 156.504,6.800 157.120 C 6.800 157.736,6.618 158.422,6.394 158.646 C 6.171 158.869,5.968 159.985,5.942 161.126 C 5.917 162.266,5.739 163.200,5.548 163.200 C 5.356 163.200,5.200 163.999,5.200 164.976 C 5.200 165.953,5.011 166.869,4.781 167.012 C 4.550 167.154,4.391 167.570,4.427 167.935 C 4.595 169.649,4.370 171.228,3.990 170.994 C 3.765 170.855,3.606 170.889,3.637 171.070 C 3.906 172.616,3.528 178.403,3.173 178.183 C 2.939 178.038,2.780 178.163,2.821 178.460 C 3.035 180.019,2.754 186.019,2.475 185.846 C 2.296 185.735,2.111 191.125,2.064 197.822 C 1.996 207.480,2.084 210.001,2.489 210.006 C 2.843 210.010,2.816 210.129,2.400 210.394 C 1.936 210.689,1.900 210.938,2.241 211.488 C 2.484 211.880,2.719 213.727,2.764 215.591 C 2.815 217.697,3.027 219.096,3.323 219.284 C 3.662 219.500,3.626 219.591,3.200 219.600 C 2.667 219.611,2.667 219.655,3.200 220.000 C 3.600 220.258,3.633 220.390,3.300 220.394 C 3.025 220.397,2.813 220.805,2.828 221.300 C 2.855 222.159,2.872 222.163,3.200 221.400 C 3.433 220.858,3.553 221.607,3.572 223.724 C 3.590 225.698,3.747 226.756,4.000 226.600 C 4.220 226.464,4.400 226.543,4.400 226.776 C 4.400 227.009,4.220 227.200,4.000 227.200 C 3.479 227.200,3.479 228.293,4.000 228.467 C 4.221 228.540,4.440 229.622,4.487 230.870 C 4.535 232.118,4.715 233.053,4.887 232.946 C 5.152 232.782,5.373 234.540,5.307 236.300 C 5.297 236.575,5.449 236.800,5.644 236.800 C 5.840 236.800,6.000 236.991,6.000 237.224 C 6.000 237.457,5.775 237.512,5.500 237.347 C 5.117 237.116,5.106 237.181,5.453 237.623 C 5.874 238.160,6.074 239.035,6.658 242.903 C 6.782 243.729,7.045 244.505,7.242 244.626 C 7.439 244.748,7.600 245.377,7.600 246.024 C 7.600 246.671,7.780 247.200,8.000 247.200 C 8.220 247.200,8.400 247.819,8.400 248.576 C 8.400 249.333,8.581 250.065,8.803 250.202 C 9.025 250.339,9.120 250.929,9.014 251.512 C 8.908 252.096,9.074 252.958,9.382 253.429 C 9.690 253.899,9.888 254.774,9.823 255.374 C 9.757 255.974,9.925 256.550,10.196 256.654 C 10.467 256.758,10.664 257.238,10.633 257.721 C 10.602 258.205,10.716 258.700,10.886 258.822 C 11.057 258.945,11.235 259.517,11.283 260.094 C 11.331 260.670,11.512 261.055,11.685 260.948 C 12.005 260.750,12.091 261.104,12.104 262.681 C 12.108 263.166,12.303 263.526,12.538 263.481 C 12.773 263.437,12.965 263.973,12.964 264.673 C 12.963 265.374,13.106 265.858,13.281 265.750 C 13.457 265.641,13.600 265.932,13.600 266.396 C 13.600 266.860,13.877 267.776,14.216 268.432 C 14.555 269.087,14.742 269.771,14.630 269.951 C 14.519 270.131,14.759 270.635,15.165 271.070 C 15.863 271.819,16.426 273.075,16.654 274.393 C 16.710 274.719,16.946 275.049,17.178 275.126 C 17.410 275.203,17.600 275.614,17.600 276.039 C 17.600 276.463,17.780 277.168,18.000 277.605 C 18.220 278.042,18.580 278.758,18.800 279.195 C 19.020 279.632,19.200 280.272,19.200 280.618 C 19.200 280.964,19.380 281.136,19.600 281.000 C 19.832 280.857,20.000 281.248,20.000 281.934 C 20.000 282.635,20.254 283.212,20.625 283.354 C 20.969 283.486,21.139 283.776,21.002 283.997 C 20.865 284.219,20.943 284.400,21.176 284.400 C 21.409 284.400,21.600 284.831,21.600 285.357 C 21.600 285.884,21.867 286.417,22.193 286.542 C 22.531 286.672,22.685 287.035,22.550 287.385 C 22.421 287.723,22.514 288.000,22.757 288.000 C 23.001 288.000,23.200 288.270,23.200 288.600 C 23.200 288.930,23.380 289.200,23.600 289.200 C 23.820 289.200,24.003 289.605,24.006 290.100 C 24.010 290.651,24.128 290.818,24.311 290.530 C 24.511 290.216,24.761 290.382,25.067 291.031 C 25.319 291.564,25.362 291.900,25.163 291.777 C 24.667 291.471,24.706 291.728,25.339 292.948 C 25.636 293.520,26.025 293.856,26.203 293.694 C 26.382 293.532,26.414 293.715,26.276 294.100 C 26.110 294.563,26.224 294.800,26.613 294.800 C 26.936 294.800,27.200 294.991,27.200 295.224 C 27.200 295.457,27.020 295.536,26.800 295.400 C 26.245 295.057,26.300 295.434,26.900 296.087 C 27.682 296.937,28.400 298.330,28.400 298.995 C 28.400 299.328,28.580 299.600,28.800 299.600 C 29.020 299.600,29.203 299.915,29.206 300.300 C 29.211 300.898,29.269 300.913,29.600 300.400 C 29.968 299.831,30.225 300.577,30.047 301.700 C 30.021 301.865,30.180 302.000,30.400 302.000 C 30.620 302.000,30.800 302.371,30.800 302.824 C 30.800 303.277,30.948 303.556,31.129 303.444 C 31.530 303.196,32.829 304.638,32.500 304.966 C 32.372 305.095,32.612 305.213,33.033 305.228 C 33.766 305.255,33.764 305.272,33.000 305.600 C 32.560 305.789,32.397 305.956,32.639 305.972 C 33.585 306.033,34.800 307.532,34.806 308.647 C 34.811 309.538,34.900 309.664,35.200 309.200 C 35.554 308.653,35.694 308.909,35.564 309.864 C 35.544 310.009,35.807 310.284,36.148 310.475 C 36.488 310.665,36.665 311.086,36.541 311.411 C 36.385 311.815,36.579 312.000,37.157 312.000 C 37.640 312.000,38.000 312.257,38.000 312.600 C 38.000 312.930,38.180 313.200,38.400 313.200 C 38.620 313.200,38.800 313.650,38.800 314.200 C 38.800 314.839,39.025 315.200,39.424 315.200 C 39.767 315.200,39.956 315.347,39.845 315.527 C 39.734 315.707,39.984 316.100,40.400 316.400 C 40.816 316.700,41.066 317.093,40.955 317.273 C 40.844 317.453,40.931 317.600,41.149 317.600 C 41.368 317.600,41.661 317.963,41.802 318.406 C 41.943 318.849,42.223 319.110,42.424 318.985 C 42.627 318.860,42.672 319.067,42.526 319.449 C 42.320 319.985,42.416 320.079,42.957 319.872 C 43.525 319.654,43.603 319.762,43.380 320.463 C 43.166 321.136,43.243 321.269,43.733 321.081 C 44.166 320.915,44.291 321.019,44.138 321.417 C 44.016 321.735,44.204 322.103,44.556 322.239 C 44.908 322.373,45.093 322.649,44.968 322.852 C 44.843 323.054,44.889 323.187,45.070 323.146 C 45.919 322.957,46.701 323.701,46.521 324.526 C 46.367 325.233,46.413 325.285,46.759 324.800 C 47.125 324.288,47.189 324.311,47.194 324.953 C 47.200 325.695,49.051 327.599,49.767 327.600 C 49.968 327.600,50.022 327.711,49.886 327.848 C 49.563 328.170,50.589 329.192,51.271 329.228 C 51.562 329.244,51.440 329.411,51.000 329.600 C 50.237 329.928,50.241 329.945,51.100 329.972 C 51.636 329.989,52.000 330.252,52.000 330.624 C 52.000 330.967,52.180 331.136,52.400 331.000 C 52.620 330.864,52.800 331.033,52.800 331.376 C 52.800 331.719,53.081 332.000,53.424 332.000 C 53.767 332.000,53.945 332.166,53.820 332.368 C 53.695 332.570,54.068 333.110,54.650 333.568 C 55.232 334.026,55.598 334.400,55.463 334.400 C 55.218 334.400,58.807 338.028,60.245 339.234 C 60.660 339.582,61.744 340.662,62.654 341.634 C 64.434 343.534,65.083 344.103,67.100 345.533 C 67.815 346.040,68.400 346.802,68.400 347.227 C 68.400 347.733,68.676 348.000,69.200 348.000 C 69.640 348.000,70.000 348.150,70.000 348.332 C 70.000 348.515,70.444 348.902,70.986 349.193 C 71.529 349.483,71.894 349.847,71.799 350.002 C 71.703 350.156,72.080 350.490,72.635 350.743 C 73.237 351.018,73.530 351.389,73.361 351.664 C 73.185 351.948,73.253 352.015,73.538 351.838 C 73.822 351.663,74.002 351.832,74.006 352.276 C 74.011 352.846,74.087 352.882,74.363 352.446 C 74.643 352.004,74.808 352.067,75.177 352.757 C 75.432 353.233,75.798 353.525,75.991 353.405 C 76.184 353.286,76.462 353.564,76.607 354.023 C 76.772 354.542,77.093 354.773,77.457 354.634 C 77.778 354.510,77.943 354.568,77.824 354.762 C 77.704 354.956,78.071 355.231,78.639 355.374 C 79.296 355.539,79.596 355.834,79.462 356.184 C 79.265 356.695,80.032 357.271,81.029 357.361 C 81.512 357.405,83.604 358.944,85.022 360.300 C 85.540 360.795,86.240 361.200,86.578 361.200 C 86.917 361.200,87.418 361.560,87.693 362.000 C 87.968 362.440,88.427 362.800,88.713 362.800 C 88.999 362.800,89.620 363.160,90.092 363.600 C 90.564 364.040,91.288 364.400,91.699 364.400 C 92.111 364.400,92.370 364.535,92.276 364.700 C 92.182 364.865,92.532 365.411,93.053 365.914 C 93.574 366.417,94.000 366.635,94.000 366.398 C 94.000 365.927,94.558 366.318,96.422 368.100 C 97.055 368.705,97.939 369.200,98.387 369.200 C 98.834 369.200,99.200 369.336,99.200 369.502 C 99.200 369.867,101.661 371.020,102.134 370.878 C 102.318 370.822,102.568 371.157,102.690 371.622 C 102.858 372.264,102.993 372.339,103.249 371.934 C 103.472 371.583,103.590 371.561,103.594 371.868 C 103.599 372.291,105.785 373.056,106.486 372.881 C 106.643 372.842,106.657 373.107,106.518 373.470 C 106.360 373.881,106.424 374.032,106.687 373.870 C 106.919 373.726,107.330 373.875,107.600 374.200 C 107.870 374.525,108.250 374.693,108.445 374.572 C 108.640 374.451,108.800 374.543,108.800 374.776 C 108.800 375.009,109.162 375.200,109.605 375.200 C 110.412 375.200,111.764 375.834,112.631 376.617 C 112.884 376.847,113.926 377.379,114.946 377.799 C 115.966 378.220,116.800 378.707,116.800 378.882 C 116.800 379.057,117.329 379.200,117.976 379.200 C 118.623 379.200,119.264 379.380,119.400 379.600 C 119.536 379.820,120.027 380.000,120.490 380.000 C 120.954 380.000,121.216 380.117,121.073 380.261 C 120.679 380.655,122.880 381.672,123.675 381.464 C 124.058 381.364,124.579 381.534,124.834 381.841 C 125.089 382.149,125.546 382.400,125.849 382.400 C 126.152 382.400,126.400 382.580,126.400 382.800 C 126.400 383.020,126.670 383.200,127.000 383.200 C 127.330 383.200,127.603 383.425,127.606 383.700 C 127.610 384.039,127.749 384.007,128.037 383.600 C 128.356 383.148,128.511 383.124,128.664 383.500 C 128.775 383.775,129.122 384.000,129.433 384.000 C 129.745 384.000,130.000 384.180,130.000 384.400 C 130.000 384.620,130.338 384.800,130.751 384.800 C 131.164 384.800,132.109 385.047,132.851 385.348 C 133.593 385.649,134.409 385.820,134.663 385.727 C 134.918 385.634,135.244 385.747,135.387 385.979 C 135.530 386.210,136.007 386.400,136.447 386.400 C 136.921 386.400,137.138 386.577,136.979 386.835 C 136.810 387.107,137.063 387.240,137.655 387.190 C 139.232 387.059,139.661 387.177,139.362 387.662 C 139.204 387.918,139.250 388.016,139.467 387.882 C 139.682 387.750,140.343 387.893,140.936 388.201 C 141.529 388.508,142.547 388.693,143.197 388.610 C 143.884 388.524,144.342 388.637,144.290 388.880 C 144.240 389.111,144.450 389.391,144.756 389.502 C 145.119 389.634,145.206 389.533,145.006 389.210 C 144.839 388.939,145.212 389.051,145.835 389.459 C 146.459 389.866,146.830 389.975,146.661 389.700 C 146.467 389.385,146.575 389.200,146.953 389.200 C 147.283 389.200,147.681 389.408,147.838 389.662 C 148.027 389.967,147.946 390.014,147.600 389.800 C 147.296 389.612,147.174 389.634,147.309 389.853 C 147.437 390.060,148.050 390.204,148.671 390.174 C 149.292 390.143,149.928 390.317,150.085 390.559 C 150.242 390.802,151.052 391.018,151.885 391.041 C 153.726 391.091,155.599 391.555,156.377 392.155 C 156.816 392.494,156.882 392.481,156.653 392.100 C 156.467 391.790,156.577 391.600,156.943 391.600 C 157.268 391.600,157.593 391.766,157.667 391.969 C 157.740 392.173,158.430 392.426,159.200 392.533 C 159.970 392.639,160.600 392.757,160.600 392.794 C 160.600 392.932,162.244 393.198,163.500 393.263 C 164.215 393.299,164.800 393.469,164.800 393.640 C 164.800 393.810,165.535 393.940,166.432 393.927 C 167.330 393.915,168.266 394.106,168.512 394.352 C 168.759 394.599,169.239 394.787,169.580 394.772 C 170.019 394.752,169.967 394.644,169.400 394.400 C 168.637 394.072,168.641 394.055,169.500 394.028 C 169.995 394.013,170.400 394.180,170.400 394.400 C 170.400 394.620,171.390 394.800,172.600 394.800 C 174.090 394.800,174.802 394.961,174.806 395.300 C 174.810 395.634,174.938 395.602,175.189 395.203 C 175.490 394.728,175.668 394.708,176.063 395.103 C 176.368 395.408,177.688 395.600,179.480 395.600 C 181.546 395.600,182.402 395.746,182.406 396.100 C 182.410 396.447,182.523 396.424,182.776 396.026 C 183.067 395.565,183.257 395.549,183.734 395.945 C 184.415 396.510,213.737 396.563,214.800 396.001 C 215.130 395.826,217.200 395.572,219.400 395.436 C 225.785 395.041,228.145 394.789,229.000 394.410 C 229.440 394.215,230.745 393.953,231.900 393.828 C 236.736 393.303,238.000 393.080,238.000 392.749 C 238.000 392.557,238.720 392.400,239.600 392.400 C 240.480 392.400,241.200 392.220,241.200 392.000 C 241.200 391.780,241.974 391.600,242.920 391.600 C 243.866 391.600,244.882 391.375,245.179 391.100 C 245.614 390.696,245.656 390.707,245.397 391.162 C 245.163 391.573,245.224 391.632,245.626 391.384 C 245.928 391.198,246.710 391.020,247.365 390.989 C 248.020 390.959,248.621 390.737,248.701 390.497 C 248.781 390.258,249.274 390.139,249.798 390.234 C 250.321 390.329,250.878 390.197,251.036 389.941 C 251.227 389.633,251.148 389.585,250.800 389.800 C 250.446 390.019,250.373 389.968,250.574 389.642 C 250.802 389.274,251.003 389.271,251.436 389.630 C 251.746 389.887,252.000 389.935,252.000 389.736 C 252.000 389.537,252.466 389.336,253.036 389.289 C 253.605 389.242,254.280 389.072,254.536 388.912 C 254.791 388.751,255.330 388.674,255.734 388.741 C 256.138 388.807,256.813 388.550,257.234 388.169 C 257.655 387.788,258.000 387.616,258.000 387.787 C 258.000 387.958,258.265 387.878,258.589 387.609 C 258.913 387.340,259.813 387.120,260.588 387.120 C 261.363 387.120,261.898 386.958,261.775 386.760 C 261.653 386.562,261.923 386.400,262.376 386.400 C 262.829 386.400,263.200 386.212,263.200 385.982 C 263.200 385.753,263.425 385.594,263.700 385.630 C 265.231 385.829,266.361 385.564,266.165 385.053 C 266.012 384.655,266.259 384.538,267.069 384.627 C 267.682 384.695,268.299 384.563,268.440 384.336 C 268.580 384.108,269.169 383.894,269.747 383.861 C 270.326 383.827,270.800 383.665,270.800 383.500 C 270.800 383.335,271.205 383.197,271.700 383.194 C 272.428 383.189,272.485 383.114,272.000 382.800 C 271.447 382.443,272.505 382.164,273.700 382.353 C 273.865 382.379,274.000 382.220,274.000 382.000 C 274.000 381.780,274.287 381.600,274.638 381.600 C 274.989 381.600,275.784 381.239,276.404 380.797 C 277.236 380.205,277.585 380.126,277.735 380.497 C 277.929 380.975,278.559 380.435,278.893 379.503 C 278.952 379.340,279.495 379.166,280.100 379.116 C 280.705 379.066,281.200 378.885,281.200 378.713 C 281.200 378.541,281.470 378.400,281.800 378.400 C 282.130 378.400,282.403 378.175,282.406 377.900 C 282.410 377.567,282.542 377.600,282.800 378.000 C 283.058 378.400,283.190 378.433,283.194 378.100 C 283.197 377.825,283.560 377.600,284.000 377.600 C 284.440 377.600,284.800 377.420,284.800 377.200 C 284.800 376.980,285.160 376.800,285.600 376.800 C 286.040 376.800,286.400 376.664,286.400 376.498 C 286.400 376.190,287.869 375.485,289.500 375.009 C 289.995 374.864,290.400 374.568,290.400 374.349 C 290.400 374.131,290.580 374.064,290.800 374.200 C 291.020 374.336,291.200 374.262,291.200 374.036 C 291.200 373.810,291.477 373.732,291.816 373.862 C 292.209 374.012,292.390 373.898,292.316 373.549 C 292.241 373.192,292.515 373.033,293.100 373.095 C 293.645 373.153,294.000 372.973,294.000 372.638 C 294.000 372.334,294.279 371.978,294.621 371.847 C 295.029 371.691,295.156 371.778,294.991 372.105 C 294.853 372.377,295.024 372.251,295.370 371.824 C 295.717 371.396,296.000 371.184,296.000 371.352 C 296.000 371.520,296.285 371.373,296.632 371.025 C 296.980 370.677,297.430 370.495,297.632 370.620 C 297.835 370.745,298.000 370.556,298.000 370.200 C 298.000 369.844,298.180 369.664,298.400 369.800 C 298.620 369.936,298.800 369.857,298.800 369.624 C 298.800 369.391,299.171 369.200,299.624 369.200 C 300.077 369.200,300.345 369.035,300.220 368.832 C 300.095 368.630,300.626 368.255,301.400 368.000 C 302.174 367.745,302.717 367.389,302.606 367.210 C 302.496 367.032,302.854 366.773,303.403 366.635 C 303.951 366.497,304.400 366.198,304.400 365.969 C 304.400 365.740,304.580 365.664,304.800 365.800 C 305.020 365.936,305.203 365.812,305.206 365.524 C 305.211 365.114,305.288 365.120,305.562 365.553 C 305.839 365.989,305.968 365.931,306.175 365.278 C 306.320 364.823,306.969 364.215,307.619 363.927 C 308.269 363.640,308.800 363.269,308.800 363.102 C 308.800 362.936,309.091 362.800,309.447 362.800 C 309.803 362.800,310.631 362.215,311.287 361.500 C 311.943 360.785,312.338 360.470,312.163 360.800 C 311.788 361.511,312.898 360.746,314.047 359.501 C 314.403 359.115,314.998 358.800,315.371 358.800 C 315.743 358.800,315.936 358.620,315.800 358.400 C 315.664 358.180,315.844 358.000,316.200 358.000 C 316.556 358.000,316.748 357.839,316.626 357.642 C 316.504 357.445,316.683 357.177,317.023 357.046 C 317.377 356.911,317.537 356.978,317.397 357.205 C 316.873 358.053,317.680 357.532,319.007 356.166 C 319.773 355.377,320.405 354.882,320.412 355.066 C 320.419 355.250,320.610 355.081,320.837 354.692 C 321.064 354.302,321.418 354.088,321.625 354.215 C 321.831 354.343,322.000 354.257,322.000 354.024 C 322.000 353.791,322.249 353.600,322.553 353.600 C 322.858 353.600,323.201 353.240,323.316 352.800 C 323.445 352.306,323.862 352.000,324.405 352.000 C 325.014 352.000,325.216 351.819,325.061 351.415 C 324.796 350.725,326.690 349.085,327.309 349.467 C 327.549 349.616,327.603 349.529,327.438 349.262 C 327.281 349.008,327.352 348.800,327.595 348.800 C 327.838 348.800,328.490 348.347,329.044 347.792 C 329.598 347.238,330.224 346.892,330.436 347.022 C 330.647 347.153,330.794 347.111,330.763 346.930 C 330.582 345.889,330.812 345.400,331.200 346.000 C 331.526 346.504,331.589 346.480,331.594 345.847 C 331.601 344.943,333.135 343.513,333.713 343.870 C 333.949 344.016,334.002 343.927,333.838 343.662 C 333.681 343.408,333.731 343.200,333.949 343.200 C 334.168 343.200,334.460 342.840,334.600 342.400 C 334.740 341.960,335.120 341.600,335.446 341.600 C 336.114 341.600,337.997 339.718,338.006 339.042 C 338.010 338.732,338.100 338.736,338.306 339.056 C 338.519 339.386,338.742 339.358,339.116 338.956 C 339.399 338.650,339.489 338.399,339.316 338.398 C 339.142 338.397,339.540 337.947,340.200 337.398 C 341.049 336.693,341.166 336.478,340.600 336.663 C 340.051 336.843,340.177 336.625,341.000 335.969 C 341.660 335.443,342.740 334.387,343.400 333.622 C 344.761 332.044,346.813 329.820,349.300 327.227 C 350.235 326.251,350.681 325.692,350.291 325.983 C 349.678 326.441,349.616 326.424,349.834 325.857 C 349.972 325.495,350.209 325.200,350.359 325.200 C 350.734 325.200,354.085 322.142,354.038 321.842 C 353.931 321.159,354.089 320.930,355.100 320.303 C 355.705 319.928,355.947 319.616,355.638 319.611 C 355.205 319.602,355.241 319.418,355.791 318.809 C 356.185 318.375,356.691 318.132,356.915 318.271 C 357.140 318.410,357.204 318.330,357.058 318.094 C 356.912 317.858,357.077 317.380,357.425 317.032 C 357.773 316.685,357.909 316.395,357.729 316.388 C 357.548 316.381,357.715 316.192,358.100 315.968 C 358.485 315.744,358.800 315.299,358.800 314.980 C 358.800 314.661,358.980 314.400,359.200 314.400 C 359.420 314.400,359.600 314.204,359.600 313.964 C 359.600 313.724,360.005 313.171,360.500 312.734 C 360.995 312.297,361.130 312.072,360.800 312.234 C 360.470 312.396,360.605 312.083,361.100 311.539 C 361.595 310.994,362.000 310.378,362.000 310.170 C 362.000 309.962,362.457 309.299,363.016 308.696 C 363.575 308.093,363.890 307.594,363.716 307.587 C 363.542 307.580,363.749 307.310,364.177 306.987 C 364.604 306.664,364.995 306.111,365.047 305.758 C 365.099 305.405,365.515 304.855,365.971 304.535 C 366.427 304.216,366.797 303.740,366.794 303.477 C 366.790 303.189,366.634 303.238,366.400 303.600 C 366.145 303.995,366.010 304.030,366.006 303.703 C 366.003 303.430,366.360 302.982,366.800 302.707 C 367.240 302.432,367.600 301.981,367.600 301.704 C 367.600 301.427,367.780 301.200,368.000 301.200 C 368.220 301.200,368.355 300.975,368.300 300.700 C 368.245 300.425,368.437 300.249,368.727 300.309 C 369.066 300.379,369.208 300.095,369.127 299.509 C 369.048 298.946,369.190 298.638,369.500 298.700 C 369.775 298.755,370.021 298.575,370.046 298.300 C 370.156 297.113,370.231 296.912,370.800 296.287 C 372.202 294.746,372.428 294.361,372.317 293.698 C 372.253 293.314,372.407 293.039,372.659 293.086 C 372.931 293.137,373.034 292.852,372.912 292.386 C 372.773 291.853,372.907 291.600,373.330 291.600 C 373.739 291.600,373.901 291.324,373.800 290.800 C 373.708 290.322,373.861 290.000,374.180 290.000 C 374.474 290.000,374.822 289.721,374.953 289.379 C 375.089 289.023,375.022 288.863,374.795 289.003 C 374.578 289.137,374.400 289.057,374.400 288.824 C 374.400 288.591,374.580 288.400,374.800 288.400 C 375.020 288.400,375.200 288.052,375.200 287.627 C 375.200 287.202,375.563 286.739,376.006 286.598 C 376.449 286.457,376.692 286.148,376.545 285.911 C 376.398 285.673,376.610 285.236,377.015 284.939 C 377.558 284.542,377.601 284.398,377.176 284.394 C 376.684 284.389,376.682 284.336,377.164 284.031 C 377.474 283.834,377.757 283.342,377.793 282.937 C 377.828 282.532,378.276 281.390,378.788 280.400 C 379.299 279.410,379.715 278.510,379.710 278.400 C 379.686 277.822,380.129 277.233,380.442 277.426 C 380.639 277.548,380.800 276.906,380.800 276.000 C 380.800 275.004,380.958 274.450,381.200 274.600 C 381.420 274.736,381.600 274.567,381.600 274.224 C 381.600 273.881,381.791 273.600,382.024 273.600 C 382.257 273.600,382.319 273.393,382.162 273.139 C 382.006 272.886,382.210 272.436,382.615 272.139 C 383.077 271.802,383.156 271.600,382.827 271.600 C 382.413 271.600,382.404 271.477,382.785 271.018 C 383.051 270.697,383.152 270.246,383.009 270.015 C 382.866 269.784,383.031 269.486,383.375 269.354 C 383.719 269.222,384.000 268.774,384.000 268.357 C 384.000 267.941,384.202 267.600,384.449 267.600 C 384.746 267.600,384.768 267.431,384.514 267.100 C 384.140 266.613,384.848 264.582,385.252 264.985 C 385.351 265.085,385.476 264.596,385.529 263.899 C 385.582 263.202,385.755 262.534,385.913 262.416 C 386.071 262.297,386.240 261.662,386.288 261.004 C 386.337 260.346,386.543 259.752,386.746 259.685 C 386.949 259.617,387.023 259.210,386.911 258.781 C 386.769 258.238,386.909 258.000,387.371 258.000 C 387.736 258.000,388.006 257.775,387.970 257.500 C 387.796 256.160,388.030 255.171,388.458 255.436 C 388.773 255.631,388.854 255.394,388.716 254.673 C 388.606 254.098,388.715 253.546,388.958 253.446 C 389.217 253.339,389.174 253.250,388.854 253.232 C 388.413 253.206,388.429 253.016,388.935 252.243 C 389.283 251.712,389.478 250.821,389.373 250.243 C 389.184 249.197,389.776 248.762,390.113 249.700 C 390.212 249.975,390.263 249.177,390.226 247.926 C 390.184 246.521,390.319 245.681,390.579 245.726 C 390.811 245.767,390.953 245.568,390.895 245.284 C 390.837 245.000,390.962 244.445,391.173 244.051 C 391.384 243.657,391.600 242.494,391.653 241.467 C 391.706 240.440,391.864 239.600,392.003 239.600 C 392.143 239.600,392.299 238.655,392.351 237.500 C 392.402 236.345,392.614 235.340,392.822 235.267 C 393.030 235.193,393.200 234.238,393.200 233.143 C 393.200 231.918,393.354 231.248,393.600 231.400 C 393.853 231.556,394.000 230.537,394.000 228.624 C 394.000 226.790,394.164 225.600,394.418 225.600 C 394.647 225.600,394.806 225.375,394.770 225.100 C 394.561 223.492,394.857 218.788,395.156 218.973 C 395.354 219.095,395.539 217.209,395.573 214.709 C 395.609 212.039,395.806 210.120,396.060 209.963 C 396.357 209.779,396.352 209.618,396.043 209.426 C 395.514 209.100,395.444 207.200,395.961 207.200 C 396.160 207.200,396.330 204.155,396.342 200.400 C 396.354 196.340,396.209 193.600,395.981 193.600 C 395.772 193.600,395.600 193.409,395.600 193.176 C 395.600 192.943,395.735 192.836,395.900 192.938 C 396.065 193.039,396.248 192.433,396.308 191.590 C 396.367 190.746,396.213 189.931,395.965 189.778 C 395.645 189.581,395.672 189.400,396.057 189.156 C 396.457 188.903,396.468 188.811,396.100 188.806 C 395.736 188.802,395.600 187.775,395.600 185.024 C 395.600 182.937,395.421 181.137,395.200 181.000 C 394.980 180.864,394.800 180.573,394.800 180.353 C 394.800 180.133,394.980 180.064,395.200 180.200 C 395.420 180.336,395.600 180.257,395.600 180.024 C 395.600 179.791,395.420 179.600,395.200 179.600 C 394.967 179.600,394.800 178.278,394.800 176.433 C 394.800 174.692,394.630 173.207,394.422 173.133 C 394.214 173.060,394.007 171.701,393.962 170.114 C 393.916 168.526,393.744 167.311,393.578 167.413 C 393.413 167.516,393.184 166.745,393.069 165.700 C 392.636 161.750,392.334 160.196,391.973 160.067 C 391.768 159.993,391.600 158.969,391.600 157.790 C 391.600 156.612,391.447 155.553,391.260 155.437 C 391.074 155.322,390.963 154.591,391.015 153.814 C 391.083 152.803,390.945 152.400,390.531 152.400 C 390.107 152.400,390.005 152.065,390.150 151.146 C 390.265 150.411,390.109 149.528,389.772 149.014 C 389.456 148.531,389.313 148.020,389.456 147.878 C 389.598 147.736,389.463 147.310,389.157 146.933 C 388.723 146.399,388.718 146.318,389.133 146.567 C 389.523 146.802,389.494 146.555,389.025 145.648 C 388.672 144.966,388.342 144.271,388.292 144.104 C 388.241 143.937,388.086 143.838,387.947 143.884 C 387.808 143.931,387.747 143.121,387.812 142.084 C 387.876 141.048,387.841 140.517,387.734 140.905 C 387.389 142.155,386.845 141.232,387.079 139.793 C 387.225 138.890,387.145 138.400,386.852 138.400 C 386.604 138.400,386.400 138.051,386.400 137.624 C 386.400 137.197,386.220 136.736,386.000 136.600 C 385.780 136.464,385.600 135.993,385.600 135.553 C 385.600 135.085,385.422 134.863,385.170 135.018 C 384.934 135.164,384.975 134.909,385.260 134.452 C 385.708 133.736,385.676 133.543,385.029 133.071 C 384.616 132.769,384.406 132.314,384.562 132.061 C 384.730 131.790,384.595 131.600,384.236 131.600 C 383.846 131.600,383.712 131.374,383.866 130.973 C 384.082 130.408,383.831 129.623,382.753 127.505 C 382.559 127.123,382.400 126.558,382.400 126.248 C 382.400 125.939,382.133 125.583,381.807 125.458 C 381.469 125.328,381.315 124.965,381.450 124.615 C 381.579 124.277,381.486 124.000,381.243 124.000 C 380.999 124.000,380.800 123.640,380.800 123.200 C 380.800 122.760,380.609 122.400,380.376 122.400 C 380.143 122.400,380.044 122.252,380.156 122.071 C 380.268 121.891,380.098 121.240,379.780 120.626 C 379.461 120.011,379.200 119.159,379.200 118.731 C 379.200 118.303,379.020 118.064,378.800 118.200 C 378.580 118.336,378.400 118.167,378.400 117.824 C 378.400 117.481,378.220 117.200,378.000 117.200 C 377.780 117.200,377.600 116.660,377.600 116.000 C 377.600 115.340,377.420 114.800,377.200 114.800 C 376.980 114.800,376.800 114.320,376.800 113.733 C 376.800 113.147,376.683 112.784,376.540 112.927 C 376.104 113.362,375.226 111.872,375.213 110.676 C 375.205 110.032,375.030 109.658,374.800 109.800 C 374.580 109.936,374.400 109.677,374.400 109.224 C 374.400 108.771,374.201 108.400,373.957 108.400 C 373.714 108.400,373.617 108.132,373.743 107.805 C 373.875 107.461,373.766 107.250,373.486 107.305 C 373.219 107.357,373.053 107.085,373.118 106.700 C 373.189 106.274,372.982 106.000,372.591 106.000 C 372.128 106.000,372.018 105.774,372.200 105.200 C 372.340 104.760,372.307 104.399,372.127 104.397 C 371.730 104.393,370.800 102.470,370.800 101.654 C 370.800 101.331,370.689 101.178,370.552 101.314 C 370.130 101.737,369.152 100.459,369.014 99.301 C 368.942 98.696,368.670 98.249,368.411 98.310 C 368.152 98.370,368.047 98.248,368.177 98.038 C 368.307 97.827,368.230 97.542,368.007 97.404 C 367.783 97.266,367.597 96.758,367.594 96.276 C 367.589 95.564,367.515 95.512,367.200 96.000 C 366.923 96.428,366.810 96.451,366.806 96.082 C 366.803 95.797,366.365 95.129,365.833 94.597 C 365.227 93.991,364.943 93.341,365.070 92.854 C 365.207 92.331,365.028 91.999,364.523 91.839 C 363.684 91.573,362.279 89.454,362.677 89.056 C 362.818 88.915,362.744 88.800,362.513 88.800 C 362.282 88.800,361.999 88.440,361.884 88.000 C 361.769 87.560,361.377 87.200,361.014 87.200 C 360.650 87.200,360.451 87.040,360.572 86.845 C 360.693 86.650,360.523 86.268,360.196 85.996 C 359.868 85.724,359.600 85.337,359.600 85.134 C 359.600 84.932,359.240 84.380,358.800 83.908 C 358.360 83.436,358.000 82.745,358.000 82.374 C 358.000 81.758,356.868 80.462,356.539 80.700 C 356.462 80.755,356.265 80.797,356.100 80.794 C 355.935 80.791,356.070 80.613,356.400 80.400 C 356.909 80.071,356.890 80.011,356.276 80.006 C 355.878 80.003,355.664 79.820,355.800 79.600 C 355.936 79.380,355.812 79.195,355.524 79.190 C 355.236 79.184,354.666 78.455,354.258 77.570 C 353.850 76.685,353.310 76.032,353.058 76.118 C 352.524 76.301,351.200 74.912,351.200 74.169 C 351.200 73.889,350.300 72.750,349.200 71.638 C 348.100 70.527,347.200 69.333,347.200 68.985 C 347.200 68.637,347.020 68.464,346.800 68.600 C 346.580 68.736,346.400 68.659,346.400 68.429 C 346.400 68.002,342.880 64.409,342.442 64.389 C 342.309 64.383,341.759 63.663,341.220 62.789 C 340.680 61.915,340.080 61.200,339.886 61.200 C 339.692 61.200,338.921 60.570,338.174 59.800 C 337.426 59.030,336.601 58.400,336.340 58.400 C 336.080 58.400,335.978 58.289,336.114 58.152 C 336.365 57.902,335.466 56.800,335.011 56.800 C 334.876 56.800,334.280 56.350,333.687 55.800 C 333.093 55.250,332.754 54.800,332.933 54.800 C 333.111 54.800,332.987 54.530,332.657 54.200 C 332.327 53.870,331.854 53.600,331.605 53.600 C 331.356 53.600,331.264 53.420,331.400 53.200 C 331.605 52.868,331.028 52.608,330.700 52.884 C 330.440 53.103,328.453 51.037,328.637 50.740 C 328.753 50.553,328.583 50.400,328.259 50.400 C 327.936 50.400,327.225 49.870,326.680 49.222 C 326.135 48.574,325.579 48.154,325.444 48.289 C 325.310 48.423,325.200 48.233,325.200 47.867 C 325.200 47.500,325.065 47.221,324.900 47.247 C 324.069 47.379,323.630 47.123,323.391 46.371 C 323.222 45.839,322.910 45.626,322.519 45.776 C 322.088 45.941,321.981 45.827,322.151 45.384 C 322.290 45.022,322.223 44.862,321.993 45.005 C 321.774 45.140,321.486 44.969,321.354 44.625 C 321.222 44.281,320.945 44.000,320.739 44.000 C 320.533 44.000,319.914 43.550,319.364 43.000 C 318.814 42.450,318.192 41.978,317.982 41.950 C 317.772 41.923,317.429 41.877,317.220 41.850 C 317.011 41.822,316.201 41.102,315.420 40.250 C 314.639 39.397,313.994 38.947,313.987 39.250 C 313.978 39.599,313.699 39.471,313.223 38.900 C 312.810 38.405,312.265 38.000,312.012 38.000 C 311.760 38.000,311.664 37.820,311.800 37.600 C 311.942 37.371,311.582 37.200,310.957 37.200 C 310.357 37.200,309.978 37.089,310.114 36.952 C 310.445 36.621,309.396 35.600,308.725 35.600 C 308.432 35.600,307.968 35.240,307.693 34.800 C 307.418 34.360,307.002 34.000,306.768 34.000 C 306.534 34.000,306.081 33.738,305.760 33.417 C 305.439 33.096,304.928 32.929,304.625 33.046 C 304.298 33.171,303.964 32.915,303.806 32.418 C 303.659 31.957,303.328 31.605,303.070 31.637 C 302.182 31.746,301.467 31.600,301.709 31.357 C 302.095 30.972,301.059 30.079,300.483 30.300 C 300.196 30.410,299.728 30.180,299.441 29.789 C 299.112 29.339,298.727 29.198,298.393 29.405 C 298.006 29.644,297.935 29.547,298.129 29.041 C 298.321 28.539,298.203 28.370,297.697 28.421 C 296.473 28.546,296.184 28.399,296.800 27.968 C 297.283 27.630,297.239 27.592,296.580 27.775 C 296.059 27.920,295.271 27.643,294.420 27.015 C 293.683 26.471,292.927 26.121,292.740 26.237 C 292.553 26.353,292.400 26.156,292.400 25.800 C 292.400 25.444,292.220 25.264,292.000 25.400 C 291.780 25.536,291.600 25.496,291.600 25.311 C 291.600 25.126,291.138 24.936,290.574 24.890 C 289.430 24.795,288.285 23.865,288.719 23.384 C 288.874 23.213,288.691 23.183,288.313 23.319 C 287.935 23.454,287.517 23.390,287.385 23.176 C 287.253 22.962,286.977 22.891,286.772 23.017 C 286.568 23.144,286.400 23.090,286.400 22.898 C 286.400 22.371,283.609 21.147,283.111 21.455 C 282.851 21.615,282.791 21.537,282.962 21.262 C 283.142 20.970,282.944 20.800,282.424 20.800 C 281.971 20.800,281.600 20.620,281.600 20.400 C 281.600 20.180,281.335 20.000,281.012 20.000 C 280.689 20.000,279.783 19.640,279.000 19.200 C 278.217 18.760,277.301 18.400,276.964 18.400 C 276.628 18.400,276.464 18.220,276.600 18.000 C 276.744 17.767,276.345 17.600,275.647 17.600 C 274.987 17.600,274.336 17.420,274.200 17.200 C 274.064 16.980,273.378 16.797,272.676 16.794 C 271.705 16.789,271.543 16.695,272.000 16.400 C 272.466 16.099,272.349 16.011,271.476 16.006 C 270.692 16.002,270.440 15.849,270.641 15.500 C 270.799 15.225,270.779 15.136,270.596 15.301 C 270.413 15.467,269.832 15.320,269.305 14.975 C 268.506 14.451,268.239 14.434,267.696 14.873 C 267.151 15.315,267.101 15.309,267.386 14.837 C 267.646 14.405,267.531 14.325,266.892 14.492 C 266.354 14.633,266.123 14.544,266.240 14.241 C 266.340 13.980,266.032 13.743,265.546 13.706 C 265.065 13.670,264.566 13.477,264.436 13.277 C 264.306 13.077,263.846 12.968,263.414 13.034 C 262.981 13.100,262.427 12.988,262.182 12.785 C 261.937 12.582,261.332 12.354,260.836 12.278 C 260.340 12.203,259.772 11.884,259.573 11.570 C 259.300 11.138,259.211 11.127,259.206 11.523 C 259.201 11.931,259.015 11.916,258.354 11.453 C 257.889 11.127,257.259 10.956,256.954 11.073 C 256.649 11.190,256.400 11.076,256.400 10.819 C 256.400 10.563,256.232 10.456,256.028 10.583 C 255.823 10.709,255.542 10.630,255.404 10.407 C 255.266 10.183,254.973 10.000,254.753 10.000 C 254.533 10.000,254.445 10.150,254.559 10.333 C 254.672 10.517,254.495 10.667,254.165 10.667 C 253.835 10.667,253.649 10.449,253.751 10.183 C 253.866 9.884,253.551 9.700,252.923 9.700 C 252.365 9.700,251.794 9.537,251.655 9.337 C 251.515 9.138,250.860 8.936,250.200 8.889 C 247.631 8.705,245.383 8.302,245.020 7.959 C 244.811 7.762,244.147 7.600,243.544 7.600 C 242.941 7.600,242.336 7.420,242.200 7.200 C 242.064 6.980,241.233 6.800,240.353 6.800 C 239.473 6.800,238.846 6.649,238.960 6.465 C 239.074 6.281,238.049 6.091,236.683 6.043 C 235.318 5.995,234.140 5.785,234.067 5.578 C 233.993 5.370,232.778 5.200,231.367 5.200 C 229.922 5.200,228.800 5.025,228.800 4.800 C 228.800 4.580,227.855 4.397,226.700 4.394 C 225.545 4.391,224.335 4.220,224.011 4.015 C 223.622 3.769,223.317 3.805,223.117 4.121 C 222.901 4.461,222.810 4.467,222.806 4.143 C 222.802 3.855,221.903 3.673,220.376 3.652 C 219.043 3.633,217.804 3.526,217.623 3.414 C 216.736 2.866,214.321 2.749,214.634 3.268 C 214.884 3.684,214.828 3.701,214.377 3.343 C 214.013 3.055,210.999 2.812,206.200 2.685 C 202.020 2.575,198.190 2.385,197.689 2.263 C 197.166 2.136,196.878 2.203,197.013 2.421 M118.705 104.753 C 119.087 104.948,119.940 105.347,120.600 105.642 C 121.260 105.936,137.944 122.292,157.675 141.988 C 177.407 161.685,194.809 179.042,196.346 180.561 L 199.142 183.321 203.408 179.161 C 205.754 176.872,209.322 173.311,211.337 171.247 C 213.351 169.182,217.042 165.492,219.538 163.047 C 222.034 160.601,225.724 156.907,227.738 154.838 C 229.752 152.769,233.449 149.079,235.952 146.638 C 238.456 144.197,242.146 140.506,244.152 138.436 C 246.159 136.366,250.023 132.496,252.740 129.836 C 255.457 127.176,259.147 123.487,260.940 121.639 C 269.508 112.804,276.357 106.311,277.800 105.653 C 278.460 105.353,279.313 104.948,279.695 104.753 C 280.077 104.559,281.564 104.400,283.000 104.400 C 284.436 104.400,285.923 104.559,286.305 104.753 C 286.687 104.948,287.492 105.336,288.093 105.617 C 289.831 106.429,291.802 108.542,292.747 110.606 C 293.047 111.263,293.452 112.113,293.647 112.495 C 294.133 113.450,294.094 119.495,293.600 119.800 C 293.380 119.936,293.200 120.397,293.200 120.824 C 293.200 121.251,293.020 121.600,292.800 121.600 C 292.580 121.600,292.400 121.804,292.400 122.054 C 292.400 122.304,275.116 139.797,253.991 160.927 C 232.866 182.058,215.638 199.513,215.705 199.716 C 215.773 199.920,233.019 217.302,254.030 238.343 C 281.884 266.238,292.477 277.095,293.140 278.426 C 294.131 280.416,294.457 286.503,293.617 287.343 C 293.388 287.572,293.200 288.019,293.200 288.335 C 293.200 289.155,289.139 293.180,288.300 293.191 C 287.915 293.196,287.600 293.380,287.600 293.600 C 287.600 293.820,287.161 294.000,286.624 294.000 C 286.087 294.000,285.536 294.180,285.400 294.400 C 285.067 294.939,282.191 294.907,280.428 294.344 C 276.627 293.130,275.627 292.192,237.628 254.183 C 216.633 233.182,199.336 216.000,199.191 216.000 C 199.046 216.000,181.753 233.169,160.763 254.152 C 124.785 290.121,120.700 294.000,118.811 294.000 C 118.391 294.000,117.936 294.180,117.800 294.400 C 117.664 294.620,116.674 294.800,115.600 294.800 C 114.526 294.800,113.536 294.620,113.400 294.400 C 113.264 294.180,112.623 294.000,111.976 294.000 C 111.329 294.000,110.800 293.820,110.800 293.600 C 110.800 293.380,110.517 293.200,110.171 293.200 C 109.826 293.200,109.305 292.975,109.013 292.700 C 108.722 292.425,107.925 291.752,107.242 291.204 C 106.559 290.657,106.000 289.982,106.000 289.704 C 106.000 289.427,105.820 289.200,105.600 289.200 C 105.380 289.200,105.200 288.840,105.200 288.400 C 105.200 287.960,105.020 287.600,104.800 287.600 C 104.580 287.600,104.400 287.071,104.400 286.424 C 104.400 285.777,104.220 285.136,104.000 285.000 C 103.192 284.501,103.638 281.394,104.948 278.400 C 105.404 277.359,111.735 270.697,119.538 263.048 C 122.034 260.602,125.724 256.907,127.738 254.838 C 129.752 252.769,133.449 249.079,135.952 246.638 C 138.456 244.197,142.146 240.507,144.152 238.439 C 148.464 233.992,149.853 232.603,154.843 227.738 C 156.909 225.724,160.601 222.034,163.047 219.538 C 165.492 217.042,169.182 213.350,171.247 211.333 C 177.445 205.277,182.334 200.203,182.471 199.685 C 182.542 199.417,165.300 181.873,144.156 160.698 C 119.070 135.577,105.506 121.714,105.118 120.800 C 103.619 117.272,103.148 114.326,104.000 113.800 C 104.220 113.664,104.400 113.101,104.400 112.548 C 104.400 111.309,106.470 108.227,107.923 107.303 C 108.516 106.927,109.090 106.524,109.200 106.409 C 109.706 105.880,111.264 105.200,111.971 105.200 C 112.401 105.200,112.864 105.020,113.000 104.800 C 113.305 104.306,117.754 104.269,118.705 104.753 " stroke="none" fill="#ec9c9c" fill-rule="evenodd"></path><path id="path2" d="M280.667 105.145 C 280.264 105.304,281.292 105.426,282.951 105.417 C 284.610 105.408,285.659 105.278,285.283 105.128 C 284.383 104.770,281.593 104.780,280.667 105.145 M114.300 105.489 C 115.015 105.578,116.185 105.578,116.900 105.489 C 117.615 105.401,117.030 105.328,115.600 105.328 C 114.170 105.328,113.585 105.401,114.300 105.489 M160.374 145.675 C 190.594 175.974,199.083 184.274,199.574 184.002 C 199.918 183.812,201.640 182.162,203.400 180.337 L 206.600 177.018 202.875 180.584 L 199.151 184.149 160.475 145.575 L 121.800 107.000 160.374 145.675 M266.995 116.500 L 260.600 123.000 267.100 116.605 C 273.139 110.663,273.781 110.000,273.495 110.000 C 273.438 110.000,270.513 112.925,266.995 116.500 M292.856 113.200 C 292.856 113.530,293.011 114.160,293.200 114.600 C 293.417 115.104,293.544 115.178,293.544 114.800 C 293.544 114.470,293.389 113.840,293.200 113.400 C 292.983 112.896,292.856 112.822,292.856 113.200 M104.493 115.600 C 104.493 116.370,104.575 116.685,104.676 116.300 C 104.776 115.915,104.776 115.285,104.676 114.900 C 104.575 114.515,104.493 114.830,104.493 115.600 M293.050 118.050 C 292.717 119.717,293.040 120.040,293.400 118.400 C 293.552 117.709,293.593 117.059,293.491 116.958 C 293.389 116.856,293.191 117.347,293.050 118.050 M106.800 122.234 C 106.800 122.436,124.125 139.881,145.300 161.001 L 183.800 199.400 145.400 160.816 C 124.280 139.595,106.955 122.150,106.900 122.050 C 106.845 121.949,106.800 122.032,106.800 122.234 M252.600 161.200 L 214.201 199.601 252.600 237.900 L 290.999 276.200 252.801 237.900 L 214.602 199.600 253.000 161.200 C 274.119 140.080,291.308 122.800,291.198 122.800 C 291.088 122.800,273.719 140.080,252.600 161.200 M249.795 133.700 L 243.400 140.200 249.900 133.805 C 255.939 127.863,256.581 127.200,256.295 127.200 C 256.238 127.200,253.313 130.125,249.795 133.700 M233.395 150.100 L 227.000 156.600 233.500 150.205 C 237.075 146.687,240.000 143.762,240.000 143.705 C 240.000 143.419,239.337 144.061,233.395 150.100 M216.596 166.900 L 209.800 173.800 216.700 167.004 C 220.495 163.267,223.600 160.162,223.600 160.104 C 223.600 159.819,222.909 160.490,216.596 166.900 M180.191 203.300 L 177.000 206.600 180.300 203.409 C 183.365 200.446,183.782 200.000,183.491 200.000 C 183.430 200.000,181.945 201.485,180.191 203.300 M166.596 216.900 L 159.800 223.800 166.700 217.004 C 173.110 210.691,173.781 210.000,173.496 210.000 C 173.438 210.000,170.333 213.105,166.596 216.900 M161.107 252.702 C 140.265 273.546,123.083 290.780,122.923 291.000 C 122.763 291.220,139.860 274.210,160.916 253.201 L 199.200 215.002 237.900 253.601 L 276.600 292.200 238.001 253.500 C 216.771 232.215,199.311 214.801,199.201 214.802 C 199.090 214.804,181.948 231.859,161.107 252.702 M149.795 233.700 L 143.400 240.200 149.900 233.805 C 153.475 230.287,156.400 227.362,156.400 227.305 C 156.400 227.019,155.737 227.661,149.795 233.700 M133.395 250.100 L 127.000 256.600 133.500 250.205 C 137.075 246.687,140.000 243.762,140.000 243.705 C 140.000 243.419,139.337 244.061,133.395 250.100 M116.596 266.900 L 109.800 273.800 116.700 267.004 C 120.495 263.267,123.600 260.162,123.600 260.104 C 123.600 259.819,122.909 260.490,116.596 266.900 M114.505 293.887 C 115.114 293.979,116.014 293.977,116.505 293.882 C 116.997 293.787,116.500 293.711,115.400 293.714 C 114.300 293.717,113.897 293.795,114.505 293.887 M282.105 293.887 C 282.714 293.979,283.614 293.977,284.105 293.882 C 284.597 293.787,284.100 293.711,283.000 293.714 C 281.900 293.717,281.497 293.795,282.105 293.887 " stroke="none" fill="#fcd4d4" fill-rule="evenodd"></path><path id="path3" d="M198.033 2.144 C 198.125 2.224,199.010 2.396,200.000 2.527 C 201.202 2.686,201.534 2.647,201.000 2.410 C 200.236 2.072,197.686 1.843,198.033 2.144 M294.400 26.967 C 294.400 27.052,295.030 27.493,295.800 27.947 C 296.570 28.401,297.200 28.632,297.200 28.461 C 297.200 28.289,296.570 27.848,295.800 27.481 C 295.030 27.113,294.400 26.882,294.400 26.967 M74.084 47.015 C 73.660 47.496,73.670 47.600,74.141 47.600 C 74.457 47.600,74.818 47.330,74.945 47.000 C 75.236 46.241,74.760 46.249,74.084 47.015 M329.208 51.748 C 329.754 52.269,330.277 52.627,330.371 52.544 C 330.586 52.352,328.942 50.800,328.525 50.800 C 328.356 50.800,328.663 51.227,329.208 51.748 M68.306 51.772 C 67.924 52.051,67.721 52.388,67.854 52.521 C 67.987 52.653,68.365 52.492,68.695 52.162 C 69.472 51.385,69.203 51.116,68.306 51.772 M46.432 74.369 C 46.414 74.681,46.092 75.311,45.715 75.769 C 45.069 76.553,45.083 76.551,45.962 75.742 C 46.475 75.270,46.797 74.640,46.679 74.342 C 46.504 73.903,46.457 73.908,46.432 74.369 M351.200 74.339 C 351.200 74.525,351.584 75.110,352.054 75.639 C 352.523 76.167,352.794 76.330,352.654 76.000 C 352.515 75.670,352.289 75.085,352.154 74.700 C 351.902 73.988,351.200 73.722,351.200 74.339 M356.645 81.412 C 357.010 81.969,357.386 82.347,357.482 82.251 C 357.719 82.014,356.684 80.400,356.295 80.400 C 356.122 80.400,356.280 80.856,356.645 81.412 M369.033 99.600 C 369.330 100.714,369.519 101.014,369.767 100.766 C 369.859 100.674,369.672 100.149,369.351 99.599 L 368.767 98.600 369.033 99.600 M113.063 104.700 C 112.961 104.865,114.193 105.000,115.801 105.000 C 117.408 105.000,118.640 104.865,118.538 104.700 C 118.436 104.535,117.204 104.400,115.800 104.400 C 114.396 104.400,113.164 104.535,113.063 104.700 M279.862 104.700 C 279.760 104.865,281.172 105.000,283.000 105.000 C 284.828 105.000,286.240 104.865,286.138 104.700 C 286.036 104.535,284.624 104.400,283.000 104.400 C 281.376 104.400,279.964 104.535,279.862 104.700 M287.768 105.724 C 288.191 105.986,289.262 106.830,290.148 107.600 C 291.454 108.735,291.612 108.801,290.982 107.950 C 290.205 106.901,287.883 105.179,287.306 105.224 C 287.138 105.236,287.346 105.461,287.768 105.724 M107.696 107.418 C 106.509 108.249,104.398 111.367,104.409 112.272 C 104.414 112.672,104.745 112.280,105.146 111.400 C 105.547 110.520,106.551 109.125,107.377 108.300 C 108.999 106.682,109.084 106.446,107.696 107.418 M269.800 112.752 C 262.950 119.513,258.172 124.400,258.413 124.400 C 258.520 124.400,262.384 120.620,267.000 116.000 C 271.616 111.380,275.304 107.604,275.196 107.610 C 275.088 107.615,272.660 109.929,269.800 112.752 M132.600 117.200 C 135.674 120.280,138.279 122.800,138.389 122.800 C 138.499 122.800,136.074 120.280,133.000 117.200 C 129.926 114.120,127.321 111.600,127.211 111.600 C 127.101 111.600,129.526 114.120,132.600 117.200 M293.228 112.676 C 293.318 113.715,293.944 114.596,293.972 113.724 C 293.987 113.242,293.820 112.736,293.600 112.600 C 293.380 112.464,293.213 112.498,293.228 112.676 M103.867 113.867 C 103.464 114.269,103.559 116.917,104.000 117.600 C 104.275 118.026,104.390 117.533,104.394 115.900 C 104.400 113.577,104.350 113.384,103.867 113.867 M19.600 118.002 C 19.600 118.296,19.312 118.856,18.959 119.245 C 18.606 119.635,18.396 120.189,18.492 120.477 C 18.589 120.765,18.991 120.319,19.386 119.486 C 19.781 118.653,19.991 117.858,19.852 117.719 C 19.714 117.580,19.600 117.707,19.600 118.002 M293.646 118.267 C 293.621 118.524,293.484 119.064,293.341 119.467 C 293.140 120.036,293.194 120.097,293.579 119.742 C 293.852 119.491,293.989 118.951,293.884 118.542 C 293.779 118.134,293.672 118.010,293.646 118.267 M105.222 121.000 C 105.227 121.529,106.342 122.991,106.569 122.765 C 106.666 122.668,106.402 122.141,105.982 121.594 C 105.561 121.047,105.220 120.780,105.222 121.000 M290.996 123.204 C 290.366 123.862,289.982 124.400,290.143 124.400 C 290.556 124.400,292.522 122.388,292.313 122.180 C 292.219 122.086,291.626 122.546,290.996 123.204 M253.000 129.556 C 250.360 132.160,246.761 135.800,245.003 137.645 C 243.244 139.490,245.449 137.402,249.903 133.004 C 254.356 128.606,258.000 124.961,258.000 124.904 C 258.000 124.651,257.537 125.081,253.000 129.556 M116.600 133.200 C 119.894 136.500,122.680 139.200,122.790 139.200 C 122.900 139.200,120.294 136.500,117.000 133.200 C 113.706 129.900,110.920 127.200,110.810 127.200 C 110.700 127.200,113.306 129.900,116.600 133.200 M282.065 132.263 C 279.350 135.013,277.199 137.333,277.284 137.418 C 277.369 137.503,279.768 135.239,282.614 132.386 C 285.460 129.534,287.611 127.214,287.394 127.232 C 287.177 127.249,284.779 129.514,282.065 132.263 M149.400 134.000 C 152.694 137.300,155.480 140.000,155.590 140.000 C 155.700 140.000,153.094 137.300,149.800 134.000 C 146.506 130.700,143.720 128.000,143.610 128.000 C 143.500 128.000,146.106 130.700,149.400 134.000 M236.200 146.354 C 233.780 148.736,230.181 152.376,228.202 154.443 C 226.224 156.509,228.249 154.602,232.702 150.204 C 237.156 145.806,240.800 142.161,240.800 142.104 C 240.800 141.852,240.361 142.257,236.200 146.354 M133.400 150.000 C 136.915 153.520,139.881 156.400,139.991 156.400 C 140.101 156.400,137.315 153.520,133.800 150.000 C 130.285 146.480,127.319 143.600,127.209 143.600 C 127.099 143.600,129.885 146.480,133.400 150.000 M265.665 148.663 C 262.950 151.413,260.799 153.733,260.884 153.818 C 260.969 153.903,263.368 151.639,266.214 148.786 C 269.060 145.934,271.211 143.614,270.994 143.632 C 270.777 143.649,268.379 145.914,265.665 148.663 M165.800 150.400 C 169.094 153.700,171.880 156.400,171.990 156.400 C 172.100 156.400,169.494 153.700,166.200 150.400 C 162.906 147.100,160.120 144.400,160.010 144.400 C 159.900 144.400,162.506 147.100,165.800 150.400 M6.910 155.200 C 6.943 155.640,7.112 156.000,7.285 156.000 C 7.458 156.000,7.600 155.640,7.600 155.200 C 7.600 154.760,7.431 154.400,7.225 154.400 C 7.019 154.400,6.877 154.760,6.910 155.200 M257.002 157.198 C 256.603 157.639,256.407 158.000,256.567 158.000 C 256.988 158.000,258.128 156.795,257.912 156.579 C 257.811 156.478,257.402 156.756,257.002 157.198 M216.381 166.211 C 212.102 170.506,208.517 174.151,208.415 174.311 C 208.313 174.470,211.868 171.002,216.315 166.604 C 220.762 162.206,224.400 158.561,224.400 158.504 C 224.400 158.199,223.536 159.029,216.381 166.211 M149.800 166.400 C 153.315 169.920,156.281 172.800,156.391 172.800 C 156.501 172.800,153.715 169.920,150.200 166.400 C 146.685 162.880,143.719 160.000,143.609 160.000 C 143.499 160.000,146.285 162.880,149.800 166.400 M248.465 165.863 C 245.750 168.613,243.599 170.933,243.684 171.018 C 243.769 171.103,246.168 168.839,249.014 165.986 C 251.860 163.134,254.011 160.814,253.794 160.832 C 253.577 160.849,251.179 163.114,248.465 165.863 M5.200 162.376 C 5.200 162.829,5.380 163.200,5.600 163.200 C 5.820 163.200,6.000 162.941,6.000 162.624 C 6.000 162.307,5.820 161.936,5.600 161.800 C 5.380 161.664,5.200 161.923,5.200 162.376 M182.600 167.200 C 185.674 170.280,188.279 172.800,188.389 172.800 C 188.499 172.800,186.074 170.280,183.000 167.200 C 179.926 164.120,177.321 161.600,177.211 161.600 C 177.101 161.600,179.526 164.120,182.600 167.200 M203.474 179.070 L 199.148 183.327 196.274 180.567 L 193.400 177.807 196.301 180.801 L 199.201 183.794 203.698 179.297 C 206.172 176.824,208.107 174.803,207.998 174.807 C 207.889 174.811,205.853 176.729,203.474 179.070 M166.600 183.200 C 169.894 186.500,172.680 189.200,172.790 189.200 C 172.900 189.200,170.294 186.500,167.000 183.200 C 163.706 179.900,160.920 177.200,160.810 177.200 C 160.700 177.200,163.306 179.900,166.600 183.200 M232.065 182.263 C 229.350 185.013,227.199 187.333,227.284 187.418 C 227.369 187.503,229.768 185.239,232.614 182.386 C 235.460 179.534,237.611 177.214,237.394 177.232 C 237.177 177.249,234.779 179.514,232.065 182.263 M179.934 196.441 C 182.430 199.033,182.784 199.568,182.331 200.072 C 182.039 200.397,180.181 202.359,178.203 204.431 L 174.606 208.200 179.000 203.900 L 183.394 199.601 180.201 196.500 L 177.007 193.400 179.934 196.441 M217.900 196.447 C 214.604 199.859,214.521 199.160,218.700 203.209 L 222.200 206.600 218.809 203.101 L 215.419 199.601 218.399 196.601 C 220.039 194.950,221.204 193.612,220.990 193.626 C 220.775 193.640,219.385 194.910,217.900 196.447 M395.600 208.176 C 395.600 209.583,396.184 209.741,396.284 208.361 C 396.330 207.722,396.195 207.200,395.984 207.200 C 395.773 207.200,395.600 207.639,395.600 208.176 M166.381 216.211 C 162.102 220.506,158.517 224.151,158.415 224.311 C 158.313 224.470,161.868 221.002,166.315 216.604 C 170.762 212.206,174.400 208.561,174.400 208.504 C 174.400 208.199,173.536 209.029,166.381 216.211 M2.108 212.420 C 2.077 212.840,2.182 213.265,2.342 213.364 C 2.503 213.464,2.660 213.201,2.692 212.780 C 2.723 212.360,2.618 211.935,2.458 211.836 C 2.297 211.736,2.140 211.999,2.108 212.420 M232.600 217.200 C 235.674 220.280,238.279 222.800,238.389 222.800 C 238.499 222.800,236.074 220.280,233.000 217.200 C 229.926 214.120,227.321 211.600,227.211 211.600 C 227.101 211.600,229.526 214.120,232.600 217.200 M196.100 218.224 C 194.725 219.633,193.600 220.920,193.600 221.082 C 193.600 221.245,194.861 220.128,196.401 218.599 L 199.202 215.819 202.901 219.410 L 206.600 223.000 203.008 219.300 C 198.770 214.934,199.238 215.007,196.100 218.224 M153.000 229.556 C 150.360 232.160,146.761 235.800,145.003 237.645 C 143.244 239.490,145.449 237.402,149.903 233.004 C 154.356 228.606,158.000 224.961,158.000 224.904 C 158.000 224.651,157.537 225.081,153.000 229.556 M182.065 232.263 C 179.350 235.013,177.199 237.333,177.284 237.418 C 177.369 237.503,179.768 235.239,182.614 232.386 C 185.460 229.534,187.611 227.214,187.394 227.232 C 187.177 227.249,184.779 229.514,182.065 232.263 M216.600 233.200 C 219.894 236.500,222.680 239.200,222.790 239.200 C 222.900 239.200,220.294 236.500,217.000 233.200 C 213.706 229.900,210.920 227.200,210.810 227.200 C 210.700 227.200,213.306 229.900,216.600 233.200 M249.400 234.000 C 252.694 237.300,255.480 240.000,255.590 240.000 C 255.700 240.000,253.094 237.300,249.800 234.000 C 246.506 230.700,243.720 228.000,243.610 228.000 C 243.500 228.000,246.106 230.700,249.400 234.000 M136.200 246.354 C 133.780 248.736,130.181 252.376,128.202 254.443 C 126.224 256.509,128.249 254.602,132.702 250.204 C 137.156 245.806,140.800 242.161,140.800 242.104 C 140.800 241.852,140.361 242.257,136.200 246.354 M165.665 248.663 C 162.950 251.413,160.799 253.733,160.884 253.818 C 160.969 253.903,163.368 251.639,166.214 248.786 C 169.060 245.934,171.211 243.614,170.994 243.632 C 170.777 243.649,168.379 245.914,165.665 248.663 M233.400 250.000 C 236.915 253.520,239.881 256.400,239.991 256.400 C 240.101 256.400,237.315 253.520,233.800 250.000 C 230.285 246.480,227.319 243.600,227.209 243.600 C 227.099 243.600,229.885 246.480,233.400 250.000 M265.800 250.400 C 269.094 253.700,271.880 256.400,271.990 256.400 C 272.100 256.400,269.494 253.700,266.200 250.400 C 262.906 247.100,260.120 244.400,260.010 244.400 C 259.900 244.400,262.506 247.100,265.800 250.400 M389.761 249.106 C 389.286 249.423,389.146 250.880,389.618 250.589 C 389.857 250.441,390.454 248.787,390.263 248.806 C 390.228 248.809,390.002 248.944,389.761 249.106 M388.818 252.366 C 388.573 252.825,388.539 253.200,388.743 253.200 C 389.154 253.200,389.722 251.988,389.442 251.708 C 389.344 251.611,389.064 251.907,388.818 252.366 M157.002 257.198 C 156.603 257.639,156.407 258.000,156.567 258.000 C 156.988 258.000,158.128 256.795,157.912 256.579 C 157.811 256.478,157.402 256.756,157.002 257.198 M116.381 266.211 C 112.102 270.506,108.517 274.151,108.415 274.311 C 108.313 274.470,111.868 271.002,116.315 266.604 C 120.762 262.206,124.400 258.561,124.400 258.504 C 124.400 258.199,123.536 259.029,116.381 266.211 M249.800 266.400 C 253.315 269.920,256.281 272.800,256.391 272.800 C 256.501 272.800,253.715 269.920,250.200 266.400 C 246.685 262.880,243.719 260.000,243.609 260.000 C 243.499 260.000,246.285 262.880,249.800 266.400 M148.465 265.863 C 145.750 268.613,143.599 270.933,143.684 271.018 C 143.769 271.103,146.168 268.839,149.014 265.986 C 151.860 263.134,154.011 260.814,153.794 260.832 C 153.577 260.849,151.179 263.114,148.465 265.863 M282.600 267.200 C 285.674 270.280,288.279 272.800,288.389 272.800 C 288.499 272.800,286.074 270.280,283.000 267.200 C 279.926 264.120,277.321 261.600,277.211 261.600 C 277.101 261.600,279.526 264.120,282.600 267.200 M132.867 281.448 C 129.274 285.089,126.402 288.136,126.486 288.220 C 126.570 288.304,129.667 285.319,133.367 281.586 C 137.067 277.854,139.938 274.807,139.747 274.815 C 139.556 274.823,136.460 277.808,132.867 281.448 M291.402 276.402 C 291.802 276.844,292.211 277.122,292.312 277.021 C 292.528 276.805,291.388 275.600,290.967 275.600 C 290.807 275.600,291.003 275.961,291.402 276.402 M104.854 278.423 C 104.094 280.140,104.512 280.293,105.322 278.595 C 105.688 277.828,105.854 277.200,105.691 277.200 C 105.528 277.200,105.152 277.750,104.854 278.423 M267.000 283.600 C 270.515 287.120,273.481 290.000,273.591 290.000 C 273.701 290.000,270.915 287.120,267.400 283.600 C 263.885 280.080,260.919 277.200,260.809 277.200 C 260.699 277.200,263.485 280.080,267.000 283.600 M103.843 281.433 C 103.459 282.433,103.560 284.728,104.000 285.000 C 104.248 285.153,104.400 284.404,104.400 283.024 C 104.400 280.730,104.263 280.338,103.843 281.433 M122.872 291.239 C 121.702 292.317,120.908 293.200,121.108 293.200 C 121.552 293.200,125.372 289.637,125.155 289.427 C 125.070 289.344,124.042 290.160,122.872 291.239 M106.000 289.817 C 106.000 290.098,107.182 291.269,108.200 291.995 C 108.640 292.308,108.380 291.898,107.622 291.083 C 106.243 289.600,106.000 289.410,106.000 289.817 M290.778 291.100 L 289.400 292.600 290.900 291.222 C 292.296 289.938,292.584 289.600,292.278 289.600 C 292.212 289.600,291.537 290.275,290.778 291.100 M276.224 292.587 C 276.651 292.910,277.180 293.175,277.400 293.175 C 277.620 293.175,277.451 292.910,277.024 292.587 C 276.596 292.264,276.067 292.000,275.847 292.000 C 275.627 292.000,275.796 292.264,276.224 292.587 M113.441 294.467 C 113.555 294.650,114.526 294.800,115.600 294.800 C 116.674 294.800,117.645 294.650,117.759 294.467 C 117.872 294.283,116.901 294.133,115.600 294.133 C 114.299 294.133,113.328 294.283,113.441 294.467 M280.857 294.444 C 281.570 294.895,285.091 294.900,285.369 294.450 C 285.488 294.257,284.399 294.100,282.950 294.100 C 281.326 294.100,280.523 294.232,280.857 294.444 M350.225 325.432 C 349.650 326.007,349.688 326.800,350.290 326.800 C 350.424 326.800,350.413 326.680,350.266 326.532 C 350.119 326.385,350.297 325.935,350.661 325.532 C 351.472 324.637,351.105 324.552,350.225 325.432 M344.475 332.384 C 343.282 333.998,343.368 334.395,344.600 332.962 C 345.482 331.936,345.848 331.200,345.475 331.200 C 345.407 331.200,344.957 331.733,344.475 332.384 M332.635 344.203 C 331.995 344.753,331.590 345.323,331.735 345.469 C 331.881 345.614,332.045 345.658,332.100 345.567 C 332.155 345.475,332.636 344.905,333.170 344.300 C 334.377 342.930,334.161 342.891,332.635 344.203 M66.000 345.001 C 66.000 345.274,66.569 345.859,67.702 346.749 C 68.111 347.071,68.400 347.123,68.400 346.876 C 68.400 346.644,67.860 346.070,67.200 345.600 C 66.540 345.130,66.000 344.861,66.000 345.001 M325.985 349.984 C 325.223 350.635,324.791 351.175,325.025 351.184 C 325.259 351.193,325.968 350.660,326.600 350.000 C 328.068 348.467,327.768 348.459,325.985 349.984 M104.571 372.753 C 104.934 373.340,106.382 373.554,106.664 373.062 C 106.809 372.808,106.791 372.724,106.623 372.874 C 106.455 373.025,105.876 372.981,105.336 372.776 C 104.796 372.570,104.452 372.560,104.571 372.753 M146.604 389.607 C 146.742 389.830,147.010 389.917,147.200 389.800 C 147.390 389.683,147.658 389.770,147.796 389.993 C 147.934 390.217,148.352 390.399,148.724 390.398 C 149.152 390.396,148.979 390.176,148.254 389.798 C 146.925 389.104,146.245 389.026,146.604 389.607 " stroke="none" fill="#f4a4a4" fill-rule="evenodd"></path><path id="path4" d="M114.500 105.087 C 115.105 105.178,116.095 105.178,116.700 105.087 C 117.305 104.995,116.810 104.920,115.600 104.920 C 114.390 104.920,113.895 104.995,114.500 105.087 M119.400 105.812 C 120.280 106.129,121.086 106.391,121.191 106.394 C 121.296 106.397,138.936 123.904,160.391 145.298 L 199.400 184.196 161.200 145.855 C 124.591 109.111,120.470 105.178,118.622 105.218 C 118.125 105.228,118.434 105.463,119.400 105.812 M277.178 106.357 C 276.200 106.994,258.300 124.678,237.400 145.656 L 199.400 183.798 238.000 145.317 C 267.907 115.501,277.005 106.653,278.400 106.026 C 279.390 105.582,279.920 105.214,279.578 105.209 C 279.236 105.204,278.156 105.721,277.178 106.357 M290.000 107.800 C 290.746 108.570,291.447 109.200,291.557 109.200 C 291.667 109.200,291.146 108.570,290.400 107.800 C 289.654 107.030,288.953 106.400,288.843 106.400 C 288.733 106.400,289.254 107.030,290.000 107.800 M292.330 111.182 C 292.698 112.051,293.056 112.604,293.124 112.409 C 293.250 112.049,292.113 109.600,291.819 109.600 C 291.731 109.600,291.961 110.312,292.330 111.182 M293.714 116.200 C 293.717 117.300,293.795 117.703,293.887 117.095 C 293.979 116.486,293.977 115.586,293.882 115.095 C 293.787 114.603,293.711 115.100,293.714 116.200 M144.998 161.099 L 183.396 199.598 144.498 238.504 C 123.104 259.902,105.600 277.501,105.600 277.614 C 105.600 277.875,183.367 200.091,183.500 199.695 C 183.555 199.532,166.275 182.119,145.100 160.999 L 106.600 122.600 144.998 161.099 M214.971 199.247 C 214.807 199.513,230.162 215.121,252.847 237.747 L 290.999 275.800 253.047 237.747 C 230.519 215.159,215.207 199.512,215.371 199.247 C 215.523 199.001,215.557 198.800,215.447 198.800 C 215.337 198.800,215.123 199.001,214.971 199.247 M198.850 215.300 C 198.950 215.355,216.395 232.680,237.616 253.800 L 276.200 292.200 237.801 253.700 C 216.681 232.525,199.236 215.200,199.034 215.200 C 198.832 215.200,198.749 215.245,198.850 215.300 M291.599 277.100 C 292.122 277.815,292.613 278.400,292.689 278.400 C 292.993 278.400,292.001 276.900,291.345 276.367 C 290.913 276.016,291.010 276.296,291.599 277.100 M293.731 283.400 C 293.733 284.940,293.805 285.521,293.892 284.691 C 293.979 283.861,293.977 282.601,293.889 281.891 C 293.800 281.181,293.729 281.860,293.731 283.400 M291.653 289.613 C 291.160 290.281,290.019 291.361,289.118 292.013 C 288.217 292.666,287.662 293.200,287.884 293.200 C 288.436 293.200,291.919 290.098,292.422 289.159 C 293.027 288.028,292.669 288.240,291.653 289.613 " stroke="none" fill="#f4cccc" fill-rule="evenodd"></path></g></svg>