<svg id="svg" version="1.1" xmlns="http://www.w3.org/2000/svg" xmlns:xlink="http://www.w3.org/1999/xlink" width="400" height="400" viewBox="0, 0, 400,400"><g id="svgg"><path id="path0" d="M290.630 126.934 C 283.387 134.230,277.387 140.425,277.297 140.700 C 277.207 140.975,276.967 141.200,276.764 141.200 C 276.288 141.200,271.600 145.953,271.600 146.435 C 271.600 146.636,271.465 146.803,271.300 146.806 C 270.750 146.818,268.400 149.098,268.400 149.619 C 268.400 149.902,268.288 150.021,268.151 149.885 C 267.923 149.656,266.778 150.760,263.906 153.975 C 263.305 154.649,262.707 155.200,262.578 155.200 C 262.449 155.200,262.073 155.470,261.743 155.800 C 261.413 156.130,261.270 156.400,261.426 156.400 C 261.582 156.400,261.023 156.946,260.183 157.613 C 258.368 159.056,257.521 160.176,257.914 160.612 C 258.071 160.786,257.986 160.806,257.725 160.656 C 257.463 160.506,257.064 160.702,256.837 161.092 C 256.610 161.481,256.419 161.652,256.412 161.471 C 256.399 161.114,255.200 162.199,255.200 162.568 C 255.200 162.919,252.722 165.200,252.341 165.200 C 252.153 165.200,251.982 165.785,251.960 166.500 C 251.922 167.732,251.903 167.747,251.600 166.800 C 251.294 165.844,251.278 165.857,251.240 167.075 C 251.205 168.202,251.050 168.368,249.900 168.514 C 249.185 168.604,259.085 168.661,271.900 168.639 C 293.063 168.604,296.270 168.701,294.700 169.335 C 294.370 169.468,294.413 169.548,294.825 169.568 C 295.169 169.586,295.962 169.066,296.586 168.414 C 297.211 167.762,297.920 167.341,298.161 167.478 C 298.403 167.616,298.467 167.581,298.303 167.401 C 297.898 166.953,298.789 165.946,299.307 166.266 C 299.536 166.408,299.612 166.343,299.475 166.122 C 299.210 165.692,300.926 164.000,301.627 164.000 C 301.858 164.000,301.912 163.775,301.747 163.500 C 301.533 163.145,301.638 163.155,302.107 163.536 C 302.687 164.006,302.747 163.965,302.600 163.200 C 302.459 162.469,302.528 162.408,303.025 162.821 C 303.506 163.220,303.577 163.204,303.397 162.737 C 303.113 161.997,304.979 160.216,305.622 160.614 C 305.920 160.798,306.039 160.716,305.933 160.399 C 305.709 159.726,309.647 155.710,310.316 155.929 C 310.600 156.022,310.780 155.851,310.716 155.549 C 310.652 155.247,310.825 155.045,311.100 155.100 C 311.375 155.155,311.555 154.975,311.500 154.700 C 311.445 154.425,311.625 154.245,311.900 154.300 C 312.175 154.355,312.355 154.190,312.300 153.933 C 312.245 153.676,312.604 153.255,313.098 152.997 C 313.591 152.739,313.876 152.410,313.731 152.264 C 313.586 152.119,313.797 152.000,314.200 152.000 C 314.603 152.000,314.809 151.876,314.658 151.724 C 314.301 151.367,317.626 147.969,318.066 148.241 C 318.250 148.354,318.400 148.156,318.400 147.800 C 318.400 147.444,318.580 147.264,318.800 147.400 C 319.020 147.536,319.200 147.337,319.200 146.957 C 319.200 146.577,319.319 146.386,319.464 146.531 C 319.610 146.676,319.939 146.391,320.197 145.898 C 320.455 145.404,320.876 145.045,321.133 145.100 C 321.390 145.155,321.555 144.975,321.500 144.700 C 321.445 144.425,321.607 144.239,321.860 144.287 C 322.113 144.334,322.431 143.929,322.568 143.387 C 322.704 142.844,323.092 142.400,323.431 142.400 C 323.770 142.400,323.970 142.265,323.876 142.100 C 323.651 141.705,325.448 139.981,325.759 140.293 C 325.892 140.425,326.000 140.237,326.000 139.874 C 326.000 139.510,326.435 139.106,326.973 138.971 C 327.596 138.815,327.869 138.523,327.731 138.163 C 327.612 137.853,327.714 137.600,327.957 137.600 C 328.868 137.600,328.333 136.708,326.043 134.411 C 324.747 133.111,323.787 131.946,323.910 131.824 C 324.033 131.701,323.823 131.600,323.443 131.600 C 323.063 131.600,322.830 131.465,322.924 131.300 C 323.087 131.014,321.148 128.892,320.913 129.100 C 320.851 129.155,320.803 129.107,320.807 128.993 C 320.822 128.576,318.991 126.911,318.700 127.076 C 318.535 127.170,318.400 126.967,318.400 126.624 C 318.400 126.281,318.232 126.000,318.026 126.000 C 317.820 126.000,315.121 123.480,312.028 120.400 C 308.935 117.320,306.507 114.800,306.631 114.800 C 306.755 114.800,306.587 114.530,306.257 114.200 C 304.829 112.772,304.103 113.363,290.630 126.934 M248.400 169.600 C 248.400 170.069,248.707 170.069,249.800 169.600 C 250.509 169.295,250.475 169.253,249.500 169.228 C 248.895 169.213,248.400 169.380,248.400 169.600 M87.400 237.600 C 84.767 240.240,82.703 242.400,82.813 242.400 C 82.923 242.400,85.167 240.240,87.800 237.600 C 90.433 234.960,92.497 232.800,92.387 232.800 C 92.277 232.800,90.033 234.960,87.400 237.600 M74.378 250.672 L 73.000 252.145 74.273 251.172 C 75.333 250.362,76.272 249.200,75.866 249.200 C 75.806 249.200,75.137 249.863,74.378 250.672 " stroke="none" fill="#4744dc" fill-rule="evenodd"></path><path id="path1" d="M259.600 205.800 C 259.083 206.350,258.774 206.800,258.912 206.800 C 259.050 206.800,259.614 206.350,260.164 205.800 C 260.714 205.250,261.023 204.800,260.852 204.800 C 260.680 204.800,260.117 205.250,259.600 205.800 M208.911 208.900 C 208.128 209.913,207.863 210.532,208.338 210.238 C 208.612 210.069,208.800 210.207,208.800 210.576 C 208.800 210.919,208.590 211.200,208.333 211.200 C 208.077 211.200,207.986 211.319,208.131 211.464 C 208.457 211.790,210.002 210.441,209.994 209.838 C 209.991 209.597,209.813 209.670,209.600 210.000 C 209.342 210.400,209.210 210.433,209.206 210.100 C 209.197 209.320,209.371 208.990,209.730 209.110 C 209.911 209.170,209.945 209.035,209.806 208.810 C 209.481 208.284,209.380 208.294,208.911 208.900 M255.802 209.598 C 255.403 210.039,254.862 210.400,254.600 210.400 C 253.963 210.400,252.728 211.794,253.066 212.132 C 253.213 212.280,253.033 212.400,252.667 212.400 C 252.300 212.400,252.000 212.550,252.000 212.733 C 252.000 213.657,252.633 213.315,254.641 211.307 C 255.851 210.097,256.770 209.037,256.685 208.951 C 256.599 208.865,256.202 209.156,255.802 209.598 M206.475 211.890 C 206.626 211.978,206.456 212.392,206.098 212.810 C 205.573 213.424,205.331 213.477,204.847 213.086 C 204.372 212.702,204.310 212.705,204.547 213.100 C 204.712 213.375,204.657 213.600,204.424 213.600 C 204.191 213.600,204.000 213.791,204.000 214.024 C 204.000 214.257,204.208 214.319,204.462 214.162 C 204.750 213.984,204.815 214.052,204.634 214.345 C 204.475 214.602,204.177 214.709,203.972 214.583 C 203.768 214.456,203.600 214.543,203.600 214.776 C 203.600 215.009,203.465 215.179,203.300 215.153 C 202.503 215.027,201.978 215.240,202.200 215.600 C 202.336 215.820,202.172 216.000,201.836 216.000 C 201.455 216.000,201.312 216.228,201.457 216.605 C 201.625 217.042,201.506 217.139,201.028 216.955 C 200.591 216.788,200.407 216.888,200.484 217.251 C 200.548 217.553,200.375 217.755,200.100 217.700 C 199.825 217.645,199.600 217.787,199.600 218.016 C 199.600 218.389,196.484 221.600,196.122 221.600 C 196.041 221.600,195.306 222.340,194.488 223.245 C 191.683 226.348,190.000 228.065,190.000 227.826 C 190.000 227.694,189.505 228.147,188.900 228.832 C 188.295 229.517,187.460 230.375,187.044 230.739 C 184.944 232.575,181.200 236.463,181.200 236.807 C 181.200 237.023,180.996 237.200,180.747 237.200 C 180.256 237.200,178.401 239.195,178.400 239.724 C 178.400 239.902,178.220 239.936,178.000 239.800 C 177.780 239.664,177.600 239.726,177.600 239.937 C 177.600 240.405,174.002 244.000,173.534 244.000 C 173.350 244.000,173.241 244.135,173.290 244.300 C 173.340 244.465,172.890 245.121,172.290 245.758 C 171.691 246.396,171.200 246.788,171.200 246.630 C 171.200 246.472,170.930 246.613,170.600 246.943 C 170.270 247.273,170.000 247.736,170.000 247.971 C 170.000 248.207,169.835 248.400,169.633 248.400 C 168.909 248.400,165.946 251.588,166.235 252.056 C 166.409 252.338,166.350 252.417,166.088 252.254 C 165.848 252.106,165.198 252.438,164.644 252.992 C 164.090 253.547,163.697 254.000,163.771 254.000 C 163.846 254.000,163.252 254.691,162.453 255.536 C 161.654 256.381,160.867 257.001,160.705 256.915 C 160.542 256.829,160.528 257.067,160.673 257.445 C 160.818 257.824,160.771 258.031,160.568 257.908 C 160.085 257.615,157.547 260.204,157.916 260.613 C 158.072 260.786,157.845 260.799,157.412 260.643 C 156.979 260.486,156.749 260.483,156.902 260.635 C 157.054 260.788,156.599 261.424,155.890 262.050 L 154.600 263.187 155.600 263.203 C 156.150 263.212,166.421 263.211,178.424 263.200 C 190.427 263.190,200.377 263.311,200.535 263.469 C 200.985 263.918,202.033 263.976,201.761 263.537 C 201.483 263.087,204.343 260.401,205.100 260.400 C 205.375 260.400,205.600 260.220,205.600 260.000 C 205.600 259.780,205.881 259.600,206.224 259.600 C 206.567 259.600,206.751 259.445,206.634 259.255 C 206.376 258.837,209.019 256.353,209.360 256.693 C 209.492 256.825,209.600 256.703,209.600 256.423 C 209.600 255.921,212.977 252.347,213.257 252.552 C 213.336 252.610,214.140 251.880,215.044 250.929 C 215.949 249.978,216.579 249.199,216.444 249.197 C 216.310 249.196,216.696 248.867,217.303 248.467 C 217.910 248.067,218.292 247.625,218.152 247.485 C 218.011 247.345,218.364 247.017,218.936 246.756 C 219.507 246.496,219.880 246.129,219.764 245.942 C 219.648 245.754,219.833 245.600,220.176 245.600 C 220.519 245.600,220.800 245.438,220.800 245.241 C 220.800 244.701,224.696 240.829,224.966 241.099 C 225.095 241.228,225.200 241.023,225.200 240.643 C 225.200 240.263,225.380 240.064,225.600 240.200 C 225.820 240.336,226.000 240.167,226.000 239.824 C 226.000 239.481,226.166 239.200,226.369 239.200 C 226.857 239.200,240.000 226.065,240.000 225.577 C 240.000 225.370,240.185 225.200,240.411 225.200 C 241.045 225.200,249.622 216.360,249.376 215.961 C 249.256 215.767,249.483 215.712,249.879 215.837 C 250.559 216.052,250.558 216.031,249.863 215.462 C 249.156 214.882,249.168 214.822,250.163 213.957 C 250.734 213.461,251.200 212.913,251.200 212.738 C 251.200 212.563,241.345 212.370,229.300 212.310 C 217.255 212.249,207.130 212.095,206.800 211.966 C 206.470 211.837,206.324 211.803,206.475 211.890 M250.661 213.932 C 250.021 214.640,250.131 215.200,250.909 215.200 C 251.116 215.200,251.186 214.939,251.063 214.620 C 250.915 214.233,251.033 214.115,251.420 214.263 C 251.778 214.401,252.000 214.240,252.000 213.843 C 252.000 212.994,251.479 213.029,250.661 213.932 M95.600 229.874 C 95.600 230.189,95.465 230.365,95.300 230.266 C 95.135 230.166,94.768 230.335,94.484 230.642 C 94.201 230.949,94.065 231.200,94.182 231.200 C 94.299 231.200,91.506 234.080,87.975 237.600 C 84.444 241.120,81.385 244.000,81.178 244.000 C 80.970 244.000,80.800 244.281,80.800 244.624 C 80.800 244.967,80.620 245.136,80.400 245.000 C 80.180 244.864,80.000 245.063,80.000 245.443 C 80.000 245.823,79.885 246.018,79.744 245.877 C 79.400 245.534,76.773 248.432,77.038 248.862 C 77.153 249.048,77.076 249.200,76.866 249.200 C 76.308 249.200,74.000 251.442,74.000 251.984 C 74.000 252.239,73.820 252.336,73.600 252.200 C 73.380 252.064,73.200 252.284,73.200 252.688 C 73.200 253.323,77.042 257.400,77.641 257.400 C 78.028 257.400,79.200 258.731,79.200 259.171 C 79.200 259.407,79.362 259.555,79.560 259.500 C 79.758 259.445,79.927 259.558,79.935 259.751 C 79.943 259.943,80.366 260.313,80.875 260.573 C 81.431 260.856,81.749 261.331,81.673 261.762 C 81.598 262.191,81.719 262.374,81.973 262.217 C 82.208 262.071,82.400 262.233,82.400 262.576 C 82.400 262.955,82.754 263.202,83.300 263.206 C 83.957 263.211,84.054 263.305,83.657 263.556 C 83.324 263.768,83.269 263.995,83.515 264.148 C 83.736 264.284,84.024 264.114,84.156 263.770 C 84.354 263.255,84.602 263.344,85.567 264.273 C 86.568 265.237,86.652 265.467,86.145 265.862 C 85.809 266.124,85.717 266.425,85.934 266.559 C 86.144 266.689,86.424 266.515,86.555 266.172 C 86.687 265.830,86.959 265.651,87.160 265.775 C 87.361 265.899,87.433 265.647,87.320 265.215 C 87.207 264.782,86.908 264.467,86.657 264.514 C 86.406 264.561,86.249 264.362,86.310 264.070 C 86.370 263.779,86.235 263.655,86.010 263.794 C 85.784 263.933,85.600 263.848,85.600 263.605 C 85.600 263.285,91.979 263.195,108.580 263.281 C 121.219 263.346,131.414 263.254,131.235 263.075 C 131.056 262.896,130.346 262.734,129.656 262.714 C 128.652 262.685,128.492 262.571,128.850 262.139 C 129.194 261.725,129.150 261.600,128.662 261.600 C 128.248 261.600,128.109 261.381,128.266 260.972 C 128.520 260.310,126.002 257.600,125.132 257.600 C 124.876 257.600,124.776 257.491,124.910 257.357 C 125.043 257.224,124.272 256.234,123.195 255.157 C 122.119 254.081,121.327 253.200,121.435 253.200 C 121.543 253.200,121.399 252.947,121.116 252.638 C 120.832 252.329,120.427 252.104,120.215 252.138 C 120.003 252.172,119.645 251.795,119.420 251.300 C 119.195 250.805,118.772 250.400,118.482 250.400 C 118.191 250.400,118.064 250.220,118.200 250.000 C 118.336 249.780,118.167 249.600,117.824 249.600 C 117.481 249.600,117.200 249.430,117.200 249.221 C 117.200 249.013,115.835 247.528,114.168 245.921 C 110.337 242.231,107.769 239.663,104.079 235.832 C 102.472 234.165,100.987 232.800,100.779 232.800 C 100.570 232.800,100.400 232.607,100.400 232.371 C 100.400 231.788,99.370 230.800,98.762 230.800 C 98.490 230.800,98.378 230.689,98.514 230.552 C 98.961 230.106,97.780 229.300,96.679 229.300 C 96.009 229.300,95.600 229.517,95.600 229.874 " stroke="none" fill="#7044e4" fill-rule="evenodd"></path><path id="path2" d="M315.992 149.808 C 315.025 150.794,314.368 151.600,314.532 151.600 C 314.954 151.600,318.136 148.402,317.924 148.191 C 317.828 148.095,316.959 148.823,315.992 149.808 M303.894 161.561 C 303.341 162.218,302.764 162.631,302.611 162.478 C 302.458 162.325,302.393 162.470,302.467 162.800 C 302.540 163.132,302.364 163.351,302.070 163.290 C 301.779 163.230,301.655 163.365,301.794 163.590 C 301.933 163.816,301.858 164.000,301.627 164.000 C 300.904 164.000,299.215 165.698,299.478 166.160 C 299.616 166.402,299.581 166.467,299.401 166.303 C 298.953 165.898,297.946 166.789,298.266 167.307 C 298.408 167.536,298.343 167.612,298.123 167.476 C 297.903 167.340,297.211 167.762,296.586 168.414 C 295.962 169.066,295.169 169.597,294.825 169.594 C 294.284 169.589,294.279 169.537,294.788 169.216 C 295.771 168.594,295.735 168.594,271.800 168.805 C 259.040 168.918,249.035 169.053,249.567 169.105 C 251.207 169.266,250.093 169.734,247.500 169.972 C 247.335 169.988,247.200 170.281,247.200 170.624 C 247.200 170.967,247.020 171.136,246.800 171.000 C 246.580 170.864,246.400 171.044,246.400 171.400 C 246.400 171.756,246.220 171.936,246.000 171.800 C 245.780 171.664,245.600 171.732,245.600 171.950 C 245.600 172.413,241.296 176.800,240.842 176.800 C 240.673 176.800,240.298 177.244,240.007 177.786 C 239.717 178.329,239.340 178.686,239.169 178.581 C 238.998 178.475,238.743 178.751,238.602 179.194 C 238.461 179.637,238.078 180.000,237.749 180.000 C 237.421 180.000,237.264 180.180,237.400 180.400 C 237.536 180.620,237.495 180.800,237.310 180.800 C 236.894 180.800,228.444 189.111,228.650 189.317 C 228.732 189.399,228.349 189.706,227.799 190.000 C 227.250 190.294,226.800 190.669,226.800 190.833 C 226.800 191.274,222.429 195.600,221.983 195.600 C 221.772 195.600,221.600 195.881,221.600 196.224 C 221.600 196.567,221.420 196.736,221.200 196.600 C 220.980 196.464,220.800 196.644,220.800 197.000 C 220.800 197.356,220.620 197.536,220.400 197.400 C 220.180 197.264,220.000 197.351,220.000 197.592 C 220.000 198.008,218.488 199.565,215.099 202.639 C 214.273 203.387,213.823 204.011,214.099 204.025 C 214.374 204.039,214.195 204.213,213.700 204.412 C 213.205 204.611,212.800 204.971,212.800 205.211 C 212.800 205.451,212.620 205.536,212.400 205.400 C 212.180 205.264,212.000 205.534,212.000 206.000 C 212.000 206.466,211.852 206.756,211.671 206.644 C 211.491 206.532,211.042 206.792,210.675 207.220 C 210.308 207.649,210.136 208.000,210.293 208.000 C 210.450 208.000,210.185 208.275,209.706 208.611 C 209.173 208.984,208.926 209.464,209.072 209.844 C 209.265 210.347,209.376 210.365,209.650 209.934 C 209.838 209.636,209.990 209.593,209.994 209.838 C 210.002 210.441,208.457 211.790,208.131 211.464 C 207.986 211.319,208.077 211.200,208.333 211.200 C 208.590 211.200,208.800 210.930,208.800 210.600 C 208.800 210.270,208.588 210.045,208.328 210.100 C 207.555 210.264,206.425 211.318,206.644 211.671 C 206.756 211.852,206.447 212.000,205.957 212.000 C 205.467 212.000,205.184 212.117,205.327 212.260 C 205.470 212.404,205.275 212.752,204.894 213.035 C 204.241 213.519,204.244 213.543,204.932 213.447 C 205.335 213.390,205.802 213.120,205.971 212.846 C 206.278 212.350,250.667 212.134,251.160 212.626 C 251.271 212.737,250.864 213.289,250.257 213.852 C 249.214 214.819,249.193 214.906,249.875 215.406 C 250.755 216.049,251.092 215.834,250.438 215.045 C 250.136 214.681,250.106 214.382,250.356 214.227 C 250.573 214.093,250.936 214.302,251.163 214.692 C 251.390 215.081,251.581 215.211,251.588 214.980 C 251.595 214.749,251.404 214.364,251.165 214.125 C 250.852 213.812,250.865 213.607,251.210 213.394 C 251.474 213.231,251.861 213.346,252.071 213.649 C 252.341 214.040,252.379 213.938,252.199 213.300 C 252.011 212.632,252.114 212.400,252.597 212.400 C 252.954 212.400,253.151 212.244,253.033 212.053 C 252.730 211.563,254.153 210.369,255.128 210.295 C 255.577 210.262,255.912 210.124,255.872 209.991 C 255.762 209.620,259.701 205.786,260.074 205.900 C 260.253 205.955,260.355 205.858,260.300 205.685 C 260.182 205.312,262.216 203.200,262.694 203.200 C 262.875 203.200,263.283 202.840,263.600 202.400 C 263.917 201.960,264.452 201.597,264.788 201.594 C 265.329 201.588,265.331 201.543,264.800 201.200 C 264.313 200.886,264.368 200.811,265.087 200.806 C 265.714 200.802,265.907 200.622,265.743 200.195 C 265.574 199.756,265.694 199.661,266.179 199.847 C 266.647 200.027,266.914 199.849,267.069 199.256 C 267.191 198.790,267.450 198.508,267.645 198.628 C 267.840 198.749,268.000 198.567,268.000 198.224 C 268.000 197.881,268.191 197.600,268.424 197.600 C 268.657 197.600,268.749 197.440,268.628 197.245 C 268.508 197.050,268.785 196.793,269.245 196.672 C 269.717 196.549,269.963 196.264,269.811 196.017 C 269.662 195.777,269.689 195.630,269.870 195.690 C 270.052 195.751,270.262 195.682,270.338 195.537 C 270.754 194.747,275.447 190.152,275.700 190.287 C 275.865 190.375,276.000 190.179,276.000 189.851 C 276.000 189.522,276.360 189.140,276.800 189.000 C 277.240 188.860,277.600 188.500,277.600 188.200 C 277.600 187.900,277.949 187.543,278.375 187.408 C 278.802 187.272,279.696 186.540,280.363 185.781 C 281.030 185.021,281.772 184.400,282.011 184.400 C 282.251 184.400,282.349 184.240,282.228 184.045 C 282.108 183.850,282.367 183.597,282.804 183.483 C 283.242 183.369,283.600 182.977,283.600 182.614 C 283.600 182.250,283.780 182.064,284.000 182.200 C 284.220 182.336,284.400 182.251,284.400 182.011 C 284.400 181.772,285.021 181.030,285.781 180.363 C 286.540 179.696,287.272 178.802,287.408 178.375 C 287.543 177.949,287.900 177.600,288.200 177.600 C 288.500 177.600,288.860 177.240,289.000 176.800 C 289.140 176.360,289.542 176.000,289.894 176.000 C 290.245 176.000,290.420 175.886,290.281 175.747 C 290.142 175.608,290.550 175.023,291.188 174.447 C 291.826 173.871,293.655 172.230,295.252 170.800 C 299.960 166.584,305.419 160.885,305.077 160.543 C 304.979 160.446,304.447 160.904,303.894 161.561 M250.300 167.633 C 249.630 168.367,249.635 168.400,250.400 168.400 C 250.933 168.400,251.200 168.133,251.200 167.600 C 251.200 166.652,251.196 166.652,250.300 167.633 M203.464 214.177 C 203.308 214.583,203.275 215.009,203.391 215.124 C 203.506 215.239,203.600 215.113,203.600 214.843 C 203.600 214.573,203.768 214.456,203.972 214.583 C 204.177 214.709,204.475 214.602,204.634 214.345 C 204.807 214.066,204.751 213.983,204.496 214.141 C 204.261 214.286,203.996 214.188,203.908 213.923 C 203.811 213.632,203.634 213.733,203.464 214.177 M249.459 215.913 C 249.533 216.030,249.393 216.368,249.148 216.663 C 248.843 217.030,248.837 217.200,249.127 217.200 C 249.751 217.200,250.152 216.381,249.708 216.015 C 249.497 215.842,249.385 215.796,249.459 215.913 " stroke="none" fill="#5844dc" fill-rule="evenodd"></path><path id="path3" d="M224.200 241.357 C 222.573 243.293,222.381 243.660,223.596 242.513 C 224.346 241.805,224.878 241.148,224.779 241.053 C 224.681 240.958,224.420 241.095,224.200 241.357 M207.818 257.818 C 206.383 259.254,206.545 259.594,208.000 258.200 C 208.660 257.568,209.200 256.994,209.200 256.925 C 209.200 256.596,208.748 256.888,207.818 257.818 M200.400 265.400 C 199.883 265.950,199.590 266.400,199.748 266.400 C 199.907 266.400,200.486 265.950,201.036 265.400 C 201.586 264.850,201.880 264.400,201.688 264.400 C 201.496 264.400,200.917 264.850,200.400 265.400 M192.448 273.200 C 191.523 274.080,190.917 274.800,191.102 274.800 C 191.287 274.800,192.141 274.080,193.000 273.200 C 193.859 272.320,194.465 271.600,194.346 271.600 C 194.227 271.600,193.373 272.320,192.448 273.200 M187.886 277.673 C 187.053 278.570,186.459 279.392,186.566 279.500 C 186.674 279.607,186.995 279.439,187.281 279.126 C 187.566 278.813,188.329 277.982,188.975 277.279 C 189.621 276.575,189.981 276.009,189.775 276.020 C 189.569 276.031,188.718 276.775,187.886 277.673 M184.049 281.640 C 183.553 282.102,183.238 282.571,183.349 282.683 C 183.461 282.794,184.021 282.416,184.594 281.842 C 185.832 280.604,185.352 280.426,184.049 281.640 M181.633 283.967 C 181.175 284.425,180.800 284.988,180.800 285.218 C 180.800 285.448,181.269 285.167,181.842 284.594 C 182.416 284.021,182.791 283.457,182.676 283.342 C 182.561 283.227,182.092 283.508,181.633 283.967 M177.700 287.807 C 175.024 290.409,174.237 291.688,176.652 289.510 C 179.923 286.560,180.465 285.999,180.335 285.695 C 180.261 285.520,179.075 286.470,177.700 287.807 M108.800 288.925 C 108.800 288.994,109.340 289.568,110.000 290.200 C 111.455 291.594,111.617 291.254,110.182 289.818 C 109.252 288.888,108.800 288.596,108.800 288.925 M174.432 290.700 C 174.401 291.188,172.800 293.024,172.800 292.571 C 172.800 292.446,172.536 292.581,172.214 292.871 C 170.882 294.072,170.557 294.252,170.036 294.079 C 169.704 293.968,169.599 294.075,169.770 294.351 C 170.194 295.038,168.597 297.015,167.554 297.094 C 166.671 297.160,166.681 297.121,167.818 296.031 C 168.468 295.409,169.180 294.994,169.400 295.109 C 169.642 295.235,169.637 295.139,169.386 294.864 C 168.837 294.264,116.366 294.001,116.698 294.600 C 116.819 294.820,117.267 295.387,117.693 295.861 C 118.415 296.665,118.419 296.718,117.748 296.661 C 117.315 296.624,116.976 296.917,116.894 297.400 C 116.781 298.059,116.830 298.094,117.172 297.600 C 117.510 297.112,117.594 297.186,117.622 298.000 C 117.653 298.918,117.684 298.934,118.000 298.200 C 118.307 297.486,118.347 297.478,118.372 298.124 C 118.387 298.522,118.580 298.736,118.800 298.600 C 119.020 298.464,119.200 298.528,119.200 298.743 C 119.200 298.958,118.975 299.224,118.700 299.335 C 118.425 299.446,118.650 299.554,119.200 299.575 C 119.997 299.605,120.078 299.691,119.600 300.000 C 119.124 300.308,119.207 300.390,120.000 300.400 C 120.793 300.410,120.876 300.492,120.400 300.800 C 119.891 301.129,119.910 301.189,120.524 301.194 C 120.922 301.197,121.133 301.384,120.994 301.610 C 120.855 301.835,120.979 301.970,121.270 301.910 C 121.562 301.849,121.755 302.025,121.700 302.300 C 121.645 302.575,121.825 302.755,122.100 302.700 C 122.375 302.645,122.551 302.838,122.490 303.130 C 122.430 303.421,122.535 303.564,122.724 303.447 C 122.913 303.330,124.215 304.307,125.619 305.617 C 127.022 306.928,128.035 308.000,127.871 308.000 C 127.707 308.000,128.208 308.558,128.985 309.240 C 129.762 309.922,130.295 310.647,130.169 310.850 C 130.043 311.053,130.179 311.170,130.470 311.110 C 130.762 311.049,130.955 311.225,130.900 311.500 C 130.845 311.775,131.010 311.955,131.267 311.900 C 131.524 311.845,131.945 312.204,132.203 312.698 C 132.461 313.191,132.790 313.476,132.936 313.331 C 133.081 313.186,133.200 313.377,133.200 313.757 C 133.200 314.137,133.380 314.336,133.600 314.200 C 133.820 314.064,134.000 314.233,134.000 314.576 C 134.000 314.919,134.225 315.155,134.500 315.100 C 134.775 315.045,134.955 315.225,134.900 315.500 C 134.845 315.775,135.081 316.000,135.424 316.000 C 135.767 316.000,135.936 316.180,135.800 316.400 C 135.664 316.620,135.844 316.800,136.200 316.800 C 136.556 316.800,136.736 316.980,136.600 317.200 C 136.464 317.420,136.644 317.600,137.000 317.600 C 137.356 317.600,137.536 317.780,137.400 318.000 C 137.264 318.220,137.450 318.400,137.814 318.400 C 138.177 318.400,138.569 318.758,138.683 319.196 C 138.797 319.633,139.050 319.892,139.245 319.772 C 139.440 319.651,139.600 319.863,139.600 320.243 C 139.600 320.623,139.713 320.820,139.852 320.681 C 139.991 320.542,140.679 321.075,141.382 321.864 L 142.659 323.300 144.220 321.950 C 146.821 319.700,149.200 317.245,149.200 316.811 C 149.200 316.585,149.370 316.400,149.578 316.400 C 150.079 316.400,164.000 302.365,164.000 301.860 C 164.000 301.644,164.109 301.576,164.242 301.709 C 164.539 302.005,166.400 300.201,166.400 299.618 C 166.400 299.388,166.585 299.200,166.811 299.200 C 167.036 299.200,167.981 298.418,168.911 297.462 C 174.221 292.001,174.876 291.237,174.678 290.740 C 174.523 290.351,174.454 290.340,174.432 290.700 M113.853 294.205 C 113.725 294.539,113.837 294.750,114.114 294.695 C 114.381 294.643,114.542 294.870,114.471 295.200 C 114.372 295.664,114.452 295.693,114.826 295.326 C 115.202 294.956,115.173 294.716,114.693 294.236 C 114.159 293.702,114.048 293.698,113.853 294.205 M115.362 296.062 C 115.185 296.348,115.252 296.415,115.538 296.238 C 115.822 296.063,116.002 296.232,116.006 296.676 C 116.011 297.271,116.078 297.297,116.380 296.819 C 116.771 296.201,116.583 295.600,116.000 295.600 C 115.806 295.600,115.519 295.808,115.362 296.062 " stroke="none" fill="#8d44ec" fill-rule="evenodd"></path><path id="path4" d="M257.818 207.818 C 257.258 208.378,256.800 209.036,256.800 209.279 C 256.800 209.523,257.115 209.377,257.500 208.955 C 257.885 208.534,258.528 207.876,258.929 207.494 C 259.329 207.112,259.472 206.800,259.247 206.800 C 259.021 206.800,258.378 207.258,257.818 207.818 M212.504 253.021 C 212.231 253.316,212.141 253.638,212.304 253.737 C 212.467 253.835,212.823 253.674,213.096 253.379 C 213.369 253.084,213.459 252.762,213.296 252.663 C 213.133 252.565,212.777 252.726,212.504 253.021 M210.830 254.564 C 210.501 254.960,210.489 255.208,210.790 255.394 C 211.027 255.540,211.170 255.421,211.110 255.130 C 211.049 254.838,211.225 254.645,211.500 254.700 C 211.775 254.755,212.000 254.620,212.000 254.400 C 212.000 253.821,211.373 253.909,210.830 254.564 M78.000 258.088 C 78.000 258.796,81.364 262.103,81.721 261.746 C 82.088 261.378,81.238 260.400,80.551 260.400 C 80.248 260.400,80.045 260.175,80.100 259.900 C 80.155 259.625,79.975 259.445,79.700 259.500 C 79.425 259.555,79.200 259.407,79.200 259.171 C 79.200 258.936,78.930 258.473,78.600 258.143 C 78.120 257.663,78.000 257.652,78.000 258.088 M128.421 260.975 C 127.984 261.501,128.012 261.600,128.600 261.600 C 129.140 261.600,129.197 261.722,128.850 262.139 C 128.492 262.571,128.650 262.685,129.643 262.714 C 130.663 262.743,130.778 262.665,130.291 262.274 C 129.966 262.013,129.529 261.474,129.320 261.075 C 128.978 260.422,128.888 260.412,128.421 260.975 M203.100 261.736 C 201.395 263.253,201.265 263.600,202.400 263.600 C 202.840 263.600,203.155 263.375,203.100 263.100 C 203.045 262.825,203.238 262.649,203.530 262.710 C 203.821 262.770,203.945 262.635,203.806 262.410 C 203.667 262.184,203.833 262.000,204.176 262.000 C 204.519 262.000,204.755 261.775,204.700 261.500 C 204.645 261.225,204.838 261.049,205.130 261.110 C 205.421 261.170,205.545 261.035,205.406 260.810 C 205.015 260.177,204.716 260.298,203.100 261.736 M83.200 263.484 C 83.530 263.620,84.290 264.256,84.889 264.896 C 85.488 265.537,86.172 265.941,86.409 265.795 C 87.038 265.405,84.806 263.447,83.600 263.332 C 83.039 263.278,82.863 263.345,83.200 263.484 M85.600 263.537 C 85.600 264.024,86.617 264.850,86.886 264.581 C 87.003 264.464,87.193 264.729,87.308 265.170 C 87.429 265.632,87.333 265.936,87.083 265.886 C 86.843 265.839,86.582 266.160,86.502 266.600 C 86.383 267.258,86.431 267.293,86.772 266.800 C 87.191 266.195,87.426 266.682,87.231 267.749 C 87.196 267.941,87.465 267.984,87.828 267.845 C 88.292 267.667,88.424 267.760,88.272 268.158 C 88.015 268.826,89.313 270.139,89.797 269.701 C 89.979 269.535,90.018 269.594,89.884 269.830 C 89.617 270.299,93.807 274.460,94.175 274.092 C 94.299 273.968,94.400 274.167,94.400 274.533 C 94.400 274.900,94.617 275.155,94.882 275.100 C 95.147 275.045,95.380 275.270,95.400 275.600 C 95.420 275.930,95.653 276.155,95.918 276.100 C 96.183 276.045,96.400 276.242,96.400 276.538 C 96.400 276.834,96.791 277.419,97.269 277.838 C 97.812 278.314,98.008 278.375,97.792 278.000 C 97.495 277.484,97.540 277.476,98.119 277.945 C 98.489 278.245,98.727 278.605,98.648 278.745 C 98.570 278.885,98.932 279.411,99.453 279.914 C 99.974 280.417,100.400 280.727,100.400 280.603 C 100.400 280.479,101.004 280.967,101.742 281.689 C 102.480 282.410,103.031 283.064,102.966 283.143 C 102.750 283.404,103.795 284.319,104.100 284.134 C 104.265 284.035,104.400 284.244,104.400 284.600 C 104.400 284.956,104.560 285.149,104.755 285.028 C 104.950 284.907,105.355 285.111,105.655 285.481 C 106.124 286.059,106.116 286.106,105.600 285.817 C 105.270 285.631,105.614 286.130,106.363 286.924 C 107.113 287.719,107.878 288.275,108.063 288.161 C 108.249 288.046,108.400 288.244,108.400 288.600 C 108.400 288.956,108.568 289.143,108.774 289.016 C 109.303 288.689,111.273 290.758,110.942 291.294 C 110.762 291.585,110.912 291.643,111.379 291.463 C 111.887 291.268,112.028 291.349,111.876 291.747 C 111.601 292.463,114.021 294.767,114.764 294.496 C 115.148 294.356,115.251 294.491,115.086 294.920 C 114.917 295.359,115.110 295.588,115.722 295.675 C 116.343 295.763,116.560 296.028,116.464 296.578 C 116.349 297.239,116.422 297.279,116.947 296.844 C 117.287 296.562,117.798 296.466,118.082 296.630 C 118.367 296.794,118.222 296.495,117.760 295.965 C 117.297 295.434,116.819 294.820,116.698 294.600 C 116.366 294.001,168.837 294.264,169.386 294.864 C 169.637 295.139,169.642 295.235,169.400 295.109 C 169.180 294.994,168.468 295.409,167.818 296.031 C 166.681 297.121,166.671 297.160,167.554 297.094 C 168.597 297.015,170.194 295.038,169.770 294.351 C 169.599 294.074,169.705 293.968,170.041 294.080 C 170.344 294.181,170.813 294.070,171.083 293.832 C 172.595 292.498,172.695 292.455,173.174 292.930 C 173.537 293.291,173.586 293.238,173.382 292.703 C 173.211 292.253,173.344 291.920,173.758 291.761 C 174.111 291.625,174.400 291.234,174.400 290.891 C 174.400 290.547,174.491 290.358,174.603 290.470 C 174.715 290.582,175.804 289.707,177.024 288.526 C 178.254 287.335,179.438 286.500,179.682 286.651 C 179.948 286.815,180.010 286.740,179.838 286.462 C 179.681 286.208,179.676 285.801,179.826 285.557 C 180.017 285.249,180.204 285.279,180.444 285.657 C 180.709 286.076,180.789 286.035,180.794 285.476 C 180.798 285.032,180.978 284.863,181.262 285.038 C 181.550 285.216,181.615 285.148,181.435 284.856 C 181.082 284.286,184.352 281.123,184.927 281.478 C 185.149 281.616,185.198 281.521,185.038 281.262 C 184.867 280.985,185.013 280.800,185.400 280.800 C 185.756 280.800,185.936 280.620,185.800 280.400 C 185.664 280.180,185.844 280.000,186.200 280.000 C 186.556 280.000,186.741 279.828,186.611 279.619 C 186.277 279.078,192.338 273.114,192.880 273.450 C 193.136 273.608,193.212 273.542,193.058 273.294 C 192.912 273.058,193.056 272.601,193.377 272.280 C 193.699 271.958,193.882 271.582,193.784 271.444 C 193.687 271.306,193.816 271.370,194.072 271.585 C 194.395 271.858,194.679 271.706,195.001 271.089 C 195.257 270.600,195.676 270.245,195.933 270.300 C 196.190 270.355,196.355 270.175,196.300 269.900 C 196.245 269.625,196.425 269.445,196.700 269.500 C 196.975 269.555,197.200 269.319,197.200 268.976 C 197.200 268.633,197.380 268.464,197.600 268.600 C 197.820 268.736,198.000 268.610,198.000 268.320 C 198.000 268.029,198.495 267.257,199.100 266.604 C 199.705 265.950,200.155 265.277,200.100 265.108 C 200.045 264.939,200.135 264.828,200.300 264.862 C 200.465 264.897,201.050 264.728,201.600 264.488 C 202.150 264.247,202.375 264.017,202.100 263.975 C 201.825 263.934,201.435 263.877,201.233 263.850 C 201.032 263.822,200.728 263.661,200.559 263.492 C 200.389 263.323,189.967 263.196,177.398 263.210 L 154.545 263.235 153.687 264.118 C 153.215 264.603,151.909 265.945,150.785 267.100 C 149.661 268.255,148.643 269.200,148.523 269.200 C 148.216 269.200,146.014 271.737,146.006 272.100 C 146.003 272.265,145.700 272.400,145.333 272.400 C 144.967 272.400,144.778 272.511,144.914 272.648 C 145.224 272.958,144.215 274.000,143.605 274.000 C 143.356 274.000,143.264 274.180,143.400 274.400 C 143.536 274.620,143.461 274.800,143.234 274.800 C 142.600 274.800,139.201 271.521,139.438 271.138 C 139.553 270.952,139.487 270.800,139.290 270.800 C 139.094 270.800,138.153 270.080,137.200 269.200 C 136.247 268.320,135.272 267.597,135.033 267.594 C 134.742 267.590,134.749 267.492,135.056 267.294 C 135.386 267.081,135.358 266.858,134.956 266.484 C 134.610 266.164,134.400 266.132,134.400 266.400 C 134.400 266.668,134.190 266.636,133.844 266.316 C 133.539 266.032,133.429 265.710,133.600 265.600 C 133.771 265.490,133.661 265.168,133.356 264.884 C 133.010 264.564,132.800 264.532,132.800 264.800 C 132.800 265.068,132.589 265.037,132.242 264.716 C 131.935 264.432,131.754 264.084,131.840 263.942 C 131.925 263.800,131.748 263.589,131.446 263.473 C 130.451 263.091,85.600 263.154,85.600 263.537 M122.800 303.400 C 123.546 304.170,124.247 304.800,124.357 304.800 C 124.467 304.800,123.946 304.170,123.200 303.400 C 122.454 302.630,121.753 302.000,121.643 302.000 C 121.533 302.000,122.054 302.630,122.800 303.400 M129.583 310.100 C 131.241 311.866,131.600 312.184,131.600 311.883 C 131.600 311.819,130.745 310.964,129.700 309.983 L 127.800 308.200 129.583 310.100 " stroke="none" fill="#8444eb" fill-rule="evenodd"></path></g></svg>