<svg id="svg" version="1.1" xmlns="http://www.w3.org/2000/svg" xmlns:xlink="http://www.w3.org/1999/xlink" width="400" height="400" viewBox="0, 0, 400,400"><g id="svgg"><path id="path0" d="M163.605 146.018 C 163.613 167.555,163.755 179.151,164.009 178.995 C 164.242 178.850,164.400 179.498,164.400 180.600 C 164.400 181.730,164.555 182.351,164.800 182.200 C 165.020 182.064,165.200 182.289,165.200 182.701 C 165.200 183.112,165.560 183.836,166.000 184.308 C 166.440 184.780,166.800 185.367,166.800 185.612 C 166.800 186.190,167.814 187.200,168.395 187.200 C 168.644 187.200,168.719 187.408,168.562 187.662 C 168.402 187.921,168.451 188.016,168.672 187.879 C 168.890 187.744,169.549 188.020,170.136 188.493 C 170.723 188.965,171.607 189.412,172.101 189.487 C 172.596 189.562,173.063 189.806,173.139 190.030 C 173.444 190.920,226.023 190.438,227.293 189.534 C 228.039 189.002,228.400 188.911,228.400 189.253 C 228.400 189.643,228.509 189.651,228.873 189.287 C 229.515 188.645,229.235 188.454,227.474 188.336 C 226.189 188.249,225.551 187.796,222.944 185.118 C 221.276 183.403,219.706 181.997,219.455 181.994 C 219.169 181.990,219.195 181.864,219.525 181.655 C 220.509 181.031,214.028 180.800,195.534 180.800 C 181.599 180.800,176.975 180.680,176.299 180.300 C 174.166 179.101,174.219 179.572,173.938 159.600 C 173.679 141.130,173.455 136.800,172.761 136.800 C 172.563 136.800,172.400 136.301,172.400 135.692 C 172.400 134.828,171.605 133.792,168.800 131.000 C 166.820 129.029,165.197 127.143,165.194 126.808 C 165.188 126.270,165.143 126.269,164.800 126.800 C 164.542 127.200,164.410 124.961,164.406 120.100 C 164.402 115.452,164.253 112.800,163.996 112.800 C 163.726 112.800,163.596 123.895,163.605 146.018 M194.839 212.058 C 193.431 212.501,192.023 213.120,191.711 213.432 C 191.398 213.744,191.005 214.000,190.837 214.000 C 189.922 214.000,186.286 218.343,185.729 220.100 C 185.607 220.485,185.348 220.800,185.153 220.800 C 184.959 220.800,184.800 221.160,184.800 221.600 C 184.800 222.040,184.620 222.400,184.400 222.400 C 184.180 222.400,183.997 222.985,183.994 223.700 C 183.989 224.686,183.894 224.855,183.600 224.400 C 183.275 223.898,183.211 223.925,183.206 224.565 C 183.203 224.986,182.756 226.087,182.214 227.012 C 181.672 227.938,181.342 228.808,181.481 228.947 C 181.620 229.086,181.544 229.200,181.313 229.200 C 180.954 229.200,180.472 230.265,180.469 231.064 C 180.469 231.200,180.276 231.430,180.041 231.575 C 179.805 231.720,179.188 232.679,178.668 233.705 C 178.149 234.731,177.876 235.477,178.062 235.362 C 178.248 235.247,178.400 235.349,178.400 235.589 C 178.400 235.829,177.995 236.189,177.500 236.388 C 177.005 236.587,176.733 236.761,176.896 236.775 C 177.059 236.789,176.897 237.144,176.537 237.565 C 176.177 237.986,175.639 238.236,175.341 238.122 C 175.020 237.999,174.800 238.185,174.800 238.581 C 174.800 238.947,174.620 239.136,174.400 239.000 C 174.180 238.864,174.000 238.979,174.000 239.256 C 174.000 239.648,173.893 239.653,173.520 239.280 C 173.256 239.016,172.761 238.804,172.420 238.809 C 171.986 238.815,172.098 239.047,172.794 239.581 C 173.340 240.001,173.883 240.189,174.000 240.000 C 174.305 239.507,179.650 244.800,179.714 245.658 C 179.760 246.264,179.861 246.292,180.384 245.838 C 180.723 245.545,181.223 245.385,181.496 245.484 C 182.065 245.690,183.289 244.622,182.914 244.248 C 182.778 244.111,182.897 244.000,183.179 244.000 C 183.733 244.000,186.400 241.266,186.400 240.698 C 186.400 240.508,186.611 240.483,186.868 240.642 C 187.183 240.836,187.252 240.713,187.081 240.266 C 186.940 239.900,186.999 239.600,187.213 239.600 C 187.426 239.600,187.563 239.465,187.518 239.300 C 187.431 238.982,188.743 236.338,189.156 236.000 C 189.622 235.618,191.619 231.141,191.210 231.394 C 190.985 231.533,190.800 231.457,190.800 231.224 C 190.800 230.991,190.980 230.800,191.200 230.800 C 191.420 230.800,191.600 230.480,191.600 230.088 C 191.600 229.697,191.960 229.117,192.400 228.800 C 192.840 228.483,193.200 227.803,193.200 227.288 C 193.200 226.774,193.343 226.441,193.517 226.549 C 193.691 226.656,193.860 226.399,193.892 225.976 C 193.948 225.225,195.200 223.098,195.200 223.753 C 195.200 223.936,195.722 223.526,196.360 222.842 C 198.060 221.023,201.912 220.993,203.587 222.786 C 204.196 223.438,204.808 223.858,204.947 223.719 C 205.086 223.580,205.200 223.857,205.200 224.333 C 205.200 224.810,205.380 225.200,205.600 225.200 C 205.820 225.200,206.004 225.425,206.009 225.700 C 206.014 225.975,206.370 226.650,206.800 227.200 C 207.230 227.750,207.586 228.616,207.591 229.124 C 207.596 229.636,207.778 229.937,208.000 229.800 C 208.220 229.664,208.400 229.914,208.400 230.355 C 208.400 231.207,211.183 237.313,211.669 237.526 C 211.826 237.595,212.173 238.315,212.438 239.126 C 212.704 239.937,213.209 240.873,213.561 241.206 C 213.912 241.539,214.392 242.157,214.627 242.579 C 214.861 243.001,215.396 243.539,215.815 243.773 C 216.233 244.008,217.058 244.695,217.648 245.300 C 218.238 245.905,219.009 246.400,219.360 246.400 C 219.712 246.400,220.000 246.580,220.000 246.800 C 220.000 247.020,220.540 247.200,221.200 247.200 C 221.860 247.200,222.400 247.380,222.400 247.600 C 222.400 247.820,223.300 248.000,224.400 248.000 C 225.500 248.000,226.400 248.150,226.400 248.334 C 226.400 248.518,227.512 248.709,228.870 248.758 C 230.229 248.807,231.657 249.016,232.044 249.224 C 232.431 249.431,233.749 249.600,234.974 249.600 C 236.198 249.600,237.200 249.780,237.200 250.000 C 237.200 250.222,238.267 250.400,239.600 250.400 C 240.933 250.400,242.000 250.578,242.000 250.800 C 242.000 251.020,242.278 251.200,242.618 251.200 C 242.958 251.200,243.686 251.650,244.236 252.200 C 244.786 252.750,245.125 253.200,244.990 253.200 C 244.854 253.200,245.027 253.485,245.375 253.832 C 245.723 254.180,245.905 254.630,245.780 254.832 C 245.655 255.035,245.743 255.200,245.976 255.200 C 246.582 255.200,246.499 256.865,245.812 258.509 C 245.464 259.341,242.120 263.036,237.612 267.567 C 233.426 271.775,230.000 275.484,230.000 275.809 C 230.000 276.134,229.820 276.400,229.600 276.400 C 229.380 276.400,229.197 276.985,229.194 277.700 C 229.189 278.686,229.094 278.855,228.800 278.400 C 228.503 277.941,228.411 278.090,228.406 279.033 C 228.403 279.712,228.268 280.399,228.106 280.561 C 227.697 280.969,227.618 283.236,228.021 282.987 C 228.201 282.876,228.193 283.328,228.002 283.992 C 227.794 284.719,227.804 285.200,228.028 285.200 C 228.233 285.200,228.400 285.391,228.400 285.624 C 228.400 285.857,228.220 285.936,228.000 285.800 C 227.780 285.664,227.600 285.743,227.600 285.976 C 227.600 286.209,227.915 286.403,228.300 286.406 C 228.774 286.410,228.845 286.511,228.521 286.717 C 228.247 286.891,228.178 287.241,228.361 287.536 C 228.536 287.820,228.595 288.490,228.493 289.026 C 228.366 289.689,228.488 290.000,228.877 290.000 C 229.317 290.000,229.426 290.546,229.354 292.405 C 229.298 293.831,229.414 294.715,229.637 294.577 C 229.845 294.449,230.367 295.122,230.798 296.072 C 231.230 297.022,231.586 297.565,231.591 297.277 C 231.602 296.622,239.159 304.248,239.615 305.374 C 239.891 306.056,239.954 306.078,239.975 305.500 C 239.989 305.115,240.191 304.800,240.425 304.800 C 240.659 304.800,240.798 304.485,240.735 304.100 C 240.672 303.715,240.768 303.163,240.950 302.873 C 241.411 302.139,240.845 301.688,240.370 302.412 C 240.110 302.807,240.042 302.016,240.163 300.007 C 240.269 298.258,240.172 296.807,239.931 296.516 C 239.703 296.243,239.506 295.070,239.493 293.909 C 239.479 292.749,239.392 292.025,239.300 292.300 C 238.972 293.282,238.542 292.778,238.713 291.613 C 238.809 290.960,238.685 289.847,238.439 289.139 C 238.107 288.188,238.108 287.781,238.440 287.575 C 238.770 287.371,238.766 287.255,238.425 287.142 C 237.820 286.940,237.767 281.878,238.367 281.678 C 238.605 281.598,238.800 281.272,238.800 280.953 C 238.800 280.634,239.385 279.775,240.100 279.045 C 240.815 278.314,241.665 277.330,241.988 276.858 C 242.312 276.386,242.762 275.998,242.988 275.995 C 243.215 275.992,244.705 274.745,246.300 273.225 C 247.895 271.704,249.200 270.544,249.200 270.646 C 249.200 270.748,249.451 270.599,249.758 270.316 C 250.065 270.032,250.234 269.665,250.134 269.500 C 250.035 269.335,250.233 269.200,250.576 269.200 C 250.919 269.200,251.155 269.042,251.100 268.849 C 251.045 268.655,251.540 267.947,252.200 267.275 C 254.016 265.425,254.400 264.891,254.400 264.217 C 254.400 263.878,254.580 263.600,254.800 263.600 C 255.020 263.600,255.200 263.251,255.200 262.824 C 255.200 262.397,255.380 261.936,255.600 261.800 C 255.830 261.658,256.000 259.537,256.000 256.800 C 256.000 254.063,255.830 251.942,255.600 251.800 C 255.380 251.664,255.200 251.113,255.200 250.576 C 255.200 250.039,255.020 249.600,254.800 249.600 C 254.580 249.600,254.400 249.240,254.400 248.800 C 254.400 248.360,254.259 248.000,254.086 248.000 C 253.914 248.000,253.478 247.505,253.117 246.900 C 252.171 245.310,249.973 243.170,249.553 243.429 C 249.356 243.551,249.086 243.369,248.954 243.025 C 248.822 242.681,248.419 242.399,248.057 242.398 C 247.696 242.396,246.884 242.126,246.254 241.798 C 245.624 241.469,244.319 241.200,243.354 241.200 C 242.389 241.200,241.600 241.020,241.600 240.800 C 241.600 240.577,240.525 240.400,239.176 240.400 C 237.663 240.400,236.846 240.250,237.000 240.000 C 237.156 239.748,236.204 239.600,234.424 239.600 C 232.808 239.600,231.600 239.429,231.600 239.200 C 231.600 238.971,230.400 238.800,228.800 238.800 C 227.200 238.800,226.000 238.629,226.000 238.400 C 226.000 238.180,225.640 238.000,225.200 238.000 C 224.760 238.000,224.400 237.820,224.400 237.600 C 224.400 237.380,224.207 237.200,223.971 237.200 C 223.325 237.200,222.700 236.409,221.598 234.200 C 221.049 233.100,220.465 232.140,220.300 232.067 C 220.135 231.993,220.000 231.696,220.000 231.405 C 220.000 231.115,219.387 229.792,218.638 228.467 C 217.889 227.142,217.379 225.955,217.505 225.829 C 217.630 225.703,217.523 225.600,217.267 225.600 C 217.010 225.600,216.800 225.240,216.800 224.800 C 216.800 224.360,216.620 224.000,216.400 224.000 C 216.180 224.000,216.000 223.640,216.000 223.200 C 216.000 222.760,215.820 222.400,215.600 222.400 C 215.380 222.400,215.200 222.040,215.200 221.600 C 215.200 221.160,215.020 220.800,214.800 220.800 C 214.580 220.800,214.400 220.440,214.400 220.000 C 214.400 219.560,214.250 219.200,214.068 219.200 C 213.885 219.200,213.480 218.709,213.168 218.109 C 212.497 216.821,210.112 214.400,209.513 214.400 C 209.282 214.400,208.784 214.043,208.406 213.606 C 208.027 213.170,207.376 212.747,206.959 212.667 C 206.068 212.495,204.844 212.067,204.000 211.633 C 202.754 210.992,197.439 211.238,194.839 212.058 M149.600 269.600 C 150.107 270.040,150.613 270.400,150.723 270.400 C 150.834 270.400,150.598 270.040,150.200 269.600 C 149.802 269.160,149.296 268.800,149.077 268.800 C 148.857 268.800,149.093 269.160,149.600 269.600 M310.119 292.826 C 309.944 292.994,309.350 293.191,308.800 293.265 C 308.250 293.339,307.708 293.521,307.596 293.668 C 307.484 293.815,307.137 293.995,306.824 294.068 C 306.511 294.141,305.704 294.785,305.030 295.500 C 304.357 296.215,303.579 296.800,303.303 296.800 C 303.026 296.800,302.800 297.030,302.800 297.312 C 302.800 297.593,302.440 298.083,302.000 298.400 C 301.560 298.717,301.200 299.282,301.200 299.655 C 301.200 300.028,301.065 300.393,300.900 300.467 C 300.468 300.659,298.800 303.972,298.800 304.638 C 298.800 304.947,298.620 305.200,298.400 305.200 C 298.180 305.200,298.000 305.560,298.000 306.000 C 298.000 306.440,297.820 306.800,297.600 306.800 C 297.380 306.800,297.200 307.160,297.200 307.600 C 297.200 308.040,297.065 308.401,296.900 308.403 C 296.535 308.407,295.600 310.349,295.600 311.103 C 295.600 311.402,295.420 311.536,295.200 311.400 C 294.980 311.264,294.800 311.523,294.800 311.976 C 294.800 312.429,294.620 312.800,294.400 312.800 C 294.180 312.800,294.000 313.049,294.000 313.354 C 294.000 314.781,291.351 318.391,290.300 318.396 C 289.915 318.398,289.600 318.580,289.600 318.800 C 289.600 319.020,288.880 319.200,288.000 319.200 C 287.120 319.200,286.400 319.380,286.400 319.600 C 286.400 319.825,285.275 320.000,283.824 320.000 C 282.407 320.000,281.136 320.180,281.000 320.400 C 280.864 320.620,279.773 320.800,278.576 320.800 C 277.379 320.800,276.400 320.980,276.400 321.200 C 276.400 321.429,275.192 321.600,273.576 321.600 C 271.796 321.600,270.844 321.748,271.000 322.000 C 271.140 322.226,270.812 322.400,270.247 322.400 C 269.697 322.400,269.136 322.580,269.000 322.800 C 268.864 323.020,268.313 323.200,267.776 323.200 C 267.239 323.200,266.800 323.380,266.800 323.600 C 266.800 323.820,266.461 324.000,266.047 324.000 C 265.630 324.000,265.200 324.357,265.084 324.800 C 264.966 325.251,264.538 325.600,264.104 325.600 C 262.893 325.600,261.320 327.613,261.601 328.804 C 261.799 329.641,261.880 329.688,262.106 329.100 C 262.254 328.715,262.546 328.400,262.756 328.400 C 263.486 328.400,268.435 333.521,267.909 333.732 C 267.589 333.861,267.654 333.949,268.086 333.968 C 268.463 333.986,268.965 333.640,269.200 333.200 C 269.435 332.760,269.812 332.400,270.038 332.400 C 270.263 332.400,270.312 332.625,270.147 332.900 C 269.943 333.240,270.063 333.224,270.523 332.851 C 270.895 332.549,271.200 332.086,271.200 331.822 C 271.200 331.492,271.823 331.392,273.200 331.502 C 274.460 331.602,275.200 331.502,275.200 331.231 C 275.200 330.968,276.204 330.800,277.776 330.800 C 279.193 330.800,280.464 330.620,280.600 330.400 C 280.736 330.180,281.816 330.000,283.000 330.000 C 284.184 330.000,285.264 329.820,285.400 329.600 C 285.536 329.380,286.807 329.200,288.224 329.200 C 289.675 329.200,290.800 329.025,290.800 328.800 C 290.800 328.580,291.419 328.400,292.176 328.400 C 292.933 328.400,293.664 328.220,293.800 328.000 C 293.936 327.780,294.357 327.600,294.735 327.600 C 295.114 327.600,295.683 327.240,296.000 326.800 C 296.317 326.360,296.801 326.000,297.075 326.000 C 297.749 326.000,300.400 323.531,300.400 322.903 C 300.400 322.626,300.580 322.400,300.800 322.400 C 301.020 322.400,301.200 322.119,301.200 321.776 C 301.200 321.433,301.380 321.264,301.600 321.400 C 301.820 321.536,302.000 321.402,302.000 321.103 C 302.000 320.349,302.935 318.407,303.300 318.403 C 303.465 318.401,303.600 318.040,303.600 317.600 C 303.600 317.160,303.780 316.800,304.000 316.800 C 304.220 316.800,304.400 316.547,304.400 316.238 C 304.400 315.572,306.068 312.259,306.500 312.067 C 306.665 311.993,306.800 311.673,306.800 311.355 C 306.800 309.698,310.256 303.600,311.195 303.600 C 311.444 303.600,311.536 303.420,311.400 303.200 C 311.264 302.980,311.523 302.800,311.976 302.800 C 312.429 302.800,312.803 302.575,312.806 302.300 C 312.810 301.967,312.942 302.000,313.200 302.400 C 313.458 302.800,313.590 302.833,313.594 302.500 C 313.597 302.212,314.110 302.000,314.800 302.000 C 315.460 302.000,316.000 302.180,316.000 302.400 C 316.000 302.620,316.360 302.800,316.800 302.800 C 317.240 302.800,317.603 303.025,317.606 303.300 C 317.611 303.698,317.678 303.697,317.932 303.297 C 318.166 302.929,318.507 303.089,319.210 303.897 C 319.737 304.504,320.131 305.045,320.084 305.100 C 319.808 305.428,320.068 306.005,320.400 305.800 C 320.628 305.659,320.800 306.004,320.800 306.600 C 320.800 307.196,320.972 307.541,321.200 307.400 C 321.420 307.264,321.600 307.523,321.600 307.976 C 321.600 308.429,321.780 308.800,322.000 308.800 C 322.220 308.800,322.400 309.160,322.400 309.600 C 322.400 310.040,322.580 310.400,322.800 310.400 C 323.020 310.400,323.200 310.760,323.200 311.200 C 323.200 311.640,323.380 312.000,323.600 312.000 C 323.820 312.000,324.000 312.360,324.000 312.800 C 324.000 313.240,324.180 313.600,324.400 313.600 C 324.620 313.600,324.800 313.960,324.800 314.400 C 324.800 314.840,324.974 315.200,325.187 315.200 C 325.401 315.200,325.472 315.468,325.346 315.797 C 325.214 316.140,325.395 316.500,325.770 316.644 C 326.194 316.806,326.340 317.160,326.185 317.647 C 326.054 318.061,326.116 318.400,326.325 318.400 C 326.738 318.400,327.770 320.614,327.541 321.011 C 327.464 321.146,327.715 321.433,328.100 321.648 C 328.485 321.863,328.800 322.239,328.800 322.482 C 328.800 323.037,331.719 325.928,332.437 326.084 C 332.729 326.148,333.325 326.515,333.760 326.900 C 334.195 327.285,334.888 327.600,335.299 327.600 C 335.711 327.600,335.936 327.780,335.800 328.000 C 335.651 328.242,336.196 328.400,337.176 328.400 C 338.069 328.400,338.800 328.565,338.800 328.766 C 338.800 328.967,339.925 329.230,341.300 329.351 C 342.675 329.472,345.240 329.764,347.000 330.002 C 348.760 330.239,351.416 330.531,352.903 330.650 C 354.390 330.769,355.504 331.031,355.380 331.233 C 355.255 331.435,355.804 331.600,356.600 331.600 C 357.463 331.600,357.947 331.761,357.800 332.000 C 357.664 332.220,357.752 332.400,357.995 332.400 C 358.727 332.400,360.321 334.229,360.475 335.247 C 360.554 335.771,360.798 336.169,361.017 336.131 C 361.246 336.091,361.352 336.729,361.266 337.631 C 361.183 338.494,360.936 339.200,360.715 339.200 C 360.495 339.200,360.418 339.470,360.545 339.800 C 360.687 340.172,360.543 340.400,360.164 340.400 C 359.828 340.400,359.664 340.580,359.800 340.800 C 359.936 341.020,359.857 341.200,359.624 341.200 C 359.391 341.200,359.200 341.476,359.200 341.813 C 359.200 342.149,358.899 342.541,358.531 342.682 C 357.735 342.987,356.659 344.020,356.057 345.055 C 355.812 345.476,355.619 345.575,355.612 345.282 C 355.598 344.670,353.600 346.556,353.600 347.182 C 353.600 347.412,353.446 347.600,353.258 347.600 C 352.748 347.600,346.720 353.587,345.605 355.200 C 345.074 355.970,344.540 356.690,344.419 356.800 C 344.169 357.028,343.906 357.961,343.882 358.700 C 343.874 358.975,343.737 359.200,343.579 359.200 C 342.456 359.200,342.509 371.400,343.637 372.580 C 343.837 372.789,344.000 373.824,344.000 374.880 C 344.000 375.936,344.149 376.800,344.332 376.800 C 344.514 376.800,344.704 377.835,344.755 379.100 C 344.805 380.365,345.016 381.571,345.223 381.780 C 345.741 382.302,345.719 387.321,345.200 387.000 C 344.980 386.864,344.800 386.948,344.800 387.187 C 344.800 387.835,342.354 390.400,341.736 390.400 C 341.441 390.400,341.200 390.580,341.200 390.800 C 341.200 391.020,340.660 391.200,340.000 391.200 C 339.340 391.200,338.800 391.020,338.800 390.800 C 338.800 390.580,338.350 390.400,337.800 390.400 C 337.250 390.400,336.800 390.220,336.800 390.000 C 336.800 389.780,336.665 389.621,336.500 389.647 C 335.703 389.773,335.178 389.560,335.400 389.200 C 335.610 388.860,334.491 388.596,333.500 388.753 C 333.335 388.779,333.200 388.620,333.200 388.400 C 333.200 388.180,332.906 388.000,332.547 388.000 C 332.188 388.000,331.571 387.628,331.177 387.174 C 330.783 386.719,330.357 386.359,330.230 386.374 C 328.826 386.534,327.868 386.314,328.600 386.000 C 329.273 385.711,329.197 385.652,328.118 385.628 C 327.313 385.610,326.466 385.230,325.840 384.604 C 325.189 383.953,324.606 383.699,324.157 383.872 C 323.690 384.051,323.562 383.986,323.758 383.668 C 323.932 383.387,323.798 383.200,323.424 383.200 C 323.081 383.200,322.800 383.005,322.800 382.767 C 322.800 382.528,322.575 382.415,322.300 382.514 C 322.025 382.614,321.454 382.404,321.031 382.048 C 320.413 381.527,320.330 381.517,320.608 382.000 C 320.906 382.518,320.861 382.525,320.273 382.048 C 319.553 381.464,316.000 381.167,316.000 381.691 C 316.000 381.861,316.168 382.000,316.374 382.000 C 316.714 382.000,330.400 395.565,330.400 395.902 C 330.400 395.982,330.229 395.942,330.021 395.813 C 329.812 395.684,329.712 395.944,329.798 396.391 C 330.040 397.647,330.373 397.999,331.324 398.006 C 332.050 398.011,332.097 398.084,331.600 398.430 C 331.157 398.739,331.356 398.778,332.360 398.579 C 333.512 398.351,333.682 398.410,333.470 398.961 C 333.272 399.478,333.424 399.575,334.210 399.432 C 334.755 399.334,335.200 399.426,335.200 399.636 C 335.200 400.140,345.958 399.895,346.325 399.383 C 346.820 398.694,349.080 397.614,349.408 397.911 C 349.584 398.070,349.599 397.975,349.441 397.700 C 349.282 397.425,349.352 397.200,349.595 397.200 C 350.168 397.200,352.000 395.368,352.000 394.795 C 352.000 394.552,352.180 394.464,352.400 394.600 C 352.620 394.736,352.800 394.567,352.800 394.224 C 352.800 393.881,352.980 393.600,353.200 393.600 C 353.420 393.600,353.600 393.330,353.600 393.000 C 353.600 392.670,353.780 392.400,354.000 392.400 C 354.220 392.400,354.400 391.849,354.400 391.176 C 354.400 390.463,354.567 390.056,354.800 390.200 C 355.036 390.346,355.200 389.897,355.200 389.104 C 355.200 388.365,355.399 387.561,355.641 387.319 C 355.921 387.039,355.990 386.094,355.830 384.739 C 355.691 383.562,355.477 381.520,355.355 380.200 C 355.233 378.880,354.968 377.629,354.766 377.420 C 354.565 377.211,354.400 376.187,354.400 375.144 C 354.400 374.101,354.220 373.136,354.000 373.000 C 353.780 372.864,353.600 371.874,353.600 370.800 C 353.600 369.726,353.420 368.736,353.200 368.600 C 352.980 368.464,352.800 367.003,352.800 365.353 C 352.800 363.455,352.947 362.444,353.200 362.600 C 353.420 362.736,353.600 362.528,353.600 362.138 C 353.600 361.749,354.590 360.493,355.800 359.349 C 357.010 358.205,358.000 357.073,358.000 356.834 C 358.000 356.595,358.165 356.400,358.367 356.400 C 358.974 356.400,368.400 346.878,368.400 346.265 C 368.400 345.953,368.668 345.476,368.996 345.204 C 369.323 344.932,369.500 344.562,369.389 344.382 C 369.278 344.202,369.370 343.942,369.593 343.804 C 369.817 343.666,370.000 343.193,370.000 342.753 C 370.000 342.313,370.161 342.052,370.358 342.174 C 371.049 342.601,370.724 333.860,370.027 333.270 C 369.614 332.921,369.594 332.841,369.968 333.036 C 370.390 333.255,370.467 333.152,370.268 332.633 C 370.121 332.249,370.000 331.853,370.000 331.753 C 370.000 331.653,369.670 331.748,369.267 331.964 C 368.713 332.261,368.533 332.215,368.533 331.778 C 368.533 331.460,368.863 331.200,369.267 331.200 C 370.874 331.200,369.409 329.260,367.657 329.068 C 366.489 328.940,365.365 328.400,366.267 328.400 C 366.487 328.400,366.667 328.133,366.667 327.806 C 366.667 327.325,366.551 327.306,366.057 327.706 C 365.571 328.099,365.508 328.098,365.747 327.700 C 365.916 327.418,365.850 327.200,365.595 327.200 C 365.127 327.200,364.000 326.231,364.000 325.829 C 364.000 325.703,364.203 325.645,364.450 325.700 C 364.698 325.755,364.992 325.546,365.105 325.236 C 365.244 324.851,365.108 324.750,364.675 324.916 C 364.215 325.092,364.108 324.985,364.284 324.525 C 364.447 324.100,364.346 323.951,363.975 324.075 C 363.671 324.176,363.317 324.696,363.188 325.230 L 362.955 326.200 362.634 325.200 C 362.458 324.650,362.341 323.975,362.374 323.700 C 362.446 323.113,361.753 323.028,361.411 323.583 C 361.045 324.174,359.925 323.571,360.176 322.918 C 360.346 322.474,360.096 322.367,359.099 322.457 C 358.242 322.535,357.834 322.409,357.900 322.087 C 357.968 321.756,357.360 321.600,356.000 321.600 C 354.900 321.600,354.000 321.420,354.000 321.200 C 354.000 320.969,352.733 320.800,351.000 320.800 C 349.267 320.800,348.000 320.631,348.000 320.400 C 348.000 320.172,346.808 320.000,345.224 320.000 C 343.697 320.000,342.336 319.820,342.200 319.600 C 342.064 319.380,341.549 319.200,341.056 319.200 C 339.602 319.200,338.051 318.278,337.573 317.129 C 337.327 316.540,336.855 315.953,336.522 315.825 C 336.189 315.698,336.014 315.340,336.133 315.030 C 336.252 314.720,336.072 314.360,335.733 314.230 C 335.376 314.093,335.217 313.734,335.354 313.376 C 335.489 313.023,335.422 312.863,335.195 313.003 C 334.974 313.140,334.800 312.796,334.800 312.224 C 334.800 311.661,334.620 311.200,334.400 311.200 C 334.180 311.200,334.000 310.930,334.000 310.600 C 334.000 310.270,333.820 310.000,333.600 310.000 C 333.380 310.000,333.200 309.640,333.200 309.200 C 333.200 308.760,333.020 308.400,332.800 308.400 C 332.580 308.400,332.400 308.040,332.400 307.600 C 332.400 307.160,332.220 306.800,332.000 306.800 C 331.780 306.800,331.600 306.440,331.600 306.000 C 331.600 305.560,331.420 305.200,331.200 305.200 C 330.980 305.200,330.800 304.840,330.800 304.400 C 330.800 303.960,330.620 303.600,330.400 303.600 C 330.180 303.600,330.000 303.240,330.000 302.800 C 330.000 302.360,329.820 302.000,329.600 302.000 C 329.380 302.000,329.200 301.640,329.200 301.200 C 329.200 300.760,329.020 300.400,328.800 300.400 C 328.580 300.400,328.397 299.995,328.394 299.500 C 328.389 298.772,328.314 298.715,328.000 299.200 C 327.677 299.700,327.604 299.667,327.563 299.000 C 327.507 298.084,323.631 294.400,322.531 294.216 C 322.129 294.149,321.845 293.893,321.900 293.647 C 321.956 293.395,321.477 293.200,320.800 293.200 C 320.140 293.200,319.600 293.043,319.600 292.851 C 319.600 292.424,310.565 292.401,310.119 292.826 M230.200 297.662 C 230.200 298.558,230.403 298.954,230.900 299.026 C 231.753 299.152,231.758 299.067,230.990 297.580 C 230.230 296.111,230.200 296.114,230.200 297.662 M239.470 308.293 C 239.368 308.462,239.535 308.832,239.842 309.116 C 240.300 309.539,240.400 309.526,240.400 309.039 C 240.400 308.360,239.747 307.836,239.470 308.293 M264.000 326.386 C 264.000 326.598,263.640 326.965,263.200 327.200 C 262.290 327.687,262.164 327.434,262.900 326.598 C 263.484 325.935,264.000 325.836,264.000 326.386 M368.768 330.514 C 368.745 330.880,368.687 330.877,368.535 330.500 C 368.424 330.225,367.978 330.000,367.543 330.000 C 367.108 330.000,366.864 329.820,367.001 329.599 C 367.325 329.075,368.812 329.845,368.768 330.514 M274.835 346.500 C 274.928 346.555,275.622 347.140,276.376 347.800 L 277.749 349.000 276.774 347.722 C 276.238 347.019,275.545 346.434,275.233 346.422 C 274.922 346.410,274.743 346.445,274.835 346.500 M275.102 376.200 C 274.997 376.750,275.066 377.200,275.255 377.200 C 275.445 377.200,275.600 376.750,275.600 376.200 C 275.600 375.650,275.531 375.200,275.447 375.200 C 275.362 375.200,275.207 375.650,275.102 376.200 M314.320 381.280 C 314.693 381.653,314.907 381.653,315.280 381.280 C 315.653 380.907,315.547 380.800,314.800 380.800 C 314.053 380.800,313.947 380.907,314.320 381.280 " stroke="none" fill="#6c7beb" fill-rule="evenodd"></path><path id="path1" d="M80.118 292.814 C 79.943 292.973,79.146 293.312,78.348 293.567 C 76.754 294.076,71.600 298.845,71.600 299.811 C 71.600 300.135,71.420 300.400,71.200 300.400 C 70.980 300.400,70.800 300.634,70.800 300.920 C 70.800 301.656,69.859 303.593,69.500 303.597 C 69.335 303.599,69.200 303.960,69.200 304.400 C 69.200 304.840,69.020 305.200,68.800 305.200 C 68.580 305.200,68.400 305.472,68.400 305.805 C 68.400 306.392,67.640 307.994,67.168 308.400 C 67.040 308.510,66.681 309.185,66.370 309.900 C 66.059 310.615,65.669 311.200,65.502 311.200 C 65.336 311.200,65.200 311.560,65.200 312.000 C 65.200 312.440,65.020 312.800,64.800 312.800 C 64.580 312.800,64.400 313.160,64.400 313.600 C 64.400 314.040,64.220 314.400,64.000 314.400 C 63.780 314.400,63.595 314.715,63.588 315.100 C 63.560 316.765,60.364 319.200,58.205 319.200 C 57.432 319.200,56.800 319.380,56.800 319.600 C 56.800 319.829,55.600 320.000,54.000 320.000 C 52.400 320.000,51.200 320.171,51.200 320.400 C 51.200 320.625,50.075 320.800,48.624 320.800 C 47.207 320.800,45.936 320.980,45.800 321.200 C 45.664 321.420,44.573 321.600,43.376 321.600 C 42.179 321.600,41.200 321.780,41.200 322.000 C 41.200 322.220,40.660 322.400,40.000 322.400 C 39.340 322.400,38.800 322.580,38.800 322.800 C 38.800 323.020,38.528 323.200,38.195 323.200 C 37.413 323.200,36.158 323.928,34.623 325.270 C 33.950 325.858,33.015 326.672,32.545 327.078 C 31.442 328.030,30.000 330.599,30.000 331.612 C 30.000 332.045,29.820 332.400,29.600 332.400 C 29.355 332.400,29.200 334.333,29.200 337.400 C 29.200 340.467,29.355 342.400,29.600 342.400 C 29.820 342.400,30.004 342.805,30.009 343.300 C 30.014 343.795,30.370 344.650,30.800 345.200 C 31.230 345.750,31.586 346.338,31.591 346.507 C 31.596 346.676,34.930 350.140,39.000 354.205 C 43.070 358.271,46.400 361.868,46.400 362.198 C 46.400 362.529,46.580 362.800,46.800 362.800 C 47.029 362.800,47.200 364.000,47.200 365.600 C 47.200 367.200,47.029 368.400,46.800 368.400 C 46.580 368.400,46.400 369.379,46.400 370.576 C 46.400 371.773,46.220 372.864,46.000 373.000 C 45.780 373.136,45.600 374.101,45.600 375.144 C 45.600 376.187,45.436 377.211,45.235 377.420 C 44.079 378.624,44.087 389.912,45.244 390.627 C 45.440 390.748,45.600 391.197,45.600 391.624 C 45.600 392.051,45.780 392.400,46.000 392.400 C 46.220 392.400,46.400 392.646,46.400 392.946 C 46.400 393.620,50.555 398.000,51.194 398.000 C 51.449 398.000,51.922 398.265,52.247 398.589 C 53.701 400.044,67.053 400.640,67.510 399.270 C 67.596 399.012,68.012 398.800,68.433 398.800 C 68.855 398.800,69.200 398.620,69.200 398.400 C 69.200 398.180,69.560 398.000,70.000 398.000 C 70.440 398.000,70.800 397.854,70.800 397.675 C 70.800 397.496,71.430 397.102,72.200 396.800 C 72.970 396.498,73.600 396.104,73.600 395.925 C 73.600 395.746,73.920 395.600,74.312 395.600 C 74.703 395.600,75.283 395.240,75.600 394.800 C 75.917 394.360,76.497 394.000,76.888 394.000 C 77.280 394.000,77.600 393.820,77.600 393.600 C 77.600 393.380,77.960 393.200,78.400 393.200 C 78.840 393.200,79.200 393.020,79.200 392.800 C 79.200 392.580,79.545 392.400,79.967 392.400 C 80.388 392.400,80.793 392.264,80.867 392.098 C 81.324 391.061,85.216 390.479,87.300 391.134 C 88.455 391.498,89.460 391.931,89.533 392.098 C 89.607 392.264,90.012 392.400,90.433 392.400 C 90.855 392.400,91.200 392.546,91.200 392.725 C 91.200 392.904,91.830 393.298,92.600 393.600 C 93.370 393.902,94.000 394.296,94.000 394.475 C 94.000 394.654,94.360 394.800,94.800 394.800 C 95.240 394.800,95.600 394.959,95.600 395.153 C 95.600 395.348,95.915 395.607,96.300 395.729 C 97.236 396.025,99.366 397.324,99.533 397.700 C 99.607 397.865,100.012 398.000,100.433 398.000 C 100.855 398.000,101.200 398.180,101.200 398.400 C 101.200 398.620,101.545 398.800,101.967 398.800 C 102.388 398.800,102.808 399.025,102.900 399.300 C 103.241 400.325,116.356 399.974,117.862 398.900 C 118.556 398.405,119.235 398.000,119.372 398.000 C 120.841 398.000,125.200 391.428,125.200 389.213 C 125.200 388.546,125.380 388.000,125.600 388.000 C 126.100 388.000,126.140 381.909,125.643 381.380 C 125.349 381.066,124.872 377.666,124.777 375.200 C 124.764 374.870,124.590 373.880,124.391 373.000 C 123.291 368.157,123.025 363.777,123.739 362.272 C 124.474 360.723,127.788 357.121,128.147 357.481 C 128.286 357.620,128.400 357.403,128.400 357.000 C 128.400 356.597,128.506 356.372,128.634 356.501 C 128.951 356.818,139.200 346.438,139.200 345.801 C 139.200 345.524,139.474 345.070,139.810 344.792 C 140.145 344.514,140.332 344.199,140.226 344.092 C 140.119 343.986,140.259 343.426,140.537 342.849 C 140.814 342.272,141.006 340.676,140.963 339.302 C 140.911 337.657,141.026 336.893,141.301 337.062 C 141.578 337.234,141.611 336.934,141.398 336.160 C 141.223 335.522,141.068 334.720,141.054 334.379 C 141.040 334.037,140.717 333.734,140.337 333.705 C 139.858 333.669,139.713 333.861,139.866 334.327 C 139.987 334.697,137.436 332.345,134.196 329.100 C 130.955 325.855,128.186 323.200,128.041 323.200 C 127.896 323.200,127.443 322.809,127.034 322.331 C 126.304 321.479,126.279 321.477,125.691 322.231 C 125.184 322.882,125.129 322.893,125.334 322.300 C 125.520 321.760,125.354 321.600,124.611 321.600 C 124.081 321.600,123.536 321.420,123.400 321.200 C 123.264 320.980,122.263 320.800,121.176 320.800 C 120.089 320.800,119.200 320.620,119.200 320.400 C 119.200 320.172,118.008 320.000,116.424 320.000 C 114.897 320.000,113.536 319.820,113.400 319.600 C 113.264 319.380,112.393 319.200,111.465 319.200 C 110.251 319.200,109.619 318.981,109.215 318.421 C 108.907 317.993,108.523 317.724,108.363 317.823 C 107.999 318.048,105.200 313.102,105.200 312.235 C 105.200 311.886,105.020 311.600,104.800 311.600 C 104.580 311.600,104.400 311.317,104.400 310.971 C 104.400 310.626,104.128 310.071,103.796 309.739 C 103.464 309.407,103.295 308.970,103.420 308.768 C 103.545 308.565,103.457 308.400,103.224 308.400 C 102.991 308.400,102.800 308.059,102.800 307.643 C 102.800 307.226,102.519 306.778,102.175 306.646 C 101.831 306.514,101.654 306.237,101.781 306.030 C 101.909 305.824,101.830 305.542,101.607 305.404 C 101.383 305.266,101.200 304.825,101.200 304.425 C 101.200 304.025,100.926 303.470,100.590 303.192 C 100.255 302.914,100.070 302.597,100.179 302.487 C 100.288 302.378,99.940 301.769,99.406 301.134 C 98.871 300.498,98.529 299.729,98.646 299.425 C 98.771 299.099,98.518 298.764,98.029 298.609 C 97.260 298.365,97.011 297.914,97.169 297.051 C 97.204 296.859,96.958 296.807,96.621 296.937 C 96.276 297.069,96.051 296.974,96.105 296.718 C 96.157 296.469,95.771 296.042,95.246 295.769 C 94.721 295.496,94.143 295.031,93.961 294.736 C 93.778 294.441,93.436 294.200,93.200 294.200 C 92.964 294.200,92.616 293.949,92.426 293.642 C 92.236 293.335,91.804 293.190,91.466 293.319 C 91.128 293.449,90.780 293.340,90.693 293.078 C 90.515 292.545,80.682 292.300,80.118 292.814 M86.779 302.500 C 87.199 302.890,87.256 302.891,87.038 302.505 C 86.850 302.172,86.963 302.088,87.379 302.247 C 87.721 302.378,88.000 302.652,88.000 302.855 C 88.000 303.059,88.308 303.343,88.684 303.487 C 89.665 303.864,91.173 305.678,91.187 306.500 C 91.194 306.885,91.380 307.200,91.600 307.200 C 91.820 307.200,92.000 307.530,92.000 307.933 C 92.000 308.337,92.135 308.802,92.300 308.967 C 92.465 309.132,92.606 309.387,92.614 309.533 C 92.622 309.680,92.853 310.205,93.128 310.700 C 93.403 311.195,93.519 311.600,93.386 311.600 C 93.252 311.600,93.427 311.885,93.775 312.232 C 94.123 312.580,94.305 313.030,94.180 313.232 C 94.055 313.435,94.143 313.600,94.376 313.600 C 94.609 313.600,94.800 313.945,94.800 314.367 C 94.800 314.788,94.935 315.193,95.100 315.267 C 95.575 315.478,97.200 318.641,97.200 319.354 C 97.200 319.710,97.380 320.000,97.600 320.000 C 97.820 320.000,98.000 320.371,98.000 320.824 C 98.000 321.277,98.180 321.536,98.400 321.400 C 98.755 321.181,98.963 321.717,98.700 322.174 C 98.472 322.569,103.369 326.800,104.054 326.800 C 104.464 326.800,104.800 326.980,104.800 327.200 C 104.800 327.420,105.070 327.600,105.400 327.600 C 105.730 327.600,106.000 327.780,106.000 328.000 C 106.000 328.220,106.720 328.400,107.600 328.400 C 108.480 328.400,109.200 328.580,109.200 328.800 C 109.200 329.022,110.259 329.200,111.576 329.200 C 112.883 329.200,114.064 329.380,114.200 329.600 C 114.336 329.820,115.697 330.000,117.224 330.000 C 118.751 330.000,120.000 330.152,120.000 330.338 C 120.000 330.524,121.028 330.710,122.284 330.751 C 123.566 330.793,124.705 331.040,124.878 331.313 C 125.118 331.691,125.189 331.687,125.194 331.297 C 125.198 330.942,125.406 330.904,125.900 331.167 C 126.707 331.599,127.968 332.073,128.720 332.228 C 129.592 332.408,130.407 333.266,130.130 333.713 C 129.975 333.964,130.105 334.045,130.449 333.913 C 130.800 333.779,131.053 333.949,131.090 334.345 C 131.124 334.705,131.276 335.855,131.428 336.900 C 131.626 338.263,131.569 338.800,131.225 338.800 C 130.953 338.800,130.840 339.102,130.964 339.500 C 131.084 339.885,131.009 340.470,130.797 340.800 C 130.455 341.333,130.410 341.333,130.394 340.800 C 130.381 340.374,130.243 340.432,129.919 341.000 C 129.667 341.440,129.130 342.037,128.724 342.327 C 128.318 342.617,128.107 343.050,128.255 343.289 C 128.403 343.528,128.346 343.614,128.129 343.480 C 127.912 343.346,127.080 343.948,126.280 344.818 C 125.479 345.688,124.639 346.400,124.412 346.400 C 124.186 346.400,124.000 346.700,124.000 347.067 C 124.000 347.433,123.881 347.614,123.736 347.469 C 123.590 347.324,123.261 347.609,123.003 348.102 C 122.745 348.596,122.324 348.955,122.067 348.900 C 121.810 348.845,121.600 349.058,121.600 349.373 C 121.600 349.688,121.237 350.061,120.794 350.202 C 120.351 350.343,120.092 350.625,120.218 350.829 C 120.344 351.033,120.261 351.200,120.034 351.200 C 119.397 351.200,116.000 354.746,116.000 355.411 C 116.000 355.735,115.820 356.000,115.600 356.000 C 115.380 356.000,115.200 356.371,115.200 356.824 C 115.200 357.277,115.020 357.536,114.800 357.400 C 114.580 357.264,114.400 357.513,114.400 357.953 C 114.400 358.393,114.220 358.864,114.000 359.000 C 113.780 359.136,113.600 359.967,113.600 360.847 C 113.600 361.812,113.441 362.349,113.200 362.200 C 112.948 362.044,112.800 362.996,112.800 364.776 C 112.800 366.392,112.971 367.600,113.200 367.600 C 113.420 367.600,113.600 368.590,113.600 369.800 C 113.600 371.010,113.780 372.000,114.000 372.000 C 114.220 372.000,114.400 372.979,114.400 374.176 C 114.400 375.373,114.580 376.464,114.800 376.600 C 115.020 376.736,115.200 377.927,115.200 379.247 C 115.200 380.745,115.350 381.554,115.600 381.400 C 116.605 380.779,116.044 386.792,115.000 387.836 C 114.450 388.386,114.000 389.008,114.000 389.218 C 114.000 389.428,113.730 389.600,113.400 389.600 C 113.070 389.600,112.800 389.780,112.800 390.000 C 112.800 390.220,112.440 390.400,112.000 390.400 C 111.560 390.400,111.200 390.580,111.200 390.800 C 111.200 391.020,110.660 391.200,110.000 391.200 C 109.340 391.200,108.800 391.020,108.800 390.800 C 108.800 390.580,108.440 390.400,108.000 390.400 C 107.560 390.400,107.200 390.254,107.200 390.075 C 107.200 389.896,106.570 389.502,105.800 389.200 C 105.030 388.898,104.400 388.504,104.400 388.325 C 104.400 388.146,104.040 388.000,103.600 388.000 C 103.160 388.000,102.800 387.820,102.800 387.600 C 102.800 387.380,102.440 387.200,102.000 387.200 C 101.560 387.200,101.200 387.020,101.200 386.800 C 101.200 386.580,100.840 386.400,100.400 386.400 C 99.960 386.400,99.600 386.220,99.600 386.000 C 99.600 385.780,99.240 385.600,98.800 385.600 C 98.360 385.600,98.000 385.420,98.000 385.200 C 98.000 384.980,97.640 384.800,97.200 384.800 C 96.760 384.800,96.400 384.641,96.400 384.447 C 96.400 384.252,96.085 383.984,95.700 383.850 C 95.315 383.715,94.190 383.160,93.200 382.614 C 92.210 382.069,91.085 381.617,90.700 381.611 C 90.315 381.605,90.000 381.420,90.000 381.200 C 90.000 380.373,80.979 380.713,79.400 381.600 C 78.617 382.040,77.711 382.400,77.388 382.400 C 77.065 382.400,76.800 382.546,76.800 382.725 C 76.800 382.904,76.170 383.298,75.400 383.600 C 74.630 383.902,74.000 384.296,74.000 384.475 C 74.000 384.654,73.640 384.800,73.200 384.800 C 72.760 384.800,72.400 384.980,72.400 385.200 C 72.400 385.420,72.040 385.600,71.600 385.600 C 71.160 385.600,70.800 385.780,70.800 386.000 C 70.800 386.220,70.440 386.400,70.000 386.400 C 69.560 386.400,69.200 386.580,69.200 386.800 C 69.200 387.020,68.840 387.200,68.400 387.200 C 67.960 387.200,67.600 387.380,67.600 387.600 C 67.600 387.820,67.240 388.000,66.800 388.000 C 66.360 388.000,66.000 388.180,66.000 388.400 C 66.000 388.620,65.640 388.800,65.200 388.800 C 64.760 388.800,64.400 388.980,64.400 389.200 C 64.400 389.420,64.130 389.600,63.800 389.600 C 63.470 389.600,63.200 389.780,63.200 390.000 C 63.200 390.220,62.750 390.400,62.200 390.400 C 61.650 390.400,61.200 390.580,61.200 390.800 C 61.200 391.020,60.660 391.200,60.000 391.200 C 59.340 391.200,58.800 391.020,58.800 390.800 C 58.800 390.580,58.561 390.400,58.270 390.400 C 57.371 390.400,54.910 387.578,54.547 386.130 C 54.419 385.623,54.431 384.441,54.573 383.504 C 54.715 382.567,54.931 380.900,55.052 379.800 C 55.174 378.700,55.437 377.629,55.637 377.420 C 55.837 377.211,56.000 376.122,56.000 375.000 C 56.000 373.878,56.163 372.789,56.363 372.580 C 57.195 371.710,57.609 362.707,56.926 360.347 C 56.504 358.890,55.845 357.445,54.774 355.627 C 54.261 354.757,46.983 347.316,42.359 342.933 C 40.070 340.763,39.600 340.164,39.600 339.417 C 39.600 339.078,39.420 338.800,39.200 338.800 C 38.534 338.800,38.750 337.055,39.645 335.202 C 40.568 333.291,41.308 332.400,41.971 332.400 C 42.207 332.400,42.400 332.220,42.400 332.000 C 42.400 331.780,43.120 331.600,44.000 331.600 C 44.880 331.600,45.600 331.420,45.600 331.200 C 45.600 330.971,46.800 330.800,48.400 330.800 C 50.000 330.800,51.200 330.629,51.200 330.400 C 51.200 330.174,52.341 330.000,53.824 330.000 C 55.471 330.000,56.355 329.851,56.200 329.600 C 56.045 329.349,56.929 329.200,58.576 329.200 C 60.059 329.200,61.200 329.026,61.200 328.800 C 61.200 328.580,61.819 328.400,62.576 328.400 C 63.333 328.400,64.064 328.220,64.200 328.000 C 64.336 327.780,64.797 327.600,65.224 327.600 C 65.651 327.600,66.000 327.420,66.000 327.200 C 66.000 326.980,66.262 326.800,66.581 326.800 C 67.316 326.800,71.600 322.798,71.600 322.112 C 71.600 321.830,71.736 321.600,71.902 321.600 C 72.069 321.600,72.447 321.015,72.743 320.300 C 73.039 319.585,73.571 318.370,73.925 317.600 C 74.280 316.830,74.576 316.080,74.585 315.933 C 74.593 315.787,74.735 315.532,74.900 315.367 C 75.065 315.202,75.200 314.737,75.200 314.333 C 75.200 313.930,75.380 313.600,75.600 313.600 C 75.820 313.600,76.000 313.240,76.000 312.800 C 76.000 312.360,76.180 312.000,76.400 312.000 C 76.620 312.000,76.800 311.640,76.800 311.200 C 76.800 310.760,76.980 310.400,77.200 310.400 C 77.420 310.400,77.600 310.040,77.600 309.600 C 77.600 309.160,77.735 308.799,77.900 308.799 C 78.065 308.798,78.645 307.822,79.190 306.630 C 79.734 305.439,80.319 304.550,80.490 304.655 C 80.660 304.761,80.800 304.667,80.800 304.446 C 80.800 303.075,85.685 301.484,86.779 302.500 M158.914 304.200 C 158.917 305.300,158.995 305.703,159.087 305.095 C 159.179 304.486,159.177 303.586,159.082 303.095 C 158.987 302.603,158.911 303.100,158.914 304.200 M128.814 322.129 C 128.806 322.529,129.070 323.127,129.400 323.457 C 130.151 324.208,130.151 323.713,129.400 322.400 C 128.941 321.597,128.826 321.544,128.814 322.129 M131.206 322.700 C 131.222 323.499,131.890 324.065,132.117 323.473 C 132.242 323.146,132.237 322.771,132.106 322.639 C 131.769 322.303,131.199 322.341,131.206 322.700 M138.243 327.931 C 138.114 328.139,138.281 328.535,138.614 328.812 C 139.429 329.488,139.660 329.171,139.006 328.275 C 138.715 327.878,138.372 327.723,138.243 327.931 " stroke="none" fill="#d81ef9" fill-rule="evenodd"></path><path id="path2" d="M193.600 0.700 C 192.830 1.075,191.210 2.381,190.000 3.601 C 188.790 4.821,187.170 6.258,186.400 6.794 C 185.630 7.330,184.550 8.226,184.000 8.785 C 183.450 9.343,182.322 10.382,181.494 11.093 C 180.666 11.804,180.015 12.524,180.049 12.693 C 180.083 12.862,179.727 13.196,179.257 13.436 C 178.788 13.675,178.524 13.990,178.669 14.136 C 178.814 14.281,178.706 14.400,178.427 14.400 C 178.149 14.400,177.386 14.985,176.733 15.700 C 173.163 19.606,171.910 20.800,171.384 20.800 C 171.063 20.800,170.800 21.160,170.800 21.600 C 170.800 22.040,170.548 22.400,170.240 22.400 C 169.514 22.400,166.793 25.118,166.910 25.726 C 166.960 25.982,166.415 26.366,165.700 26.579 C 164.985 26.791,164.400 27.228,164.400 27.549 C 164.400 27.871,164.289 28.022,164.152 27.886 C 163.869 27.602,162.800 28.562,162.800 29.100 C 162.800 29.639,168.549 35.526,169.218 35.673 C 169.538 35.743,169.903 35.939,170.029 36.109 C 170.156 36.280,170.606 36.024,171.029 35.541 C 171.479 35.028,171.553 34.808,171.207 35.012 C 170.446 35.461,169.218 35.553,168.987 35.178 C 168.888 35.018,169.433 34.770,170.198 34.627 C 170.965 34.483,171.546 34.149,171.494 33.883 C 171.441 33.612,171.802 33.415,172.317 33.434 C 172.939 33.456,173.167 33.290,173.024 32.918 C 172.888 32.563,173.055 32.409,173.497 32.484 C 173.874 32.548,174.186 32.375,174.191 32.100 C 174.196 31.825,174.380 31.562,174.600 31.516 C 174.820 31.470,176.352 30.066,178.004 28.396 C 179.656 26.726,181.321 25.239,181.704 25.092 C 182.087 24.945,182.400 24.627,182.400 24.384 C 182.400 24.141,182.670 23.673,183.000 23.343 C 183.372 22.971,183.600 22.918,183.600 23.204 C 183.600 23.686,186.987 20.638,189.770 17.651 C 192.880 14.312,194.237 12.998,195.016 12.567 C 195.447 12.329,195.978 11.744,196.195 11.267 C 196.412 10.790,196.867 10.400,197.207 10.400 C 197.546 10.400,198.083 10.040,198.400 9.600 C 199.117 8.606,200.695 8.565,201.553 9.519 C 201.909 9.914,202.830 10.675,203.600 11.210 C 204.370 11.745,207.070 14.323,209.600 16.939 C 212.130 19.556,215.280 22.527,216.600 23.542 C 217.920 24.558,221.357 27.731,224.239 30.594 C 227.120 33.457,230.871 37.060,232.574 38.600 C 234.277 40.140,237.449 43.110,239.623 45.200 C 241.797 47.290,245.280 50.620,247.364 52.600 C 249.447 54.580,251.162 56.425,251.176 56.700 C 251.189 56.975,251.380 57.200,251.600 57.200 C 251.820 57.200,252.000 57.650,252.000 58.200 C 252.000 58.750,251.820 59.200,251.600 59.200 C 251.380 59.200,251.200 59.393,251.200 59.629 C 251.200 60.182,250.182 61.200,249.629 61.200 C 249.393 61.200,249.200 61.380,249.200 61.600 C 249.200 61.856,245.566 62.000,239.100 62.000 L 229.000 62.001 227.838 63.000 C 227.199 63.550,226.839 64.003,227.038 64.006 C 227.237 64.009,227.155 64.167,226.856 64.357 C 225.861 64.988,226.232 90.802,227.245 91.428 C 227.440 91.549,227.600 92.256,227.600 93.001 C 227.600 94.173,228.108 94.870,231.400 98.210 C 234.384 101.238,235.200 102.308,235.200 103.190 C 235.200 103.821,235.464 104.416,235.800 104.545 C 236.327 104.747,236.400 102.768,236.400 88.187 L 236.400 71.600 244.600 71.600 C 249.800 71.600,252.800 71.454,252.800 71.200 C 252.800 70.980,253.072 70.800,253.405 70.800 C 254.114 70.800,255.430 70.089,256.555 69.100 C 256.993 68.715,257.466 68.400,257.608 68.400 C 257.749 68.400,258.120 67.905,258.432 67.300 C 258.745 66.695,259.315 65.851,259.700 65.425 C 260.085 64.998,260.400 64.248,260.400 63.758 C 260.400 63.268,260.585 62.805,260.812 62.729 C 261.374 62.542,261.381 53.060,260.819 52.873 C 260.589 52.796,260.400 52.428,260.400 52.055 C 260.400 51.682,260.040 51.117,259.600 50.800 C 259.160 50.483,258.800 49.987,258.800 49.698 C 258.800 49.041,256.195 46.400,255.547 46.400 C 255.283 46.400,255.171 46.296,255.299 46.168 C 255.498 45.969,253.375 43.874,251.685 42.600 C 251.393 42.380,248.845 39.950,246.022 37.200 C 243.200 34.450,239.322 30.760,237.405 29.000 C 235.488 27.240,232.985 24.889,231.843 23.775 C 230.701 22.661,229.460 21.632,229.084 21.487 C 228.708 21.343,228.400 21.015,228.400 20.759 C 228.400 20.174,226.371 18.401,225.700 18.400 C 225.425 18.400,225.200 18.240,225.200 18.044 C 225.200 17.356,215.345 7.803,212.742 5.969 C 212.004 5.448,210.590 4.201,209.600 3.198 C 206.391 -0.054,197.877 -1.383,193.600 0.700 M161.695 29.836 C 161.423 30.128,161.200 30.584,161.200 30.850 C 161.200 31.116,161.089 31.222,160.952 31.086 C 160.816 30.950,160.456 31.087,160.152 31.390 C 159.288 32.255,159.500 32.405,160.700 31.779 C 161.305 31.463,162.014 31.204,162.276 31.202 C 163.012 31.199,163.177 30.657,162.659 29.949 C 162.271 29.418,162.104 29.399,161.695 29.836 M158.258 32.987 C 157.850 33.296,157.588 33.765,157.676 34.029 C 157.768 34.305,158.131 34.060,158.527 33.455 C 159.314 32.253,159.288 32.207,158.258 32.987 M167.600 37.499 C 167.600 37.904,167.787 37.928,168.400 37.600 C 168.840 37.365,169.200 37.099,169.200 37.011 C 169.200 36.922,168.840 36.877,168.400 36.910 C 167.960 36.943,167.600 37.208,167.600 37.499 " stroke="none" fill="#1bc1df" fill-rule="evenodd"></path><path id="path3" d="M173.704 238.594 C 173.391 238.949,173.354 239.248,173.604 239.402 C 173.822 239.537,174.000 239.829,174.000 240.051 C 174.000 240.273,173.477 240.082,172.838 239.627 C 171.621 238.760,169.423 238.516,169.000 239.200 C 168.864 239.420,167.683 239.600,166.376 239.600 C 164.745 239.600,163.998 239.757,163.994 240.100 C 163.990 240.433,163.858 240.400,163.600 240.000 C 163.342 239.600,163.210 239.567,163.206 239.900 C 163.202 240.248,162.415 240.400,160.624 240.400 C 159.207 240.400,157.936 240.580,157.800 240.800 C 157.664 241.020,156.843 241.200,155.976 241.200 C 155.109 241.200,154.400 241.380,154.400 241.600 C 154.400 241.820,154.063 242.000,153.650 242.000 C 151.934 242.000,147.200 245.520,147.200 246.797 C 147.200 247.018,147.039 247.200,146.842 247.200 C 145.574 247.200,144.000 252.388,144.000 256.568 C 144.000 262.720,144.890 264.458,151.156 270.542 C 153.001 272.334,155.199 274.475,156.040 275.300 C 156.880 276.125,157.743 276.800,157.957 276.800 C 158.171 276.800,158.460 277.160,158.600 277.600 C 158.740 278.040,159.009 278.400,159.199 278.400 C 159.388 278.400,160.110 279.239,160.802 280.265 C 162.174 282.298,162.249 283.929,161.240 289.800 C 161.013 291.120,160.657 293.190,160.449 294.400 C 158.835 303.796,158.861 306.762,160.591 310.543 C 161.762 313.103,165.779 317.595,166.900 317.598 C 167.285 317.599,167.600 317.780,167.600 318.000 C 167.600 318.220,167.949 318.400,168.376 318.400 C 168.803 318.400,169.264 318.580,169.400 318.800 C 169.536 319.020,170.076 319.200,170.600 319.200 C 171.124 319.200,171.664 319.380,171.800 319.600 C 171.936 319.820,173.376 320.000,175.000 320.000 C 176.624 320.000,178.064 319.820,178.200 319.600 C 178.336 319.380,178.966 319.200,179.600 319.200 C 180.234 319.200,180.864 319.020,181.000 318.800 C 181.136 318.580,181.552 318.396,181.924 318.391 C 182.296 318.386,183.050 318.030,183.600 317.600 C 184.150 317.170,184.881 316.814,185.225 316.809 C 185.568 316.804,186.236 316.440,186.708 316.000 C 187.180 315.560,187.799 315.196,188.083 315.191 C 188.367 315.186,189.050 314.830,189.600 314.400 C 190.150 313.970,190.825 313.614,191.100 313.609 C 191.375 313.604,191.600 313.420,191.600 313.200 C 191.600 312.980,191.960 312.800,192.400 312.800 C 192.840 312.800,193.200 312.620,193.200 312.400 C 193.200 312.180,193.560 312.000,194.000 312.000 C 194.440 312.000,194.800 311.820,194.800 311.600 C 194.800 311.380,195.160 311.200,195.600 311.200 C 196.040 311.200,196.400 311.020,196.400 310.800 C 196.400 310.580,196.760 310.400,197.200 310.400 C 197.640 310.400,198.000 310.220,198.000 310.000 C 198.000 309.780,198.900 309.600,200.000 309.600 C 201.100 309.600,202.000 309.780,202.000 310.000 C 202.000 310.220,202.360 310.400,202.800 310.400 C 203.240 310.400,203.600 310.580,203.600 310.800 C 203.600 311.020,203.960 311.200,204.400 311.200 C 204.840 311.200,205.200 311.380,205.200 311.600 C 205.200 311.820,205.472 312.000,205.805 312.000 C 206.392 312.000,207.994 312.760,208.400 313.232 C 208.510 313.360,209.185 313.719,209.900 314.030 C 210.615 314.341,211.200 314.731,211.200 314.898 C 211.200 315.064,211.478 315.200,211.817 315.200 C 212.156 315.200,212.820 315.560,213.292 316.000 C 213.764 316.440,214.484 316.800,214.892 316.800 C 215.300 316.800,216.020 317.160,216.492 317.600 C 216.964 318.040,217.666 318.400,218.052 318.400 C 218.437 318.400,218.864 318.580,219.000 318.800 C 219.136 319.020,219.766 319.200,220.400 319.200 C 221.034 319.200,221.648 319.355,221.765 319.544 C 222.078 320.050,227.600 320.117,227.600 319.614 C 227.600 319.387,228.320 319.200,229.200 319.200 C 230.080 319.200,230.800 319.020,230.800 318.800 C 230.800 318.580,231.062 318.400,231.381 318.400 C 232.316 318.400,233.994 317.514,233.764 317.142 C 233.648 316.954,233.788 316.795,234.076 316.789 C 235.849 316.753,240.780 309.539,239.561 308.767 C 239.053 308.446,239.333 308.231,240.100 308.353 C 240.565 308.426,240.454 307.815,239.900 307.251 C 239.499 306.844,239.509 306.768,239.947 306.871 C 240.248 306.942,240.549 306.730,240.617 306.400 C 240.684 306.070,240.866 305.215,241.020 304.500 C 241.194 303.693,241.144 303.200,240.887 303.200 C 240.661 303.200,240.569 303.560,240.684 304.000 C 240.801 304.447,240.696 304.800,240.447 304.800 C 240.201 304.800,239.989 305.115,239.975 305.500 C 239.954 306.078,239.891 306.056,239.615 305.374 C 239.159 304.248,231.602 296.622,231.591 297.277 C 231.586 297.565,231.245 297.057,230.833 296.149 C 229.912 294.122,229.306 293.679,229.382 295.088 C 229.413 295.670,229.658 296.219,229.928 296.309 C 230.356 296.452,231.600 298.422,231.600 298.957 C 231.600 299.065,231.240 299.085,230.800 299.000 C 229.912 298.829,229.793 299.265,230.412 300.422 C 231.335 302.146,230.746 307.600,229.637 307.600 C 229.426 307.600,229.146 307.939,229.015 308.352 C 228.581 309.720,223.565 310.193,221.795 309.034 C 221.263 308.685,220.552 308.400,220.214 308.400 C 219.876 308.400,219.600 308.254,219.600 308.075 C 219.600 307.896,218.970 307.502,218.200 307.200 C 217.430 306.898,216.800 306.504,216.800 306.325 C 216.800 306.146,216.440 306.000,216.000 306.000 C 215.560 306.000,215.200 305.820,215.200 305.600 C 215.200 305.380,214.840 305.200,214.400 305.200 C 213.960 305.200,213.600 305.020,213.600 304.800 C 213.600 304.580,213.240 304.400,212.800 304.400 C 212.360 304.400,212.000 304.220,212.000 304.000 C 212.000 303.780,211.640 303.600,211.200 303.600 C 210.760 303.600,210.400 303.420,210.400 303.200 C 210.400 302.980,210.055 302.800,209.633 302.800 C 209.212 302.800,208.807 302.665,208.733 302.500 C 208.461 301.886,205.084 300.400,203.962 300.400 C 203.323 300.400,202.800 300.239,202.800 300.042 C 202.800 299.845,201.540 299.684,200.000 299.684 C 198.460 299.684,197.200 299.845,197.200 300.042 C 197.200 300.239,196.665 300.400,196.012 300.400 C 195.359 300.400,194.183 300.760,193.400 301.200 C 192.617 301.640,191.745 302.000,191.463 302.000 C 191.181 302.000,190.564 302.360,190.092 302.800 C 189.620 303.240,188.956 303.600,188.617 303.600 C 188.278 303.600,188.000 303.780,188.000 304.000 C 188.000 304.220,187.640 304.400,187.200 304.400 C 186.760 304.400,186.400 304.580,186.400 304.800 C 186.400 305.020,186.040 305.200,185.600 305.200 C 185.160 305.200,184.800 305.380,184.800 305.600 C 184.800 305.820,184.440 306.000,184.000 306.000 C 183.560 306.000,183.200 306.180,183.200 306.400 C 183.200 306.620,182.930 306.800,182.600 306.800 C 182.270 306.800,182.000 306.980,182.000 307.200 C 182.000 307.420,181.640 307.600,181.200 307.600 C 180.760 307.600,180.400 307.780,180.400 308.000 C 180.400 308.220,180.124 308.400,179.786 308.400 C 179.448 308.400,178.737 308.685,178.205 309.034 C 175.512 310.798,171.273 309.525,169.632 306.460 C 169.088 305.444,169.063 300.932,169.600 300.600 C 169.820 300.464,170.000 299.499,170.000 298.456 C 170.000 297.413,170.164 296.389,170.365 296.180 C 170.565 295.971,170.835 294.765,170.965 293.500 C 171.558 287.700,171.693 286.800,171.969 286.800 C 172.956 286.800,172.227 280.340,170.971 277.956 C 170.669 277.382,170.536 276.797,170.677 276.656 C 170.818 276.515,170.735 276.400,170.494 276.400 C 170.252 276.400,169.935 276.026,169.790 275.569 C 169.645 275.112,166.121 271.328,161.959 267.159 C 153.081 258.267,152.638 257.495,154.462 254.105 C 155.025 253.057,156.007 251.930,156.643 251.600 C 157.279 251.270,157.860 250.865,157.933 250.700 C 158.007 250.535,159.031 250.400,160.210 250.400 C 161.388 250.400,162.464 250.220,162.600 250.000 C 162.736 249.780,164.007 249.600,165.424 249.600 C 166.875 249.600,168.000 249.425,168.000 249.200 C 168.000 248.975,169.125 248.800,170.576 248.800 C 171.993 248.800,173.264 248.620,173.400 248.400 C 173.536 248.180,174.411 248.000,175.344 248.000 C 176.277 248.000,177.211 247.835,177.420 247.634 C 177.629 247.432,178.250 247.207,178.800 247.134 C 180.633 246.888,179.971 245.233,176.825 242.196 C 174.367 239.823,173.162 238.235,174.400 239.000 C 174.620 239.136,174.800 238.967,174.800 238.624 C 174.800 237.857,174.363 237.846,173.704 238.594 M180.396 245.804 C 179.985 246.300,180.045 246.400,180.751 246.400 C 181.218 246.400,181.600 246.231,181.600 246.024 C 181.600 245.331,180.896 245.202,180.396 245.804 M242.060 276.642 C 241.762 276.978,241.599 277.332,241.695 277.429 C 241.792 277.526,242.198 277.244,242.598 276.802 C 242.997 276.361,243.161 276.007,242.962 276.015 C 242.763 276.024,242.357 276.305,242.060 276.642 M238.028 287.900 C 238.138 289.073,238.746 289.726,238.772 288.700 C 238.787 288.095,238.620 287.600,238.400 287.600 C 238.180 287.600,238.013 287.735,238.028 287.900 M228.684 290.800 C 228.799 291.240,229.041 291.600,229.222 291.600 C 229.402 291.600,229.523 291.240,229.490 290.800 C 229.457 290.360,229.215 290.000,228.952 290.000 C 228.672 290.000,228.561 290.330,228.684 290.800 M240.024 301.600 C 240.024 302.742,240.099 302.871,240.432 302.300 C 240.709 301.825,240.709 301.375,240.432 300.900 C 240.099 300.329,240.024 300.458,240.024 301.600 M127.093 322.400 C 127.470 322.840,127.896 323.200,128.041 323.200 C 128.186 323.200,130.955 325.855,134.196 329.100 C 137.436 332.345,139.977 334.670,139.843 334.267 C 139.681 333.780,139.768 333.593,140.100 333.711 C 140.375 333.808,140.557 334.318,140.505 334.844 C 140.428 335.616,140.484 335.677,140.793 335.157 C 141.193 334.485,141.070 333.150,140.529 332.298 C 140.189 331.763,140.127 331.543,140.050 330.576 C 140.021 330.213,139.808 330.072,139.538 330.238 C 139.248 330.417,139.185 330.348,139.369 330.051 C 139.538 329.777,139.269 329.251,138.731 328.802 C 138.219 328.376,137.941 328.021,138.114 328.013 C 138.287 328.006,138.233 327.635,137.994 327.189 C 137.755 326.743,137.384 326.486,137.170 326.619 C 136.956 326.751,136.830 326.632,136.890 326.353 C 136.951 326.075,136.642 325.770,136.204 325.676 C 135.767 325.582,135.171 325.166,134.882 324.752 C 134.592 324.338,134.095 324.000,133.777 324.000 C 133.460 324.000,133.200 323.820,133.200 323.600 C 133.200 323.012,132.003 323.111,131.986 323.700 C 131.978 323.975,131.753 323.840,131.486 323.400 C 130.756 322.197,129.446 322.084,129.818 323.256 C 130.084 324.095,130.056 324.114,129.453 323.510 C 129.094 323.151,128.800 322.574,128.800 322.229 C 128.800 321.797,128.425 321.600,127.604 321.600 C 126.446 321.600,126.430 321.626,127.093 322.400 M267.800 322.800 C 267.664 323.020,267.823 323.200,268.153 323.200 C 268.483 323.200,268.864 323.020,269.000 322.800 C 269.136 322.580,268.977 322.400,268.647 322.400 C 268.317 322.400,267.936 322.580,267.800 322.800 M262.900 326.598 C 262.164 327.434,262.290 327.687,263.200 327.200 C 263.640 326.965,264.000 326.598,264.000 326.386 C 264.000 325.836,263.484 325.935,262.900 326.598 M260.756 329.282 C 259.362 332.135,259.177 332.662,258.954 334.400 C 258.420 338.576,259.304 344.800,260.431 344.800 C 260.634 344.800,260.755 344.964,260.700 345.165 C 260.472 345.997,263.541 349.288,272.561 357.879 C 277.051 362.156,277.616 363.742,276.422 368.713 C 276.142 369.876,276.004 371.172,276.114 371.594 C 276.225 372.016,276.141 372.420,275.929 372.490 C 275.717 372.561,275.543 373.650,275.543 374.910 C 275.543 376.169,275.376 377.200,275.171 377.200 C 274.967 377.200,274.800 378.190,274.800 379.400 C 274.800 380.610,274.620 381.600,274.400 381.600 C 274.169 381.600,274.000 382.859,274.000 384.576 C 274.000 386.213,274.180 387.664,274.400 387.800 C 274.620 387.936,274.800 388.667,274.800 389.424 C 274.800 390.181,274.980 390.800,275.200 390.800 C 275.420 390.800,275.600 391.135,275.600 391.544 C 275.600 393.066,279.787 398.000,281.078 398.000 C 281.365 398.000,281.600 398.136,281.600 398.302 C 281.600 399.996,294.429 400.525,297.400 398.954 C 298.280 398.489,300.170 397.499,301.600 396.754 C 303.030 396.009,304.260 395.265,304.333 395.100 C 304.407 394.935,304.722 394.800,305.033 394.800 C 305.345 394.800,305.600 394.620,305.600 394.400 C 305.600 394.180,305.834 394.000,306.120 394.000 C 306.807 394.000,308.793 393.070,308.797 392.746 C 308.799 392.607,309.835 392.094,311.100 391.607 C 312.365 391.120,313.834 390.515,314.365 390.261 C 315.114 389.904,315.369 389.912,315.499 390.300 C 315.591 390.575,316.091 390.800,316.610 390.800 C 317.128 390.800,317.664 390.980,317.800 391.200 C 317.936 391.420,318.487 391.600,319.024 391.600 C 319.561 391.600,320.000 391.780,320.000 392.000 C 320.000 392.220,320.320 392.400,320.712 392.400 C 321.103 392.400,321.683 392.760,322.000 393.200 C 322.317 393.640,322.869 394.000,323.226 394.000 C 323.584 394.000,324.198 394.356,324.591 394.791 C 324.985 395.225,325.450 395.492,325.626 395.384 C 325.801 395.276,326.055 395.365,326.189 395.583 C 326.324 395.800,327.101 396.289,327.917 396.668 C 328.733 397.048,329.528 397.546,329.683 397.776 C 329.871 398.053,330.141 398.006,330.483 397.638 C 330.869 397.223,330.874 397.154,330.500 397.365 C 330.225 397.520,329.986 397.502,329.969 397.324 C 329.953 397.146,329.878 396.684,329.805 396.298 C 329.731 395.912,329.834 395.698,330.035 395.822 C 330.236 395.946,330.400 395.982,330.400 395.902 C 330.400 395.565,316.714 382.000,316.374 382.000 C 316.168 382.000,316.000 381.844,316.000 381.652 C 316.000 381.461,316.720 381.388,317.600 381.490 C 318.480 381.591,319.200 381.507,319.200 381.303 C 319.200 380.764,315.979 380.720,315.340 381.250 C 314.988 381.542,314.626 381.564,314.300 381.313 C 313.645 380.809,310.729 380.765,310.141 381.251 C 309.888 381.459,309.259 381.712,308.742 381.811 C 308.225 381.911,307.745 382.164,307.675 382.374 C 307.606 382.583,307.335 382.674,307.074 382.575 C 306.813 382.477,306.082 382.843,305.448 383.389 C 304.814 383.936,304.139 384.286,303.948 384.168 C 303.757 384.050,303.600 384.143,303.600 384.376 C 303.600 384.609,303.240 384.800,302.800 384.800 C 302.360 384.800,301.999 384.935,301.997 385.100 C 301.993 385.459,300.056 386.400,299.320 386.400 C 299.034 386.400,298.800 386.580,298.800 386.800 C 298.800 387.020,298.530 387.200,298.200 387.200 C 297.870 387.200,297.600 387.380,297.600 387.600 C 297.600 387.820,297.240 388.000,296.800 388.000 C 296.360 388.000,296.000 388.180,296.000 388.400 C 296.000 388.620,295.640 388.800,295.200 388.800 C 294.760 388.800,294.399 388.935,294.397 389.100 C 294.393 389.459,292.456 390.400,291.720 390.400 C 291.434 390.400,291.200 390.580,291.200 390.800 C 291.200 391.020,290.786 391.200,290.280 391.200 C 289.226 391.200,287.208 390.347,287.203 389.900 C 287.201 389.735,286.840 389.600,286.400 389.600 C 285.942 389.600,285.600 389.333,285.600 388.976 C 285.600 388.633,285.420 388.464,285.200 388.600 C 284.980 388.736,284.800 388.477,284.800 388.024 C 284.800 387.571,284.606 387.200,284.368 387.200 C 283.736 387.200,284.433 378.312,285.200 376.600 C 285.397 376.160,285.651 374.990,285.764 374.000 C 285.878 373.010,286.151 371.030,286.371 369.600 C 287.297 363.600,287.322 362.846,286.638 361.802 C 286.277 361.251,286.098 360.800,286.240 360.800 C 286.382 360.800,286.251 360.495,285.949 360.123 C 285.475 359.539,285.482 359.495,286.000 359.800 C 286.533 360.114,286.533 360.072,286.000 359.415 C 285.670 359.009,285.451 358.375,285.514 358.007 C 285.576 357.638,285.202 356.901,284.682 356.368 C 284.162 355.836,283.617 355.074,283.471 354.675 C 283.325 354.276,283.024 354.061,282.803 354.198 C 282.581 354.335,282.400 354.077,282.400 353.624 C 282.400 353.171,282.265 352.796,282.100 352.792 C 281.547 352.776,277.265 348.469,277.534 348.199 C 277.680 348.053,277.617 347.993,277.392 348.067 C 277.168 348.140,276.469 347.795,275.838 347.300 C 275.208 346.805,274.826 346.400,274.990 346.400 C 275.453 346.400,271.057 342.184,270.285 341.888 C 269.908 341.743,269.600 341.349,269.600 341.013 C 269.600 340.676,269.409 340.400,269.176 340.400 C 268.943 340.400,268.857 340.231,268.985 340.024 C 269.113 339.817,268.986 339.432,268.704 339.168 C 268.135 338.637,268.253 335.600,268.842 335.600 C 269.039 335.600,269.206 335.285,269.213 334.900 C 269.228 334.069,270.166 332.731,270.543 333.003 C 270.688 333.108,270.608 332.970,270.365 332.697 C 270.021 332.310,269.789 332.399,269.313 333.100 C 268.977 333.595,268.409 333.986,268.051 333.968 C 267.623 333.948,267.574 333.867,267.909 333.732 C 268.435 333.521,263.486 328.400,262.756 328.400 C 262.546 328.400,262.254 328.715,262.106 329.100 C 261.874 329.704,261.807 329.674,261.618 328.882 C 261.411 328.009,261.368 328.029,260.756 329.282 M140.800 337.533 C 140.800 338.010,140.964 338.400,141.165 338.400 C 141.571 338.400,141.511 337.377,141.078 336.945 C 140.925 336.792,140.800 337.057,140.800 337.533 M320.268 382.110 C 320.385 382.299,320.581 382.353,320.703 382.230 C 320.826 382.107,321.172 382.211,321.472 382.460 C 321.901 382.816,321.967 382.778,321.777 382.284 C 321.644 381.938,321.202 381.680,320.795 381.710 C 320.388 381.741,320.151 381.921,320.268 382.110 M326.400 385.200 C 326.400 385.420,326.670 385.600,327.000 385.600 C 327.330 385.600,327.600 385.420,327.600 385.200 C 327.600 384.980,327.330 384.800,327.000 384.800 C 326.670 384.800,326.400 384.980,326.400 385.200 M332.477 398.830 C 332.555 399.067,332.791 399.260,333.000 399.260 C 333.209 399.260,333.445 399.067,333.523 398.830 C 333.602 398.594,333.367 398.400,333.000 398.400 C 332.633 398.400,332.398 398.594,332.477 398.830 " stroke="none" fill="#9856f3" fill-rule="evenodd"></path><path id="path4" d="M165.824 26.213 C 165.396 26.536,165.227 26.800,165.447 26.800 C 165.667 26.800,166.196 26.536,166.624 26.213 C 167.051 25.890,167.220 25.625,167.000 25.625 C 166.780 25.625,166.251 25.890,165.824 26.213 M162.267 29.770 C 162.139 30.102,162.235 30.498,162.479 30.649 C 162.767 30.827,162.810 30.739,162.600 30.400 C 162.384 30.051,162.433 29.973,162.745 30.166 C 163.430 30.590,162.957 31.102,161.606 31.399 C 160.955 31.542,159.832 32.223,159.111 32.913 C 158.390 33.603,157.655 34.175,157.477 34.184 C 157.300 34.193,156.809 34.650,156.386 35.200 C 155.964 35.750,155.614 36.074,155.609 35.920 C 155.604 35.767,153.909 37.297,151.843 39.320 C 149.777 41.344,146.537 44.427,144.643 46.172 C 142.749 47.917,141.200 49.582,141.200 49.872 C 141.200 50.162,141.020 50.400,140.800 50.400 C 140.580 50.400,140.400 50.681,140.400 51.024 C 140.400 51.367,140.220 51.536,140.000 51.400 C 139.780 51.264,139.600 51.513,139.600 51.953 C 139.600 52.393,139.420 52.864,139.200 53.000 C 138.969 53.142,138.800 55.271,138.800 58.024 C 138.800 60.941,138.956 62.800,139.200 62.800 C 139.420 62.800,139.600 63.072,139.600 63.405 C 139.600 65.046,143.271 69.354,145.577 70.420 C 146.140 70.681,146.913 71.052,147.295 71.247 C 147.677 71.441,151.502 71.600,155.795 71.600 L 163.600 71.600 163.600 92.200 C 163.600 105.667,163.739 112.800,164.000 112.800 C 164.252 112.800,164.402 115.504,164.406 120.100 C 164.410 124.961,164.542 127.200,164.800 126.800 C 165.143 126.269,165.188 126.270,165.194 126.808 C 165.197 127.143,166.820 129.029,168.800 131.000 C 171.605 133.792,172.400 134.828,172.400 135.692 C 172.400 136.301,172.580 136.800,172.800 136.800 C 173.020 136.800,173.213 137.565,173.228 138.500 C 173.244 139.435,173.411 140.560,173.600 141.000 C 173.795 141.454,173.950 125.358,173.958 103.800 C 173.968 74.694,173.858 65.605,173.486 64.967 C 173.219 64.508,172.614 63.653,172.142 63.067 L 171.285 62.000 161.342 61.999 C 150.816 61.997,148.800 61.644,148.800 59.806 C 148.800 59.473,148.620 59.200,148.400 59.200 C 148.180 59.200,148.000 58.750,148.000 58.200 C 148.000 57.650,148.180 57.200,148.400 57.200 C 148.620 57.200,148.800 56.969,148.800 56.687 C 148.800 56.405,150.704 54.380,153.031 52.187 C 155.358 49.994,158.958 46.533,161.031 44.495 C 163.104 42.457,164.803 40.927,164.807 41.095 C 164.810 41.263,165.188 40.815,165.646 40.100 C 166.104 39.385,166.731 38.800,167.039 38.800 C 167.371 38.800,167.600 38.391,167.600 37.800 C 167.600 37.250,167.735 36.836,167.900 36.879 C 168.463 37.028,170.000 36.347,170.000 35.949 C 170.000 35.731,169.817 35.666,169.594 35.804 C 169.371 35.941,167.683 34.504,165.844 32.610 C 163.413 30.108,162.435 29.331,162.267 29.770 M171.553 33.500 C 171.527 33.665,171.524 33.927,171.547 34.083 C 171.570 34.239,170.963 34.483,170.198 34.627 C 168.756 34.897,168.566 35.513,169.956 35.411 C 170.803 35.348,172.800 34.010,172.800 33.505 C 172.800 33.110,171.615 33.105,171.553 33.500 M226.090 122.167 L 226.017 178.135 225.155 179.258 C 224.682 179.876,224.134 180.283,223.937 180.161 C 223.741 180.040,223.630 180.152,223.690 180.411 C 223.769 180.747,222.655 180.888,219.800 180.902 C 217.535 180.914,216.748 180.993,217.985 181.085 C 219.523 181.200,219.997 181.357,219.585 181.618 C 219.263 181.821,219.205 181.991,219.455 181.994 C 219.706 181.997,221.274 183.401,222.941 185.114 C 225.376 187.616,226.229 188.246,227.285 188.323 C 228.008 188.376,228.915 188.517,229.300 188.637 C 229.761 188.780,230.000 188.640,230.000 188.227 C 230.000 187.882,230.135 187.644,230.300 187.697 C 230.774 187.850,232.425 186.558,232.131 186.264 C 231.986 186.119,232.133 186.000,232.459 186.000 C 232.784 186.000,233.295 185.378,233.593 184.618 C 233.891 183.858,234.258 183.312,234.408 183.405 C 234.558 183.498,234.899 182.814,235.165 181.887 C 235.431 180.959,235.803 179.704,235.991 179.097 C 236.239 178.295,236.205 178.066,235.866 178.256 C 235.566 178.425,235.577 178.326,235.900 177.979 C 236.720 177.095,236.622 104.860,235.800 104.545 C 235.464 104.416,235.200 103.821,235.200 103.190 C 235.200 102.308,234.384 101.238,231.400 98.210 C 228.174 94.937,227.600 94.158,227.600 93.057 C 227.600 92.344,227.375 91.535,227.100 91.261 C 226.732 90.893,226.542 87.526,226.382 78.481 C 226.261 71.726,226.130 91.385,226.090 122.167 M197.120 114.432 C 194.997 116.016,194.857 116.792,194.814 127.251 C 194.784 134.544,194.899 137.041,195.287 137.520 C 195.694 138.023,195.696 138.091,195.292 137.848 C 194.993 137.668,195.086 138.087,195.522 138.872 C 197.392 142.243,202.536 142.317,204.429 139.000 C 205.240 137.579,205.597 117.200,204.811 117.200 C 204.585 117.200,204.400 116.849,204.400 116.420 C 204.400 114.105,199.390 112.737,197.120 114.432 M357.817 321.972 C 357.544 322.414,358.175 322.892,358.544 322.522 C 358.925 322.142,358.854 321.600,358.424 321.600 C 358.217 321.600,357.944 321.768,357.817 321.972 M360.172 322.845 C 359.877 323.323,360.765 324.069,361.263 323.761 C 361.638 323.529,361.237 322.400,360.781 322.400 C 360.597 322.400,360.324 322.600,360.172 322.845 M362.305 323.718 C 362.213 323.983,362.354 324.616,362.618 325.124 L 363.098 326.048 363.278 325.103 C 363.474 324.078,362.607 322.845,362.305 323.718 M364.000 325.916 C 364.000 326.249,365.181 327.200,365.595 327.200 C 365.850 327.200,365.916 327.418,365.747 327.700 C 365.508 328.098,365.571 328.099,366.057 327.706 C 366.551 327.306,366.667 327.325,366.667 327.806 C 366.667 328.133,366.487 328.400,366.267 328.400 C 365.423 328.400,366.453 328.938,367.499 329.043 C 368.544 329.149,368.561 329.125,367.824 328.577 C 367.310 328.196,367.234 328.000,367.598 328.000 C 367.935 328.000,367.705 327.536,367.009 326.810 C 366.073 325.832,364.000 325.217,364.000 325.916 M367.001 329.599 C 366.864 329.820,367.108 330.000,367.543 330.000 C 367.978 330.000,368.424 330.225,368.535 330.500 C 368.687 330.877,368.745 330.880,368.768 330.514 C 368.812 329.845,367.325 329.075,367.001 329.599 M368.533 331.778 C 368.533 332.215,368.713 332.261,369.267 331.964 C 369.670 331.748,370.000 331.488,370.000 331.386 C 370.000 331.284,369.670 331.200,369.267 331.200 C 368.863 331.200,368.533 331.460,368.533 331.778 " stroke="none" fill="#40a0e4" fill-rule="evenodd"></path></g></svg>