<svg id="svg" version="1.1" xmlns="http://www.w3.org/2000/svg" xmlns:xlink="http://www.w3.org/1999/xlink" width="400" height="400" viewBox="0, 0, 400,400"><g id="svgg"><path id="path0" d="M44.300 0.268 C 43.475 0.367,42.800 0.617,42.800 0.824 C 42.800 1.031,42.440 1.200,42.000 1.200 C 41.560 1.200,41.200 1.380,41.200 1.600 C 41.200 1.820,40.660 2.000,40.000 2.000 C 39.340 2.000,38.800 2.180,38.800 2.400 C 38.800 2.620,38.564 2.800,38.275 2.800 C 37.987 2.800,37.364 3.160,36.892 3.600 C 36.420 4.040,35.828 4.400,35.577 4.400 C 35.326 4.400,34.617 4.940,34.000 5.600 C 33.383 6.260,32.747 6.800,32.586 6.800 C 31.059 6.800,24.800 15.611,24.800 17.760 C 24.800 18.112,24.620 18.400,24.400 18.400 C 24.180 18.400,24.000 18.940,24.000 19.600 C 24.000 20.260,23.820 20.800,23.600 20.800 C 23.380 20.800,23.200 21.329,23.200 21.976 C 23.200 22.623,23.020 23.264,22.800 23.400 C 22.534 23.564,22.400 82.937,22.400 200.224 C 22.400 317.675,22.534 376.800,22.800 376.800 C 23.020 376.800,23.200 377.329,23.200 377.976 C 23.200 378.623,23.380 379.264,23.600 379.400 C 23.820 379.536,24.000 380.087,24.000 380.624 C 24.000 381.161,24.180 381.600,24.400 381.600 C 24.620 381.600,24.807 382.005,24.816 382.500 C 24.853 384.588,30.877 393.200,32.301 393.200 C 32.510 393.200,33.246 393.740,33.937 394.400 C 34.628 395.060,35.425 395.600,35.708 395.600 C 35.991 395.600,36.483 395.960,36.800 396.400 C 37.117 396.840,37.697 397.200,38.088 397.200 C 38.480 397.200,38.800 397.380,38.800 397.600 C 38.800 397.820,39.160 398.000,39.600 398.000 C 40.040 398.000,40.400 398.180,40.400 398.400 C 40.400 398.620,40.925 398.800,41.567 398.800 C 42.208 398.800,42.808 399.025,42.900 399.300 C 43.142 400.025,62.459 400.025,62.700 399.300 C 62.792 399.025,63.392 398.800,64.033 398.800 C 64.675 398.800,65.200 398.620,65.200 398.400 C 65.200 398.180,65.560 398.000,66.000 398.000 C 66.440 398.000,66.800 397.820,66.800 397.600 C 66.800 397.380,67.160 397.200,67.600 397.200 C 68.040 397.200,68.400 397.020,68.400 396.800 C 68.400 396.580,68.636 396.400,68.925 396.400 C 69.213 396.400,69.836 396.040,70.308 395.600 C 70.780 395.160,71.444 394.800,71.783 394.800 C 72.122 394.800,72.400 394.620,72.400 394.400 C 72.400 394.180,72.670 394.000,73.000 394.000 C 73.330 394.000,73.600 393.820,73.600 393.600 C 73.600 393.380,73.836 393.200,74.125 393.200 C 74.413 393.200,75.036 392.840,75.508 392.400 C 75.980 391.960,76.548 391.600,76.770 391.600 C 77.442 391.600,80.000 390.274,80.000 389.926 C 80.000 389.747,80.360 389.600,80.800 389.600 C 81.240 389.600,81.600 389.420,81.600 389.200 C 81.600 388.980,81.960 388.800,82.400 388.800 C 82.840 388.800,83.200 388.620,83.200 388.400 C 83.200 388.180,83.436 388.000,83.725 388.000 C 84.013 388.000,84.636 387.640,85.108 387.200 C 85.580 386.760,86.244 386.400,86.583 386.400 C 86.922 386.400,87.200 386.220,87.200 386.000 C 87.200 385.780,87.393 385.600,87.628 385.600 C 87.863 385.600,88.841 385.060,89.800 384.400 C 90.759 383.740,91.737 383.200,91.972 383.200 C 92.207 383.200,92.400 383.020,92.400 382.800 C 92.400 382.580,92.760 382.400,93.200 382.400 C 93.640 382.400,94.000 382.220,94.000 382.000 C 94.000 381.780,94.236 381.600,94.525 381.600 C 94.813 381.600,95.436 381.240,95.908 380.800 C 96.380 380.360,97.044 380.000,97.383 380.000 C 97.722 380.000,98.000 379.820,98.000 379.600 C 98.000 379.380,98.320 379.200,98.712 379.200 C 99.103 379.200,99.683 378.840,100.000 378.400 C 100.317 377.960,100.897 377.600,101.288 377.600 C 101.680 377.600,102.000 377.420,102.000 377.200 C 102.000 376.980,102.360 376.800,102.800 376.800 C 103.240 376.800,103.600 376.620,103.600 376.400 C 103.600 376.180,103.761 376.000,103.957 376.000 C 104.481 376.000,110.977 372.315,111.133 371.929 C 111.207 371.748,111.597 371.600,112.000 371.600 C 112.403 371.600,112.793 371.465,112.867 371.300 C 113.034 370.924,115.164 369.625,116.100 369.329 C 116.485 369.207,116.800 368.948,116.800 368.753 C 116.800 368.559,117.160 368.400,117.600 368.400 C 118.040 368.400,118.400 368.220,118.400 368.000 C 118.400 367.780,118.636 367.600,118.925 367.600 C 119.213 367.600,119.836 367.240,120.308 366.800 C 120.780 366.360,121.444 366.000,121.783 366.000 C 122.122 366.000,122.400 365.864,122.400 365.698 C 122.400 365.531,122.985 365.140,123.700 364.828 C 124.415 364.516,125.291 363.932,125.647 363.530 C 126.003 363.129,126.588 362.800,126.947 362.800 C 127.306 362.800,127.600 362.620,127.600 362.400 C 127.600 362.180,127.960 362.000,128.400 362.000 C 128.840 362.000,129.200 361.820,129.200 361.600 C 129.200 361.380,129.436 361.200,129.725 361.200 C 130.013 361.200,130.636 360.840,131.108 360.400 C 131.580 359.960,132.244 359.600,132.583 359.600 C 132.922 359.600,133.200 359.420,133.200 359.200 C 133.200 358.980,133.560 358.800,134.000 358.800 C 134.440 358.800,134.800 358.655,134.800 358.477 C 134.800 358.299,135.565 357.821,136.500 357.414 C 137.435 357.008,138.952 356.163,139.872 355.537 C 140.792 354.912,141.737 354.400,141.972 354.400 C 142.207 354.400,142.400 354.220,142.400 354.000 C 142.400 353.780,142.760 353.600,143.200 353.600 C 143.640 353.600,144.000 353.420,144.000 353.200 C 144.000 352.980,144.236 352.800,144.525 352.800 C 144.813 352.800,145.436 352.440,145.908 352.000 C 146.380 351.560,147.044 351.200,147.383 351.200 C 147.722 351.200,148.000 351.020,148.000 350.800 C 148.000 350.580,148.278 350.400,148.617 350.400 C 148.956 350.400,149.620 350.040,150.092 349.600 C 150.564 349.160,151.187 348.800,151.475 348.800 C 151.764 348.800,152.000 348.620,152.000 348.400 C 152.000 348.180,152.360 348.000,152.800 348.000 C 153.240 348.000,153.600 347.820,153.600 347.600 C 153.600 347.380,153.836 347.200,154.125 347.200 C 154.413 347.200,155.036 346.840,155.508 346.400 C 155.980 345.960,156.644 345.600,156.983 345.600 C 157.322 345.600,157.600 345.420,157.600 345.200 C 157.600 344.980,157.870 344.800,158.200 344.800 C 158.530 344.800,158.800 344.620,158.800 344.400 C 158.800 344.180,159.120 344.000,159.512 344.000 C 159.903 344.000,160.483 343.640,160.800 343.200 C 161.117 342.760,161.697 342.400,162.088 342.400 C 162.480 342.400,162.800 342.220,162.800 342.000 C 162.800 341.780,163.087 341.600,163.438 341.600 C 164.008 341.600,166.283 340.517,166.800 340.000 C 166.910 339.890,167.720 339.426,168.600 338.970 C 170.673 337.894,172.149 337.051,172.400 336.799 C 172.510 336.689,173.140 336.330,173.800 336.002 C 174.460 335.674,175.291 335.089,175.647 334.703 C 176.003 334.316,176.588 334.000,176.947 334.000 C 177.306 334.000,177.600 333.820,177.600 333.600 C 177.600 333.380,177.960 333.200,178.400 333.200 C 178.840 333.200,179.200 333.020,179.200 332.800 C 179.200 332.580,179.520 332.400,179.912 332.400 C 180.303 332.400,180.883 332.040,181.200 331.600 C 181.517 331.160,182.097 330.800,182.488 330.800 C 182.880 330.800,183.200 330.620,183.200 330.400 C 183.200 330.180,183.560 330.000,184.000 330.000 C 184.440 330.000,184.800 329.820,184.800 329.600 C 184.800 329.380,185.070 329.200,185.400 329.200 C 185.730 329.200,186.000 329.020,186.000 328.800 C 186.000 328.580,186.270 328.400,186.600 328.400 C 186.930 328.400,187.200 328.220,187.200 328.000 C 187.200 327.780,187.560 327.600,188.000 327.600 C 188.440 327.600,188.800 327.420,188.800 327.200 C 188.800 326.980,189.055 326.800,189.367 326.800 C 189.678 326.800,189.993 326.661,190.067 326.491 C 190.140 326.320,191.550 325.481,193.200 324.625 C 194.850 323.769,196.260 322.918,196.333 322.734 C 196.407 322.550,196.812 322.400,197.233 322.400 C 197.655 322.400,198.000 322.220,198.000 322.000 C 198.000 321.780,198.360 321.600,198.800 321.600 C 199.240 321.600,199.600 321.442,199.600 321.249 C 199.600 321.055,200.140 320.673,200.800 320.400 C 201.460 320.127,202.000 319.745,202.000 319.551 C 202.000 319.358,202.360 319.200,202.800 319.200 C 203.240 319.200,203.600 319.020,203.600 318.800 C 203.600 318.580,203.793 318.400,204.028 318.400 C 204.263 318.400,205.241 317.860,206.200 317.200 C 207.159 316.540,208.137 316.000,208.372 316.000 C 208.607 316.000,208.800 315.820,208.800 315.600 C 208.800 315.380,209.078 315.200,209.417 315.200 C 209.756 315.200,210.420 314.840,210.892 314.400 C 211.364 313.960,211.987 313.600,212.275 313.600 C 212.564 313.600,212.800 313.420,212.800 313.200 C 212.800 312.980,213.160 312.800,213.600 312.800 C 214.040 312.800,214.400 312.620,214.400 312.400 C 214.400 312.180,214.720 312.000,215.112 312.000 C 215.503 312.000,216.083 311.640,216.400 311.200 C 216.717 310.760,217.297 310.400,217.688 310.400 C 218.080 310.400,218.400 310.220,218.400 310.000 C 218.400 309.780,218.760 309.600,219.200 309.600 C 219.640 309.600,220.002 309.465,220.005 309.300 C 220.007 309.135,220.772 308.641,221.705 308.203 C 223.879 307.181,227.361 305.089,227.533 304.700 C 227.607 304.535,228.012 304.400,228.433 304.400 C 228.855 304.400,229.200 304.220,229.200 304.000 C 229.200 303.780,229.436 303.600,229.725 303.600 C 230.013 303.600,230.636 303.240,231.108 302.800 C 231.580 302.360,232.244 302.000,232.583 302.000 C 232.922 302.000,233.200 301.820,233.200 301.600 C 233.200 301.380,233.560 301.200,234.000 301.200 C 234.440 301.200,234.800 301.020,234.800 300.800 C 234.800 300.580,235.036 300.400,235.325 300.400 C 235.613 300.400,236.236 300.040,236.708 299.600 C 237.180 299.160,237.844 298.800,238.183 298.800 C 238.522 298.800,238.800 298.664,238.800 298.498 C 238.800 298.331,239.385 297.940,240.100 297.628 C 240.815 297.316,241.691 296.732,242.047 296.330 C 242.403 295.929,242.988 295.600,243.347 295.600 C 243.706 295.600,244.000 295.420,244.000 295.200 C 244.000 294.980,244.278 294.800,244.617 294.800 C 244.956 294.800,245.620 294.440,246.092 294.000 C 246.564 293.560,247.187 293.200,247.475 293.200 C 247.764 293.200,248.000 293.020,248.000 292.800 C 248.000 292.580,248.360 292.400,248.800 292.400 C 249.240 292.400,249.600 292.220,249.600 292.000 C 249.600 291.780,249.949 291.600,250.376 291.600 C 250.803 291.600,251.261 291.425,251.393 291.211 C 251.526 290.997,252.301 290.514,253.117 290.137 C 253.933 289.761,255.352 288.946,256.272 288.327 C 257.192 287.707,258.137 287.200,258.372 287.200 C 258.607 287.200,258.800 287.020,258.800 286.800 C 258.800 286.580,259.160 286.400,259.600 286.400 C 260.040 286.400,260.400 286.220,260.400 286.000 C 260.400 285.780,260.636 285.600,260.925 285.600 C 261.213 285.600,261.836 285.240,262.308 284.800 C 262.780 284.360,263.444 284.000,263.783 284.000 C 264.122 284.000,264.400 283.820,264.400 283.600 C 264.400 283.380,264.678 283.200,265.017 283.200 C 265.356 283.200,266.020 282.840,266.492 282.400 C 266.964 281.960,267.587 281.600,267.875 281.600 C 268.164 281.600,268.400 281.420,268.400 281.200 C 268.400 280.980,268.760 280.800,269.200 280.800 C 269.640 280.800,270.000 280.620,270.000 280.400 C 270.000 280.180,270.236 280.000,270.525 280.000 C 270.813 280.000,271.436 279.640,271.908 279.200 C 272.380 278.760,273.044 278.400,273.383 278.400 C 273.722 278.400,274.000 278.220,274.000 278.000 C 274.000 277.780,274.270 277.600,274.600 277.600 C 274.930 277.600,275.200 277.420,275.200 277.200 C 275.200 276.980,275.520 276.800,275.912 276.800 C 276.303 276.800,276.883 276.440,277.200 276.000 C 277.517 275.560,278.028 275.200,278.334 275.200 C 278.985 275.200,282.937 273.141,283.133 272.700 C 283.207 272.535,283.612 272.400,284.033 272.400 C 284.455 272.400,284.800 272.220,284.800 272.000 C 284.800 271.780,285.036 271.600,285.325 271.600 C 285.613 271.600,286.236 271.240,286.708 270.800 C 287.180 270.360,287.844 270.000,288.183 270.000 C 288.522 270.000,288.800 269.864,288.800 269.698 C 288.800 269.531,289.385 269.140,290.100 268.828 C 290.815 268.516,291.691 267.932,292.047 267.530 C 292.403 267.129,292.988 266.800,293.347 266.800 C 293.706 266.800,294.000 266.620,294.000 266.400 C 294.000 266.180,294.360 266.000,294.800 266.000 C 295.240 266.000,295.600 265.820,295.600 265.600 C 295.600 265.380,295.836 265.200,296.125 265.200 C 296.413 265.200,297.036 264.840,297.508 264.400 C 297.980 263.960,298.644 263.600,298.983 263.600 C 299.322 263.600,299.600 263.420,299.600 263.200 C 299.600 262.980,299.960 262.800,300.400 262.800 C 300.840 262.800,301.200 262.620,301.200 262.400 C 301.200 262.180,301.470 262.000,301.800 262.000 C 302.130 262.000,302.400 261.820,302.400 261.600 C 302.400 261.380,302.670 261.200,303.000 261.200 C 303.330 261.200,303.600 261.020,303.600 260.800 C 303.600 260.580,303.960 260.400,304.400 260.400 C 304.840 260.400,305.200 260.220,305.200 260.000 C 305.200 259.780,305.470 259.600,305.800 259.600 C 306.130 259.600,306.400 259.420,306.400 259.200 C 306.400 258.980,306.670 258.800,307.000 258.800 C 307.330 258.800,307.600 258.620,307.600 258.400 C 307.600 258.180,307.807 258.000,308.060 258.000 C 308.753 258.000,312.800 255.880,312.800 255.516 C 312.800 255.342,313.160 255.200,313.600 255.200 C 314.040 255.200,314.400 255.020,314.400 254.800 C 314.400 254.580,314.678 254.400,315.017 254.400 C 315.356 254.400,316.020 254.040,316.492 253.600 C 316.964 253.160,317.587 252.800,317.875 252.800 C 318.164 252.800,318.400 252.620,318.400 252.400 C 318.400 252.180,318.760 252.000,319.200 252.000 C 319.640 252.000,320.000 251.820,320.000 251.600 C 320.000 251.380,320.236 251.200,320.525 251.200 C 320.813 251.200,321.436 250.840,321.908 250.400 C 322.380 249.960,323.044 249.600,323.383 249.600 C 323.722 249.600,324.000 249.420,324.000 249.200 C 324.000 248.980,324.270 248.800,324.600 248.800 C 324.930 248.800,325.200 248.620,325.200 248.400 C 325.200 248.180,325.520 248.000,325.912 248.000 C 326.303 248.000,326.883 247.640,327.200 247.200 C 327.517 246.760,328.097 246.400,328.488 246.400 C 328.880 246.400,329.200 246.220,329.200 246.000 C 329.200 245.780,329.560 245.600,330.000 245.600 C 330.440 245.600,330.800 245.420,330.800 245.200 C 330.800 244.980,331.036 244.800,331.325 244.800 C 331.613 244.800,332.236 244.440,332.708 244.000 C 333.180 243.560,333.844 243.200,334.183 243.200 C 334.522 243.200,334.800 243.020,334.800 242.800 C 334.800 242.580,335.145 242.400,335.567 242.400 C 335.988 242.400,336.393 242.265,336.467 242.100 C 336.540 241.935,337.320 241.447,338.200 241.015 C 339.080 240.583,340.552 239.728,341.472 239.115 C 342.392 238.502,343.337 238.000,343.572 238.000 C 343.807 238.000,344.000 237.820,344.000 237.600 C 344.000 237.380,344.360 237.200,344.800 237.200 C 345.240 237.200,345.600 237.020,345.600 236.800 C 345.600 236.580,345.836 236.400,346.125 236.400 C 346.413 236.400,347.036 236.040,347.508 235.600 C 347.980 235.160,348.644 234.800,348.983 234.800 C 349.322 234.800,349.600 234.620,349.600 234.400 C 349.600 234.180,349.960 234.000,350.400 234.000 C 350.840 234.000,351.200 233.820,351.200 233.600 C 351.200 233.380,351.470 233.200,351.800 233.200 C 352.130 233.200,352.400 233.020,352.400 232.800 C 352.400 232.580,352.670 232.400,353.000 232.400 C 353.330 232.400,353.600 232.220,353.600 232.000 C 353.600 231.780,353.960 231.600,354.400 231.600 C 354.840 231.600,355.200 231.464,355.200 231.298 C 355.200 231.131,355.706 230.771,356.325 230.497 C 356.944 230.224,357.836 229.640,358.308 229.200 C 358.780 228.760,359.444 228.400,359.783 228.400 C 360.122 228.400,360.400 228.220,360.400 228.000 C 360.400 227.780,360.720 227.600,361.112 227.600 C 361.503 227.600,362.083 227.240,362.400 226.800 C 362.717 226.360,363.297 226.000,363.688 226.000 C 364.080 226.000,364.400 225.842,364.400 225.649 C 364.400 225.455,364.913 225.084,365.541 224.825 C 366.908 224.258,370.256 221.149,371.598 219.200 C 372.128 218.430,372.682 217.710,372.828 217.600 C 373.298 217.248,375.200 213.249,375.200 212.613 C 375.200 212.276,375.380 212.000,375.600 212.000 C 375.820 212.000,376.000 211.460,376.000 210.800 C 376.000 210.140,376.180 209.600,376.400 209.600 C 376.620 209.600,376.800 208.880,376.800 208.000 C 376.800 207.120,376.980 206.400,377.200 206.400 C 377.450 206.400,377.600 204.008,377.600 200.024 C 377.600 196.204,377.440 193.548,377.200 193.400 C 376.980 193.264,376.800 192.533,376.800 191.776 C 376.800 191.019,376.620 190.400,376.400 190.400 C 376.180 190.400,376.000 189.860,376.000 189.200 C 376.000 188.540,375.820 188.000,375.600 188.000 C 375.380 188.000,375.200 187.724,375.200 187.387 C 375.200 186.751,373.298 182.752,372.828 182.400 C 372.682 182.290,372.128 181.570,371.598 180.800 C 370.256 178.851,366.908 175.742,365.541 175.175 C 364.913 174.916,364.400 174.545,364.400 174.351 C 364.400 174.158,364.080 174.000,363.688 174.000 C 363.297 174.000,362.717 173.640,362.400 173.200 C 362.083 172.760,361.503 172.400,361.112 172.400 C 360.720 172.400,360.400 172.220,360.400 172.000 C 360.400 171.780,360.122 171.600,359.783 171.600 C 359.444 171.600,358.780 171.240,358.308 170.800 C 357.836 170.360,356.944 169.776,356.325 169.503 C 355.706 169.229,355.200 168.869,355.200 168.702 C 355.200 168.536,354.840 168.400,354.400 168.400 C 353.960 168.400,353.600 168.220,353.600 168.000 C 353.600 167.780,353.330 167.600,353.000 167.600 C 352.670 167.600,352.400 167.420,352.400 167.200 C 352.400 166.980,352.130 166.800,351.800 166.800 C 351.470 166.800,351.200 166.620,351.200 166.400 C 351.200 166.180,350.840 166.000,350.400 166.000 C 349.960 166.000,349.600 165.820,349.600 165.600 C 349.600 165.380,349.322 165.200,348.983 165.200 C 348.644 165.200,347.980 164.840,347.508 164.400 C 347.036 163.960,346.413 163.600,346.125 163.600 C 345.836 163.600,345.600 163.420,345.600 163.200 C 345.600 162.980,345.240 162.800,344.800 162.800 C 344.360 162.800,344.000 162.620,344.000 162.400 C 344.000 162.180,343.807 162.000,343.572 162.000 C 343.337 162.000,342.392 161.498,341.472 160.885 C 340.552 160.272,339.080 159.417,338.200 158.985 C 337.320 158.553,336.540 158.065,336.467 157.900 C 336.393 157.735,335.988 157.600,335.567 157.600 C 335.145 157.600,334.800 157.420,334.800 157.200 C 334.800 156.980,334.522 156.800,334.183 156.800 C 333.844 156.800,333.180 156.440,332.708 156.000 C 332.236 155.560,331.613 155.200,331.325 155.200 C 331.036 155.200,330.800 155.020,330.800 154.800 C 330.800 154.580,330.440 154.400,330.000 154.400 C 329.560 154.400,329.200 154.220,329.200 154.000 C 329.200 153.780,328.880 153.600,328.488 153.600 C 328.097 153.600,327.517 153.240,327.200 152.800 C 326.883 152.360,326.303 152.000,325.912 152.000 C 325.520 152.000,325.200 151.820,325.200 151.600 C 325.200 151.380,324.930 151.200,324.600 151.200 C 324.270 151.200,324.000 151.020,324.000 150.800 C 324.000 150.580,323.722 150.400,323.383 150.400 C 323.044 150.400,322.380 150.040,321.908 149.600 C 321.436 149.160,320.813 148.800,320.525 148.800 C 320.236 148.800,320.000 148.620,320.000 148.400 C 320.000 148.180,319.640 148.000,319.200 148.000 C 318.760 148.000,318.400 147.820,318.400 147.600 C 318.400 147.380,318.164 147.200,317.875 147.200 C 317.587 147.200,316.964 146.840,316.492 146.400 C 316.020 145.960,315.356 145.600,315.017 145.600 C 314.678 145.600,314.400 145.420,314.400 145.200 C 314.400 144.980,314.040 144.800,313.600 144.800 C 313.160 144.800,312.800 144.658,312.800 144.484 C 312.800 144.120,308.753 142.000,308.060 142.000 C 307.807 142.000,307.600 141.820,307.600 141.600 C 307.600 141.380,307.330 141.200,307.000 141.200 C 306.670 141.200,306.400 141.020,306.400 140.800 C 306.400 140.580,306.130 140.400,305.800 140.400 C 305.470 140.400,305.200 140.220,305.200 140.000 C 305.200 139.780,304.840 139.600,304.400 139.600 C 303.960 139.600,303.600 139.420,303.600 139.200 C 303.600 138.980,303.330 138.800,303.000 138.800 C 302.670 138.800,302.400 138.620,302.400 138.400 C 302.400 138.180,302.130 138.000,301.800 138.000 C 301.470 138.000,301.200 137.820,301.200 137.600 C 301.200 137.380,300.840 137.200,300.400 137.200 C 299.960 137.200,299.600 137.020,299.600 136.800 C 299.600 136.580,299.322 136.400,298.983 136.400 C 298.644 136.400,297.980 136.040,297.508 135.600 C 297.036 135.160,296.413 134.800,296.125 134.800 C 295.836 134.800,295.600 134.620,295.600 134.400 C 295.600 134.180,295.240 134.000,294.800 134.000 C 294.360 134.000,294.000 133.820,294.000 133.600 C 294.000 133.380,293.706 133.200,293.347 133.200 C 292.988 133.200,292.403 132.871,292.047 132.470 C 291.691 132.068,290.815 131.484,290.100 131.172 C 289.385 130.860,288.800 130.469,288.800 130.302 C 288.800 130.136,288.522 130.000,288.183 130.000 C 287.844 130.000,287.180 129.640,286.708 129.200 C 286.236 128.760,285.613 128.400,285.325 128.400 C 285.036 128.400,284.800 128.220,284.800 128.000 C 284.800 127.780,284.455 127.600,284.033 127.600 C 283.612 127.600,283.207 127.465,283.133 127.300 C 282.937 126.859,278.985 124.800,278.334 124.800 C 278.028 124.800,277.517 124.440,277.200 124.000 C 276.883 123.560,276.303 123.200,275.912 123.200 C 275.520 123.200,275.200 123.020,275.200 122.800 C 275.200 122.580,274.930 122.400,274.600 122.400 C 274.270 122.400,274.000 122.220,274.000 122.000 C 274.000 121.780,273.722 121.600,273.383 121.600 C 273.044 121.600,272.380 121.240,271.908 120.800 C 271.436 120.360,270.813 120.000,270.525 120.000 C 270.236 120.000,270.000 119.820,270.000 119.600 C 270.000 119.380,269.640 119.200,269.200 119.200 C 268.760 119.200,268.400 119.020,268.400 118.800 C 268.400 118.580,268.164 118.400,267.875 118.400 C 267.587 118.400,266.964 118.040,266.492 117.600 C 266.020 117.160,265.356 116.800,265.017 116.800 C 264.678 116.800,264.400 116.620,264.400 116.400 C 264.400 116.180,264.122 116.000,263.783 116.000 C 263.444 116.000,262.780 115.640,262.308 115.200 C 261.836 114.760,261.213 114.400,260.925 114.400 C 260.636 114.400,260.400 114.220,260.400 114.000 C 260.400 113.780,260.040 113.600,259.600 113.600 C 259.160 113.600,258.800 113.420,258.800 113.200 C 258.800 112.980,258.607 112.800,258.372 112.800 C 258.137 112.800,257.192 112.293,256.272 111.673 C 255.352 111.054,253.933 110.239,253.117 109.863 C 252.301 109.486,251.526 109.003,251.393 108.789 C 251.261 108.575,250.803 108.400,250.376 108.400 C 249.949 108.400,249.600 108.220,249.600 108.000 C 249.600 107.780,249.240 107.600,248.800 107.600 C 248.360 107.600,248.000 107.420,248.000 107.200 C 248.000 106.980,247.764 106.800,247.475 106.800 C 247.187 106.800,246.564 106.440,246.092 106.000 C 245.620 105.560,244.956 105.200,244.617 105.200 C 244.278 105.200,244.000 105.020,244.000 104.800 C 244.000 104.580,243.706 104.400,243.347 104.400 C 242.988 104.400,242.403 104.071,242.047 103.670 C 241.691 103.268,240.815 102.684,240.100 102.372 C 239.385 102.060,238.800 101.669,238.800 101.502 C 238.800 101.336,238.522 101.200,238.183 101.200 C 237.844 101.200,237.180 100.840,236.708 100.400 C 236.236 99.960,235.613 99.600,235.325 99.600 C 235.036 99.600,234.800 99.420,234.800 99.200 C 234.800 98.980,234.440 98.800,234.000 98.800 C 233.560 98.800,233.200 98.620,233.200 98.400 C 233.200 98.180,232.922 98.000,232.583 98.000 C 232.244 98.000,231.580 97.640,231.108 97.200 C 230.636 96.760,230.013 96.400,229.725 96.400 C 229.436 96.400,229.200 96.220,229.200 96.000 C 229.200 95.780,228.855 95.600,228.433 95.600 C 228.012 95.600,227.607 95.465,227.533 95.300 C 227.361 94.911,223.879 92.819,221.705 91.797 C 220.772 91.359,220.007 90.865,220.005 90.700 C 220.002 90.535,219.640 90.400,219.200 90.400 C 218.760 90.400,218.400 90.220,218.400 90.000 C 218.400 89.780,218.080 89.600,217.688 89.600 C 217.297 89.600,216.717 89.240,216.400 88.800 C 216.083 88.360,215.503 88.000,215.112 88.000 C 214.720 88.000,214.400 87.820,214.400 87.600 C 214.400 87.380,214.040 87.200,213.600 87.200 C 213.160 87.200,212.800 87.020,212.800 86.800 C 212.800 86.580,212.564 86.400,212.275 86.400 C 211.987 86.400,211.364 86.040,210.892 85.600 C 210.420 85.160,209.756 84.800,209.417 84.800 C 209.078 84.800,208.800 84.620,208.800 84.400 C 208.800 84.180,208.607 84.000,208.372 84.000 C 208.137 84.000,207.159 83.460,206.200 82.800 C 205.241 82.140,204.263 81.600,204.028 81.600 C 203.793 81.600,203.600 81.420,203.600 81.200 C 203.600 80.980,203.240 80.800,202.800 80.800 C 202.360 80.800,202.000 80.642,202.000 80.449 C 202.000 80.255,201.460 79.873,200.800 79.600 C 200.140 79.327,199.600 78.945,199.600 78.751 C 199.600 78.558,199.240 78.400,198.800 78.400 C 198.360 78.400,198.000 78.220,198.000 78.000 C 198.000 77.780,197.655 77.600,197.233 77.600 C 196.812 77.600,196.407 77.442,196.333 77.250 C 196.260 77.057,195.120 76.343,193.800 75.661 C 190.615 74.017,189.029 73.065,188.867 72.700 C 188.793 72.535,188.388 72.400,187.967 72.400 C 187.545 72.400,187.200 72.220,187.200 72.000 C 187.200 71.780,186.930 71.600,186.600 71.600 C 186.270 71.600,186.000 71.420,186.000 71.200 C 186.000 70.980,185.730 70.800,185.400 70.800 C 185.070 70.800,184.800 70.620,184.800 70.400 C 184.800 70.180,184.440 70.000,184.000 70.000 C 183.560 70.000,183.200 69.820,183.200 69.600 C 183.200 69.380,182.880 69.200,182.488 69.200 C 182.097 69.200,181.517 68.840,181.200 68.400 C 180.883 67.960,180.303 67.600,179.912 67.600 C 179.520 67.600,179.200 67.420,179.200 67.200 C 179.200 66.980,178.840 66.800,178.400 66.800 C 177.960 66.800,177.600 66.620,177.600 66.400 C 177.600 66.180,177.306 66.000,176.947 66.000 C 176.588 66.000,176.003 65.684,175.647 65.297 C 175.291 64.911,174.460 64.326,173.800 63.998 C 173.140 63.670,172.510 63.311,172.400 63.201 C 172.149 62.949,170.673 62.106,168.600 61.030 C 167.720 60.574,166.910 60.110,166.800 60.000 C 166.283 59.483,164.008 58.400,163.438 58.400 C 163.087 58.400,162.800 58.220,162.800 58.000 C 162.800 57.780,162.480 57.600,162.088 57.600 C 161.697 57.600,161.117 57.240,160.800 56.800 C 160.483 56.360,159.903 56.000,159.512 56.000 C 159.120 56.000,158.800 55.820,158.800 55.600 C 158.800 55.380,158.530 55.200,158.200 55.200 C 157.870 55.200,157.600 55.020,157.600 54.800 C 157.600 54.580,157.322 54.400,156.983 54.400 C 156.644 54.400,155.980 54.040,155.508 53.600 C 155.036 53.160,154.413 52.800,154.125 52.800 C 153.836 52.800,153.600 52.620,153.600 52.400 C 153.600 52.180,153.240 52.000,152.800 52.000 C 152.360 52.000,152.000 51.820,152.000 51.600 C 152.000 51.380,151.764 51.200,151.475 51.200 C 151.187 51.200,150.564 50.840,150.092 50.400 C 149.620 49.960,148.956 49.600,148.617 49.600 C 148.278 49.600,148.000 49.420,148.000 49.200 C 148.000 48.980,147.722 48.800,147.383 48.800 C 147.044 48.800,146.380 48.440,145.908 48.000 C 145.436 47.560,144.813 47.200,144.525 47.200 C 144.236 47.200,144.000 47.020,144.000 46.800 C 144.000 46.580,143.640 46.400,143.200 46.400 C 142.760 46.400,142.400 46.220,142.400 46.000 C 142.400 45.780,142.207 45.600,141.972 45.600 C 141.737 45.600,140.792 45.088,139.872 44.463 C 138.952 43.837,137.435 42.992,136.500 42.586 C 135.565 42.179,134.800 41.701,134.800 41.523 C 134.800 41.345,134.440 41.200,134.000 41.200 C 133.560 41.200,133.200 41.020,133.200 40.800 C 133.200 40.580,132.922 40.400,132.583 40.400 C 132.244 40.400,131.580 40.040,131.108 39.600 C 130.636 39.160,130.013 38.800,129.725 38.800 C 129.436 38.800,129.200 38.620,129.200 38.400 C 129.200 38.180,128.840 38.000,128.400 38.000 C 127.960 38.000,127.600 37.820,127.600 37.600 C 127.600 37.380,127.306 37.200,126.947 37.200 C 126.588 37.200,126.003 36.871,125.647 36.470 C 125.291 36.068,124.415 35.484,123.700 35.172 C 122.985 34.860,122.400 34.469,122.400 34.302 C 122.400 34.136,122.122 34.000,121.783 34.000 C 121.444 34.000,120.780 33.640,120.308 33.200 C 119.836 32.760,119.213 32.400,118.925 32.400 C 118.636 32.400,118.400 32.220,118.400 32.000 C 118.400 31.780,118.055 31.600,117.633 31.600 C 117.212 31.600,116.807 31.465,116.733 31.300 C 116.566 30.924,114.436 29.625,113.500 29.329 C 113.115 29.207,112.800 28.948,112.800 28.753 C 112.800 28.559,112.455 28.400,112.033 28.400 C 111.612 28.400,111.207 28.252,111.133 28.071 C 110.977 27.685,104.481 24.000,103.957 24.000 C 103.761 24.000,103.600 23.820,103.600 23.600 C 103.600 23.380,103.240 23.200,102.800 23.200 C 102.360 23.200,102.000 23.020,102.000 22.800 C 102.000 22.580,101.680 22.400,101.288 22.400 C 100.897 22.400,100.317 22.040,100.000 21.600 C 99.683 21.160,99.103 20.800,98.712 20.800 C 98.320 20.800,98.000 20.620,98.000 20.400 C 98.000 20.180,97.722 20.000,97.383 20.000 C 97.044 20.000,96.380 19.640,95.908 19.200 C 95.436 18.760,94.813 18.400,94.525 18.400 C 94.236 18.400,94.000 18.220,94.000 18.000 C 94.000 17.780,93.640 17.600,93.200 17.600 C 92.760 17.600,92.400 17.420,92.400 17.200 C 92.400 16.980,92.207 16.800,91.972 16.800 C 91.737 16.800,90.759 16.260,89.800 15.600 C 88.841 14.940,87.863 14.400,87.628 14.400 C 87.393 14.400,87.200 14.220,87.200 14.000 C 87.200 13.780,86.922 13.600,86.583 13.600 C 86.244 13.600,85.580 13.240,85.108 12.800 C 84.636 12.360,84.013 12.000,83.725 12.000 C 83.436 12.000,83.200 11.820,83.200 11.600 C 83.200 11.380,82.840 11.200,82.400 11.200 C 81.960 11.200,81.600 11.020,81.600 10.800 C 81.600 10.580,81.240 10.400,80.800 10.400 C 80.360 10.400,80.000 10.253,80.000 10.074 C 80.000 9.726,77.442 8.400,76.770 8.400 C 76.548 8.400,75.980 8.040,75.508 7.600 C 75.036 7.160,74.413 6.800,74.125 6.800 C 73.836 6.800,73.600 6.620,73.600 6.400 C 73.600 6.180,73.330 6.000,73.000 6.000 C 72.670 6.000,72.400 5.820,72.400 5.600 C 72.400 5.380,72.122 5.200,71.783 5.200 C 71.444 5.200,70.780 4.840,70.308 4.400 C 69.836 3.960,69.213 3.600,68.925 3.600 C 68.636 3.600,68.400 3.420,68.400 3.200 C 68.400 2.980,68.040 2.800,67.600 2.800 C 67.160 2.800,66.800 2.620,66.800 2.400 C 66.800 2.180,66.440 2.000,66.000 2.000 C 65.560 2.000,65.200 1.820,65.200 1.600 C 65.200 1.380,64.675 1.200,64.033 1.200 C 63.392 1.200,62.795 0.985,62.707 0.721 C 62.545 0.235,47.624 -0.133,44.300 0.268 M55.600 26.800 C 55.917 27.240,56.497 27.600,56.888 27.600 C 57.280 27.600,57.600 27.736,57.600 27.902 C 57.600 28.069,58.185 28.464,58.900 28.780 C 59.615 29.097,60.549 29.680,60.975 30.078 C 61.402 30.475,61.987 30.800,62.275 30.800 C 62.564 30.800,62.800 30.980,62.800 31.200 C 62.800 31.420,63.160 31.600,63.600 31.600 C 64.040 31.600,64.400 31.780,64.400 32.000 C 64.400 32.220,64.636 32.400,64.925 32.400 C 65.213 32.400,65.836 32.760,66.308 33.200 C 66.780 33.640,67.444 34.000,67.783 34.000 C 68.122 34.000,68.400 34.180,68.400 34.400 C 68.400 34.620,68.760 34.800,69.200 34.800 C 69.640 34.800,70.000 34.958,70.000 35.151 C 70.000 35.345,70.540 35.727,71.200 36.000 C 71.860 36.273,72.400 36.655,72.400 36.849 C 72.400 37.042,72.760 37.200,73.200 37.200 C 73.640 37.200,74.000 37.380,74.000 37.600 C 74.000 37.820,74.278 38.000,74.617 38.000 C 74.956 38.000,75.587 38.329,76.018 38.731 C 76.450 39.133,77.882 39.988,79.200 40.631 C 80.519 41.274,81.599 41.935,81.599 42.100 C 81.600 42.265,81.960 42.400,82.400 42.400 C 82.840 42.400,83.200 42.580,83.200 42.800 C 83.200 43.020,83.560 43.200,84.000 43.200 C 84.440 43.200,84.800 43.380,84.800 43.600 C 84.800 43.820,85.036 44.000,85.325 44.000 C 85.613 44.000,86.236 44.360,86.708 44.800 C 87.180 45.240,87.844 45.600,88.183 45.600 C 88.522 45.600,88.800 45.780,88.800 46.000 C 88.800 46.220,89.120 46.400,89.512 46.400 C 89.903 46.400,90.483 46.760,90.800 47.200 C 91.117 47.640,91.697 48.000,92.088 48.000 C 92.480 48.000,92.800 48.180,92.800 48.400 C 92.800 48.620,93.070 48.800,93.400 48.800 C 93.730 48.800,94.000 48.980,94.000 49.200 C 94.000 49.420,94.278 49.600,94.617 49.600 C 94.956 49.600,95.620 49.960,96.092 50.400 C 96.564 50.840,97.187 51.200,97.475 51.200 C 97.764 51.200,98.000 51.380,98.000 51.600 C 98.000 51.820,98.345 52.000,98.767 52.000 C 99.188 52.000,99.593 52.135,99.667 52.300 C 99.834 52.676,101.964 53.975,102.900 54.271 C 103.285 54.393,103.600 54.652,103.600 54.847 C 103.600 55.041,103.960 55.200,104.400 55.200 C 104.840 55.200,105.203 55.335,105.207 55.500 C 105.210 55.665,106.335 56.340,107.707 57.000 C 109.078 57.660,110.260 58.335,110.333 58.500 C 110.407 58.665,110.722 58.800,111.033 58.800 C 111.345 58.800,111.600 58.980,111.600 59.200 C 111.600 59.420,111.870 59.600,112.200 59.600 C 112.530 59.600,112.800 59.780,112.800 60.000 C 112.800 60.220,113.160 60.400,113.600 60.400 C 114.040 60.400,114.400 60.580,114.400 60.800 C 114.400 61.020,114.720 61.200,115.112 61.200 C 115.503 61.200,116.083 61.560,116.400 62.000 C 116.717 62.440,117.297 62.800,117.688 62.800 C 118.080 62.800,118.400 62.980,118.400 63.200 C 118.400 63.420,118.760 63.600,119.200 63.600 C 119.640 63.600,120.000 63.780,120.000 64.000 C 120.000 64.220,120.236 64.400,120.525 64.400 C 120.813 64.400,121.436 64.760,121.908 65.200 C 122.380 65.640,123.044 66.000,123.383 66.000 C 123.722 66.000,124.000 66.180,124.000 66.400 C 124.000 66.620,124.193 66.800,124.428 66.800 C 124.663 66.800,125.641 67.340,126.600 68.000 C 127.559 68.660,128.537 69.200,128.772 69.200 C 129.007 69.200,129.200 69.380,129.200 69.600 C 129.200 69.820,129.560 70.000,130.000 70.000 C 130.440 70.000,130.800 70.145,130.800 70.321 C 130.800 70.498,131.697 71.083,132.794 71.621 C 133.890 72.160,134.790 72.735,134.794 72.900 C 134.797 73.065,135.160 73.200,135.600 73.200 C 136.040 73.200,136.400 73.347,136.400 73.526 C 136.400 73.924,139.001 75.200,139.814 75.200 C 140.136 75.200,140.400 75.380,140.400 75.600 C 140.400 75.820,140.670 76.000,141.000 76.000 C 141.330 76.000,141.600 76.180,141.600 76.400 C 141.600 76.620,141.870 76.800,142.200 76.800 C 142.530 76.800,142.800 76.980,142.800 77.200 C 142.800 77.420,143.070 77.600,143.400 77.600 C 143.730 77.600,144.000 77.780,144.000 78.000 C 144.000 78.220,144.278 78.400,144.617 78.400 C 144.956 78.400,145.620 78.760,146.092 79.200 C 146.564 79.640,147.187 80.000,147.475 80.000 C 147.764 80.000,148.000 80.180,148.000 80.400 C 148.000 80.620,148.360 80.800,148.800 80.800 C 149.240 80.800,149.600 80.980,149.600 81.200 C 149.600 81.420,149.878 81.600,150.217 81.600 C 150.556 81.600,151.220 81.960,151.692 82.400 C 152.164 82.840,152.787 83.200,153.075 83.200 C 153.364 83.200,153.600 83.380,153.600 83.600 C 153.600 83.820,153.960 84.000,154.400 84.000 C 154.840 84.000,155.200 84.180,155.200 84.400 C 155.200 84.620,155.520 84.800,155.912 84.800 C 156.303 84.800,156.883 85.160,157.200 85.600 C 157.517 86.040,158.097 86.400,158.488 86.400 C 158.880 86.400,159.200 86.580,159.200 86.800 C 159.200 87.020,159.393 87.200,159.628 87.200 C 159.863 87.200,160.808 87.707,161.728 88.327 C 162.648 88.946,164.067 89.761,164.883 90.137 C 165.699 90.514,166.474 90.997,166.607 91.211 C 166.739 91.425,167.197 91.600,167.624 91.600 C 168.051 91.600,168.400 91.780,168.400 92.000 C 168.400 92.220,168.760 92.400,169.200 92.400 C 169.640 92.400,170.000 92.580,170.000 92.800 C 170.000 93.020,170.320 93.200,170.712 93.200 C 171.103 93.200,171.683 93.560,172.000 94.000 C 172.317 94.440,172.897 94.800,173.288 94.800 C 173.680 94.800,174.000 94.936,174.000 95.102 C 174.000 95.269,174.585 95.664,175.300 95.980 C 176.015 96.297,176.949 96.880,177.375 97.278 C 177.802 97.675,178.387 98.000,178.675 98.000 C 178.964 98.000,179.200 98.180,179.200 98.400 C 179.200 98.620,179.560 98.800,180.000 98.800 C 180.440 98.800,180.800 98.980,180.800 99.200 C 180.800 99.420,181.036 99.600,181.325 99.600 C 181.613 99.600,182.236 99.960,182.708 100.400 C 183.180 100.840,183.844 101.200,184.183 101.200 C 184.522 101.200,184.800 101.380,184.800 101.600 C 184.800 101.820,185.078 102.000,185.417 102.000 C 185.756 102.000,186.420 102.360,186.892 102.800 C 187.364 103.240,187.987 103.600,188.275 103.600 C 188.564 103.600,188.800 103.780,188.800 104.000 C 188.800 104.220,189.160 104.400,189.600 104.400 C 190.040 104.400,190.400 104.580,190.400 104.800 C 190.400 105.020,190.760 105.200,191.200 105.200 C 191.640 105.200,192.000 105.366,192.000 105.568 C 192.000 105.771,193.350 106.613,195.000 107.439 C 196.650 108.266,198.000 109.090,198.000 109.271 C 198.000 109.452,198.360 109.600,198.800 109.600 C 199.240 109.600,199.600 109.780,199.600 110.000 C 199.600 110.220,199.878 110.400,200.217 110.400 C 200.556 110.400,201.220 110.760,201.692 111.200 C 202.164 111.640,202.787 112.000,203.075 112.000 C 203.364 112.000,203.600 112.180,203.600 112.400 C 203.600 112.620,203.960 112.800,204.400 112.800 C 204.840 112.800,205.200 112.980,205.200 113.200 C 205.200 113.420,205.520 113.600,205.912 113.600 C 206.303 113.600,206.883 113.960,207.200 114.400 C 207.517 114.840,208.097 115.200,208.488 115.200 C 208.880 115.200,209.200 115.380,209.200 115.600 C 209.200 115.820,209.470 116.000,209.800 116.000 C 210.130 116.000,210.400 116.180,210.400 116.400 C 210.400 116.620,210.678 116.800,211.017 116.800 C 211.356 116.800,212.020 117.160,212.492 117.600 C 212.964 118.040,213.587 118.400,213.875 118.400 C 214.164 118.400,214.400 118.580,214.400 118.800 C 214.400 119.020,214.760 119.200,215.200 119.200 C 215.640 119.200,216.000 119.380,216.000 119.600 C 216.000 119.820,216.278 120.000,216.617 120.000 C 216.956 120.000,217.620 120.360,218.092 120.800 C 218.564 121.240,219.187 121.600,219.475 121.600 C 219.764 121.600,220.000 121.780,220.000 122.000 C 220.000 122.220,220.360 122.400,220.800 122.400 C 221.240 122.400,221.600 122.547,221.600 122.726 C 221.600 122.906,222.725 123.581,224.100 124.226 C 225.475 124.872,226.660 125.535,226.733 125.700 C 226.807 125.865,227.122 126.000,227.433 126.000 C 227.745 126.000,228.000 126.180,228.000 126.400 C 228.000 126.620,228.270 126.800,228.600 126.800 C 228.930 126.800,229.200 126.980,229.200 127.200 C 229.200 127.420,229.560 127.600,230.000 127.600 C 230.440 127.600,230.800 127.780,230.800 128.000 C 230.800 128.220,231.036 128.400,231.325 128.400 C 231.613 128.400,232.236 128.760,232.708 129.200 C 233.180 129.640,233.844 130.000,234.183 130.000 C 234.522 130.000,234.800 130.180,234.800 130.400 C 234.800 130.620,235.078 130.800,235.417 130.800 C 235.756 130.800,236.420 131.160,236.892 131.600 C 237.364 132.040,237.987 132.400,238.275 132.400 C 238.564 132.400,238.800 132.580,238.800 132.800 C 238.800 133.020,239.160 133.200,239.600 133.200 C 240.040 133.200,240.400 133.380,240.400 133.600 C 240.400 133.820,240.694 134.000,241.053 134.000 C 241.412 134.000,241.997 134.329,242.353 134.730 C 242.709 135.132,243.585 135.716,244.300 136.028 C 245.015 136.340,245.600 136.731,245.600 136.898 C 245.600 137.064,245.960 137.200,246.400 137.200 C 246.840 137.200,247.200 137.345,247.200 137.521 C 247.200 137.698,248.097 138.283,249.194 138.821 C 250.290 139.360,251.190 139.935,251.194 140.100 C 251.197 140.265,251.483 140.400,251.829 140.400 C 252.174 140.400,252.727 140.670,253.057 141.000 C 253.387 141.330,254.004 141.600,254.429 141.600 C 254.853 141.600,255.200 141.780,255.200 142.000 C 255.200 142.220,255.478 142.400,255.817 142.400 C 256.156 142.400,256.820 142.760,257.292 143.200 C 257.764 143.640,258.387 144.000,258.675 144.000 C 258.964 144.000,259.200 144.180,259.200 144.400 C 259.200 144.620,259.470 144.800,259.800 144.800 C 260.130 144.800,260.400 144.980,260.400 145.200 C 260.400 145.420,260.678 145.600,261.017 145.600 C 261.356 145.600,262.020 145.960,262.492 146.400 C 262.964 146.840,263.587 147.200,263.875 147.200 C 264.164 147.200,264.400 147.380,264.400 147.600 C 264.400 147.820,264.760 148.000,265.200 148.000 C 265.640 148.000,266.000 148.180,266.000 148.400 C 266.000 148.620,266.320 148.800,266.712 148.800 C 267.103 148.800,267.683 149.160,268.000 149.600 C 268.317 150.040,268.897 150.400,269.288 150.400 C 269.680 150.400,270.000 150.580,270.000 150.800 C 270.000 151.020,270.360 151.200,270.800 151.200 C 271.240 151.200,271.600 151.380,271.600 151.600 C 271.600 151.820,271.836 152.000,272.125 152.000 C 272.413 152.000,273.036 152.360,273.508 152.800 C 273.980 153.240,274.644 153.600,274.983 153.600 C 275.322 153.600,275.600 153.780,275.600 154.000 C 275.600 154.220,275.793 154.400,276.028 154.400 C 276.263 154.400,277.208 154.912,278.128 155.537 C 279.048 156.163,280.565 157.008,281.500 157.414 C 282.435 157.821,283.200 158.299,283.200 158.477 C 283.200 158.655,283.560 158.800,284.000 158.800 C 284.440 158.800,284.800 158.980,284.800 159.200 C 284.800 159.420,285.160 159.600,285.600 159.600 C 286.040 159.600,286.400 159.780,286.400 160.000 C 286.400 160.220,286.720 160.400,287.112 160.400 C 287.503 160.400,288.083 160.760,288.400 161.200 C 288.717 161.640,289.297 162.000,289.688 162.000 C 290.080 162.000,290.400 162.180,290.400 162.400 C 290.400 162.620,290.678 162.800,291.017 162.800 C 291.356 162.800,292.020 163.160,292.492 163.600 C 292.964 164.040,293.856 164.624,294.475 164.897 C 295.094 165.171,295.600 165.531,295.600 165.698 C 295.600 165.864,295.878 166.000,296.217 166.000 C 296.556 166.000,297.220 166.360,297.692 166.800 C 298.164 167.240,298.787 167.600,299.075 167.600 C 299.364 167.600,299.600 167.780,299.600 168.000 C 299.600 168.220,299.960 168.400,300.400 168.400 C 300.840 168.400,301.200 168.580,301.200 168.800 C 301.200 169.020,301.478 169.200,301.817 169.200 C 302.156 169.200,302.820 169.560,303.292 170.000 C 303.764 170.440,304.387 170.800,304.675 170.800 C 304.964 170.800,305.200 170.980,305.200 171.200 C 305.200 171.420,305.545 171.600,305.967 171.600 C 306.388 171.600,306.793 171.735,306.867 171.900 C 307.031 172.269,308.808 173.342,311.200 174.516 C 312.190 175.002,313.060 175.535,313.133 175.700 C 313.207 175.865,313.522 176.000,313.833 176.000 C 314.145 176.000,314.400 176.180,314.400 176.400 C 314.400 176.620,314.760 176.800,315.200 176.800 C 315.640 176.800,316.000 176.980,316.000 177.200 C 316.000 177.420,316.320 177.600,316.712 177.600 C 317.103 177.600,317.683 177.960,318.000 178.400 C 318.317 178.840,318.897 179.200,319.288 179.200 C 319.680 179.200,320.000 179.380,320.000 179.600 C 320.000 179.820,320.360 180.000,320.800 180.000 C 321.240 180.000,321.600 180.180,321.600 180.400 C 321.600 180.620,321.920 180.800,322.312 180.800 C 322.703 180.800,323.283 181.160,323.600 181.600 C 323.917 182.040,324.497 182.400,324.888 182.400 C 325.280 182.400,325.600 182.580,325.600 182.800 C 325.600 183.020,325.870 183.200,326.200 183.200 C 326.530 183.200,326.800 183.380,326.800 183.600 C 326.800 183.820,327.078 184.000,327.417 184.000 C 327.756 184.000,328.420 184.360,328.892 184.800 C 329.364 185.240,329.987 185.600,330.275 185.600 C 330.564 185.600,330.800 185.780,330.800 186.000 C 330.800 186.220,331.160 186.400,331.600 186.400 C 332.040 186.400,332.400 186.559,332.400 186.753 C 332.400 186.948,332.715 187.207,333.100 187.329 C 334.036 187.625,336.166 188.924,336.333 189.300 C 336.407 189.465,336.812 189.600,337.233 189.600 C 337.655 189.600,338.000 189.747,338.000 189.926 C 338.000 190.324,340.601 191.600,341.414 191.600 C 341.736 191.600,342.000 191.780,342.000 192.000 C 342.000 192.220,342.188 192.400,342.417 192.400 C 342.646 192.400,343.220 192.760,343.692 193.200 C 344.164 193.640,344.787 194.000,345.075 194.000 C 345.364 194.000,345.600 194.180,345.600 194.400 C 345.600 194.620,345.960 194.800,346.400 194.800 C 346.840 194.800,347.200 194.980,347.200 195.200 C 347.200 195.420,347.470 195.600,347.800 195.600 C 348.130 195.600,348.400 195.780,348.400 196.000 C 348.400 196.220,348.588 196.400,348.818 196.400 C 349.885 196.400,351.200 198.387,351.200 200.000 C 351.200 201.613,349.885 203.600,348.818 203.600 C 348.588 203.600,348.400 203.780,348.400 204.000 C 348.400 204.220,348.130 204.400,347.800 204.400 C 347.470 204.400,347.200 204.580,347.200 204.800 C 347.200 205.020,346.840 205.200,346.400 205.200 C 345.960 205.200,345.600 205.380,345.600 205.600 C 345.600 205.820,345.364 206.000,345.075 206.000 C 344.787 206.000,344.164 206.360,343.692 206.800 C 343.220 207.240,342.646 207.600,342.417 207.600 C 342.188 207.600,342.000 207.780,342.000 208.000 C 342.000 208.220,341.736 208.400,341.414 208.400 C 340.601 208.400,338.000 209.676,338.000 210.074 C 338.000 210.253,337.640 210.400,337.200 210.400 C 336.760 210.400,336.397 210.535,336.394 210.700 C 336.390 210.865,335.490 211.440,334.394 211.979 C 333.297 212.517,332.400 213.102,332.400 213.279 C 332.400 213.455,332.040 213.600,331.600 213.600 C 331.160 213.600,330.800 213.780,330.800 214.000 C 330.800 214.220,330.564 214.400,330.275 214.400 C 329.987 214.400,329.364 214.760,328.892 215.200 C 328.420 215.640,327.756 216.000,327.417 216.000 C 327.078 216.000,326.800 216.180,326.800 216.400 C 326.800 216.620,326.530 216.800,326.200 216.800 C 325.870 216.800,325.600 216.980,325.600 217.200 C 325.600 217.420,325.280 217.600,324.888 217.600 C 324.497 217.600,323.917 217.960,323.600 218.400 C 323.283 218.840,322.703 219.200,322.312 219.200 C 321.920 219.200,321.600 219.380,321.600 219.600 C 321.600 219.820,321.240 220.000,320.800 220.000 C 320.360 220.000,320.000 220.180,320.000 220.400 C 320.000 220.620,319.680 220.800,319.288 220.800 C 318.897 220.800,318.317 221.160,318.000 221.600 C 317.683 222.040,317.103 222.400,316.712 222.400 C 316.320 222.400,316.000 222.580,316.000 222.800 C 316.000 223.020,315.640 223.200,315.200 223.200 C 314.760 223.200,314.400 223.380,314.400 223.600 C 314.400 223.820,314.145 224.000,313.833 224.000 C 313.522 224.000,313.207 224.135,313.133 224.300 C 313.060 224.465,312.190 224.998,311.200 225.484 C 308.808 226.658,307.031 227.731,306.867 228.100 C 306.793 228.265,306.388 228.400,305.967 228.400 C 305.545 228.400,305.200 228.580,305.200 228.800 C 305.200 229.020,304.964 229.200,304.675 229.200 C 304.387 229.200,303.764 229.560,303.292 230.000 C 302.820 230.440,302.156 230.800,301.817 230.800 C 301.478 230.800,301.200 230.980,301.200 231.200 C 301.200 231.420,300.840 231.600,300.400 231.600 C 299.960 231.600,299.600 231.780,299.600 232.000 C 299.600 232.220,299.364 232.400,299.075 232.400 C 298.787 232.400,298.164 232.760,297.692 233.200 C 297.220 233.640,296.556 234.000,296.217 234.000 C 295.878 234.000,295.600 234.136,295.600 234.302 C 295.600 234.469,295.094 234.829,294.475 235.103 C 293.856 235.376,292.964 235.960,292.492 236.400 C 292.020 236.840,291.356 237.200,291.017 237.200 C 290.678 237.200,290.400 237.380,290.400 237.600 C 290.400 237.820,290.122 238.000,289.783 238.000 C 289.444 238.000,288.780 238.360,288.308 238.800 C 287.836 239.240,287.213 239.600,286.925 239.600 C 286.636 239.600,286.400 239.780,286.400 240.000 C 286.400 240.220,286.040 240.400,285.600 240.400 C 285.160 240.400,284.800 240.580,284.800 240.800 C 284.800 241.020,284.440 241.200,284.000 241.200 C 283.560 241.200,283.200 241.345,283.200 241.523 C 283.200 241.701,282.435 242.179,281.500 242.586 C 280.565 242.992,279.048 243.837,278.128 244.463 C 277.208 245.088,276.263 245.600,276.028 245.600 C 275.793 245.600,275.600 245.780,275.600 246.000 C 275.600 246.220,275.322 246.400,274.983 246.400 C 274.644 246.400,273.980 246.760,273.508 247.200 C 273.036 247.640,272.413 248.000,272.125 248.000 C 271.836 248.000,271.600 248.180,271.600 248.400 C 271.600 248.620,271.240 248.800,270.800 248.800 C 270.360 248.800,270.000 248.980,270.000 249.200 C 270.000 249.420,269.680 249.600,269.288 249.600 C 268.897 249.600,268.317 249.960,268.000 250.400 C 267.683 250.840,267.103 251.200,266.712 251.200 C 266.320 251.200,266.000 251.380,266.000 251.600 C 266.000 251.820,265.640 252.000,265.200 252.000 C 264.760 252.000,264.400 252.180,264.400 252.400 C 264.400 252.620,264.164 252.800,263.875 252.800 C 263.587 252.800,262.964 253.160,262.492 253.600 C 262.020 254.040,261.356 254.400,261.017 254.400 C 260.678 254.400,260.400 254.580,260.400 254.800 C 260.400 255.020,260.130 255.200,259.800 255.200 C 259.470 255.200,259.200 255.380,259.200 255.600 C 259.200 255.820,258.964 256.000,258.675 256.000 C 258.387 256.000,257.764 256.360,257.292 256.800 C 256.820 257.240,256.156 257.600,255.817 257.600 C 255.478 257.600,255.200 257.780,255.200 258.000 C 255.200 258.220,254.853 258.400,254.429 258.400 C 254.004 258.400,253.387 258.670,253.057 259.000 C 252.727 259.330,252.174 259.600,251.829 259.600 C 251.483 259.600,251.197 259.735,251.194 259.900 C 251.190 260.065,250.290 260.640,249.194 261.179 C 248.097 261.717,247.200 262.302,247.200 262.479 C 247.200 262.655,246.840 262.800,246.400 262.800 C 245.960 262.800,245.600 262.936,245.600 263.102 C 245.600 263.269,245.015 263.660,244.300 263.972 C 243.585 264.284,242.709 264.868,242.353 265.270 C 241.997 265.671,241.412 266.000,241.053 266.000 C 240.694 266.000,240.400 266.180,240.400 266.400 C 240.400 266.620,240.040 266.800,239.600 266.800 C 239.160 266.800,238.800 266.980,238.800 267.200 C 238.800 267.420,238.564 267.600,238.275 267.600 C 237.987 267.600,237.364 267.960,236.892 268.400 C 236.420 268.840,235.756 269.200,235.417 269.200 C 235.078 269.200,234.800 269.380,234.800 269.600 C 234.800 269.820,234.522 270.000,234.183 270.000 C 233.844 270.000,233.180 270.360,232.708 270.800 C 232.236 271.240,231.613 271.600,231.325 271.600 C 231.036 271.600,230.800 271.780,230.800 272.000 C 230.800 272.220,230.440 272.400,230.000 272.400 C 229.560 272.400,229.200 272.580,229.200 272.800 C 229.200 273.020,228.930 273.200,228.600 273.200 C 228.270 273.200,228.000 273.380,228.000 273.600 C 228.000 273.820,227.745 274.000,227.433 274.000 C 227.122 274.000,226.807 274.135,226.733 274.300 C 226.660 274.465,225.475 275.128,224.100 275.774 C 222.725 276.419,221.600 277.094,221.600 277.274 C 221.600 277.453,221.240 277.600,220.800 277.600 C 220.360 277.600,220.000 277.759,220.000 277.953 C 220.000 278.148,219.685 278.407,219.300 278.529 C 218.364 278.825,216.234 280.124,216.067 280.500 C 215.993 280.665,215.588 280.800,215.167 280.800 C 214.745 280.800,214.400 280.980,214.400 281.200 C 214.400 281.420,214.164 281.600,213.875 281.600 C 213.587 281.600,212.964 281.960,212.492 282.400 C 212.020 282.840,211.356 283.200,211.017 283.200 C 210.678 283.200,210.400 283.380,210.400 283.600 C 210.400 283.820,210.130 284.000,209.800 284.000 C 209.470 284.000,209.200 284.180,209.200 284.400 C 209.200 284.620,208.880 284.800,208.488 284.800 C 208.097 284.800,207.517 285.160,207.200 285.600 C 206.883 286.040,206.303 286.400,205.912 286.400 C 205.520 286.400,205.200 286.580,205.200 286.800 C 205.200 287.020,204.840 287.200,204.400 287.200 C 203.960 287.200,203.600 287.380,203.600 287.600 C 203.600 287.820,203.364 288.000,203.075 288.000 C 202.787 288.000,202.164 288.360,201.692 288.800 C 201.220 289.240,200.556 289.600,200.217 289.600 C 199.878 289.600,199.600 289.780,199.600 290.000 C 199.600 290.220,199.240 290.400,198.800 290.400 C 198.360 290.400,198.000 290.548,198.000 290.729 C 198.000 290.910,196.650 291.734,195.000 292.561 C 193.350 293.387,192.000 294.229,192.000 294.432 C 192.000 294.634,191.640 294.800,191.200 294.800 C 190.760 294.800,190.400 294.980,190.400 295.200 C 190.400 295.420,190.040 295.600,189.600 295.600 C 189.160 295.600,188.800 295.780,188.800 296.000 C 188.800 296.220,188.564 296.400,188.275 296.400 C 187.987 296.400,187.364 296.760,186.892 297.200 C 186.420 297.640,185.756 298.000,185.417 298.000 C 185.078 298.000,184.800 298.180,184.800 298.400 C 184.800 298.620,184.522 298.800,184.183 298.800 C 183.844 298.800,183.180 299.160,182.708 299.600 C 182.236 300.040,181.613 300.400,181.325 300.400 C 181.036 300.400,180.800 300.580,180.800 300.800 C 180.800 301.020,180.440 301.200,180.000 301.200 C 179.560 301.200,179.200 301.380,179.200 301.600 C 179.200 301.820,178.964 302.000,178.675 302.000 C 178.387 302.000,177.802 302.325,177.375 302.722 C 176.949 303.120,176.015 303.703,175.300 304.020 C 174.585 304.336,174.000 304.731,174.000 304.898 C 174.000 305.064,173.680 305.200,173.288 305.200 C 172.897 305.200,172.317 305.560,172.000 306.000 C 171.683 306.440,171.103 306.800,170.712 306.800 C 170.320 306.800,170.000 306.980,170.000 307.200 C 170.000 307.420,169.640 307.600,169.200 307.600 C 168.760 307.600,168.400 307.780,168.400 308.000 C 168.400 308.220,168.051 308.400,167.624 308.400 C 167.197 308.400,166.739 308.575,166.607 308.789 C 166.474 309.003,165.699 309.486,164.883 309.863 C 164.067 310.239,162.648 311.054,161.728 311.673 C 160.808 312.293,159.863 312.800,159.628 312.800 C 159.393 312.800,159.200 312.980,159.200 313.200 C 159.200 313.420,158.922 313.600,158.583 313.600 C 158.244 313.600,157.580 313.960,157.108 314.400 C 156.636 314.840,156.013 315.200,155.725 315.200 C 155.436 315.200,155.200 315.380,155.200 315.600 C 155.200 315.820,154.840 316.000,154.400 316.000 C 153.960 316.000,153.600 316.180,153.600 316.400 C 153.600 316.620,153.364 316.800,153.075 316.800 C 152.787 316.800,152.164 317.160,151.692 317.600 C 151.220 318.040,150.556 318.400,150.217 318.400 C 149.878 318.400,149.600 318.580,149.600 318.800 C 149.600 319.020,149.240 319.200,148.800 319.200 C 148.360 319.200,148.000 319.380,148.000 319.600 C 148.000 319.820,147.764 320.000,147.475 320.000 C 147.187 320.000,146.564 320.360,146.092 320.800 C 145.620 321.240,144.956 321.600,144.617 321.600 C 144.278 321.600,144.000 321.780,144.000 322.000 C 144.000 322.220,143.730 322.400,143.400 322.400 C 143.070 322.400,142.800 322.580,142.800 322.800 C 142.800 323.020,142.530 323.200,142.200 323.200 C 141.870 323.200,141.600 323.380,141.600 323.600 C 141.600 323.820,141.330 324.000,141.000 324.000 C 140.670 324.000,140.400 324.180,140.400 324.400 C 140.400 324.620,140.136 324.800,139.814 324.800 C 139.001 324.800,136.400 326.076,136.400 326.474 C 136.400 326.653,136.040 326.800,135.600 326.800 C 135.160 326.800,134.797 326.935,134.794 327.100 C 134.790 327.265,133.890 327.840,132.794 328.379 C 131.697 328.917,130.800 329.502,130.800 329.679 C 130.800 329.855,130.440 330.000,130.000 330.000 C 129.560 330.000,129.200 330.180,129.200 330.400 C 129.200 330.620,129.007 330.800,128.772 330.800 C 128.537 330.800,127.559 331.340,126.600 332.000 C 125.641 332.660,124.663 333.200,124.428 333.200 C 124.193 333.200,124.000 333.380,124.000 333.600 C 124.000 333.820,123.722 334.000,123.383 334.000 C 123.044 334.000,122.380 334.360,121.908 334.800 C 121.436 335.240,120.813 335.600,120.525 335.600 C 120.236 335.600,120.000 335.780,120.000 336.000 C 120.000 336.220,119.640 336.400,119.200 336.400 C 118.760 336.400,118.400 336.580,118.400 336.800 C 118.400 337.020,118.080 337.200,117.688 337.200 C 117.297 337.200,116.717 337.560,116.400 338.000 C 116.083 338.440,115.503 338.800,115.112 338.800 C 114.720 338.800,114.400 338.980,114.400 339.200 C 114.400 339.420,114.040 339.600,113.600 339.600 C 113.160 339.600,112.800 339.780,112.800 340.000 C 112.800 340.220,112.530 340.400,112.200 340.400 C 111.870 340.400,111.600 340.580,111.600 340.800 C 111.600 341.020,111.345 341.200,111.033 341.200 C 110.722 341.200,110.407 341.335,110.333 341.500 C 110.260 341.665,109.078 342.340,107.707 343.000 C 106.335 343.660,105.210 344.335,105.207 344.500 C 105.203 344.665,104.840 344.800,104.400 344.800 C 103.960 344.800,103.600 344.959,103.600 345.153 C 103.600 345.348,103.285 345.607,102.900 345.729 C 101.964 346.025,99.834 347.324,99.667 347.700 C 99.593 347.865,99.188 348.000,98.767 348.000 C 98.345 348.000,98.000 348.180,98.000 348.400 C 98.000 348.620,97.764 348.800,97.475 348.800 C 97.187 348.800,96.564 349.160,96.092 349.600 C 95.620 350.040,94.956 350.400,94.617 350.400 C 94.278 350.400,94.000 350.580,94.000 350.800 C 94.000 351.020,93.730 351.200,93.400 351.200 C 93.070 351.200,92.800 351.380,92.800 351.600 C 92.800 351.820,92.480 352.000,92.088 352.000 C 91.697 352.000,91.117 352.360,90.800 352.800 C 90.483 353.240,89.903 353.600,89.512 353.600 C 89.120 353.600,88.800 353.780,88.800 354.000 C 88.800 354.220,88.440 354.400,88.000 354.400 C 87.560 354.400,87.200 354.580,87.200 354.800 C 87.200 355.020,86.964 355.200,86.675 355.200 C 86.387 355.200,85.764 355.560,85.292 356.000 C 84.820 356.440,84.156 356.800,83.817 356.800 C 83.478 356.800,83.200 356.980,83.200 357.200 C 83.200 357.420,82.840 357.600,82.400 357.600 C 81.960 357.600,81.600 357.735,81.599 357.900 C 81.599 358.065,80.519 358.726,79.200 359.369 C 77.882 360.012,76.450 360.867,76.018 361.269 C 75.587 361.671,74.956 362.000,74.617 362.000 C 74.278 362.000,74.000 362.180,74.000 362.400 C 74.000 362.620,73.640 362.800,73.200 362.800 C 72.760 362.800,72.400 362.958,72.400 363.151 C 72.400 363.345,71.860 363.727,71.200 364.000 C 70.540 364.273,70.000 364.655,70.000 364.849 C 70.000 365.042,69.640 365.200,69.200 365.200 C 68.760 365.200,68.400 365.380,68.400 365.600 C 68.400 365.820,68.122 366.000,67.783 366.000 C 67.444 366.000,66.780 366.360,66.308 366.800 C 65.836 367.240,65.213 367.600,64.925 367.600 C 64.636 367.600,64.400 367.780,64.400 368.000 C 64.400 368.220,64.040 368.400,63.600 368.400 C 63.160 368.400,62.800 368.580,62.800 368.800 C 62.800 369.020,62.564 369.200,62.275 369.200 C 61.987 369.200,61.402 369.525,60.975 369.922 C 60.549 370.320,59.615 370.903,58.900 371.220 C 58.185 371.536,57.600 371.931,57.600 372.098 C 57.600 372.264,57.280 372.400,56.888 372.400 C 56.497 372.400,55.917 372.760,55.600 373.200 C 55.002 374.030,51.200 374.416,51.200 373.647 C 51.200 373.452,50.840 373.199,50.400 373.084 C 49.960 372.969,49.600 372.588,49.600 372.237 C 49.600 371.887,49.420 371.600,49.200 371.600 C 48.934 371.600,48.800 314.133,48.800 200.000 C 48.800 85.867,48.934 28.400,49.200 28.400 C 49.420 28.400,49.600 28.040,49.600 27.600 C 49.600 27.067,49.867 26.800,50.400 26.800 C 50.840 26.800,51.200 26.620,51.200 26.400 C 51.200 25.597,54.981 25.941,55.600 26.800 " stroke="none" fill="#040404" fill-rule="evenodd"></path><path id="path1" d="" stroke="none" fill="#080404" fill-rule="evenodd"></path><path id="path2" d="" stroke="none" fill="#080404" fill-rule="evenodd"></path><path id="path3" d="" stroke="none" fill="#080404" fill-rule="evenodd"></path><path id="path4" d="" stroke="none" fill="#080404" fill-rule="evenodd"></path><path id="path5" d="" stroke="none" fill="#080404" fill-rule="evenodd"></path><path id="path6" d="" stroke="none" fill="#080404" fill-rule="evenodd"></path><path id="path7" d="" stroke="none" fill="#080404" fill-rule="evenodd"></path><path id="path8" d="" stroke="none" fill="#080404" fill-rule="evenodd"></path></g></svg>