<svg id="svg" version="1.1" xmlns="http://www.w3.org/2000/svg" xmlns:xlink="http://www.w3.org/1999/xlink" width="400" height="400" viewBox="0, 0, 400,400"><g id="svgg"><path id="path0" d="M309.600 273.776 C 309.600 274.119,309.330 274.400,309.000 274.400 C 308.670 274.400,308.400 274.580,308.400 274.800 C 308.400 275.431,309.014 275.269,309.764 274.440 C 310.214 273.942,310.305 273.588,310.026 273.416 C 309.792 273.271,309.600 273.433,309.600 273.776 M262.968 277.058 C 263.093 277.310,262.926 277.619,262.598 277.746 C 262.269 277.872,262.000 278.281,262.000 278.654 C 262.000 279.028,261.889 279.222,261.752 279.086 C 261.395 278.728,260.305 279.922,260.581 280.369 C 260.709 280.576,260.630 280.858,260.407 280.996 C 260.183 281.134,260.000 281.049,260.000 280.808 C 260.000 280.525,259.801 280.552,259.442 280.884 C 259.135 281.168,258.953 281.515,259.038 281.655 C 259.122 281.795,258.883 281.885,258.505 281.855 C 258.128 281.825,257.812 281.980,257.804 282.200 C 257.776 282.888,257.161 283.623,256.798 283.399 C 256.608 283.281,255.998 283.638,255.444 284.192 C 254.890 284.747,254.558 285.200,254.707 285.200 C 254.856 285.200,254.533 285.514,253.989 285.897 C 253.445 286.280,252.885 286.595,252.745 286.597 C 252.605 286.599,252.116 287.050,251.658 287.600 C 251.201 288.150,250.821 288.437,250.813 288.239 C 250.806 288.040,250.485 288.221,250.100 288.642 C 249.715 289.062,248.905 289.660,248.301 289.970 C 247.696 290.280,247.282 290.616,247.382 290.715 C 247.626 290.960,246.556 292.000,246.059 292.000 C 245.841 292.000,245.122 292.540,244.462 293.200 C 243.802 293.860,242.988 294.400,242.653 294.400 C 242.319 294.400,241.810 294.732,241.523 295.137 C 241.235 295.543,240.325 296.193,239.500 296.583 C 238.675 296.972,238.000 297.451,238.000 297.646 C 238.000 297.841,237.712 298.000,237.360 298.000 C 237.009 298.000,236.242 298.495,235.657 299.100 C 235.071 299.705,234.337 300.256,234.024 300.324 C 233.712 300.392,232.966 300.797,232.366 301.224 C 231.767 301.651,231.162 302.000,231.022 302.000 C 230.881 302.000,230.380 302.360,229.908 302.800 C 229.436 303.240,228.723 303.600,228.325 303.600 C 227.926 303.600,227.600 303.780,227.600 304.000 C 227.600 304.220,227.412 304.400,227.183 304.400 C 226.954 304.400,226.380 304.760,225.908 305.200 C 225.436 305.640,224.813 306.000,224.525 306.000 C 224.236 306.000,224.000 306.180,224.000 306.400 C 224.000 306.620,223.640 306.800,223.200 306.800 C 222.760 306.800,222.400 306.980,222.400 307.200 C 222.400 307.420,222.040 307.600,221.600 307.600 C 221.160 307.600,220.800 307.780,220.800 308.000 C 220.800 308.220,220.440 308.400,220.000 308.400 C 219.560 308.400,219.200 308.580,219.200 308.800 C 219.200 309.020,218.900 309.200,218.532 309.200 C 218.165 309.200,216.897 309.746,215.715 310.413 C 214.533 311.080,213.366 311.502,213.121 311.351 C 212.852 311.185,212.789 311.258,212.962 311.538 C 213.149 311.841,212.895 312.000,212.224 312.000 C 211.661 312.000,211.200 312.136,211.200 312.302 C 211.200 312.469,210.615 312.840,209.900 313.129 C 209.185 313.417,208.287 313.821,207.905 314.026 C 207.523 314.232,206.938 314.400,206.605 314.400 C 206.272 314.400,206.000 314.580,206.000 314.800 C 206.000 315.020,205.550 315.200,205.000 315.200 C 204.450 315.200,204.000 315.380,204.000 315.600 C 204.000 315.820,203.550 316.000,203.000 316.000 C 202.450 316.000,202.000 316.180,202.000 316.400 C 202.000 316.620,201.640 316.800,201.200 316.800 C 200.760 316.800,200.400 316.980,200.400 317.200 C 200.400 317.420,199.860 317.600,199.200 317.600 C 198.540 317.600,198.000 317.780,198.000 318.000 C 198.000 318.220,197.561 318.400,197.024 318.400 C 196.487 318.400,195.936 318.580,195.800 318.800 C 195.664 319.020,195.113 319.200,194.576 319.200 C 194.039 319.200,193.600 319.380,193.600 319.600 C 193.600 319.820,193.060 320.000,192.400 320.000 C 191.740 320.000,191.200 320.180,191.200 320.400 C 191.200 320.620,190.750 320.800,190.200 320.800 C 189.650 320.800,189.200 320.980,189.200 321.200 C 189.200 321.420,188.570 321.600,187.800 321.600 C 187.030 321.600,186.400 321.780,186.400 322.000 C 186.400 322.220,186.008 322.400,185.528 322.400 C 184.608 322.400,182.272 323.060,181.105 323.649 C 180.723 323.842,179.768 324.000,178.982 324.000 C 178.131 324.000,177.653 324.162,177.800 324.400 C 177.949 324.642,177.404 324.800,176.424 324.800 C 175.531 324.800,174.800 324.935,174.799 325.100 C 174.799 325.265,174.056 325.451,173.148 325.513 C 172.240 325.576,171.173 325.800,170.778 326.012 C 170.382 326.224,169.773 326.288,169.424 326.154 C 169.075 326.020,168.567 326.094,168.295 326.319 C 168.023 326.543,166.990 326.776,166.000 326.835 C 165.010 326.894,163.824 327.075,163.364 327.237 C 162.904 327.399,161.644 327.581,160.564 327.642 C 159.484 327.703,158.506 327.887,158.391 328.052 C 158.277 328.217,157.107 328.392,155.791 328.441 C 154.476 328.490,153.306 328.671,153.190 328.843 C 153.075 329.014,151.365 329.187,149.390 329.226 C 147.416 329.265,145.611 329.447,145.380 329.631 C 145.149 329.815,141.954 329.997,138.280 330.036 C 134.606 330.075,131.600 330.263,131.600 330.454 C 131.600 330.644,129.875 330.800,127.767 330.800 C 123.861 330.800,123.021 330.356,125.126 329.405 C 125.607 329.188,126.000 328.873,126.000 328.705 C 126.000 328.537,126.294 328.400,126.653 328.400 C 127.012 328.400,127.597 328.071,127.953 327.670 C 128.309 327.268,129.185 326.684,129.900 326.372 C 130.615 326.060,131.200 325.669,131.200 325.502 C 131.200 325.336,131.470 325.200,131.800 325.200 C 132.130 325.200,132.400 325.020,132.400 324.800 C 132.400 324.580,132.670 324.400,133.000 324.400 C 133.330 324.400,133.600 324.241,133.600 324.047 C 133.600 323.852,133.915 323.579,134.300 323.440 C 135.299 323.079,136.675 322.237,137.529 321.464 C 137.933 321.099,138.381 320.800,138.524 320.800 C 138.668 320.800,139.625 319.996,140.651 319.013 C 141.677 318.029,142.671 317.320,142.858 317.436 C 143.046 317.552,143.200 317.356,143.200 317.000 C 143.200 316.644,143.367 316.456,143.571 316.582 C 143.775 316.708,144.050 316.474,144.181 316.061 C 144.312 315.648,145.675 314.009,147.209 312.418 C 148.744 310.828,150.000 309.371,150.000 309.181 C 150.000 308.992,150.405 308.416,150.900 307.902 C 152.075 306.683,154.400 303.286,154.400 302.788 C 154.400 302.575,154.580 302.400,154.800 302.400 C 155.020 302.400,155.200 302.130,155.200 301.800 C 155.200 301.470,155.391 301.200,155.624 301.200 C 155.857 301.200,155.936 301.020,155.800 300.800 C 155.664 300.580,155.724 300.400,155.933 300.400 C 156.300 300.400,157.796 297.269,157.682 296.738 C 157.651 296.594,157.890 296.257,158.213 295.989 C 158.536 295.721,158.800 295.290,158.800 295.031 C 158.800 294.333,159.753 292.407,160.100 292.403 C 160.265 292.401,160.400 292.128,160.400 291.795 C 160.400 291.207,160.567 290.782,161.538 288.905 C 161.792 288.413,162.000 287.468,162.000 286.805 C 162.000 286.142,162.186 285.600,162.413 285.600 C 162.639 285.600,162.783 284.978,162.732 284.217 C 162.668 283.269,162.885 282.608,163.419 282.117 C 164.498 281.127,164.560 280.400,163.567 280.400 C 163.073 280.400,162.805 280.196,162.910 279.900 C 163.007 279.625,163.345 279.419,163.661 279.442 C 164.015 279.468,164.250 279.085,164.273 278.442 C 164.294 277.869,164.228 277.715,164.126 278.100 C 164.024 278.485,163.764 278.800,163.547 278.800 C 163.330 278.800,163.264 278.620,163.400 278.400 C 163.564 278.134,149.172 278.002,120.524 278.006 C 95.399 278.010,77.633 278.160,77.958 278.366 C 78.265 278.560,78.406 279.007,78.271 279.360 C 78.136 279.712,78.210 280.000,78.436 280.000 C 78.662 280.000,78.736 280.180,78.600 280.400 C 78.464 280.620,78.564 280.800,78.823 280.800 C 79.120 280.800,79.216 280.396,79.084 279.708 C 78.897 278.729,78.930 278.690,79.398 279.329 C 79.685 279.722,80.296 280.072,80.755 280.107 C 81.305 280.148,81.456 280.304,81.195 280.565 C 80.669 281.091,80.689 282.400,81.224 282.400 C 81.457 282.400,81.533 282.175,81.393 281.900 C 81.253 281.625,81.533 281.850,82.015 282.400 C 82.496 282.950,83.005 283.400,83.145 283.400 C 83.285 283.400,83.355 283.535,83.300 283.700 C 83.245 283.865,83.549 284.000,83.976 284.000 C 84.403 284.000,84.862 284.177,84.997 284.394 C 85.131 284.611,85.623 284.730,86.091 284.659 C 87.060 284.511,88.481 285.545,88.118 286.133 C 87.985 286.348,88.076 286.400,88.320 286.250 C 88.970 285.848,90.843 286.408,90.532 286.911 C 90.371 287.170,90.509 287.244,90.886 287.099 C 91.225 286.969,91.673 287.033,91.881 287.241 C 92.089 287.449,92.682 287.700,93.200 287.800 C 93.718 287.900,94.244 288.120,94.371 288.291 C 94.497 288.461,95.046 288.663,95.590 288.740 C 96.135 288.818,96.932 289.127,97.363 289.429 C 97.937 289.831,98.286 289.861,98.673 289.540 C 99.076 289.205,99.200 289.271,99.200 289.818 C 99.200 290.211,99.300 290.434,99.421 290.312 C 99.543 290.191,100.426 290.327,101.385 290.615 C 102.343 290.904,103.233 291.033,103.363 290.903 C 103.494 290.773,103.600 290.847,103.600 291.068 C 103.600 291.289,104.440 291.502,105.466 291.541 C 106.492 291.580,107.527 291.757,107.766 291.935 C 108.005 292.113,109.010 292.305,110.000 292.361 C 110.990 292.418,111.971 292.629,112.180 292.832 C 112.389 293.034,114.262 293.200,116.342 293.200 L 120.124 293.200 118.962 294.200 C 118.323 294.749,117.585 295.199,117.323 295.200 C 117.060 295.200,116.565 295.600,116.223 296.089 C 115.880 296.578,115.600 296.820,115.600 296.628 C 115.600 296.435,115.264 296.665,114.853 297.139 C 114.442 297.612,113.846 298.000,113.529 298.000 C 113.211 298.000,112.564 298.360,112.092 298.800 C 111.620 299.240,110.945 299.600,110.593 299.600 C 110.241 299.600,110.064 299.780,110.200 300.000 C 110.336 300.220,110.167 300.400,109.824 300.400 C 109.481 300.400,109.200 300.580,109.200 300.800 C 109.200 301.020,108.917 301.200,108.571 301.200 C 108.226 301.200,107.671 301.472,107.339 301.804 C 107.007 302.136,106.570 302.305,106.368 302.180 C 106.165 302.055,106.000 302.143,106.000 302.376 C 106.000 302.609,105.680 302.800,105.288 302.800 C 104.897 302.800,104.317 303.160,104.000 303.600 C 103.683 304.040,103.103 304.400,102.712 304.400 C 102.320 304.400,102.000 304.580,102.000 304.800 C 102.000 305.020,101.640 305.200,101.200 305.200 C 100.760 305.200,100.400 305.346,100.400 305.525 C 100.400 305.704,99.770 306.098,99.000 306.400 C 98.230 306.702,97.600 307.096,97.600 307.275 C 97.600 307.454,97.251 307.600,96.824 307.600 C 96.397 307.600,95.936 307.780,95.800 308.000 C 95.664 308.220,95.236 308.400,94.848 308.400 C 94.460 308.400,93.437 308.743,92.574 309.163 C 91.711 309.583,90.869 309.842,90.702 309.740 C 90.536 309.637,90.400 309.743,90.400 309.976 C 90.400 310.209,90.055 310.400,89.633 310.400 C 89.212 310.400,88.807 310.575,88.733 310.788 C 88.660 311.002,88.240 311.236,87.800 311.308 C 87.360 311.380,86.619 311.649,86.153 311.905 C 85.687 312.162,85.192 312.258,85.053 312.119 C 84.914 311.980,84.800 312.077,84.800 312.333 C 84.800 312.590,84.350 312.800,83.800 312.800 C 83.250 312.800,82.800 312.980,82.800 313.200 C 82.800 313.420,82.271 313.600,81.624 313.600 C 80.977 313.600,80.336 313.780,80.200 314.000 C 80.064 314.220,79.513 314.400,78.976 314.400 C 78.439 314.400,78.000 314.580,78.000 314.800 C 78.000 315.020,77.676 315.200,77.280 315.200 C 76.884 315.200,76.386 315.374,76.173 315.587 C 75.961 315.799,75.205 316.017,74.493 316.072 C 73.782 316.126,73.200 316.273,73.200 316.398 C 73.200 316.523,72.345 316.857,71.300 317.139 C 70.255 317.422,69.087 317.821,68.705 318.027 C 68.323 318.232,67.569 318.400,67.029 318.400 C 66.489 318.400,65.936 318.580,65.800 318.800 C 65.664 319.020,64.933 319.200,64.176 319.200 C 63.419 319.200,62.800 319.380,62.800 319.600 C 62.800 319.820,62.069 320.000,61.176 320.000 C 60.196 320.000,59.651 320.158,59.800 320.400 C 59.949 320.642,59.404 320.800,58.424 320.800 C 57.531 320.800,56.800 320.980,56.800 321.200 C 56.800 321.420,55.900 321.600,54.800 321.600 C 53.700 321.600,52.800 321.780,52.800 322.000 C 52.800 322.220,52.001 322.400,51.024 322.400 C 50.047 322.400,49.136 322.580,49.000 322.800 C 48.864 323.020,47.874 323.200,46.800 323.200 C 45.726 323.200,44.736 323.380,44.600 323.600 C 44.464 323.820,43.283 324.000,41.976 324.000 C 40.669 324.000,39.600 324.167,39.600 324.371 C 39.600 324.574,38.025 324.829,36.100 324.937 C 34.175 325.045,30.710 325.247,28.400 325.386 C 23.992 325.651,14.491 325.678,5.931 325.449 C 3.144 325.375,0.642 325.450,0.373 325.617 C -0.301 326.033,0.230 327.231,1.202 327.485 C 1.641 327.599,2.000 327.852,2.000 328.047 C 2.000 328.241,2.320 328.400,2.712 328.400 C 3.103 328.400,3.683 328.760,4.000 329.200 C 4.317 329.640,4.897 330.000,5.288 330.000 C 5.680 330.000,6.000 330.180,6.000 330.400 C 6.000 330.620,6.320 330.800,6.712 330.800 C 7.103 330.800,7.683 331.160,8.000 331.600 C 8.317 332.040,8.897 332.400,9.288 332.400 C 9.680 332.400,10.000 332.536,10.000 332.702 C 10.000 332.869,10.585 333.259,11.300 333.570 C 12.015 333.881,12.690 334.245,12.800 334.377 C 13.022 334.645,16.995 336.767,20.400 338.436 C 27.391 341.862,28.594 342.400,29.263 342.400 C 29.668 342.400,30.000 342.580,30.000 342.800 C 30.000 343.020,30.360 343.200,30.800 343.200 C 31.240 343.200,31.600 343.380,31.600 343.600 C 31.600 343.820,31.949 344.000,32.376 344.000 C 32.803 344.000,33.264 344.180,33.400 344.400 C 33.536 344.620,34.087 344.800,34.624 344.800 C 35.161 344.800,35.600 344.980,35.600 345.200 C 35.600 345.420,35.949 345.600,36.376 345.600 C 36.803 345.600,37.264 345.780,37.400 346.000 C 37.536 346.220,38.087 346.400,38.624 346.400 C 39.161 346.400,39.600 346.580,39.600 346.800 C 39.600 347.020,39.960 347.200,40.400 347.200 C 40.840 347.200,41.200 347.380,41.200 347.600 C 41.200 347.820,41.740 348.000,42.400 348.000 C 43.060 348.000,43.600 348.180,43.600 348.400 C 43.600 348.620,44.050 348.800,44.600 348.800 C 45.150 348.800,45.600 348.980,45.600 349.200 C 45.600 349.420,45.962 349.600,46.405 349.600 C 46.848 349.600,47.568 349.780,48.005 350.000 C 48.442 350.220,49.158 350.580,49.595 350.800 C 50.032 351.020,50.741 351.200,51.171 351.200 C 51.601 351.200,52.064 351.380,52.200 351.600 C 52.336 351.820,52.876 352.000,53.400 352.000 C 53.924 352.000,54.464 352.180,54.600 352.400 C 54.736 352.620,55.366 352.800,56.000 352.800 C 56.634 352.800,57.264 352.980,57.400 353.200 C 57.536 353.420,58.089 353.600,58.629 353.600 C 59.169 353.600,59.923 353.759,60.305 353.953 C 61.800 354.714,63.058 355.156,64.400 355.392 C 65.170 355.527,66.385 355.739,67.100 355.863 C 67.815 355.986,68.400 356.211,68.400 356.362 C 68.400 356.513,69.060 356.681,69.866 356.735 C 70.672 356.789,71.527 356.956,71.766 357.105 C 72.005 357.255,72.560 357.430,73.000 357.494 C 73.440 357.558,74.766 357.786,75.946 358.001 C 77.127 358.215,78.280 358.274,78.508 358.133 C 78.749 357.984,78.804 358.070,78.638 358.338 C 78.437 358.664,78.943 358.800,80.353 358.800 C 81.453 358.800,82.464 358.980,82.600 359.200 C 82.736 359.420,83.917 359.600,85.224 359.600 C 86.541 359.600,87.600 359.778,87.600 360.000 C 87.600 360.220,88.579 360.400,89.776 360.400 C 90.973 360.400,92.064 360.580,92.200 360.800 C 92.336 361.020,93.787 361.200,95.424 361.200 C 97.141 361.200,98.400 361.369,98.400 361.600 C 98.400 361.841,100.067 362.000,102.600 362.000 C 105.133 362.000,106.800 362.159,106.800 362.400 C 106.800 362.655,110.200 362.800,116.200 362.800 C 122.200 362.800,125.600 362.945,125.600 363.200 C 125.600 363.420,126.309 363.600,127.176 363.600 C 128.043 363.600,128.864 363.420,129.000 363.200 C 129.153 362.953,132.596 362.800,138.000 362.800 C 143.404 362.800,146.847 362.647,147.000 362.400 C 147.138 362.176,149.012 362.000,151.247 362.000 C 153.812 362.000,155.159 361.856,155.000 361.600 C 154.843 361.346,155.929 361.200,157.976 361.200 C 159.859 361.200,161.200 361.034,161.200 360.800 C 161.200 360.575,162.325 360.400,163.776 360.400 C 165.193 360.400,166.464 360.220,166.600 360.000 C 166.736 359.780,167.737 359.600,168.824 359.600 C 169.911 359.600,170.800 359.420,170.800 359.200 C 170.800 358.980,171.790 358.800,173.000 358.800 C 174.210 358.800,175.201 358.665,175.202 358.500 C 175.203 358.335,176.036 358.152,177.052 358.093 C 178.069 358.033,179.097 357.864,179.337 357.715 C 179.577 357.567,180.260 357.435,180.854 357.423 C 181.448 357.410,182.069 357.265,182.234 357.100 C 182.398 356.935,183.123 356.800,183.843 356.800 C 184.563 356.800,185.264 356.620,185.400 356.400 C 185.536 356.180,186.179 356.000,186.829 356.000 C 187.479 356.000,188.323 355.842,188.705 355.649 C 189.872 355.060,192.208 354.400,193.128 354.400 C 193.608 354.400,194.000 354.220,194.000 354.000 C 194.000 353.780,194.619 353.600,195.376 353.600 C 196.133 353.600,196.864 353.420,197.000 353.200 C 197.136 352.980,197.676 352.800,198.200 352.800 C 198.724 352.800,199.264 352.620,199.400 352.400 C 199.536 352.180,200.177 352.000,200.824 352.000 C 201.471 352.000,202.000 351.820,202.000 351.600 C 202.000 351.380,202.439 351.200,202.976 351.200 C 203.513 351.200,204.064 351.020,204.200 350.800 C 204.336 350.580,204.887 350.400,205.424 350.400 C 205.961 350.400,206.400 350.220,206.400 350.000 C 206.400 349.780,206.925 349.600,207.567 349.600 C 208.208 349.600,208.793 349.422,208.867 349.203 C 208.940 348.985,209.495 348.766,210.100 348.716 C 210.705 348.666,211.200 348.485,211.200 348.313 C 211.200 348.141,211.560 348.000,212.000 348.000 C 212.440 348.000,212.800 347.820,212.800 347.600 C 212.800 347.380,213.340 347.200,214.000 347.200 C 214.660 347.200,215.200 347.020,215.200 346.800 C 215.200 346.580,215.560 346.400,216.000 346.400 C 216.440 346.400,216.800 346.220,216.800 346.000 C 216.800 345.780,217.250 345.600,217.800 345.600 C 218.350 345.600,218.800 345.420,218.800 345.200 C 218.800 344.980,219.250 344.800,219.800 344.800 C 220.350 344.800,220.800 344.620,220.800 344.400 C 220.800 344.180,221.160 344.000,221.600 344.000 C 222.040 344.000,222.400 343.820,222.400 343.600 C 222.400 343.380,222.760 343.200,223.200 343.200 C 223.640 343.200,224.000 343.020,224.000 342.800 C 224.000 342.580,224.450 342.400,225.000 342.400 C 225.550 342.400,226.000 342.220,226.000 342.000 C 226.000 341.780,226.238 341.600,226.529 341.600 C 226.819 341.600,227.763 341.257,228.626 340.837 C 229.489 340.417,230.331 340.158,230.498 340.260 C 230.664 340.363,230.800 340.257,230.800 340.024 C 230.800 339.791,231.160 339.600,231.600 339.600 C 232.040 339.600,232.400 339.420,232.400 339.200 C 232.400 338.980,232.760 338.800,233.200 338.800 C 233.640 338.800,234.000 338.620,234.000 338.400 C 234.000 338.180,234.341 338.000,234.757 338.000 C 235.174 338.000,235.619 337.728,235.746 337.396 C 235.873 337.064,236.118 336.827,236.289 336.868 C 236.768 336.985,239.600 335.494,239.600 335.126 C 239.600 334.947,239.870 334.800,240.200 334.800 C 240.530 334.800,240.800 334.620,240.800 334.400 C 240.800 334.180,241.160 334.000,241.600 334.000 C 242.040 334.000,242.400 333.820,242.400 333.600 C 242.400 333.380,242.670 333.200,243.000 333.200 C 243.330 333.200,243.600 333.054,243.600 332.875 C 243.600 332.696,244.230 332.302,245.000 332.000 C 245.770 331.698,246.400 331.304,246.400 331.125 C 246.400 330.946,246.636 330.800,246.925 330.800 C 247.213 330.800,247.836 330.440,248.308 330.000 C 248.780 329.560,249.444 329.200,249.783 329.200 C 250.122 329.200,250.400 329.020,250.400 328.800 C 250.400 328.580,250.625 328.400,250.900 328.400 C 251.175 328.399,251.917 327.954,252.549 327.411 C 253.181 326.867,254.036 326.316,254.449 326.184 C 254.862 326.053,255.200 325.778,255.200 325.573 C 255.200 325.368,255.392 325.200,255.627 325.200 C 255.861 325.200,256.643 324.750,257.364 324.200 C 258.086 323.650,258.884 323.200,259.138 323.200 C 259.392 323.200,259.600 323.049,259.600 322.864 C 259.600 322.680,260.087 322.306,260.683 322.035 C 261.278 321.764,262.008 321.195,262.305 320.771 C 262.602 320.347,263.078 320.000,263.363 320.000 C 263.648 320.000,264.407 319.505,265.049 318.900 C 265.692 318.295,267.081 317.170,268.137 316.400 C 269.192 315.630,270.478 314.634,270.993 314.187 C 271.508 313.740,272.519 312.930,273.239 312.387 C 273.960 311.844,275.504 310.453,276.670 309.296 C 277.837 308.138,278.884 307.194,278.997 307.198 C 279.505 307.215,280.800 306.161,280.800 305.731 C 280.800 305.468,281.133 305.148,281.541 305.019 C 282.678 304.658,294.800 292.321,294.800 291.525 C 294.800 291.346,294.957 291.200,295.149 291.200 C 295.771 291.200,299.600 287.243,299.600 286.600 C 299.600 286.256,299.869 285.872,300.198 285.746 C 300.526 285.619,300.693 285.351,300.568 285.148 C 300.443 284.946,300.489 284.826,300.670 284.883 C 301.141 285.030,302.800 283.515,302.800 282.938 C 302.800 282.672,303.169 282.337,303.621 282.193 C 304.319 281.972,304.364 281.836,303.921 281.290 C 303.480 280.745,303.492 280.701,304.000 281.000 C 304.479 281.283,304.511 281.238,304.155 280.777 C 303.558 280.004,303.610 278.933,304.244 278.933 C 304.526 278.933,304.721 279.118,304.678 279.343 C 304.635 279.568,304.915 279.821,305.300 279.906 C 305.685 279.990,306.000 279.865,306.000 279.629 C 306.000 279.393,305.820 279.200,305.600 279.200 C 305.380 279.200,305.200 278.927,305.200 278.593 C 305.200 278.058,302.800 277.989,284.985 278.007 C 273.867 278.019,264.597 277.922,264.385 277.791 C 264.173 277.660,264.000 277.688,264.000 277.853 C 264.000 278.018,263.717 277.804,263.370 277.376 C 263.024 276.949,262.843 276.806,262.968 277.058 M305.600 278.025 C 305.600 278.231,305.960 278.400,306.400 278.400 C 306.840 278.400,307.200 278.258,307.200 278.085 C 307.200 277.912,306.840 277.743,306.400 277.710 C 305.960 277.677,305.600 277.819,305.600 278.025 " stroke="none" fill="#06aaef" fill-rule="evenodd"></path><path id="path1" d="M81.200 99.915 C 81.200 100.414,82.560 101.600,83.131 101.600 C 83.964 101.600,83.630 100.990,82.400 100.264 C 81.740 99.874,81.200 99.717,81.200 99.915 M322.400 100.527 C 322.400 100.843,322.656 101.314,322.969 101.574 C 323.435 101.961,323.498 101.897,323.320 101.217 C 323.059 100.216,322.400 99.723,322.400 100.527 M16.006 102.724 C 16.002 103.759,16.158 104.350,16.395 104.203 C 16.622 104.063,16.689 104.223,16.553 104.579 C 16.422 104.921,16.514 105.222,16.757 105.250 C 17.001 105.278,17.410 105.322,17.667 105.350 C 18.537 105.443,18.493 106.451,17.608 106.682 C 16.948 106.855,16.864 106.994,17.266 107.249 C 17.666 107.503,17.674 107.589,17.300 107.594 C 16.720 107.601,16.628 108.862,17.167 109.420 C 17.524 109.790,17.854 111.144,18.284 114.000 C 18.400 114.770,18.648 115.592,18.835 115.827 C 19.023 116.061,19.219 116.814,19.271 117.499 C 19.323 118.184,19.509 118.656,19.683 118.549 C 19.857 118.441,20.000 118.914,20.000 119.600 C 20.000 120.330,20.166 120.745,20.400 120.600 C 20.621 120.463,20.800 120.753,20.800 121.248 C 20.800 122.401,21.665 124.800,22.080 124.800 C 22.256 124.800,22.400 125.250,22.400 125.800 C 22.400 126.350,22.580 126.800,22.800 126.800 C 23.020 126.800,23.200 127.160,23.200 127.600 C 23.200 128.040,23.380 128.400,23.600 128.400 C 23.820 128.400,24.000 128.760,24.000 129.200 C 24.000 129.640,24.180 130.000,24.400 130.000 C 24.620 130.000,24.800 130.245,24.800 130.544 C 24.800 131.337,27.270 136.000,27.690 136.000 C 27.887 136.000,27.936 136.180,27.800 136.400 C 27.664 136.620,27.743 136.800,27.976 136.800 C 28.209 136.800,28.400 136.993,28.400 137.228 C 28.400 137.678,30.594 141.025,31.481 141.929 C 31.766 142.219,32.000 142.579,32.000 142.729 C 32.000 142.878,32.718 143.786,33.595 144.746 C 34.473 145.706,35.075 146.678,34.934 146.907 C 34.788 147.142,34.869 147.205,35.118 147.051 C 35.361 146.900,35.769 147.169,36.025 147.647 C 36.809 149.112,44.787 156.658,46.505 157.560 C 47.092 157.868,47.478 158.273,47.363 158.460 C 47.247 158.647,47.433 158.800,47.776 158.800 C 48.119 158.800,48.400 158.980,48.400 159.200 C 48.400 159.420,48.689 159.600,49.043 159.600 C 49.474 159.600,49.603 159.816,49.434 160.257 C 49.223 160.806,49.282 160.830,49.791 160.408 C 50.165 160.097,50.400 160.065,50.400 160.324 C 50.400 160.904,48.759 161.379,48.450 160.889 C 48.313 160.671,47.300 160.528,46.200 160.572 C 45.100 160.615,43.570 160.483,42.800 160.276 C 42.030 160.070,40.860 159.851,40.200 159.788 C 37.713 159.553,34.986 159.080,34.600 158.817 C 34.380 158.668,33.660 158.511,33.000 158.469 C 32.340 158.427,31.740 158.215,31.667 157.997 C 31.593 157.778,31.019 157.600,30.390 157.600 C 29.762 157.600,29.136 157.420,29.000 157.200 C 28.864 156.980,28.223 156.800,27.576 156.800 C 26.929 156.800,26.400 156.620,26.400 156.400 C 26.400 156.180,25.950 156.000,25.400 156.000 C 24.850 156.000,24.400 155.820,24.400 155.600 C 24.400 155.380,23.950 155.200,23.400 155.200 C 22.850 155.200,22.400 155.020,22.400 154.800 C 22.400 154.580,21.950 154.400,21.400 154.400 C 20.850 154.400,20.400 154.220,20.400 154.000 C 20.400 153.780,20.040 153.600,19.600 153.600 C 19.160 153.600,18.799 153.465,18.797 153.300 C 18.786 152.273,15.738 151.736,15.430 152.707 C 15.002 154.053,15.281 162.400,15.753 162.406 C 16.029 162.410,16.004 162.537,15.686 162.738 C 15.044 163.145,15.482 164.400,16.266 164.400 C 16.586 164.400,16.736 164.580,16.600 164.800 C 16.464 165.020,16.603 165.200,16.910 165.200 C 17.811 165.200,17.546 166.396,16.633 166.446 C 15.951 166.484,15.928 166.526,16.505 166.677 C 16.893 166.778,17.115 167.014,16.998 167.203 C 16.882 167.391,16.974 167.661,17.203 167.802 C 17.432 167.944,17.594 167.911,17.563 167.730 C 17.329 166.385,16.850 166.400,61.100 166.406 C 85.025 166.409,104.369 166.559,104.086 166.738 C 103.803 166.918,103.688 167.364,103.830 167.733 C 103.996 168.168,103.756 168.670,103.143 169.167 C 102.624 169.587,102.353 170.082,102.539 170.266 C 102.941 170.662,105.264 168.026,104.954 167.525 C 104.836 167.335,104.889 167.230,105.070 167.290 C 105.252 167.351,105.400 167.297,105.400 167.171 C 105.400 167.046,105.725 166.618,106.123 166.220 C 106.521 165.822,106.746 165.235,106.623 164.916 C 106.500 164.596,106.400 164.159,106.400 163.944 C 106.400 163.729,106.232 163.656,106.028 163.783 C 105.823 163.909,105.540 163.827,105.400 163.600 C 105.260 163.373,104.977 163.291,104.772 163.417 C 104.568 163.544,104.400 163.435,104.400 163.175 C 104.400 162.825,104.261 162.818,103.863 163.148 C 103.325 163.594,102.800 163.378,102.800 162.710 C 102.800 162.513,103.025 162.467,103.300 162.606 C 103.575 162.745,103.451 162.576,103.024 162.230 C 102.596 161.883,102.089 161.600,101.896 161.600 C 101.702 161.600,100.747 161.051,99.772 160.381 C 98.797 159.710,97.994 159.305,97.987 159.481 C 97.980 159.656,97.710 159.451,97.387 159.024 C 96.996 158.506,96.800 158.431,96.800 158.799 C 96.800 159.115,96.264 158.804,95.553 158.076 C 94.866 157.374,94.123 156.800,93.899 156.800 C 93.676 156.800,93.203 156.484,92.847 156.097 C 92.491 155.711,91.708 155.142,91.107 154.833 C 90.505 154.525,89.610 153.896,89.116 153.436 C 88.623 152.976,88.170 152.645,88.109 152.700 C 87.879 152.910,87.078 152.789,87.291 152.576 C 87.536 152.330,85.744 150.400,85.271 150.400 C 85.110 150.400,84.419 149.905,83.736 149.300 C 83.053 148.695,81.912 147.750,81.201 147.200 C 79.477 145.867,78.400 144.736,78.400 144.258 C 78.400 144.043,78.291 143.976,78.158 144.109 C 78.024 144.242,77.485 143.957,76.960 143.476 C 76.434 142.994,75.462 142.150,74.798 141.600 C 71.904 139.201,66.800 133.638,66.800 132.882 C 66.800 132.544,66.690 132.376,66.556 132.511 C 66.422 132.645,65.567 131.927,64.656 130.914 C 63.745 129.902,62.595 128.660,62.100 128.155 C 61.605 127.650,61.200 127.088,61.200 126.906 C 61.200 126.725,60.840 126.317,60.400 126.000 C 59.459 125.322,59.344 124.400,60.200 124.400 C 60.530 124.400,60.800 124.580,60.800 124.800 C 60.800 125.020,61.100 125.200,61.467 125.200 C 61.833 125.200,62.014 125.319,61.869 125.465 C 61.580 125.753,64.096 127.600,64.779 127.600 C 65.010 127.600,65.200 127.780,65.200 128.000 C 65.200 128.220,65.470 128.400,65.800 128.400 C 66.130 128.400,66.400 128.536,66.400 128.702 C 66.400 128.869,66.906 129.229,67.525 129.503 C 68.144 129.776,69.036 130.360,69.508 130.800 C 69.980 131.240,70.644 131.600,70.983 131.600 C 71.322 131.600,71.600 131.780,71.600 132.000 C 71.600 132.220,71.836 132.400,72.125 132.400 C 72.413 132.400,73.036 132.760,73.508 133.200 C 73.980 133.640,74.644 134.000,74.983 134.000 C 75.322 134.000,75.600 134.153,75.600 134.339 C 75.600 134.526,76.321 135.004,77.202 135.401 C 78.084 135.798,79.004 136.364,79.248 136.657 C 79.491 136.951,79.830 137.105,80.000 137.000 C 80.170 136.895,80.532 137.077,80.804 137.404 C 81.076 137.732,81.524 138.000,81.800 138.000 C 82.076 138.000,82.530 138.274,82.808 138.610 C 83.086 138.945,83.409 139.125,83.525 139.009 C 83.640 138.893,84.065 139.097,84.468 139.461 C 84.870 139.826,85.200 139.993,85.200 139.833 C 85.200 139.673,85.671 139.913,86.247 140.366 C 86.823 140.818,87.453 141.091,87.647 140.971 C 87.841 140.851,88.000 140.943,88.000 141.176 C 88.000 141.409,88.360 141.600,88.800 141.600 C 89.240 141.600,89.600 141.780,89.600 142.000 C 89.600 142.220,89.960 142.400,90.400 142.400 C 90.840 142.400,91.200 142.580,91.200 142.800 C 91.200 143.020,91.560 143.200,92.000 143.200 C 92.440 143.200,92.800 143.380,92.800 143.600 C 92.800 143.820,93.160 144.000,93.600 144.000 C 94.040 144.000,94.400 144.180,94.400 144.400 C 94.400 144.620,94.760 144.800,95.200 144.800 C 95.640 144.800,96.000 144.941,96.000 145.113 C 96.000 145.285,96.810 145.665,97.800 145.957 C 98.790 146.249,99.600 146.648,99.600 146.844 C 99.600 147.040,99.960 147.200,100.400 147.200 C 100.840 147.200,101.200 147.380,101.200 147.600 C 101.200 147.820,101.472 148.000,101.805 148.000 C 102.138 148.000,102.768 148.180,103.205 148.400 C 103.642 148.620,104.358 148.980,104.795 149.200 C 105.232 149.420,105.862 149.600,106.195 149.600 C 106.528 149.600,106.800 149.780,106.800 150.000 C 106.800 150.220,107.149 150.400,107.576 150.400 C 108.003 150.400,108.464 150.580,108.600 150.800 C 108.736 151.020,109.197 151.200,109.624 151.200 C 110.051 151.200,110.400 151.380,110.400 151.600 C 110.400 151.820,110.940 152.000,111.600 152.000 C 112.260 152.000,112.800 152.191,112.800 152.425 C 112.800 152.659,113.116 152.797,113.501 152.731 C 113.887 152.666,114.832 152.989,115.601 153.449 C 116.371 153.908,117.855 154.514,118.900 154.794 C 119.945 155.075,120.800 155.445,120.800 155.617 C 120.800 155.789,121.115 155.883,121.499 155.827 C 121.884 155.770,122.792 155.972,123.517 156.275 C 124.242 156.578,124.988 156.731,125.176 156.615 C 125.363 156.499,125.610 156.650,125.726 156.951 C 125.846 157.264,126.376 157.449,126.966 157.384 C 127.533 157.322,128.098 157.435,128.222 157.635 C 128.346 157.836,128.987 158.000,129.647 158.000 C 130.307 158.000,130.760 158.142,130.652 158.315 C 130.545 158.488,130.940 158.670,131.529 158.719 C 132.118 158.767,132.660 158.985,132.733 159.203 C 132.807 159.422,133.482 159.600,134.233 159.600 C 134.985 159.600,135.600 159.792,135.600 160.027 C 135.600 160.262,135.924 160.351,136.321 160.225 C 136.718 160.099,137.393 160.261,137.821 160.585 C 138.249 160.909,139.174 161.180,139.876 161.187 C 140.578 161.194,141.264 161.380,141.400 161.600 C 141.536 161.820,142.267 162.000,143.024 162.000 C 143.781 162.000,144.400 162.180,144.400 162.400 C 144.400 162.620,144.838 162.800,145.374 162.800 C 145.910 162.800,146.820 162.979,147.397 163.199 C 148.094 163.464,148.363 163.464,148.199 163.199 C 148.064 162.979,148.244 162.800,148.600 162.800 C 148.988 162.800,149.133 162.985,148.961 163.263 C 148.766 163.579,148.943 163.656,149.518 163.505 C 149.982 163.384,150.447 163.491,150.550 163.742 C 150.678 164.053,150.876 164.007,151.163 163.600 C 151.527 163.085,151.589 163.103,151.594 163.724 C 151.597 164.122,151.782 164.335,152.005 164.197 C 152.228 164.059,152.965 164.223,153.643 164.562 C 154.532 165.005,154.823 165.036,154.684 164.674 C 154.570 164.379,154.806 164.171,155.255 164.171 C 155.698 164.171,155.940 164.380,155.830 164.665 C 155.715 164.966,155.866 165.073,156.218 164.938 C 156.536 164.816,156.679 164.527,156.536 164.296 C 156.383 164.049,156.469 163.995,156.745 164.166 C 157.002 164.325,157.121 164.604,157.009 164.786 C 156.700 165.286,157.999 165.741,159.903 165.800 C 161.418 165.846,161.580 165.766,161.361 165.076 C 161.198 164.565,161.265 164.393,161.557 164.574 C 161.801 164.724,162.000 165.177,162.000 165.581 C 162.000 165.984,162.270 166.418,162.600 166.545 C 162.930 166.671,163.200 166.616,163.200 166.421 C 163.200 166.226,162.975 165.976,162.700 165.865 C 162.308 165.707,162.311 165.656,162.713 165.632 C 162.994 165.614,163.329 165.870,163.455 166.200 C 163.582 166.530,163.841 166.800,164.030 166.800 C 164.220 166.800,164.278 166.548,164.160 166.240 C 164.042 165.933,164.138 165.562,164.373 165.417 C 164.771 165.171,164.966 165.663,164.842 166.600 C 164.812 166.820,165.061 166.651,165.394 166.224 C 165.727 165.796,166.003 165.616,166.006 165.824 C 166.009 166.031,166.158 165.971,166.336 165.691 C 166.582 165.303,166.839 165.380,167.414 166.015 C 168.059 166.728,168.083 166.902,167.584 167.218 C 167.097 167.527,167.115 167.589,167.697 167.594 C 168.080 167.597,168.618 167.240,168.893 166.800 C 169.168 166.360,169.541 166.000,169.723 166.000 C 169.905 166.000,169.940 166.360,169.800 166.800 C 169.654 167.259,169.728 167.600,169.973 167.600 C 170.208 167.600,170.379 167.465,170.353 167.300 C 170.234 166.547,170.444 166.133,170.945 166.133 C 171.293 166.133,171.420 166.434,171.295 166.967 C 171.113 167.745,171.136 167.754,171.652 167.091 C 172.172 166.422,174.033 166.382,204.277 166.395 C 236.170 166.409,236.351 166.405,236.290 165.605 C 236.257 165.162,236.088 164.800,235.915 164.800 C 235.742 164.800,235.600 164.459,235.600 164.043 C 235.600 163.626,235.333 163.183,235.007 163.058 C 234.670 162.929,234.515 162.565,234.649 162.217 C 234.778 161.880,235.090 161.720,235.342 161.861 C 235.619 162.016,235.602 161.904,235.300 161.579 C 235.025 161.282,234.800 160.716,234.800 160.320 C 234.800 159.924,234.618 159.600,234.397 159.600 C 234.157 159.600,234.197 159.255,234.497 158.748 C 234.899 158.067,234.899 157.859,234.500 157.714 C 234.216 157.612,234.000 156.857,234.000 155.967 C 234.000 155.105,233.839 154.400,233.642 154.400 C 233.294 154.400,233.003 152.996,232.546 149.100 C 232.423 148.055,232.160 147.301,231.961 147.424 C 231.763 147.547,231.600 146.953,231.600 146.104 C 231.600 145.255,231.429 144.389,231.219 144.179 C 231.010 143.970,230.793 143.124,230.737 142.299 C 230.682 141.475,230.493 140.800,230.318 140.800 C 230.143 140.800,230.000 140.091,230.000 139.224 C 230.000 138.357,229.820 137.536,229.600 137.400 C 229.380 137.264,229.200 136.544,229.200 135.800 C 229.200 135.056,229.020 134.336,228.800 134.200 C 228.580 134.064,228.400 133.254,228.400 132.400 C 228.400 131.546,228.220 130.736,228.000 130.600 C 227.780 130.464,227.600 129.812,227.600 129.150 C 227.600 128.489,227.427 127.625,227.216 127.231 C 227.006 126.837,226.802 125.093,226.764 123.357 C 226.726 121.621,226.520 120.088,226.306 119.951 C 226.059 119.793,226.078 119.401,226.359 118.877 C 226.938 117.795,226.974 116.311,226.400 117.200 C 226.066 117.717,226.011 117.707,226.006 117.124 C 226.003 116.752,226.180 116.336,226.400 116.200 C 226.620 116.064,226.800 114.883,226.800 113.576 C 226.800 112.269,226.948 111.200,227.129 111.200 C 227.310 111.200,227.486 110.167,227.519 108.903 C 227.552 107.640,227.764 106.545,227.990 106.470 C 228.215 106.395,228.400 106.078,228.400 105.767 C 228.400 105.455,228.542 105.200,228.715 105.200 C 228.888 105.200,229.057 104.844,229.089 104.408 C 229.150 103.602,228.438 103.476,227.906 104.200 C 227.741 104.425,227.610 104.290,227.606 103.891 C 227.600 103.222,226.717 103.188,212.238 103.291 C 203.789 103.351,196.948 103.284,197.036 103.142 C 197.235 102.820,195.963 102.304,195.676 102.591 C 195.561 102.706,195.677 102.800,195.933 102.800 C 196.190 102.800,196.400 103.081,196.400 103.424 C 196.400 103.767,196.220 103.936,196.000 103.800 C 195.780 103.664,195.600 103.754,195.600 104.000 C 195.600 104.246,195.420 104.336,195.200 104.200 C 194.980 104.064,194.800 104.143,194.800 104.376 C 194.800 104.609,195.002 104.800,195.249 104.800 C 195.563 104.800,195.573 104.951,195.283 105.300 C 195.055 105.575,194.903 106.724,194.944 107.853 C 194.993 109.165,194.866 109.847,194.595 109.743 C 194.053 109.535,193.857 126.817,194.379 128.814 C 194.740 130.197,195.078 132.263,195.475 135.526 L 195.685 137.251 191.342 137.032 C 182.312 136.577,179.600 136.332,179.600 135.972 C 179.600 135.767,178.340 135.600,176.800 135.600 C 175.200 135.600,174.000 135.429,174.000 135.200 C 174.000 134.980,173.021 134.800,171.824 134.800 C 170.627 134.800,169.549 134.642,169.430 134.449 C 169.311 134.255,168.175 133.986,166.906 133.850 C 162.723 133.401,161.198 133.120,160.974 132.758 C 160.852 132.561,160.133 132.400,159.376 132.400 C 158.619 132.400,158.000 132.257,158.000 132.082 C 158.000 131.907,157.340 131.719,156.534 131.665 C 155.728 131.611,154.899 131.461,154.692 131.333 C 154.485 131.205,153.660 131.016,152.858 130.913 C 152.056 130.810,151.229 130.562,151.020 130.363 C 150.811 130.163,150.057 130.000,149.344 130.000 C 148.631 130.000,147.936 129.820,147.800 129.600 C 147.664 129.380,147.013 129.200,146.353 129.200 C 145.506 129.200,145.237 129.053,145.441 128.700 C 145.599 128.425,145.594 128.321,145.429 128.468 C 145.265 128.616,144.214 128.464,143.094 128.131 C 141.973 127.799,140.729 127.453,140.328 127.363 C 138.500 126.953,138.092 126.837,136.400 126.243 C 135.410 125.896,134.285 125.609,133.900 125.606 C 133.515 125.603,133.200 125.420,133.200 125.200 C 133.200 124.980,132.559 124.800,131.776 124.800 C 130.993 124.800,130.441 124.657,130.549 124.483 C 130.656 124.309,130.355 124.137,129.878 124.101 C 129.402 124.065,128.949 123.848,128.873 123.618 C 128.796 123.388,128.298 123.200,127.767 123.200 C 127.235 123.200,126.800 123.020,126.800 122.800 C 126.800 122.580,126.521 122.400,126.181 122.400 C 125.840 122.400,124.816 122.040,123.906 121.600 C 122.995 121.160,121.823 120.800,121.301 120.800 C 120.780 120.800,120.445 120.650,120.558 120.467 C 120.671 120.284,119.880 119.894,118.800 119.600 C 117.720 119.306,116.929 118.916,117.042 118.733 C 117.155 118.550,116.787 118.400,116.224 118.400 C 115.661 118.400,115.200 118.220,115.200 118.000 C 115.200 117.780,114.840 117.600,114.400 117.600 C 113.960 117.600,113.600 117.420,113.600 117.200 C 113.600 116.980,113.251 116.800,112.824 116.800 C 112.397 116.800,111.936 116.620,111.800 116.400 C 111.664 116.180,111.113 116.000,110.576 116.000 C 110.039 116.000,109.600 115.832,109.600 115.627 C 109.600 115.277,107.983 114.573,107.645 114.775 C 107.559 114.827,107.379 114.698,107.245 114.490 C 106.835 113.857,104.402 112.751,103.985 113.009 C 103.770 113.142,103.486 112.969,103.354 112.625 C 103.222 112.281,102.950 112.000,102.749 112.000 C 102.548 112.000,101.652 111.538,100.756 110.972 C 99.861 110.407,98.785 109.919,98.364 109.887 C 97.944 109.856,97.600 109.688,97.600 109.515 C 97.600 109.342,97.330 109.200,97.000 109.200 C 96.670 109.200,96.400 108.998,96.400 108.751 C 96.400 108.444,96.208 108.462,95.791 108.808 C 95.281 109.231,95.223 109.205,95.435 108.652 C 95.619 108.174,95.522 108.055,95.085 108.223 C 94.753 108.350,94.360 108.259,94.213 108.021 C 94.065 107.782,93.804 107.674,93.633 107.780 C 93.461 107.886,93.083 107.529,92.793 106.986 C 92.502 106.444,91.957 106.000,91.581 106.000 C 91.205 106.000,90.676 105.732,90.404 105.404 C 89.844 104.731,89.045 105.002,89.452 105.728 C 89.655 106.089,89.598 106.090,89.210 105.731 C 88.931 105.473,88.409 105.367,88.051 105.495 C 87.693 105.623,87.533 105.580,87.697 105.401 C 87.860 105.221,87.770 104.787,87.497 104.437 C 87.057 103.873,87.081 103.863,87.700 104.349 C 88.085 104.651,88.400 104.720,88.400 104.502 C 88.400 104.284,87.654 103.613,86.742 103.009 C 85.273 102.037,85.107 102.000,85.286 102.685 C 85.443 103.286,85.300 103.437,84.644 103.362 C 84.180 103.310,68.616 103.252,50.057 103.233 C 22.020 103.206,16.349 103.109,16.520 102.664 C 16.633 102.369,16.565 101.874,16.369 101.564 C 16.128 101.182,16.010 101.557,16.006 102.724 M324.042 103.119 C 323.846 103.185,323.779 103.600,323.895 104.042 C 324.017 104.509,324.331 104.758,324.645 104.638 C 325.012 104.497,325.155 104.715,325.093 105.315 C 325.037 105.846,325.200 106.160,325.500 106.100 C 325.775 106.045,326.000 106.180,326.000 106.400 C 326.000 106.620,325.809 106.800,325.576 106.800 C 325.343 106.800,325.255 106.965,325.379 107.166 C 325.503 107.367,325.379 107.623,325.102 107.735 C 324.716 107.892,324.730 108.030,325.167 108.335 C 325.521 108.581,325.710 109.345,325.670 110.365 C 325.635 111.264,325.748 112.000,325.922 112.000 C 326.096 112.000,326.224 112.855,326.208 113.900 C 326.191 114.945,326.327 116.121,326.511 116.514 C 326.694 116.907,326.932 119.067,327.041 121.314 C 327.150 123.561,327.322 126.030,327.424 126.800 C 327.663 128.610,327.662 128.774,327.416 130.200 C 327.302 130.860,327.125 134.190,327.023 137.600 C 326.921 141.010,326.726 144.880,326.590 146.200 C 326.455 147.520,326.291 149.432,326.228 150.448 C 326.164 151.464,325.992 152.490,325.845 152.727 C 325.699 152.964,325.542 154.337,325.497 155.779 C 325.452 157.220,325.313 158.400,325.189 158.400 C 325.065 158.400,324.922 159.165,324.873 160.100 C 324.769 162.068,324.547 163.800,324.400 163.800 C 324.344 163.800,324.256 164.190,324.205 164.666 C 324.138 165.295,324.278 165.468,324.721 165.298 C 325.168 165.127,325.275 165.268,325.128 165.833 C 324.932 166.581,325.310 166.597,340.063 166.491 C 350.165 166.418,355.200 166.244,355.200 165.967 C 355.200 165.739,355.380 165.664,355.600 165.800 C 355.820 165.936,356.000 165.837,356.000 165.581 C 356.000 165.324,356.270 165.218,356.600 165.345 C 357.008 165.501,357.200 165.323,357.200 164.787 C 357.200 164.354,356.998 164.000,356.751 164.000 C 356.459 164.000,356.494 163.768,356.851 163.339 C 357.153 162.975,357.403 162.390,357.406 162.039 C 357.409 161.687,357.509 161.220,357.628 161.000 C 357.747 160.780,357.897 159.430,357.961 158.000 C 358.026 156.570,358.216 155.220,358.383 155.000 C 358.550 154.780,358.719 152.983,358.757 151.006 C 358.796 149.029,359.002 147.238,359.214 147.026 C 359.448 146.792,359.600 140.908,359.600 132.096 C 359.600 122.503,359.736 117.637,360.000 117.800 C 360.220 117.936,360.403 117.722,360.406 117.324 C 360.411 116.710,360.471 116.691,360.800 117.200 C 361.013 117.530,361.191 117.603,361.194 117.361 C 361.205 116.548,362.687 115.200,363.571 115.200 C 364.053 115.200,364.336 115.020,364.200 114.800 C 364.064 114.580,364.167 114.400,364.429 114.400 C 364.692 114.400,365.197 114.072,365.553 113.671 C 365.909 113.271,366.874 112.490,367.698 111.936 C 368.522 111.382,369.077 110.810,368.931 110.665 C 368.786 110.519,368.852 110.400,369.079 110.400 C 369.305 110.400,369.986 109.905,370.591 109.300 C 371.196 108.695,371.850 108.178,372.045 108.150 C 372.925 108.026,372.965 107.965,372.400 107.600 C 371.920 107.290,371.990 107.211,372.750 107.206 C 373.595 107.201,373.673 107.065,373.456 105.980 C 373.305 105.224,373.362 104.853,373.606 105.004 C 373.823 105.138,374.000 105.514,374.000 105.839 C 374.000 106.329,374.106 106.342,374.614 105.916 C 378.033 103.043,379.342 103.195,350.300 103.092 C 336.055 103.041,324.239 103.054,324.042 103.119 M375.827 103.900 C 375.766 104.317,375.351 104.620,374.800 104.648 L 373.876 104.697 374.838 103.957 C 376.016 103.052,375.950 103.055,375.827 103.900 M174.000 167.611 C 175.058 168.427,175.604 168.595,175.594 168.100 C 175.580 167.435,174.947 166.958,174.000 166.900 L 173.000 166.839 174.000 167.611 M355.359 167.267 C 355.245 167.450,355.208 167.614,355.276 167.631 C 356.359 167.899,356.800 167.841,356.800 167.431 C 356.800 166.875,355.680 166.747,355.359 167.267 M180.506 168.459 C 180.443 169.284,180.472 169.301,181.367 168.957 C 182.210 168.634,182.169 168.138,181.281 167.905 C 180.790 167.777,180.544 167.953,180.506 168.459 M186.164 169.290 C 186.226 169.594,186.927 169.818,187.900 169.844 C 189.122 169.876,189.479 169.751,189.323 169.344 C 189.082 168.714,188.400 168.608,188.400 169.200 C 188.400 169.727,186.525 169.718,186.263 169.190 C 186.151 168.965,186.107 169.010,186.164 169.290 M198.400 170.270 C 198.400 170.782,198.516 170.844,198.851 170.509 C 199.140 170.220,199.627 170.182,200.210 170.404 C 201.057 170.726,201.601 170.581,201.599 170.033 C 201.599 169.905,200.879 169.751,199.999 169.690 C 198.710 169.602,198.400 169.714,198.400 170.270 M202.884 170.215 C 202.184 171.009,203.062 170.995,203.857 170.200 C 204.316 169.741,204.333 169.604,203.929 169.615 C 203.638 169.624,203.168 169.894,202.884 170.215 M220.084 170.615 C 219.801 170.937,219.621 171.215,219.684 171.234 C 220.676 171.529,222.267 171.350,222.267 170.944 C 222.267 170.664,222.129 170.520,221.961 170.624 C 221.793 170.728,221.542 170.630,221.404 170.407 C 221.065 169.859,220.701 169.916,220.084 170.615 " stroke="none" fill="#1edbb6" fill-rule="evenodd"></path><path id="path2" d="M358.267 155.067 C 358.120 155.213,358.011 155.708,358.025 156.167 C 358.049 156.933,358.082 156.923,358.434 156.042 C 358.826 155.063,358.744 154.589,358.267 155.067 M25.214 193.484 C 25.222 193.658,25.481 194.250,25.790 194.800 C 26.293 195.694,26.346 195.712,26.296 194.970 C 26.245 194.214,25.181 192.753,25.214 193.484 M34.472 206.597 C 34.949 207.145,35.443 207.481,35.570 207.342 C 35.696 207.204,35.575 207.010,35.300 206.912 C 35.025 206.814,34.800 206.478,34.800 206.167 C 34.800 205.855,34.531 205.600,34.203 205.600 C 33.745 205.600,33.808 205.833,34.472 206.597 M119.596 211.004 C 119.194 211.489,119.219 211.600,119.727 211.600 C 120.474 211.600,120.962 210.948,120.452 210.632 C 120.253 210.509,119.868 210.677,119.596 211.004 M130.507 212.287 C 131.116 212.379,131.528 212.592,131.424 212.761 C 131.320 212.929,131.480 213.067,131.779 213.067 C 132.079 213.067,132.232 212.827,132.119 212.533 C 132.001 212.225,131.383 212.025,130.657 212.060 C 129.439 212.118,129.434 212.125,130.507 212.287 M132.800 212.800 C 132.800 213.020,133.070 213.200,133.400 213.200 C 133.730 213.200,134.000 213.020,134.000 212.800 C 134.000 212.580,133.730 212.400,133.400 212.400 C 133.070 212.400,132.800 212.580,132.800 212.800 M41.200 213.029 C 41.200 213.381,42.078 214.175,43.400 215.020 C 44.592 215.781,44.596 215.781,44.017 214.993 C 42.944 213.532,41.200 212.316,41.200 213.029 M143.083 213.596 C 143.197 214.033,143.450 214.292,143.645 214.172 C 144.211 213.823,144.056 212.800,143.437 212.800 C 143.073 212.800,142.948 213.080,143.083 213.596 M341.570 216.300 C 341.554 216.465,341.466 216.999,341.375 217.486 C 341.259 218.104,341.371 218.309,341.745 218.166 C 342.071 218.041,342.208 217.575,342.094 216.980 C 341.914 216.039,341.632 215.673,341.570 216.300 M46.250 217.120 C 45.908 217.672,45.907 217.671,47.090 217.796 C 47.579 217.848,47.881 217.732,47.762 217.538 C 47.642 217.345,47.393 217.281,47.207 217.396 C 47.021 217.511,46.796 217.388,46.707 217.122 C 46.582 216.747,46.480 216.747,46.250 217.120 M48.457 218.356 C 48.079 218.596,48.049 218.783,48.357 218.974 C 48.865 219.287,49.600 218.934,49.600 218.376 C 49.600 217.911,49.171 217.904,48.457 218.356 M141.093 218.870 C 140.412 219.587,138.805 219.609,95.814 219.507 C 53.658 219.406,51.231 219.438,51.058 220.100 C 50.844 220.917,51.435 221.444,51.734 220.702 C 51.846 220.426,51.951 220.605,51.968 221.100 C 51.986 221.595,52.135 221.979,52.300 221.953 C 53.121 221.823,53.600 222.058,53.600 222.590 C 53.600 223.047,53.816 223.098,54.556 222.817 C 55.405 222.494,55.490 222.551,55.321 223.327 C 55.167 224.033,55.213 224.085,55.559 223.600 C 55.926 223.087,55.989 223.108,55.994 223.743 C 55.998 224.238,56.200 224.409,56.600 224.255 C 56.930 224.129,57.200 224.210,57.200 224.436 C 57.200 224.662,57.380 224.736,57.600 224.600 C 57.820 224.464,58.000 224.522,58.000 224.730 C 58.000 225.091,59.476 225.733,60.100 225.643 C 60.265 225.619,60.400 225.870,60.400 226.200 C 60.400 226.714,61.397 227.022,62.500 226.847 C 62.665 226.821,62.800 226.991,62.800 227.224 C 62.800 227.457,62.981 227.535,63.203 227.398 C 63.424 227.261,63.699 227.393,63.813 227.690 C 63.927 227.988,64.405 228.260,64.874 228.296 C 65.344 228.331,65.851 228.558,66.001 228.801 C 66.151 229.044,66.437 229.211,66.637 229.174 C 67.554 229.001,68.424 229.238,68.200 229.600 C 68.053 229.838,68.529 230.000,69.376 230.000 C 70.159 230.000,70.800 230.180,70.800 230.400 C 70.800 230.620,71.340 230.800,72.000 230.800 C 72.660 230.800,73.200 230.941,73.200 231.113 C 73.200 231.285,73.677 231.465,74.260 231.513 C 74.842 231.561,75.526 231.773,75.779 231.982 C 76.032 232.192,76.905 232.409,77.719 232.464 C 80.009 232.618,79.467 233.200,77.033 233.200 C 75.842 233.200,74.807 233.378,74.733 233.595 C 74.660 233.812,73.610 234.037,72.400 234.095 C 71.190 234.153,70.099 234.335,69.976 234.500 C 69.853 234.665,68.143 234.817,66.176 234.837 C 64.209 234.857,62.394 235.044,62.142 235.251 C 61.607 235.691,60.726 235.571,60.306 235.000 C 60.124 234.752,60.010 234.790,60.006 235.100 C 60.002 235.411,59.433 235.598,58.500 235.594 C 57.384 235.589,57.154 235.488,57.600 235.200 C 58.485 234.628,57.731 234.716,56.742 235.300 C 56.065 235.700,55.859 235.700,55.714 235.300 C 55.587 234.948,54.417 234.800,51.767 234.800 C 49.695 234.800,48.000 234.636,48.000 234.436 C 48.000 234.236,46.785 234.061,45.300 234.047 L 42.600 234.022 42.635 235.192 C 42.654 235.835,42.856 236.595,43.084 236.881 C 43.311 237.166,43.446 237.716,43.384 238.102 C 43.321 238.488,43.434 238.702,43.635 238.578 C 43.836 238.454,44.013 238.498,44.030 238.676 C 44.144 239.924,44.506 241.102,45.011 241.872 C 45.335 242.367,45.600 243.146,45.600 243.603 C 45.600 244.060,45.960 244.820,46.400 245.292 C 46.840 245.764,47.200 246.567,47.200 247.075 C 47.200 247.584,47.380 248.000,47.600 248.000 C 47.820 248.000,48.000 248.281,48.000 248.624 C 48.000 248.967,48.153 249.153,48.340 249.037 C 48.528 248.921,48.916 249.541,49.204 250.413 C 49.492 251.286,49.879 252.000,50.064 252.000 C 50.249 252.000,50.400 252.270,50.400 252.600 C 50.400 252.930,50.580 253.200,50.800 253.200 C 51.020 253.200,51.200 253.404,51.200 253.653 C 51.200 253.902,51.572 254.429,52.026 254.823 C 52.481 255.217,52.841 255.643,52.826 255.770 C 52.740 256.522,52.832 256.901,53.048 256.686 C 53.408 256.325,54.400 257.432,54.400 258.195 C 54.400 258.554,54.580 258.736,54.800 258.600 C 55.020 258.464,55.200 258.561,55.200 258.816 C 55.200 259.071,55.740 259.783,56.400 260.400 C 57.060 261.017,57.600 261.809,57.600 262.160 C 57.600 262.512,57.900 262.800,58.267 262.800 C 58.633 262.800,58.831 262.903,58.705 263.028 C 58.360 263.373,62.495 267.848,65.935 270.854 C 66.851 271.654,67.600 272.492,67.600 272.717 C 67.600 272.941,67.963 273.030,68.406 272.914 C 69.052 272.745,69.157 272.846,68.937 273.421 C 68.727 273.967,68.813 274.081,69.294 273.896 C 69.705 273.738,70.290 274.090,70.959 274.898 C 71.526 275.583,72.091 276.043,72.213 275.921 C 72.335 275.798,73.235 276.498,74.213 277.476 C 75.190 278.453,76.172 279.141,76.395 279.003 C 76.618 278.865,76.800 279.033,76.800 279.376 C 76.800 279.719,77.055 280.000,77.367 280.000 C 77.678 280.000,78.005 280.216,78.093 280.480 C 78.218 280.854,78.319 280.854,78.550 280.480 C 78.714 280.216,78.662 280.000,78.436 280.000 C 78.210 280.000,78.136 279.712,78.271 279.360 C 78.406 279.007,78.265 278.560,77.958 278.366 C 77.633 278.160,95.399 278.010,120.524 278.006 C 149.172 278.002,163.564 278.134,163.400 278.400 C 163.264 278.620,163.330 278.800,163.547 278.800 C 163.764 278.800,164.019 278.575,164.113 278.300 C 164.208 278.025,164.238 278.115,164.180 278.500 C 164.122 278.885,164.226 279.200,164.410 279.200 C 164.814 279.200,165.326 277.733,165.073 277.304 C 164.974 277.137,165.079 276.550,165.306 276.000 C 165.969 274.392,166.049 273.478,165.556 273.173 C 165.257 272.988,165.396 272.792,165.947 272.617 C 166.687 272.382,166.800 272.042,166.800 270.053 C 166.800 268.792,166.990 267.570,167.222 267.338 C 167.454 267.106,167.589 265.855,167.522 264.558 L 167.400 262.200 163.600 262.176 C 161.510 262.163,159.706 262.287,159.591 262.452 C 159.476 262.617,155.741 262.805,151.291 262.870 C 146.841 262.935,143.200 263.133,143.200 263.309 C 143.200 263.486,141.850 263.599,140.200 263.561 C 138.550 263.522,137.200 263.369,137.200 263.220 C 137.200 263.070,134.815 262.921,131.900 262.889 C 128.985 262.856,126.004 262.823,125.276 262.815 C 124.548 262.807,124.044 262.652,124.157 262.470 C 124.269 262.289,124.054 262.141,123.680 262.142 C 120.665 262.146,118.383 261.950,118.536 261.700 C 118.637 261.535,118.082 261.366,117.304 261.325 C 116.526 261.283,115.712 261.072,115.496 260.856 C 115.280 260.640,114.860 260.556,114.564 260.669 C 114.015 260.880,110.603 259.768,109.705 259.086 C 109.433 258.880,108.938 258.815,108.605 258.943 C 108.272 259.070,108.000 258.984,108.000 258.750 C 108.000 258.516,108.360 258.231,108.800 258.116 C 109.240 258.001,109.600 257.727,109.600 257.507 C 109.600 257.287,109.951 257.199,110.381 257.311 C 110.810 257.423,111.215 257.368,111.281 257.188 C 111.346 257.007,111.670 256.801,112.000 256.730 C 112.330 256.658,112.692 256.479,112.804 256.332 C 112.916 256.185,113.276 256.005,113.604 255.932 C 113.932 255.859,114.437 255.482,114.727 255.093 C 115.017 254.705,115.422 254.490,115.627 254.617 C 115.832 254.744,116.000 254.674,116.000 254.463 C 116.000 254.251,116.495 253.895,117.100 253.672 C 117.705 253.448,118.885 252.620,119.722 251.833 C 120.560 251.045,121.515 250.400,121.846 250.400 C 122.177 250.400,122.336 250.220,122.200 250.000 C 122.064 249.780,122.263 249.600,122.643 249.600 C 123.023 249.600,123.222 249.489,123.086 249.352 C 122.731 248.997,123.826 248.000,124.571 248.000 C 124.933 248.000,125.200 247.661,125.200 247.200 C 125.200 246.484,125.616 246.213,126.500 246.353 C 126.665 246.379,126.800 246.119,126.800 245.776 C 126.800 245.433,126.984 245.267,127.210 245.406 C 127.435 245.545,127.570 245.436,127.510 245.162 C 127.449 244.889,127.850 244.428,128.400 244.139 C 128.950 243.849,129.203 243.609,128.963 243.606 C 128.723 243.603,129.578 242.505,130.863 241.167 C 132.148 239.829,133.200 238.468,133.200 238.143 C 133.200 237.819,133.350 237.645,133.533 237.759 C 133.716 237.872,134.462 236.847,135.191 235.482 C 135.920 234.117,136.625 232.910,136.758 232.800 C 136.891 232.690,137.000 232.330,137.000 232.000 C 137.000 231.670,137.248 231.453,137.551 231.517 C 137.927 231.597,138.034 231.375,137.889 230.817 C 137.748 230.280,137.868 230.000,138.237 230.000 C 138.571 230.000,138.800 229.593,138.800 229.000 C 138.800 228.450,139.010 228.000,139.267 228.000 C 139.523 228.000,139.615 227.882,139.470 227.737 C 139.325 227.592,139.430 227.197,139.703 226.860 C 140.107 226.362,140.099 226.307,139.660 226.571 C 139.209 226.843,139.207 226.740,139.646 225.948 C 140.173 224.997,140.257 224.762,140.350 223.976 C 140.378 223.743,140.579 223.664,140.799 223.799 C 141.064 223.963,141.064 223.695,140.800 223.000 C 140.581 222.425,140.563 222.054,140.759 222.175 C 140.956 222.296,141.223 222.117,141.354 221.777 C 141.510 221.370,141.421 221.244,141.095 221.410 C 140.823 221.548,140.994 221.312,141.476 220.886 C 142.161 220.279,142.248 220.000,141.876 219.597 C 141.506 219.197,141.512 219.146,141.900 219.365 C 142.203 219.536,142.400 219.411,142.400 219.047 C 142.400 218.122,141.872 218.051,141.093 218.870 M49.630 219.364 C 49.033 220.083,49.850 220.710,50.515 220.045 C 50.842 219.718,50.826 219.600,50.456 219.600 C 50.179 219.600,50.064 219.420,50.200 219.200 C 50.570 218.602,50.166 218.718,49.630 219.364 M305.317 219.900 C 305.175 220.285,304.877 220.721,304.655 220.870 C 304.396 221.042,304.453 221.401,304.813 221.870 C 305.121 222.271,305.223 222.474,305.039 222.319 C 304.648 221.990,303.600 222.930,303.600 223.610 C 303.600 223.866,303.279 224.554,302.886 225.138 C 302.493 225.722,301.926 226.689,301.625 227.286 C 301.325 227.884,300.927 228.278,300.740 228.163 C 300.553 228.047,300.400 228.334,300.400 228.800 C 300.400 229.266,300.222 229.537,300.005 229.403 C 299.786 229.267,299.707 229.412,299.828 229.728 C 299.948 230.041,299.766 230.577,299.423 230.920 C 299.080 231.263,298.800 231.679,298.800 231.846 C 298.800 232.012,298.395 232.594,297.900 233.139 C 297.405 233.683,297.270 233.996,297.600 233.834 C 297.930 233.672,297.840 233.874,297.400 234.283 C 296.960 234.693,296.542 235.292,296.470 235.614 C 296.399 235.936,296.014 236.560,295.616 237.000 C 295.218 237.440,294.769 238.206,294.618 238.702 C 294.468 239.198,293.891 240.143,293.337 240.802 C 292.782 241.461,292.462 242.000,292.626 242.000 C 292.789 242.000,292.535 242.336,292.061 242.747 C 291.588 243.158,291.200 243.698,291.200 243.947 C 291.200 244.196,291.064 244.400,290.898 244.400 C 290.731 244.400,290.356 244.941,290.063 245.602 C 289.765 246.275,289.343 246.688,289.104 246.540 C 288.863 246.392,288.792 246.464,288.942 246.706 C 289.088 246.942,288.936 247.407,288.604 247.739 C 288.272 248.071,288.000 248.536,288.000 248.771 C 288.000 249.007,287.820 249.200,287.600 249.200 C 287.380 249.200,287.200 249.393,287.200 249.629 C 287.200 249.864,286.975 250.295,286.700 250.587 C 286.425 250.878,285.750 251.694,285.200 252.400 C 284.650 253.106,283.975 253.922,283.700 254.213 C 283.425 254.505,283.200 254.896,283.200 255.083 C 283.200 255.270,282.840 255.683,282.400 256.000 C 281.960 256.317,281.600 256.724,281.600 256.905 C 281.600 257.304,281.213 257.775,278.468 260.716 C 277.295 261.972,276.075 263.495,275.757 264.100 C 275.440 264.705,275.010 265.200,274.802 265.200 C 274.595 265.200,274.532 265.477,274.662 265.816 C 274.792 266.155,274.741 266.404,274.549 266.369 C 273.616 266.199,273.134 266.451,273.345 267.000 C 273.471 267.330,273.386 267.600,273.156 267.600 C 272.649 267.600,269.600 270.715,269.600 271.233 C 269.600 271.435,269.330 271.600,269.000 271.600 C 268.459 271.600,268.222 272.075,268.353 272.900 C 268.379 273.065,268.119 273.200,267.776 273.200 C 267.433 273.200,267.264 273.380,267.400 273.600 C 267.536 273.820,267.375 274.000,267.043 274.000 C 266.302 274.000,263.600 276.717,263.600 277.461 C 263.600 277.758,263.735 277.979,263.900 277.953 C 264.065 277.927,264.380 277.930,264.600 277.960 C 264.820 277.990,274.045 278.008,285.100 278.000 C 302.809 277.988,305.200 278.058,305.200 278.593 C 305.200 278.927,305.470 279.200,305.800 279.200 C 306.130 279.200,306.400 279.020,306.400 278.800 C 306.400 278.580,306.220 278.400,306.000 278.400 C 305.780 278.400,305.600 278.201,305.600 277.957 C 305.600 277.714,305.844 277.608,306.141 277.722 C 306.821 277.983,308.121 276.519,307.746 275.913 C 307.563 275.616,307.703 275.554,308.161 275.730 C 308.713 275.942,308.801 275.835,308.599 275.197 C 308.420 274.632,308.529 274.400,308.973 274.400 C 309.318 274.400,309.600 274.100,309.600 273.733 C 309.600 273.367,309.719 273.186,309.864 273.331 C 310.009 273.476,310.382 273.233,310.691 272.791 C 311.001 272.348,311.422 272.090,311.627 272.217 C 311.832 272.344,312.000 272.148,312.000 271.781 C 312.000 271.085,313.784 268.717,314.083 269.016 C 314.178 269.111,314.501 268.561,314.802 267.794 C 315.103 267.027,315.496 266.400,315.675 266.400 C 315.854 266.400,316.000 266.170,316.000 265.888 C 316.000 265.607,316.360 265.117,316.800 264.800 C 317.639 264.196,317.938 263.344,317.138 263.838 C 316.843 264.021,316.785 263.947,316.979 263.635 C 317.145 263.366,317.533 263.242,317.840 263.360 C 318.203 263.499,318.400 263.298,318.400 262.791 C 318.400 262.360,318.760 261.782,319.200 261.507 C 319.640 261.232,320.000 260.801,320.000 260.550 C 320.000 259.873,321.045 257.978,321.286 258.219 C 321.399 258.333,321.718 257.880,321.995 257.213 C 322.271 256.546,322.666 256.000,322.872 256.000 C 323.078 256.000,323.143 255.831,323.015 255.625 C 322.888 255.418,323.073 255.087,323.427 254.889 C 323.782 254.690,324.061 254.454,324.047 254.364 C 323.941 253.655,324.576 252.457,324.945 252.669 C 325.195 252.811,325.270 252.784,325.111 252.608 C 324.769 252.230,325.888 250.088,326.926 249.130 C 327.326 248.762,327.628 248.351,327.598 248.218 C 327.501 247.785,328.586 245.600,328.898 245.600 C 329.064 245.600,329.200 245.322,329.200 244.983 C 329.200 244.644,329.560 243.980,330.000 243.508 C 330.440 243.036,330.800 242.233,330.800 241.725 C 330.800 241.216,330.980 240.800,331.200 240.800 C 331.420 240.800,331.600 240.530,331.600 240.200 C 331.600 239.870,331.780 239.600,332.000 239.600 C 332.220 239.600,332.400 239.330,332.400 239.000 C 332.400 238.670,332.580 238.400,332.800 238.400 C 333.020 238.400,333.200 237.950,333.200 237.400 C 333.200 236.850,333.380 236.400,333.600 236.400 C 333.820 236.400,334.000 236.119,334.000 235.776 C 334.000 235.433,334.184 235.267,334.410 235.406 C 334.635 235.545,334.794 235.511,334.763 235.330 C 334.620 234.510,334.829 233.571,335.115 233.748 C 335.288 233.855,335.470 233.460,335.519 232.871 C 335.567 232.282,335.785 231.740,336.003 231.667 C 336.222 231.593,336.400 231.268,336.400 230.943 C 336.400 230.606,336.594 230.473,336.852 230.632 C 337.128 230.803,337.226 230.696,337.104 230.356 C 336.994 230.050,337.126 229.530,337.397 229.200 C 338.046 228.409,339.192 224.930,339.232 223.629 C 339.249 223.063,339.354 222.825,339.465 223.100 C 339.850 224.055,340.260 223.593,340.085 222.400 C 339.952 221.490,340.065 221.200,340.555 221.200 C 341.315 221.200,341.348 221.027,340.766 220.095 C 340.342 219.415,307.149 219.117,306.480 219.787 C 306.363 219.904,306.072 219.997,305.833 219.994 C 305.595 219.991,305.670 219.813,306.000 219.600 C 306.420 219.329,306.446 219.210,306.087 219.206 C 305.806 219.203,305.459 219.515,305.317 219.900 M79.176 279.870 C 79.369 280.568,79.462 281.205,79.382 281.284 C 79.303 281.364,79.570 281.429,79.976 281.429 C 81.060 281.429,81.753 280.182,80.713 280.103 C 80.277 280.071,79.674 279.719,79.373 279.322 C 78.889 278.684,78.866 278.747,79.176 279.870 M303.764 280.038 C 303.789 280.645,303.971 281.290,304.168 281.471 C 304.371 281.656,304.414 281.600,304.266 281.342 C 304.122 281.090,304.294 280.773,304.647 280.637 C 305.132 280.451,305.181 280.260,304.849 279.858 C 304.606 279.566,304.495 279.238,304.603 279.130 C 304.712 279.022,304.557 278.933,304.260 278.933 C 303.926 278.933,303.737 279.355,303.764 280.038 M163.075 279.458 C 162.553 279.980,162.802 280.400,163.633 280.400 C 164.099 280.400,164.397 280.190,164.308 279.925 C 164.113 279.340,163.446 279.088,163.075 279.458 M162.698 282.900 C 162.595 283.175,162.653 283.760,162.827 284.200 C 163.186 285.107,163.240 285.038,163.378 283.500 C 163.478 282.380,163.039 281.992,162.698 282.900 M86.610 285.118 C 86.471 285.480,86.477 285.656,86.623 285.511 C 86.769 285.365,87.540 285.595,88.338 286.023 C 89.136 286.450,90.061 286.786,90.394 286.770 C 90.727 286.753,90.420 286.528,89.712 286.270 C 89.003 286.011,88.072 285.499,87.643 285.131 C 86.921 284.511,86.843 284.511,86.610 285.118 M243.256 293.613 C 242.736 294.046,242.519 294.400,242.772 294.400 C 243.026 294.400,243.620 294.040,244.092 293.600 C 245.199 292.569,244.496 292.580,243.256 293.613 M114.202 297.198 C 113.803 297.639,113.607 298.000,113.767 298.000 C 114.188 298.000,115.328 296.795,115.112 296.579 C 115.011 296.478,114.602 296.756,114.202 297.198 M5.100 325.482 C 5.595 325.578,6.405 325.578,6.900 325.482 C 7.395 325.387,6.990 325.309,6.000 325.309 C 5.010 325.309,4.605 325.387,5.100 325.482 M26.700 325.482 C 27.195 325.578,28.005 325.578,28.500 325.482 C 28.995 325.387,28.590 325.309,27.600 325.309 C 26.610 325.309,26.205 325.387,26.700 325.482 " stroke="none" fill="#10bfd7" fill-rule="evenodd"></path><path id="path3" d="M266.200 37.600 C 266.064 37.820,264.793 38.000,263.376 38.000 C 261.925 38.000,260.800 38.175,260.800 38.400 C 260.800 38.620,260.080 38.800,259.200 38.800 C 258.320 38.800,257.600 38.980,257.600 39.200 C 257.600 39.420,256.880 39.600,256.000 39.600 C 255.120 39.600,254.400 39.780,254.400 40.000 C 254.400 40.220,253.669 40.400,252.776 40.400 C 251.796 40.400,251.251 40.558,251.400 40.800 C 251.547 41.038,251.071 41.200,250.224 41.200 C 249.441 41.200,248.800 41.359,248.800 41.553 C 248.800 41.926,247.265 42.535,246.622 42.417 C 246.414 42.379,245.874 42.525,245.422 42.741 C 244.970 42.956,244.015 43.372,243.300 43.664 C 242.585 43.956,242.000 44.331,242.000 44.498 C 242.000 44.664,241.595 44.804,241.100 44.809 C 240.605 44.814,239.750 45.170,239.200 45.600 C 238.650 46.030,237.975 46.386,237.700 46.391 C 237.425 46.396,237.200 46.580,237.200 46.800 C 237.200 47.020,236.855 47.200,236.433 47.200 C 236.012 47.200,235.607 47.335,235.533 47.500 C 235.460 47.665,234.545 48.233,233.500 48.763 C 232.455 49.292,231.600 49.856,231.600 50.014 C 231.600 50.173,231.062 50.526,230.405 50.798 C 229.748 51.070,229.309 51.452,229.429 51.646 C 229.549 51.841,229.367 52.000,229.024 52.000 C 228.681 52.000,228.400 52.180,228.400 52.400 C 228.400 52.620,228.130 52.800,227.800 52.800 C 227.470 52.800,227.200 52.950,227.200 53.132 C 227.200 53.315,226.756 53.702,226.214 53.993 C 225.671 54.283,225.313 54.660,225.419 54.830 C 225.524 55.000,225.352 55.198,225.036 55.270 C 223.922 55.523,212.400 66.412,212.400 67.212 C 212.400 67.394,212.172 67.781,211.893 68.071 C 210.930 69.075,208.400 72.803,208.400 73.218 C 208.400 73.446,208.040 74.020,207.600 74.492 C 207.160 74.964,206.800 75.598,206.800 75.899 C 206.800 76.201,206.620 76.336,206.400 76.200 C 206.180 76.064,206.000 76.233,206.000 76.576 C 206.000 76.919,205.820 77.200,205.600 77.200 C 205.380 77.200,205.200 77.470,205.200 77.800 C 205.200 78.130,205.020 78.400,204.800 78.400 C 204.580 78.400,204.400 78.760,204.400 79.200 C 204.400 79.640,204.220 80.000,204.000 80.000 C 203.780 80.000,203.600 80.234,203.600 80.520 C 203.600 81.256,202.659 83.193,202.300 83.197 C 202.135 83.199,202.000 83.549,202.000 83.976 C 202.000 84.403,201.820 84.864,201.600 85.000 C 201.380 85.136,201.200 85.524,201.200 85.862 C 201.200 86.200,200.805 87.032,200.321 87.710 C 199.816 88.421,199.688 88.804,200.021 88.614 C 200.491 88.345,200.506 88.384,200.100 88.821 C 199.825 89.118,199.600 89.695,199.600 90.104 C 199.600 90.513,199.429 90.742,199.221 90.613 C 199.012 90.484,198.912 90.743,198.998 91.189 C 199.099 91.714,198.941 92.000,198.552 92.000 C 198.204 92.000,197.995 92.296,198.057 92.700 C 198.116 93.085,197.930 93.825,197.644 94.346 C 197.357 94.866,197.192 95.880,197.276 96.600 C 197.386 97.546,197.286 97.854,196.914 97.712 C 196.546 97.570,196.400 97.987,196.400 99.181 C 196.400 100.190,196.242 100.750,196.000 100.600 C 195.774 100.460,195.600 100.787,195.600 101.349 C 195.600 101.997,195.882 102.436,196.406 102.602 C 196.849 102.743,197.136 102.980,197.044 103.129 C 196.952 103.278,203.789 103.351,212.238 103.291 C 226.717 103.188,227.600 103.222,227.606 103.891 C 227.611 104.433,227.692 104.474,227.951 104.066 C 228.137 103.772,228.449 103.502,228.645 103.466 C 228.840 103.430,228.986 103.085,228.968 102.700 C 228.951 102.315,229.186 102.000,229.492 102.000 C 229.797 102.000,229.936 101.820,229.800 101.600 C 229.664 101.380,229.868 101.200,230.253 101.200 C 230.887 101.200,230.880 101.141,230.176 100.570 C 229.749 100.224,229.582 100.028,229.804 100.135 C 230.537 100.487,231.576 99.350,231.672 98.092 C 231.724 97.412,231.890 96.932,232.041 97.025 C 232.345 97.213,232.840 96.237,233.067 95.000 C 233.148 94.560,233.751 93.726,234.407 93.147 C 235.063 92.568,235.600 91.803,235.600 91.447 C 235.600 91.091,235.780 90.800,236.000 90.800 C 236.220 90.800,236.400 90.519,236.400 90.176 C 236.400 89.802,236.587 89.668,236.868 89.842 C 237.194 90.043,237.248 89.902,237.047 89.378 C 236.888 88.963,236.865 88.732,236.997 88.863 C 237.204 89.071,239.600 86.983,239.600 86.595 C 239.600 86.188,245.167 80.800,245.588 80.800 C 245.858 80.800,246.556 80.305,247.140 79.700 C 247.723 79.095,248.689 78.348,249.286 78.040 C 249.884 77.732,250.278 77.327,250.163 77.140 C 250.047 76.953,250.251 76.800,250.615 76.800 C 250.979 76.800,251.754 76.469,252.338 76.065 C 253.423 75.314,254.316 74.914,254.964 74.887 C 255.164 74.878,255.479 74.602,255.663 74.273 C 255.873 73.898,256.321 73.759,256.862 73.900 C 257.453 74.055,257.635 73.980,257.439 73.663 C 257.246 73.351,257.552 73.200,258.376 73.200 C 259.049 73.200,259.600 73.020,259.600 72.800 C 259.600 72.580,260.140 72.400,260.800 72.400 C 261.460 72.400,262.000 72.220,262.000 72.000 C 262.000 71.780,262.540 71.600,263.200 71.600 C 263.860 71.600,264.400 71.457,264.400 71.282 C 264.400 71.107,265.056 70.919,265.857 70.865 C 266.658 70.811,267.636 70.595,268.031 70.384 C 268.425 70.173,270.458 70.000,272.548 70.000 C 274.638 70.000,276.803 69.827,277.360 69.615 C 278.008 69.369,278.457 69.369,278.609 69.615 C 278.740 69.827,280.547 70.000,282.624 70.000 C 284.875 70.000,286.400 70.162,286.400 70.400 C 286.400 70.620,287.210 70.800,288.200 70.800 C 289.190 70.800,290.000 70.980,290.000 71.200 C 290.000 71.420,290.362 71.600,290.805 71.600 C 291.248 71.600,291.923 71.767,292.305 71.971 C 293.214 72.456,294.410 72.884,295.377 73.069 C 295.805 73.151,296.688 73.484,297.339 73.809 C 297.990 74.134,298.765 74.400,299.061 74.400 C 299.358 74.400,299.600 74.580,299.600 74.800 C 299.600 75.020,299.960 75.200,300.400 75.200 C 300.840 75.200,301.200 75.380,301.200 75.600 C 301.200 75.820,301.520 76.000,301.912 76.000 C 302.303 76.000,302.883 76.360,303.200 76.800 C 303.517 77.240,304.031 77.600,304.341 77.600 C 304.652 77.600,305.242 77.988,305.653 78.461 C 306.064 78.935,306.400 79.182,306.400 79.009 C 306.400 78.837,307.421 79.710,308.670 80.948 C 309.918 82.187,311.099 83.200,311.294 83.200 C 311.488 83.200,311.536 83.380,311.400 83.600 C 311.264 83.820,311.343 84.000,311.576 84.000 C 311.809 84.000,312.000 84.255,312.000 84.567 C 312.000 84.878,312.160 85.193,312.356 85.267 C 312.551 85.340,313.340 86.156,314.108 87.081 C 314.876 88.005,315.616 88.650,315.752 88.514 C 315.889 88.378,316.000 88.617,316.000 89.045 C 316.000 89.473,316.360 90.083,316.800 90.400 C 317.240 90.717,317.600 91.231,317.600 91.541 C 317.600 91.852,317.939 92.401,318.354 92.760 C 318.769 93.120,319.509 94.265,319.997 95.305 C 320.486 96.344,321.001 97.123,321.143 97.036 C 321.284 96.948,321.427 97.324,321.460 97.870 C 321.492 98.416,321.927 99.296,322.425 99.826 C 323.048 100.490,323.313 101.233,323.277 102.211 C 323.247 102.993,323.385 103.533,323.583 103.411 C 324.589 102.789,376.200 103.184,376.334 103.815 C 376.471 104.462,378.398 102.635,378.400 101.857 C 378.400 101.669,378.661 101.614,378.980 101.737 C 379.327 101.870,379.655 101.656,379.799 101.205 C 379.930 100.790,380.569 100.215,381.219 99.927 C 381.880 99.635,382.400 99.096,382.400 98.702 C 382.400 98.316,382.550 98.000,382.732 98.000 C 382.915 98.000,383.306 97.550,383.600 97.001 C 383.894 96.451,384.218 96.085,384.320 96.187 C 384.554 96.421,386.800 94.040,386.800 93.558 C 386.800 93.361,387.070 93.200,387.400 93.200 C 387.730 93.200,388.000 92.900,388.000 92.533 C 388.000 92.167,388.118 91.984,388.262 92.128 C 388.569 92.435,391.052 89.177,390.890 88.679 C 390.830 88.493,390.920 88.420,391.090 88.518 C 391.484 88.743,393.227 86.961,392.917 86.650 C 392.790 86.523,392.981 86.305,393.343 86.167 C 393.704 86.028,394.000 85.664,394.000 85.357 C 394.000 85.051,394.180 84.800,394.400 84.800 C 394.620 84.800,394.800 84.519,394.800 84.176 C 394.800 83.833,394.980 83.664,395.200 83.800 C 395.420 83.936,395.600 83.756,395.600 83.400 C 395.600 83.044,395.780 82.864,396.000 83.000 C 396.220 83.136,396.400 82.916,396.400 82.512 C 396.400 82.107,396.760 81.517,397.200 81.200 C 397.640 80.883,398.000 80.383,398.000 80.088 C 398.000 79.785,398.201 79.677,398.462 79.838 C 398.727 80.002,398.816 79.949,398.670 79.713 C 398.531 79.488,398.773 78.892,399.208 78.390 C 401.786 75.419,398.995 74.760,394.305 77.234 C 393.923 77.435,393.238 77.600,392.782 77.600 C 392.326 77.600,392.064 77.780,392.200 78.000 C 392.336 78.220,392.099 78.400,391.672 78.400 C 391.246 78.400,390.238 78.676,389.431 79.013 C 388.625 79.350,387.808 79.529,387.617 79.410 C 387.425 79.292,387.205 79.386,387.127 79.619 C 387.049 79.853,386.719 80.096,386.393 80.159 C 384.825 80.465,383.321 80.900,382.553 81.270 C 382.088 81.494,381.233 81.705,380.654 81.739 C 380.074 81.773,379.600 81.935,379.600 82.100 C 379.600 82.265,379.060 82.400,378.400 82.400 C 377.740 82.400,377.200 82.580,377.200 82.800 C 377.200 83.020,376.559 83.200,375.776 83.200 C 374.929 83.200,374.453 83.362,374.600 83.600 C 374.753 83.847,374.063 84.000,372.800 84.000 C 371.537 84.000,370.847 84.153,371.000 84.400 C 371.146 84.637,370.625 84.825,369.724 84.861 C 367.690 84.942,367.471 84.976,366.971 85.290 C 366.735 85.438,365.745 85.598,364.771 85.645 C 363.797 85.692,362.814 85.871,362.588 86.042 C 362.361 86.213,361.236 86.395,360.088 86.448 C 358.939 86.500,358.000 86.691,358.000 86.871 C 358.000 87.052,357.625 87.200,357.167 87.200 C 356.708 87.200,356.398 87.006,356.477 86.770 C 356.555 86.534,356.718 86.399,356.839 86.470 C 356.959 86.541,357.331 86.330,357.665 86.000 C 358.000 85.670,358.874 84.950,359.608 84.400 C 361.797 82.760,363.360 81.460,364.047 80.708 C 364.403 80.319,365.018 80.000,365.414 80.000 C 365.809 80.000,366.022 79.889,365.886 79.752 C 365.635 79.502,366.816 78.099,367.093 78.320 C 367.175 78.386,367.728 77.909,368.321 77.260 C 370.372 75.017,370.762 74.598,371.220 74.140 C 372.457 72.903,373.200 71.966,373.200 71.643 C 373.200 71.446,373.470 71.182,373.800 71.055 C 374.130 70.929,374.400 70.459,374.400 70.013 C 374.400 69.285,374.813 69.013,375.700 69.153 C 375.865 69.179,376.000 68.880,376.000 68.488 C 376.000 68.097,376.360 67.517,376.800 67.200 C 377.240 66.883,377.600 66.303,377.600 65.912 C 377.600 65.520,377.738 65.200,377.906 65.200 C 378.074 65.200,378.656 64.480,379.200 63.600 C 379.744 62.720,380.326 62.000,380.494 62.000 C 380.662 62.000,380.800 61.640,380.800 61.200 C 380.800 60.760,380.952 60.400,381.137 60.400 C 381.323 60.400,381.908 59.545,382.437 58.500 C 382.967 57.455,383.535 56.540,383.700 56.467 C 383.865 56.393,384.000 56.078,384.000 55.767 C 384.000 55.455,384.180 55.200,384.400 55.200 C 384.620 55.200,384.800 54.840,384.800 54.400 C 384.800 53.960,384.980 53.600,385.200 53.600 C 385.420 53.600,385.600 53.161,385.600 52.624 C 385.600 52.087,385.780 51.536,386.000 51.400 C 386.220 51.264,386.400 50.803,386.400 50.376 C 386.400 49.949,386.580 49.600,386.800 49.600 C 387.020 49.600,387.200 49.240,387.200 48.800 C 387.200 48.360,387.399 48.000,387.643 48.000 C 387.886 48.000,387.991 47.752,387.874 47.450 C 387.758 47.147,387.919 46.407,388.232 45.804 C 388.965 44.391,388.959 42.836,388.219 42.552 C 387.703 42.354,382.909 44.489,382.400 45.143 C 382.030 45.618,380.416 46.400,379.805 46.400 C 379.472 46.400,379.200 46.546,379.200 46.725 C 379.200 46.904,378.570 47.298,377.800 47.600 C 377.030 47.902,376.400 48.252,376.400 48.377 C 376.400 48.672,373.893 49.806,373.500 49.689 C 373.335 49.640,373.200 49.780,373.200 50.000 C 373.200 50.220,372.840 50.400,372.400 50.400 C 371.960 50.400,371.600 50.580,371.600 50.800 C 371.600 51.020,371.240 51.200,370.800 51.200 C 370.360 51.200,370.000 51.380,370.000 51.600 C 370.000 51.820,369.640 52.000,369.200 52.000 C 368.760 52.000,368.400 52.180,368.400 52.400 C 368.400 52.620,367.961 52.800,367.424 52.800 C 366.887 52.800,366.336 52.980,366.200 53.200 C 366.064 53.420,365.603 53.600,365.176 53.600 C 364.749 53.600,364.400 53.780,364.400 54.000 C 364.400 54.220,363.950 54.400,363.400 54.400 C 362.850 54.400,362.400 54.580,362.400 54.800 C 362.400 55.020,362.040 55.200,361.600 55.200 C 361.160 55.200,360.800 55.380,360.800 55.600 C 360.800 55.820,360.275 56.000,359.633 56.000 C 358.992 56.000,358.407 56.178,358.333 56.397 C 358.260 56.615,357.718 56.833,357.129 56.881 C 356.540 56.930,356.145 57.112,356.252 57.285 C 356.422 57.560,354.802 57.799,353.870 57.637 C 353.689 57.606,353.642 57.744,353.766 57.945 C 353.964 58.266,350.688 59.048,349.900 58.868 C 349.735 58.831,349.600 58.942,349.600 59.115 C 349.600 59.288,349.027 59.473,348.327 59.527 C 347.626 59.580,346.861 59.776,346.627 59.962 C 346.226 60.279,345.217 60.524,342.096 61.063 C 341.379 61.187,340.694 61.449,340.573 61.644 C 340.452 61.840,339.584 62.000,338.645 62.000 C 336.822 62.000,336.239 61.581,330.988 56.500 C 329.794 55.345,328.632 54.400,328.405 54.400 C 328.178 54.400,327.428 53.860,326.737 53.200 C 326.046 52.540,325.278 52.000,325.029 52.000 C 324.780 52.000,324.317 51.640,324.000 51.200 C 323.683 50.760,323.233 50.400,323.000 50.400 C 322.767 50.400,322.317 50.040,322.000 49.600 C 321.683 49.160,321.103 48.800,320.712 48.800 C 320.320 48.800,320.000 48.638,320.000 48.440 C 320.000 47.631,306.004 41.330,305.446 41.887 C 305.311 42.023,305.200 41.923,305.200 41.667 C 305.200 41.410,304.761 41.200,304.224 41.200 C 303.687 41.200,303.136 41.020,303.000 40.800 C 302.864 40.580,302.223 40.400,301.576 40.400 C 300.929 40.400,300.400 40.220,300.400 40.000 C 300.400 39.780,299.680 39.600,298.800 39.600 C 297.920 39.600,297.200 39.420,297.200 39.200 C 297.200 38.980,296.480 38.800,295.600 38.800 C 294.720 38.800,294.000 38.620,294.000 38.400 C 294.000 38.178,292.933 38.000,291.600 38.000 C 290.267 38.000,289.200 37.822,289.200 37.600 C 289.200 37.343,285.141 37.200,277.824 37.200 C 270.671 37.200,266.355 37.349,266.200 37.600 M26.922 52.700 C 26.783 53.085,26.344 53.870,25.947 54.445 C 25.549 55.020,25.338 55.605,25.478 55.745 C 25.619 55.885,25.523 56.000,25.267 56.000 C 25.010 56.000,24.800 56.360,24.800 56.800 C 24.800 57.240,24.620 57.600,24.400 57.600 C 24.180 57.600,24.000 57.949,24.000 58.376 C 24.000 58.803,23.820 59.264,23.600 59.400 C 23.380 59.536,23.200 59.997,23.200 60.424 C 23.200 60.851,23.020 61.200,22.800 61.200 C 22.580 61.200,22.400 61.560,22.400 62.000 C 22.400 62.440,22.220 62.800,22.000 62.800 C 21.780 62.800,21.600 63.340,21.600 64.000 C 21.600 64.660,21.420 65.200,21.200 65.200 C 20.980 65.200,20.800 65.560,20.800 66.000 C 20.800 66.440,20.620 66.800,20.400 66.800 C 20.180 66.800,20.000 67.329,20.000 67.976 C 20.000 68.623,19.820 69.264,19.600 69.400 C 19.380 69.536,19.200 70.277,19.200 71.047 C 19.200 71.879,19.038 72.347,18.800 72.200 C 18.562 72.053,18.400 72.521,18.400 73.353 C 18.400 74.123,18.220 74.864,18.000 75.000 C 17.780 75.136,17.600 76.036,17.600 77.000 C 17.600 77.964,17.420 78.864,17.200 79.000 C 16.980 79.136,16.800 80.011,16.800 80.944 C 16.800 81.877,16.584 82.856,16.320 83.120 C 15.947 83.493,15.950 83.600,16.334 83.600 C 16.705 83.600,16.721 83.800,16.398 84.403 C 16.045 85.064,16.031 98.978,16.380 102.500 C 16.446 103.160,18.360 103.202,50.125 103.233 C 68.646 103.252,84.189 103.310,84.664 103.364 C 85.434 103.450,85.485 103.350,85.139 102.439 C 84.675 101.219,83.926 100.673,83.551 101.279 C 83.402 101.520,82.981 101.602,82.615 101.461 C 82.249 101.321,82.064 101.020,82.204 100.793 C 82.345 100.566,82.244 100.430,81.980 100.490 C 81.716 100.551,81.417 100.375,81.317 100.100 C 81.192 99.760,81.365 99.688,81.853 99.876 C 82.488 100.119,82.505 100.078,81.997 99.535 C 81.680 99.196,80.966 98.936,80.411 98.959 C 79.855 98.982,79.378 98.775,79.350 98.500 C 79.323 98.225,79.278 97.830,79.250 97.623 C 79.223 97.416,78.840 97.315,78.400 97.400 C 77.887 97.499,77.600 97.339,77.600 96.953 C 77.600 96.623,77.439 96.452,77.242 96.574 C 77.045 96.696,76.781 96.526,76.654 96.198 C 76.528 95.869,76.149 95.600,75.813 95.600 C 75.476 95.600,75.200 95.409,75.200 95.176 C 75.200 94.943,75.020 94.864,74.800 95.000 C 74.580 95.136,74.400 95.057,74.400 94.824 C 74.400 94.591,74.040 94.400,73.600 94.400 C 73.160 94.400,72.800 94.149,72.800 93.843 C 72.800 93.307,71.721 92.605,71.100 92.736 C 70.935 92.771,70.800 92.620,70.800 92.400 C 70.800 92.180,70.519 92.000,70.176 92.000 C 69.833 92.000,69.664 91.820,69.800 91.600 C 69.936 91.380,69.756 91.200,69.400 91.200 C 69.044 91.200,68.835 91.065,68.934 90.900 C 69.034 90.735,68.865 90.368,68.558 90.084 C 68.251 89.801,68.000 89.673,68.000 89.800 C 68.000 90.057,67.438 89.622,65.288 87.700 C 64.488 86.985,63.691 86.400,63.517 86.400 C 63.344 86.400,62.437 85.680,61.503 84.800 C 60.569 83.920,59.568 83.200,59.279 83.200 C 58.989 83.200,58.864 83.020,59.000 82.800 C 59.136 82.580,58.984 82.400,58.663 82.400 C 58.342 82.400,57.704 81.815,57.246 81.100 C 56.788 80.385,56.410 79.959,56.407 80.154 C 56.403 80.349,56.026 80.032,55.568 79.450 C 55.110 78.868,54.558 78.502,54.341 78.636 C 54.124 78.771,53.849 78.508,53.730 78.053 C 53.611 77.599,53.164 77.116,52.737 76.980 C 51.866 76.704,39.046 63.992,37.800 62.170 C 37.360 61.527,35.965 59.967,34.700 58.705 C 33.435 57.443,32.400 56.223,32.400 55.995 C 32.400 54.197,27.455 51.223,26.922 52.700 M374.838 103.957 L 373.876 104.697 374.800 104.648 C 375.351 104.620,375.766 104.317,375.827 103.900 C 375.950 103.055,376.016 103.052,374.838 103.957 M88.279 104.279 C 88.526 104.937,88.482 104.948,87.775 104.400 C 87.075 103.858,87.048 103.861,87.497 104.437 C 87.770 104.787,87.860 105.221,87.697 105.401 C 87.533 105.580,87.693 105.623,88.051 105.495 C 88.409 105.367,88.917 105.473,89.180 105.731 C 89.442 105.989,89.623 106.020,89.581 105.800 C 89.412 104.907,89.636 104.729,90.300 105.229 C 90.939 105.710,90.937 105.688,90.286 104.978 C 89.668 104.305,89.520 104.281,89.192 104.800 C 88.865 105.316,88.811 105.305,88.806 104.724 C 88.803 104.352,88.622 103.937,88.405 103.803 C 88.167 103.656,88.117 103.846,88.279 104.279 M324.447 104.762 C 323.853 105.139,324.611 107.600,325.321 107.600 C 325.501 107.600,325.536 107.420,325.400 107.200 C 325.264 106.980,325.343 106.800,325.576 106.800 C 325.809 106.800,326.000 106.620,326.000 106.400 C 326.000 106.180,325.775 106.045,325.500 106.100 C 325.198 106.160,325.038 105.844,325.095 105.300 C 325.203 104.284,325.203 104.284,324.447 104.762 M194.800 105.213 C 194.800 105.728,195.940 106.194,196.306 105.828 C 196.455 105.679,196.312 105.389,195.988 105.184 C 195.214 104.695,194.800 104.705,194.800 105.213 M373.332 105.367 C 373.479 105.751,373.600 106.231,373.600 106.433 C 373.600 106.635,373.763 106.800,373.963 106.800 C 374.428 106.800,374.037 105.270,373.484 104.928 C 373.220 104.765,373.164 104.928,373.332 105.367 M16.800 105.678 C 16.800 105.902,17.070 105.982,17.400 105.855 C 17.730 105.729,18.000 105.786,18.000 105.983 C 18.000 106.180,17.726 106.426,17.392 106.530 C 16.967 106.662,16.997 106.699,17.492 106.654 C 18.409 106.570,18.415 105.508,17.500 105.374 C 17.115 105.317,16.800 105.454,16.800 105.678 M227.600 107.267 C 227.600 107.743,227.725 108.008,227.878 107.855 C 228.311 107.423,228.371 106.400,227.965 106.400 C 227.764 106.400,227.600 106.790,227.600 107.267 M93.054 107.398 C 93.181 107.726,93.433 107.904,93.614 107.791 C 93.796 107.679,94.058 107.770,94.196 107.993 C 94.519 108.516,95.200 108.521,95.200 108.000 C 95.200 107.780,94.930 107.600,94.600 107.600 C 94.270 107.600,94.000 107.420,94.000 107.200 C 94.000 106.980,93.736 106.800,93.413 106.800 C 93.056 106.800,92.915 107.035,93.054 107.398 M194.500 108.330 C 194.100 108.584,194.100 108.784,194.500 109.331 C 194.949 109.944,195.000 109.911,195.000 109.007 C 195.000 108.453,195.000 108.003,195.000 108.006 C 195.000 108.009,194.775 108.155,194.500 108.330 M371.188 108.614 C 370.912 108.947,370.802 109.335,370.943 109.476 C 371.084 109.618,371.200 109.537,371.200 109.296 C 371.200 109.055,371.515 108.796,371.900 108.720 C 372.358 108.629,372.443 108.482,372.145 108.295 C 371.895 108.138,371.465 108.281,371.188 108.614 M17.606 112.700 C 17.603 113.195,17.780 113.600,18.000 113.600 C 18.501 113.600,18.501 113.176,18.000 112.400 C 17.686 111.915,17.611 111.972,17.606 112.700 M226.279 118.957 C 226.115 119.374,226.075 119.809,226.191 119.924 C 226.555 120.289,226.876 119.691,226.724 118.931 C 226.583 118.235,226.562 118.236,226.279 118.957 " stroke="none" fill="#24eca4" fill-rule="evenodd"></path><path id="path4" d="M49.811 160.383 C 49.681 160.593,49.310 160.664,48.987 160.540 C 48.664 160.416,48.400 160.514,48.400 160.757 C 48.400 161.400,49.419 161.300,50.000 160.600 C 50.274 160.270,50.397 160.000,50.273 160.000 C 50.149 160.000,49.941 160.172,49.811 160.383 M234.828 161.947 C 234.435 162.682,234.614 163.200,235.262 163.200 C 235.443 163.200,235.554 162.750,235.508 162.200 C 235.409 161.002,235.346 160.979,234.828 161.947 M147.600 163.207 C 147.124 163.521,147.184 163.577,147.890 163.478 C 148.379 163.410,148.904 163.229,149.056 163.077 C 149.481 162.653,148.279 162.760,147.600 163.207 M15.511 164.400 C 15.610 164.730,15.781 165.315,15.892 165.700 C 16.137 166.554,17.467 166.638,17.467 165.800 C 17.467 165.470,17.216 165.200,16.910 165.200 C 16.603 165.200,16.464 165.020,16.600 164.800 C 16.736 164.580,16.582 164.400,16.257 164.400 C 15.932 164.400,15.591 164.265,15.499 164.100 C 15.407 163.935,15.412 164.070,15.511 164.400 M154.800 164.560 C 155.341 165.101,156.713 165.265,156.986 164.822 C 157.111 164.620,157.002 164.325,156.745 164.166 C 156.452 163.985,156.384 164.050,156.562 164.338 C 156.719 164.592,156.657 164.800,156.424 164.800 C 156.191 164.800,156.000 164.659,156.000 164.486 C 156.000 164.313,155.643 164.171,155.206 164.171 C 154.691 164.171,154.548 164.308,154.800 164.560 M324.110 165.534 C 324.110 166.913,323.988 167.239,323.568 166.980 C 323.276 166.800,323.171 167.364,323.243 168.725 C 323.307 169.937,323.143 170.987,322.830 171.364 C 322.544 171.708,322.413 172.257,322.538 172.583 C 322.664 172.910,322.505 173.438,322.187 173.756 C 321.744 174.199,321.725 174.383,322.104 174.536 C 322.496 174.695,322.496 174.743,322.100 174.768 C 321.818 174.786,321.600 175.324,321.600 176.000 C 321.600 176.660,321.420 177.200,321.200 177.200 C 320.980 177.200,320.800 177.931,320.800 178.824 C 320.800 179.804,320.642 180.349,320.400 180.200 C 320.156 180.049,320.000 180.663,320.000 181.776 C 320.000 182.779,319.820 183.600,319.600 183.600 C 319.380 183.600,319.200 184.050,319.200 184.600 C 319.200 185.150,319.020 185.600,318.800 185.600 C 318.580 185.600,318.400 186.320,318.400 187.200 C 318.400 188.080,318.253 188.800,318.072 188.800 C 317.892 188.800,317.496 189.711,317.193 190.825 C 316.890 191.939,316.497 192.940,316.321 193.049 C 316.144 193.158,316.000 193.687,316.000 194.224 C 316.000 194.761,315.809 195.200,315.576 195.200 C 315.343 195.200,315.244 195.348,315.356 195.529 C 315.468 195.709,315.298 196.360,314.980 196.974 C 314.661 197.589,314.400 198.343,314.400 198.651 C 314.400 199.195,314.225 199.633,313.262 201.495 C 313.008 201.987,312.800 202.762,312.800 203.218 C 312.800 203.749,312.632 203.943,312.332 203.758 C 312.009 203.558,311.951 203.695,312.146 204.202 C 312.309 204.628,312.226 205.060,311.949 205.231 C 311.687 205.394,311.445 205.858,311.411 206.263 C 311.378 206.668,311.143 207.381,310.890 207.847 C 310.636 208.313,310.542 208.808,310.681 208.947 C 310.820 209.086,310.729 209.200,310.479 209.200 C 310.220 209.200,310.135 209.486,310.281 209.866 C 310.449 210.305,310.381 210.436,310.080 210.249 C 309.795 210.073,309.528 210.387,309.370 211.084 C 308.969 212.855,308.240 214.399,307.802 214.406 C 307.581 214.409,307.670 214.587,308.000 214.800 C 308.436 215.082,308.457 215.189,308.076 215.194 C 307.788 215.197,307.664 215.380,307.800 215.600 C 307.936 215.820,307.746 216.000,307.377 216.000 C 306.885 216.000,306.756 216.256,306.891 216.963 C 307.018 217.627,306.918 217.867,306.569 217.733 C 306.225 217.601,306.101 217.876,306.179 218.592 C 306.270 219.421,306.157 219.593,305.647 219.399 C 305.154 219.211,305.111 219.264,305.465 219.621 C 305.721 219.879,306.118 219.974,306.348 219.832 C 307.350 219.213,340.381 219.375,340.622 220.000 C 340.990 220.953,341.589 219.602,341.434 218.171 C 341.252 216.493,341.684 215.517,342.042 216.800 C 342.306 217.749,342.322 217.754,342.360 216.900 C 342.382 216.405,342.580 216.000,342.800 216.000 C 343.020 216.000,343.200 215.651,343.200 215.224 C 343.200 214.797,343.380 214.336,343.600 214.200 C 343.820 214.064,344.000 213.637,344.000 213.252 C 344.000 212.866,344.360 211.805,344.800 210.894 C 345.240 209.984,345.600 208.906,345.600 208.499 C 345.600 207.590,346.490 205.607,346.900 205.603 C 347.065 205.601,347.203 205.285,347.206 204.900 C 347.213 204.082,348.127 201.339,348.526 200.941 C 348.677 200.790,348.800 200.257,348.800 199.757 C 348.800 199.257,348.980 198.736,349.200 198.600 C 349.420 198.464,349.600 197.924,349.600 197.400 C 349.600 196.876,349.780 196.336,350.000 196.200 C 350.220 196.064,350.400 195.421,350.400 194.771 C 350.400 194.121,350.562 193.277,350.761 192.895 C 350.960 192.513,351.337 191.390,351.600 190.400 C 351.863 189.410,352.240 188.287,352.439 187.905 C 352.638 187.523,352.800 186.679,352.800 186.029 C 352.800 185.379,352.980 184.736,353.200 184.600 C 353.420 184.464,353.600 183.744,353.600 183.000 C 353.600 182.256,353.792 181.528,354.028 181.383 C 354.263 181.237,354.412 180.282,354.358 179.259 C 354.287 177.909,354.402 177.432,354.778 177.516 C 355.146 177.598,355.241 177.262,355.107 176.347 C 355.003 175.641,355.156 174.606,355.446 174.047 C 355.812 173.341,355.842 172.950,355.544 172.765 C 355.241 172.578,355.245 172.420,355.557 172.226 C 355.801 172.076,356.000 171.549,356.000 171.056 C 356.000 170.563,356.197 169.963,356.438 169.722 C 356.993 169.167,356.749 167.800,356.095 167.800 C 355.823 167.800,355.618 167.620,355.640 167.400 C 355.662 167.180,355.837 167.043,356.028 167.096 C 356.636 167.264,357.266 165.688,356.725 165.353 C 356.462 165.191,356.176 165.271,356.089 165.532 C 356.003 165.792,355.767 165.903,355.566 165.779 C 355.365 165.655,355.200 165.739,355.200 165.967 C 355.200 166.244,350.165 166.418,340.063 166.491 C 326.305 166.590,324.942 166.541,325.096 165.955 C 325.188 165.601,325.005 165.211,324.687 165.089 C 324.326 164.950,324.110 165.117,324.110 165.534 M164.198 165.603 C 163.890 166.102,164.167 166.508,164.912 166.648 C 165.180 166.698,165.985 166.866,166.700 167.020 C 168.193 167.342,168.385 166.873,167.200 165.800 C 166.704 165.351,166.400 165.260,166.400 165.562 C 166.400 165.829,166.220 165.936,166.000 165.800 C 165.780 165.664,165.594 165.788,165.587 166.076 C 165.579 166.416,165.382 166.345,165.026 165.876 C 164.653 165.384,164.388 165.297,164.198 165.603 M168.893 166.800 C 168.476 167.467,168.493 167.600,168.997 167.600 C 169.328 167.600,169.600 167.525,169.600 167.433 C 169.600 167.341,169.709 166.981,169.843 166.633 C 170.191 165.727,169.486 165.851,168.893 166.800 M170.245 166.628 C 170.048 167.139,170.321 167.600,170.820 167.600 C 170.978 167.600,171.193 167.270,171.298 166.867 C 171.513 166.045,170.552 165.827,170.245 166.628 M171.926 166.689 C 171.354 167.378,172.310 168.190,173.781 168.265 L 174.962 168.325 174.017 167.613 L 173.072 166.900 174.125 166.900 C 174.803 166.900,175.263 167.167,175.416 167.650 C 175.587 168.188,176.035 168.400,177.003 168.400 C 177.746 168.400,178.464 168.580,178.600 168.800 C 178.736 169.020,179.027 169.200,179.247 169.200 C 179.467 169.200,179.544 169.032,179.417 168.828 C 179.291 168.623,179.398 168.325,179.655 168.166 C 179.937 167.992,180.017 168.049,179.855 168.311 C 179.708 168.549,179.770 168.858,179.993 168.996 C 180.349 169.216,180.564 168.732,180.461 167.941 C 180.443 167.799,180.781 167.775,181.214 167.888 C 181.646 168.001,182.000 168.272,182.000 168.489 C 182.000 168.707,181.721 168.778,181.379 168.647 C 181.005 168.504,180.861 168.575,181.017 168.828 C 181.160 169.059,182.069 169.175,183.050 169.088 C 184.025 169.000,185.107 169.136,185.453 169.389 C 186.147 169.897,188.400 169.717,188.400 169.155 C 188.400 168.960,188.599 168.800,188.843 168.800 C 189.086 168.800,189.190 169.048,189.074 169.352 C 188.898 169.809,189.960 169.891,195.245 169.827 C 200.373 169.765,201.588 169.853,201.427 170.275 C 201.146 171.006,202.210 170.933,202.975 170.168 C 203.323 169.820,203.831 169.626,204.104 169.736 C 204.496 169.895,204.496 169.943,204.100 169.968 C 203.825 169.986,203.600 170.153,203.600 170.340 C 203.600 170.918,208.258 170.613,209.059 169.983 C 209.713 169.468,209.746 169.470,209.334 170.000 C 208.928 170.524,209.385 170.607,212.934 170.653 C 215.170 170.682,217.696 170.899,218.548 171.134 C 219.399 171.369,219.992 171.459,219.867 171.333 C 219.379 170.845,220.804 169.906,221.348 170.357 C 221.637 170.597,222.031 170.660,222.224 170.497 C 222.416 170.333,222.367 170.473,222.115 170.807 C 221.603 171.485,227.286 171.733,228.300 171.076 C 228.575 170.898,228.800 170.917,228.800 171.117 C 228.800 171.398,235.516 171.511,236.876 171.252 C 237.109 171.208,237.100 170.482,236.846 168.676 C 236.821 168.498,236.575 168.480,236.300 168.635 C 235.923 168.848,235.911 168.796,236.254 168.425 C 236.503 168.154,236.618 167.590,236.508 167.171 C 236.258 166.215,172.713 165.740,171.926 166.689 M17.553 166.900 C 17.527 167.175,17.531 167.548,17.563 167.730 C 17.594 167.911,17.432 167.944,17.203 167.802 C 16.974 167.661,16.891 167.377,17.017 167.172 C 17.144 166.968,16.981 166.800,16.656 166.800 C 15.949 166.800,15.961 169.480,16.670 169.923 C 16.915 170.075,17.055 170.736,16.982 171.392 C 16.910 172.047,17.035 172.698,17.261 172.838 C 17.487 172.978,17.727 173.611,17.794 174.246 C 17.967 175.899,19.201 180.311,19.827 181.517 C 20.120 182.081,20.268 182.691,20.156 182.871 C 20.044 183.052,20.124 183.200,20.332 183.200 C 20.541 183.200,20.951 184.010,21.243 185.000 C 21.535 185.990,21.915 186.800,22.087 186.800 C 22.259 186.800,22.400 187.034,22.400 187.320 C 22.400 188.056,23.341 189.993,23.700 189.997 C 23.865 189.999,24.000 190.360,24.000 190.800 C 24.000 191.240,24.180 191.600,24.400 191.600 C 24.620 191.600,24.800 191.920,24.800 192.312 C 24.800 192.703,25.150 193.276,25.579 193.585 C 26.007 193.893,26.275 194.278,26.175 194.441 C 26.075 194.603,26.232 194.975,26.525 195.268 C 26.818 195.560,27.094 195.933,27.140 196.096 C 27.420 197.103,27.849 197.896,28.480 198.575 C 28.876 199.002,29.200 199.598,29.200 199.899 C 29.200 200.201,29.380 200.336,29.600 200.200 C 29.820 200.064,30.000 200.194,30.000 200.488 C 30.000 200.783,30.350 201.276,30.779 201.585 C 31.207 201.893,31.465 202.294,31.353 202.476 C 31.241 202.657,31.431 202.914,31.775 203.046 C 32.119 203.178,32.400 203.547,32.400 203.866 C 32.400 204.186,32.580 204.336,32.800 204.200 C 33.020 204.064,33.200 204.263,33.200 204.643 C 33.200 205.023,33.311 205.222,33.448 205.086 C 33.751 204.782,34.800 205.779,34.800 206.371 C 34.800 206.607,34.980 206.800,35.200 206.800 C 35.420 206.800,35.600 207.081,35.600 207.424 C 35.600 207.767,35.780 207.936,36.000 207.800 C 36.220 207.664,36.400 207.725,36.400 207.936 C 36.400 208.623,40.288 212.309,41.739 212.998 C 42.947 213.571,44.861 215.600,44.193 215.600 C 44.070 215.600,44.201 215.850,44.484 216.156 C 44.858 216.558,45.081 216.586,45.294 216.256 C 45.478 215.971,45.590 216.078,45.594 216.543 C 45.598 217.038,45.800 217.209,46.200 217.055 C 46.530 216.929,46.800 217.010,46.800 217.236 C 46.800 217.462,46.968 217.544,47.172 217.417 C 47.377 217.291,47.675 217.398,47.834 217.655 C 48.008 217.937,47.951 218.017,47.689 217.855 C 47.451 217.708,47.125 217.798,46.965 218.056 C 46.755 218.397,47.076 218.460,48.138 218.288 C 49.651 218.042,49.947 218.293,49.120 219.120 C 48.632 219.608,49.052 219.791,50.294 219.631 C 50.602 219.592,50.689 219.824,50.526 220.250 C 50.349 220.711,50.415 220.838,50.732 220.642 C 50.989 220.483,51.200 220.138,51.200 219.876 C 51.200 219.510,61.504 219.425,95.793 219.507 C 139.414 219.611,140.404 219.596,141.160 218.840 C 141.585 218.415,142.038 218.172,142.167 218.300 C 142.406 218.539,142.546 217.793,142.430 216.900 C 142.394 216.625,142.563 216.400,142.805 216.400 C 143.076 216.400,143.199 215.745,143.123 214.700 C 142.988 212.829,141.826 212.195,140.501 213.269 C 140.051 213.634,139.939 213.646,140.141 213.309 C 140.368 212.932,139.549 212.844,136.605 212.930 C 133.588 213.019,132.817 212.932,132.975 212.521 C 133.087 212.229,132.898 212.000,132.545 212.000 C 132.184 212.000,132.002 212.228,132.119 212.533 C 132.232 212.827,132.079 213.067,131.779 213.067 C 131.480 213.067,131.328 212.917,131.441 212.733 C 131.555 212.550,131.232 212.380,130.724 212.356 C 130.216 212.332,128.760 212.267,127.489 212.212 C 126.218 212.157,125.048 211.967,124.889 211.791 C 124.730 211.616,124.853 211.618,125.162 211.798 C 125.548 212.022,125.631 211.973,125.426 211.642 C 125.197 211.271,124.982 211.280,124.488 211.681 C 124.012 212.066,123.924 212.072,124.146 211.702 C 124.376 211.318,123.845 211.246,121.827 211.387 C 120.388 211.487,119.229 211.441,119.252 211.285 C 119.370 210.494,119.135 210.355,118.523 210.851 C 117.946 211.320,117.897 211.317,118.189 210.832 C 118.440 210.415,118.367 210.327,117.913 210.501 C 117.572 210.632,116.539 210.479,115.616 210.161 C 114.692 209.842,112.984 209.515,111.820 209.433 C 110.655 209.350,109.347 209.093,108.913 208.860 C 108.345 208.556,107.993 208.567,107.661 208.899 C 107.313 209.247,107.200 209.243,107.200 208.880 C 107.200 208.613,106.667 208.400,106.000 208.400 C 105.340 208.400,104.800 208.220,104.800 208.000 C 104.800 207.780,104.181 207.600,103.424 207.600 C 102.667 207.600,101.936 207.420,101.800 207.200 C 101.664 206.980,101.053 206.800,100.443 206.800 C 99.833 206.800,99.198 206.665,99.033 206.500 C 98.704 206.171,98.490 206.124,96.976 206.050 C 96.413 206.023,96.040 205.858,96.148 205.685 C 96.255 205.512,95.860 205.330,95.271 205.281 C 94.682 205.233,94.140 205.015,94.067 204.797 C 93.993 204.578,93.408 204.400,92.767 204.400 C 92.125 204.400,91.600 204.220,91.600 204.000 C 91.600 203.780,91.148 203.600,90.595 203.600 C 90.042 203.600,89.232 203.420,88.795 203.200 C 88.358 202.980,87.642 202.620,87.205 202.400 C 86.768 202.180,86.048 202.000,85.605 202.000 C 85.162 202.000,84.800 201.820,84.800 201.600 C 84.800 201.380,84.665 201.221,84.500 201.247 C 83.518 201.402,82.785 201.147,83.038 200.738 C 83.200 200.476,83.149 200.384,82.921 200.525 C 82.699 200.662,82.176 200.516,81.759 200.200 C 81.342 199.884,80.595 199.620,80.100 199.613 C 79.605 199.606,79.200 199.420,79.200 199.200 C 79.200 198.980,78.840 198.800,78.400 198.800 C 77.960 198.800,77.600 198.643,77.600 198.450 C 77.600 198.258,77.082 197.996,76.448 197.870 C 75.815 197.743,75.018 197.360,74.677 197.020 C 74.336 196.679,73.864 196.400,73.629 196.400 C 73.393 196.400,73.200 196.241,73.200 196.047 C 73.200 195.756,71.998 195.181,71.200 195.091 C 71.090 195.078,70.566 194.648,70.037 194.134 L 69.073 193.200 70.160 193.200 C 70.880 193.200,71.151 193.044,70.962 192.738 C 70.804 192.482,70.850 192.384,71.067 192.518 C 71.282 192.650,71.960 192.498,72.574 192.180 C 73.189 191.861,73.941 191.600,74.246 191.600 C 74.551 191.600,74.800 191.420,74.800 191.200 C 74.800 190.980,75.126 190.800,75.524 190.800 C 75.921 190.800,76.596 190.536,77.024 190.213 C 77.451 189.890,78.115 189.620,78.500 189.613 C 78.885 189.606,79.200 189.420,79.200 189.200 C 79.200 188.980,79.517 188.800,79.904 188.800 C 80.291 188.800,80.832 188.440,81.107 188.000 C 81.382 187.560,81.941 187.200,82.349 187.200 C 82.758 187.200,83.550 186.840,84.109 186.400 C 84.669 185.960,85.291 185.600,85.493 185.600 C 85.695 185.600,86.283 185.151,86.799 184.602 C 87.314 184.052,87.823 183.690,87.930 183.796 C 88.036 183.903,88.637 183.452,89.265 182.795 C 89.893 182.138,90.563 181.600,90.754 181.600 C 90.945 181.600,91.866 180.880,92.800 180.000 C 93.734 179.120,94.757 178.400,95.073 178.400 C 95.389 178.400,95.536 178.220,95.400 178.000 C 95.264 177.780,95.444 177.600,95.800 177.600 C 96.156 177.600,96.336 177.420,96.200 177.200 C 96.064 176.980,96.151 176.800,96.394 176.800 C 96.636 176.800,98.402 175.261,100.317 173.379 C 102.233 171.497,103.485 170.077,103.100 170.222 C 102.117 170.592,102.224 169.769,103.253 169.048 C 103.820 168.650,104.016 168.219,103.839 167.757 C 103.687 167.362,103.793 166.924,104.086 166.738 C 104.369 166.559,85.025 166.409,61.100 166.406 C 26.588 166.401,17.590 166.503,17.553 166.900 M340.006 222.100 C 340.011 222.828,340.086 222.885,340.400 222.400 C 340.901 221.624,340.901 221.200,340.400 221.200 C 340.180 221.200,340.003 221.605,340.006 222.100 M55.800 235.200 C 55.664 235.420,55.823 235.600,56.153 235.600 C 56.483 235.600,56.864 235.420,57.000 235.200 C 57.136 234.980,56.977 234.800,56.647 234.800 C 56.317 234.800,55.936 234.980,55.800 235.200 M60.651 235.117 C 60.544 235.291,60.799 235.460,61.220 235.492 C 61.640 235.523,62.088 235.381,62.216 235.175 C 62.343 234.969,62.087 234.800,61.647 234.800 C 61.207 234.800,60.759 234.943,60.651 235.117 " stroke="none" fill="#14c9c9" fill-rule="evenodd"></path></g></svg>